<svg width="130" height="132" viewBox="0 0 130 132" fill="none" xmlns="http://www.w3.org/2000/svg">
<g filter="url(#filter0_biii_1761:1691)">
<ellipse cx="65" cy="66" rx="65" ry="65.5" fill="#041021" fill-opacity="0.1"/>
</g>
<path d="M71.4971 80.5101L58.4577 80.5575C56.324 80.7472 56.4188 77.1436 56.4188 73.1606V64.6257C56.4188 60.6428 59.6905 57.3711 63.6735 57.3711H65.9495C68.0832 57.3711 69.9798 58.3194 71.3075 59.7419C72.4929 61.0221 73.2041 62.7291 73.2041 64.6257V73.1606C73.2515 77.191 73.4412 80.5101 71.4971 80.5101Z" stroke="white" stroke-miterlimit="10" stroke-linejoin="round"/>
<path d="M65.9492 57.3711C68.0829 57.5608 69.9796 58.3194 71.3072 59.7419C74.9108 62.5394 76.5704 72.9235 79.1309 75.7685C82.6871 79.704 86.0062 79.9885 86.0062 79.9885" stroke="white" stroke-miterlimit="10" stroke-linejoin="round"/>
<path d="M63.2464 57.3711C61.1127 57.5608 59.2161 58.3194 57.8884 59.7419C54.2848 62.5394 52.6252 72.9235 50.0648 75.7685C46.5086 79.7514 43.1895 80.0359 43.1895 80.0359" stroke="white" stroke-miterlimit="10" stroke-linejoin="round"/>
<path d="M86.2434 85.4893C86.2434 88.5714 78.2301 92.744 67.7986 93.5026C66.7554 93.5974 66.3287 90.7525 64.6217 90.7525C62.9147 90.7525 62.5828 93.5974 61.6345 93.5026C51.1081 92.8388 43 88.6188 43 85.4893C43 82.1228 52.6254 80.6055 64.5743 80.6055C76.5231 80.6055 86.2434 82.1228 86.2434 85.4893Z" stroke="white" stroke-miterlimit="10" stroke-linejoin="round"/>
<path d="M64.764 53.199C68.823 53.199 72.1135 49.9085 72.1135 45.8495C72.1135 41.7905 68.823 38.5 64.764 38.5C60.705 38.5 57.4146 41.7905 57.4146 45.8495C57.4146 49.9085 60.705 53.199 64.764 53.199Z" stroke="white" stroke-miterlimit="10" stroke-linejoin="round"/>
<defs>
<filter id="filter0_biii_1761:1691" x="-10" y="-9.5" width="150" height="151" filterUnits="userSpaceOnUse" color-interpolation-filters="sRGB">
<feFlood flood-opacity="0" result="BackgroundImageFix"/>
<feGaussianBlur in="BackgroundImage" stdDeviation="5"/>
<feComposite in2="SourceAlpha" operator="in" result="effect1_backgroundBlur_1761:1691"/>
<feBlend mode="normal" in="SourceGraphic" in2="effect1_backgroundBlur_1761:1691" result="shape"/>
<feColorMatrix in="SourceAlpha" type="matrix" values="0 0 0 0 0 0 0 0 0 0 0 0 0 0 0 0 0 0 127 0" result="hardAlpha"/>
<feMorphology radius="3" operator="erode" in="SourceAlpha" result="effect2_innerShadow_1761:1691"/>
<feOffset dx="-5" dy="5"/>
<feGaussianBlur stdDeviation="6"/>
<feComposite in2="hardAlpha" operator="arithmetic" k2="-1" k3="1"/>
<feColorMatrix type="matrix" values="0 0 0 0 0.776471 0 0 0 0 0.686275 0 0 0 0 1 0 0 0 0.22 0"/>
<feBlend mode="normal" in2="shape" result="effect2_innerShadow_1761:1691"/>
<feColorMatrix in="SourceAlpha" type="matrix" values="0 0 0 0 0 0 0 0 0 0 0 0 0 0 0 0 0 0 127 0" result="hardAlpha"/>
<feOffset dx="2" dy="-5"/>
<feGaussianBlur stdDeviation="7.5"/>
<feComposite in2="hardAlpha" operator="arithmetic" k2="-1" k3="1"/>
<feColorMatrix type="matrix" values="0 0 0 0 0.294118 0 0 0 0 0.572549 0 0 0 0 1 0 0 0 0.22 0"/>
<feBlend mode="normal" in2="effect2_innerShadow_1761:1691" result="effect3_innerShadow_1761:1691"/>
<feColorMatrix in="SourceAlpha" type="matrix" values="0 0 0 0 0 0 0 0 0 0 0 0 0 0 0 0 0 0 127 0" result="hardAlpha"/>
<feMorphology radius="6" operator="dilate" in="SourceAlpha" result="effect4_innerShadow_1761:1691"/>
<feOffset dx="7"/>
<feGaussianBlur stdDeviation="9"/>
<feComposite in2="hardAlpha" operator="arithmetic" k2="-1" k3="1"/>
<feColorMatrix type="matrix" values="0 0 0 0 0.156863 0 0 0 0 0.898039 0 0 0 0 0.733333 0 0 0 0.22 0"/>
<feBlend mode="normal" in2="effect3_innerShadow_1761:1691" result="effect4_innerShadow_1761:1691"/>
</filter>
</defs>
</svg>
