<svg width="105" height="151" viewBox="0 0 105 151" fill="none" xmlns="http://www.w3.org/2000/svg">
<g filter="url(#filter0_biii_1761:1778)">
<ellipse cx="30.5" cy="75.6963" rx="74.5" ry="75.1963" fill="#041021" fill-opacity="0.1"/>
</g>
<path d="M38.3112 57.0977H36.2915C34.3263 57.0977 32.4157 57.4798 30.6688 58.1348C28.922 57.4798 27.066 57.0977 25.0462 57.0977H23.0264C14.456 57.0977 7.52319 64.085 7.52319 72.6554V87.6128C7.52319 96.1832 14.456 103.171 23.081 103.171H25.1008C27.066 103.171 28.9766 102.788 30.7234 102.133C32.4702 102.788 34.3808 103.171 36.346 103.171H38.3658C46.9363 103.171 53.9236 96.2378 53.9236 87.6128V72.6554C53.8144 64.085 46.8817 57.0977 38.3112 57.0977Z" stroke="white" stroke-miterlimit="10" stroke-linejoin="round"/>
<path d="M24.2821 66.4297C21.2797 67.849 18.8232 70.5784 17.4585 74.0175" stroke="white" stroke-miterlimit="10" stroke-linejoin="round"/>
<path d="M30.6686 58.1886C30.6686 58.1886 28.3759 48.308 35.8546 43.668" stroke="white" stroke-miterlimit="10" stroke-linejoin="round"/>
<defs>
<filter id="filter0_biii_1761:1778" x="-54" y="-9.5" width="169" height="170.391" filterUnits="userSpaceOnUse" color-interpolation-filters="sRGB">
<feFlood flood-opacity="0" result="BackgroundImageFix"/>
<feGaussianBlur in="BackgroundImage" stdDeviation="5"/>
<feComposite in2="SourceAlpha" operator="in" result="effect1_backgroundBlur_1761:1778"/>
<feBlend mode="normal" in="SourceGraphic" in2="effect1_backgroundBlur_1761:1778" result="shape"/>
<feColorMatrix in="SourceAlpha" type="matrix" values="0 0 0 0 0 0 0 0 0 0 0 0 0 0 0 0 0 0 127 0" result="hardAlpha"/>
<feMorphology radius="3" operator="erode" in="SourceAlpha" result="effect2_innerShadow_1761:1778"/>
<feOffset dx="-5" dy="5"/>
<feGaussianBlur stdDeviation="6"/>
<feComposite in2="hardAlpha" operator="arithmetic" k2="-1" k3="1"/>
<feColorMatrix type="matrix" values="0 0 0 0 0.776471 0 0 0 0 0.686275 0 0 0 0 1 0 0 0 0.22 0"/>
<feBlend mode="normal" in2="shape" result="effect2_innerShadow_1761:1778"/>
<feColorMatrix in="SourceAlpha" type="matrix" values="0 0 0 0 0 0 0 0 0 0 0 0 0 0 0 0 0 0 127 0" result="hardAlpha"/>
<feOffset dx="2" dy="-5"/>
<feGaussianBlur stdDeviation="7.5"/>
<feComposite in2="hardAlpha" operator="arithmetic" k2="-1" k3="1"/>
<feColorMatrix type="matrix" values="0 0 0 0 0.294118 0 0 0 0 0.572549 0 0 0 0 1 0 0 0 0.22 0"/>
<feBlend mode="normal" in2="effect2_innerShadow_1761:1778" result="effect3_innerShadow_1761:1778"/>
<feColorMatrix in="SourceAlpha" type="matrix" values="0 0 0 0 0 0 0 0 0 0 0 0 0 0 0 0 0 0 127 0" result="hardAlpha"/>
<feMorphology radius="6" operator="dilate" in="SourceAlpha" result="effect4_innerShadow_1761:1778"/>
<feOffset dx="7"/>
<feGaussianBlur stdDeviation="9"/>
<feComposite in2="hardAlpha" operator="arithmetic" k2="-1" k3="1"/>
<feColorMatrix type="matrix" values="0 0 0 0 0.156863 0 0 0 0 0.898039 0 0 0 0 0.733333 0 0 0 0.22 0"/>
<feBlend mode="normal" in2="effect3_innerShadow_1761:1778" result="effect4_innerShadow_1761:1778"/>
</filter>
</defs>
</svg>
