<svg width="110" height="111" viewBox="0 0 110 111" fill="none" xmlns="http://www.w3.org/2000/svg">
<g filter="url(#filter0_biii_1761:1761)">
<ellipse cx="54.5619" cy="55.5865" rx="54.5619" ry="55.0865" fill="#041021" fill-opacity="0.1"/>
</g>
<path d="M59.696 46.4643L42.824 63.3359L46.3186 66.8305L63.1906 49.9588L59.696 46.4643Z" stroke="white" stroke-miterlimit="10" stroke-linejoin="round"/>
<path d="M50.8635 71.3509C51.9338 72.4211 51.9338 74.1524 50.8635 75.1912L49.7618 76.293C48.6915 77.3632 46.9602 77.3632 45.9214 76.293L33.33 63.7646C32.2598 62.6943 32.2598 60.963 33.33 59.8927L34.4318 58.791C35.5021 57.7207 37.2334 57.7207 38.2722 58.791L50.8635 71.3509Z" stroke="white" stroke-miterlimit="10" stroke-linejoin="round"/>
<path d="M42.4903 72.893C43.5606 73.9633 43.7809 75.4743 42.9625 76.2612C42.1755 77.0482 40.6331 76.8278 39.5943 75.789L33.8652 70.06C32.795 68.9897 32.5746 67.4787 33.3931 66.6918C34.18 65.9048 35.7225 66.1252 36.7612 67.164L42.4903 72.893Z" stroke="white" stroke-miterlimit="10" stroke-linejoin="round"/>
<path d="M36.7301 72.9258L35.0933 74.5627" stroke="white" stroke-miterlimit="10" stroke-linejoin="round"/>
<path d="M55.1757 41.9206C54.1055 40.8503 54.1055 39.119 55.1757 38.0802L56.2775 36.9785C57.3478 35.9082 59.0791 35.9082 60.1179 36.9785L72.6777 49.5384C73.748 50.6086 73.748 52.3399 72.6777 53.3787L71.576 54.4805C70.5057 55.5507 68.7744 55.5507 67.7356 54.4805L55.1757 41.9206Z" stroke="white" stroke-miterlimit="10" stroke-linejoin="round"/>
<path d="M63.5496 40.3764C62.4793 39.3061 62.2589 37.7952 63.0774 37.0082C63.8643 36.2212 65.4068 36.4416 66.4456 37.4804L72.1746 43.2094C73.2449 44.2797 73.4653 45.7907 72.6468 46.5776C71.8599 47.3646 70.3174 47.1442 69.2786 46.1055L63.5496 40.3764Z" stroke="white" stroke-miterlimit="10" stroke-linejoin="round"/>
<path d="M69.3101 40.3478L70.9469 38.7109" stroke="white" stroke-miterlimit="10" stroke-linejoin="round"/>
<defs>
<filter id="filter0_biii_1761:1761" x="-10" y="-9.5" width="129.124" height="130.172" filterUnits="userSpaceOnUse" color-interpolation-filters="sRGB">
<feFlood flood-opacity="0" result="BackgroundImageFix"/>
<feGaussianBlur in="BackgroundImage" stdDeviation="5"/>
<feComposite in2="SourceAlpha" operator="in" result="effect1_backgroundBlur_1761:1761"/>
<feBlend mode="normal" in="SourceGraphic" in2="effect1_backgroundBlur_1761:1761" result="shape"/>
<feColorMatrix in="SourceAlpha" type="matrix" values="0 0 0 0 0 0 0 0 0 0 0 0 0 0 0 0 0 0 127 0" result="hardAlpha"/>
<feMorphology radius="3" operator="erode" in="SourceAlpha" result="effect2_innerShadow_1761:1761"/>
<feOffset dx="-5" dy="5"/>
<feGaussianBlur stdDeviation="6"/>
<feComposite in2="hardAlpha" operator="arithmetic" k2="-1" k3="1"/>
<feColorMatrix type="matrix" values="0 0 0 0 0.776471 0 0 0 0 0.686275 0 0 0 0 1 0 0 0 0.22 0"/>
<feBlend mode="normal" in2="shape" result="effect2_innerShadow_1761:1761"/>
<feColorMatrix in="SourceAlpha" type="matrix" values="0 0 0 0 0 0 0 0 0 0 0 0 0 0 0 0 0 0 127 0" result="hardAlpha"/>
<feOffset dx="2" dy="-5"/>
<feGaussianBlur stdDeviation="7.5"/>
<feComposite in2="hardAlpha" operator="arithmetic" k2="-1" k3="1"/>
<feColorMatrix type="matrix" values="0 0 0 0 0.294118 0 0 0 0 0.572549 0 0 0 0 1 0 0 0 0.22 0"/>
<feBlend mode="normal" in2="effect2_innerShadow_1761:1761" result="effect3_innerShadow_1761:1761"/>
<feColorMatrix in="SourceAlpha" type="matrix" values="0 0 0 0 0 0 0 0 0 0 0 0 0 0 0 0 0 0 127 0" result="hardAlpha"/>
<feMorphology radius="6" operator="dilate" in="SourceAlpha" result="effect4_innerShadow_1761:1761"/>
<feOffset dx="7"/>
<feGaussianBlur stdDeviation="9"/>
<feComposite in2="hardAlpha" operator="arithmetic" k2="-1" k3="1"/>
<feColorMatrix type="matrix" values="0 0 0 0 0.156863 0 0 0 0 0.898039 0 0 0 0 0.733333 0 0 0 0.22 0"/>
<feBlend mode="normal" in2="effect3_innerShadow_1761:1761" result="effect4_innerShadow_1761:1761"/>
</filter>
</defs>
</svg>
