<svg width="48" height="61" viewBox="0 0 48 61" fill="none" xmlns="http://www.w3.org/2000/svg">
<path d="M31.3112 14.0977H29.2915C27.3263 14.0977 25.4157 14.4798 23.6688 15.1348C21.922 14.4798 20.066 14.0977 18.0462 14.0977H16.0264C7.45596 14.0977 0.523193 21.085 0.523193 29.6554V44.6128C0.523193 53.1832 7.45596 60.1705 16.081 60.1705H18.1008C20.066 60.1705 21.9766 59.7884 23.7234 59.1334C25.4702 59.7884 27.3808 60.1705 29.346 60.1705H31.3658C39.9363 60.1705 46.9236 53.2378 46.9236 44.6128V29.6554C46.8144 21.085 39.8817 14.0977 31.3112 14.0977Z" stroke="white" stroke-miterlimit="10" stroke-linejoin="round"/>
<path d="M17.2821 23.4297C14.2797 24.849 11.8232 27.5784 10.4585 31.0175" stroke="white" stroke-miterlimit="10" stroke-linejoin="round"/>
<path d="M23.6686 15.1886C23.6686 15.1886 21.3759 5.30801 28.8546 0.667969" stroke="white" stroke-miterlimit="10" stroke-linejoin="round"/>
</svg>
