<svg width="63" height="88" viewBox="0 0 63 88" fill="none" xmlns="http://www.w3.org/2000/svg">
<path d="M34.0492 51.3282C36.1941 48.8997 39.9406 48.811 42.3782 50.9735C44.8919 53.2037 45.1175 56.9477 43.0376 59.3026C40.8928 61.7312 37.1462 61.8199 34.7087 59.6573C32.2712 57.4948 31.9044 53.7567 34.0492 51.3282Z" stroke="white" stroke-miterlimit="10" stroke-linejoin="round"/>
<path d="M3.5692 53.1682C5.32407 51.1813 8.49473 50.9755 10.6275 52.8677C12.6842 54.6923 13.0063 57.8655 11.1864 59.926C9.36654 61.9865 6.26086 62.1188 4.12805 60.2266C2.1364 58.3284 1.81433 55.1551 3.5692 53.1682Z" stroke="white" stroke-miterlimit="10" stroke-linejoin="round"/>
<path d="M14.9197 35.7011C16.6746 33.7142 19.7803 33.5819 21.8369 35.4066C23.8936 37.2312 24.1395 40.3369 22.3846 42.3238C20.6297 44.3107 17.524 44.443 15.4674 42.6183C13.4107 40.7937 13.1648 37.688 14.9197 35.7011Z" stroke="white" stroke-miterlimit="10" stroke-linejoin="round"/>
<path d="M32.6803 55.7724L12.3937 56.1407" stroke="white" stroke-miterlimit="10" stroke-linejoin="round"/>
<path d="M10.1527 52.2773L15.3447 42.6802" stroke="white" stroke-miterlimit="10" stroke-linejoin="round"/>
<path d="M51.6816 27.269C53.2417 25.5027 56.0649 25.3821 57.8928 27.0038C59.7207 28.6254 59.9438 31.4486 58.3838 33.2149C56.8237 34.9812 54.0005 35.1018 52.1726 33.4801C50.4097 31.7849 50.1216 29.0352 51.6816 27.269Z" stroke="white" stroke-miterlimit="10" stroke-linejoin="round"/>
<path d="M29.5242 20.4509C31.1493 18.6111 33.9726 18.4905 35.8766 20.1797C37.7806 21.8689 38.0038 24.6921 36.3787 26.532C34.7537 28.3719 31.9304 28.4924 30.0263 26.8032C28.1223 25.114 27.9641 22.2172 29.5242 20.4509Z" stroke="white" stroke-miterlimit="10" stroke-linejoin="round"/>
<path d="M38.041 49.4805L33.5104 27.9102" stroke="white" stroke-miterlimit="10" stroke-linejoin="round"/>
<path d="M37.3373 24.4742L50.9125 28.9584" stroke="white" stroke-miterlimit="10" stroke-linejoin="round"/>
</svg>
