<svg width="45" height="57" viewBox="0 0 45 57" fill="none" xmlns="http://www.w3.org/2000/svg">
<path d="M29.4971 42.5101L16.4577 42.5575C14.324 42.7472 14.4188 39.1436 14.4188 35.1606V26.6257C14.4188 22.6428 17.6905 19.3711 21.6735 19.3711H23.9495C26.0832 19.3711 27.9798 20.3194 29.3075 21.7419C30.4929 23.0221 31.2041 24.7291 31.2041 26.6257V35.1606C31.2515 39.191 31.4412 42.5101 29.4971 42.5101Z" stroke="white" stroke-miterlimit="10" stroke-linejoin="round"/>
<path d="M23.9492 19.3711C26.0829 19.5608 27.9796 20.3194 29.3072 21.7419C32.9108 24.5394 34.5704 34.9235 37.1309 37.7685C40.6871 41.704 44.0062 41.9885 44.0062 41.9885" stroke="white" stroke-miterlimit="10" stroke-linejoin="round"/>
<path d="M21.2464 19.3711C19.1127 19.5608 17.2161 20.3194 15.8884 21.7419C12.2848 24.5394 10.6252 34.9235 8.06477 37.7685C4.50857 41.7514 1.18945 42.0359 1.18945 42.0359" stroke="white" stroke-miterlimit="10" stroke-linejoin="round"/>
<path d="M44.2434 47.4893C44.2434 50.5714 36.2301 54.744 25.7986 55.5026C24.7554 55.5974 24.3287 52.7525 22.6217 52.7525C20.9147 52.7525 20.5828 55.5974 19.6345 55.5026C9.10813 54.8388 1 50.6188 1 47.4893C1 44.1228 10.6254 42.6055 22.5743 42.6055C34.5231 42.6055 44.2434 44.1228 44.2434 47.4893Z" stroke="white" stroke-miterlimit="10" stroke-linejoin="round"/>
<path d="M22.764 15.199C26.823 15.199 30.1135 11.9085 30.1135 7.84948C30.1135 3.79047 26.823 0.5 22.764 0.5C18.705 0.5 15.4146 3.79047 15.4146 7.84948C15.4146 11.9085 18.705 15.199 22.764 15.199Z" stroke="white" stroke-miterlimit="10" stroke-linejoin="round"/>
</svg>
