<svg width="42" height="43" viewBox="0 0 42 43" fill="none" xmlns="http://www.w3.org/2000/svg">
<path d="M27.696 11.4643L10.824 28.3359L14.3186 31.8305L31.1906 14.9588L27.696 11.4643Z" stroke="white" stroke-miterlimit="10" stroke-linejoin="round"/>
<path d="M18.8635 36.3509C19.9338 37.4211 19.9338 39.1524 18.8635 40.1912L17.7618 41.293C16.6915 42.3632 14.9602 42.3632 13.9214 41.293L1.33004 28.7646C0.259777 27.6943 0.259777 25.963 1.33004 24.8927L2.43179 23.791C3.50205 22.7207 5.23337 22.7207 6.27215 23.791L18.8635 36.3509Z" stroke="white" stroke-miterlimit="10" stroke-linejoin="round"/>
<path d="M10.4903 37.893C11.5606 38.9633 11.7809 40.4743 10.9625 41.2612C10.1755 42.0482 8.63309 41.8278 7.5943 40.789L1.86523 35.06C0.794965 33.9897 0.574616 32.4787 1.39305 31.6918C2.18002 30.9048 3.72246 31.1252 4.76124 32.164L10.4903 37.893Z" stroke="white" stroke-miterlimit="10" stroke-linejoin="round"/>
<path d="M4.73014 37.9258L3.09326 39.5627" stroke="white" stroke-miterlimit="10" stroke-linejoin="round"/>
<path d="M23.1757 6.92059C22.1055 5.85033 22.1055 4.11901 23.1757 3.08023L24.2775 1.97848C25.3478 0.908215 27.0791 0.908215 28.1179 1.97848L40.6777 14.5384C41.748 15.6086 41.748 17.3399 40.6777 18.3787L39.576 19.4805C38.5057 20.5507 36.7744 20.5507 35.7356 19.4805L23.1757 6.92059Z" stroke="white" stroke-miterlimit="10" stroke-linejoin="round"/>
<path d="M31.5496 5.37638C30.4793 4.30612 30.2589 2.79515 31.0774 2.00819C31.8643 1.22123 33.4068 1.44158 34.4456 2.48037L40.1746 8.20944C41.2449 9.2797 41.4653 10.7907 40.6468 11.5776C39.8599 12.3646 38.3174 12.1442 37.2786 11.1055L31.5496 5.37638Z" stroke="white" stroke-miterlimit="10" stroke-linejoin="round"/>
<path d="M37.3101 5.34781L38.9469 3.71094" stroke="white" stroke-miterlimit="10" stroke-linejoin="round"/>
</svg>
