<svg width="215" height="1002" viewBox="0 0 215 1002" fill="none" xmlns="http://www.w3.org/2000/svg">
<path d="M664.43 33.0997C663.962 34.0364 663.926 35.0811 664.214 36.0538L622.317 50.7881C622.136 50.3919 621.812 50.0676 621.416 49.8515C620.515 49.4192 619.435 49.6714 618.858 50.4639L579.627 24.5977C579.663 24.5257 579.735 24.4536 579.771 24.3816C580.743 22.4362 579.951 20.0585 577.969 19.0859C576.024 18.1132 573.646 18.9057 572.674 20.8511C572.458 21.2834 572.349 21.7157 572.313 22.148L248.158 2.58626C248.158 1.82973 247.725 1.10922 247.005 0.748968C245.996 0.244614 244.735 0.640892 244.231 1.68563C243.835 2.44216 243.979 3.34279 244.519 3.95522L104.453 125.108C103.912 124.496 103.264 123.992 102.507 123.631C99.3011 122.046 95.4104 123.343 93.8252 126.549C93.1047 128.026 92.9967 129.648 93.3929 131.125L28.6555 148.777C28.3672 147.768 27.6467 146.832 26.638 146.327C24.6927 145.355 22.315 146.147 21.3423 148.129C20.3696 150.074 21.1622 152.452 23.1436 153.424C23.4318 153.568 23.756 153.676 24.0802 153.749L4.95079 241.146C3.18555 240.714 1.31223 241.542 0.483651 243.235C-0.489032 245.181 0.303525 247.558 2.28492 248.531C3.94208 249.36 5.92348 248.891 7.07629 247.522L75.02 295.22C74.8039 295.508 74.6237 295.796 74.4796 296.121C72.6063 299.939 74.1914 304.586 78.0462 306.496C81.6127 308.261 85.8997 307.072 87.9891 303.866L169.01 353.581C168.974 353.617 168.974 353.653 168.938 353.689C167.965 355.634 168.758 358.012 170.739 358.985C172.685 359.957 175.062 359.165 176.035 357.183C176.467 356.355 176.539 355.418 176.323 354.59L247.581 334.776C247.942 335.965 248.734 336.973 249.923 337.586C250.247 337.766 250.607 337.874 250.932 337.946L239.512 397.1L227.803 391.335C228.164 390.363 227.731 389.246 226.795 388.778C225.786 388.273 224.525 388.67 224.021 389.714C223.516 390.687 223.913 391.876 224.849 392.416L191.598 448.436C190.986 448.147 190.301 448.183 189.761 448.472L186.266 443.356C187.275 442.636 188.104 441.699 188.68 440.546C190.589 436.727 188.968 432.044 185.113 430.099C181.223 428.189 176.539 429.702 174.63 433.557C173.657 435.466 173.621 437.628 174.27 439.501L146.891 449.012C146.602 448.544 146.206 448.183 145.666 447.895C144.117 447.139 142.279 447.751 141.523 449.3C140.766 450.813 141.379 452.615 142.82 453.407L128.59 496.025C125.059 495.016 121.168 496.637 119.511 499.988C118.611 501.789 118.503 503.807 119.043 505.644L35.14 533.635C34.8518 532.987 34.3835 532.411 33.699 532.05C32.1859 531.294 30.3486 531.906 29.5921 533.419C28.8356 534.932 29.448 536.77 30.9611 537.526C31.4294 537.742 31.8977 537.85 32.4021 537.814L42.1289 642.216C40.9041 642.396 39.7512 643.152 39.1748 644.377C38.2022 646.323 38.9947 648.7 40.9761 649.673C42.7413 650.538 44.8668 649.961 45.9476 648.412L97.6799 680.727V680.763C97.0675 682.024 97.5719 683.537 98.8328 684.185C99.6253 684.582 100.49 684.509 101.21 684.113L170.631 786.425C169.659 787.146 168.866 788.046 168.29 789.199C166.38 793.018 168.001 797.701 171.856 799.646C175.711 801.592 180.43 800.043 182.339 796.188C182.952 794.927 183.204 793.558 183.096 792.225L316.246 779.472C316.282 780.193 316.678 780.913 317.398 781.238C317.506 781.274 317.578 781.31 317.687 781.346L291.892 911.757C290.451 911.253 288.83 911.865 288.146 913.27C287.389 914.783 288.038 916.621 289.587 917.413C291.136 918.17 292.973 917.557 293.73 916.044C293.802 915.936 293.838 915.792 293.874 915.648L453.286 995.552C452.457 997.461 453.25 999.731 455.159 1000.67C457.104 1001.64 459.482 1000.85 460.455 998.866C460.923 997.93 460.959 996.885 460.707 995.984L672.68 927.32C673.04 928.221 673.689 928.977 674.589 929.446C676.535 930.418 678.912 929.626 679.885 927.644C680.858 925.699 680.065 923.321 678.12 922.349C678.048 922.313 677.94 922.277 677.832 922.241L769.804 656.41C773.479 657.671 777.586 656.086 779.315 652.555C781.224 648.736 779.603 644.053 775.748 642.108C772.83 640.667 769.48 641.171 767.174 643.152L657.693 523.945C657.802 523.837 657.91 523.693 657.982 523.548C658.378 522.756 658.234 521.855 657.657 521.243L759.609 404.124C759.825 404.269 760.041 404.413 760.294 404.557C762.239 405.529 764.617 404.737 765.589 402.792C766.562 400.846 765.769 398.468 763.788 397.496C763.14 397.172 762.419 397.063 761.735 397.1L718.901 70.458C719.477 70.3139 720.017 69.9536 720.305 69.3772C720.81 68.3685 720.414 67.1076 719.369 66.6033C718.36 66.0989 717.099 66.4952 716.595 67.5399C716.307 68.1163 716.343 68.8008 716.595 69.3412L689.216 88.3986C688.495 87.4619 687.558 86.6694 686.442 86.093C684.784 85.2644 682.983 85.0842 681.326 85.4445L669.33 38.6116C670.302 38.2873 671.131 37.6029 671.599 36.6302C672.572 34.6848 671.779 32.3071 669.798 31.3345C667.781 30.3258 665.403 31.1183 664.43 33.0997ZM572.277 22.5803C572.277 24.0573 573.07 25.4623 574.475 26.1468C576.204 27.0114 578.294 26.471 579.41 24.958L618.606 50.7881C618.39 51.2204 618.354 51.6527 618.462 52.085L513.989 88.8309C513.304 87.1017 511.971 85.5886 510.17 84.688C506.279 82.7786 501.596 84.2917 499.686 88.1464C499.542 88.3986 499.434 88.6507 499.362 88.9389L248.05 3.19869C248.05 3.16266 248.086 3.09061 248.086 3.05459L572.277 22.5803ZM596.09 461.693C595.982 461.909 595.946 462.125 595.91 462.341L542.809 460.648C542.701 460 542.304 459.423 541.692 459.099C540.683 458.595 539.422 458.991 538.918 460.036C538.846 460.18 538.774 460.36 538.738 460.54L491.977 459.027C492.013 458.667 491.977 458.307 491.941 457.91L530.56 449.805C530.74 450.201 531.065 450.525 531.461 450.705C532.469 451.21 533.73 450.813 534.235 449.769C534.379 449.516 534.415 449.228 534.451 448.976L573.106 440.87L596.27 461.405C596.198 461.513 596.126 461.585 596.09 461.693ZM654.163 521.891C653.731 522.9 654.163 524.053 655.136 524.557C655.28 524.629 655.388 524.665 655.532 524.701L648.363 564.761C647.714 564.725 647.102 565.014 646.67 565.518L490.86 462.269C491.04 462.017 491.184 461.765 491.329 461.477C491.653 460.828 491.869 460.144 491.941 459.459L538.702 460.972C538.702 461.729 539.098 462.449 539.855 462.846C540.827 463.314 541.944 462.99 542.521 462.089L654.163 521.891ZM769.012 655.653C767.21 654.753 765.914 653.203 765.301 651.438L768.904 650.357C769.228 651.186 769.804 651.907 770.669 652.303C770.705 652.303 770.705 652.303 770.741 652.339L769.516 655.869C769.336 655.797 769.156 655.725 769.012 655.653ZM769.444 646.863L766.274 644.774C766.526 644.449 766.778 644.125 767.102 643.837L769.66 646.647C769.588 646.719 769.516 646.791 769.444 646.863ZM769.228 647.223C769.156 647.331 769.084 647.403 769.048 647.511C768.651 648.304 768.615 649.133 768.796 649.925L765.193 651.006C764.725 649.349 764.833 647.512 765.661 645.818C765.769 645.566 765.914 645.35 766.058 645.098L769.228 647.223ZM765.229 645.638C764.364 647.403 764.22 649.385 764.725 651.15L627.108 692.183C626.892 691.823 626.568 691.498 626.135 691.282C626.135 691.282 626.135 691.282 626.099 691.282L648.039 568.868C648.723 568.94 649.408 568.652 649.84 568.148L765.661 644.882C765.517 645.134 765.337 645.386 765.229 645.638ZM292.901 912.37L367.582 776.158C368.338 776.482 369.203 776.302 369.815 775.762L407.498 805.23C407.245 805.555 407.029 805.915 406.849 806.311C405.444 809.157 405.949 812.435 407.894 814.741L293.189 912.622C293.081 912.55 293.009 912.442 292.901 912.37ZM318.839 777.419L327.377 734.152C328.206 734.224 329.035 733.828 329.431 733.036C329.647 732.603 329.683 732.099 329.575 731.667L364.267 717.869L367.942 772.267C367.329 772.375 366.753 772.772 366.465 773.384C366.321 773.672 366.249 773.996 366.249 774.285L320.136 778.716C319.956 778.247 319.632 777.851 319.128 777.599C319.092 777.491 318.947 777.455 318.839 777.419ZM35.068 536.157C35.3922 535.473 35.4642 534.716 35.2841 534.032L119.187 506.004C119.836 507.841 121.204 509.426 123.078 510.399C123.69 510.687 124.339 510.904 124.951 511.048L99.4812 679.394C99.3371 679.43 99.157 679.466 99.0129 679.502L33.771 537.49C34.3114 537.202 34.7798 536.734 35.068 536.157ZM123.186 504.671C123.51 505.5 124.087 506.22 124.951 506.616C125.167 506.725 125.383 506.797 125.6 506.869L125.023 510.579C124.447 510.435 123.834 510.255 123.294 509.967C121.529 509.066 120.232 507.589 119.619 505.86L123.186 504.671ZM129.779 496.926C132.048 498.042 133.453 500.168 133.813 502.474L130.031 502.834C129.815 501.789 129.166 500.816 128.085 500.276C127.941 500.204 127.797 500.168 127.653 500.096L128.842 496.529C129.166 496.673 129.454 496.782 129.779 496.926ZM196.714 459.459L219.518 492.891C219.337 493.071 219.157 493.251 219.049 493.503C218.941 493.755 218.869 493.972 218.833 494.224L181.655 497.826C181.511 497.286 181.151 496.782 180.61 496.493L196.714 459.459ZM256.083 335.496C257.2 333.227 256.299 330.453 254.03 329.336C252.481 328.579 250.715 328.759 249.383 329.696L203.198 267.985L214.186 269.21C213.754 272.416 215.411 275.73 218.473 277.243C222.364 279.153 227.047 277.64 228.956 273.785C229.425 272.884 229.677 271.912 229.713 270.939L337.104 283.043C337.104 284.52 337.897 285.925 339.302 286.61C340.13 287.042 341.067 287.114 341.932 286.898L353.135 309.378C352.811 309.558 352.559 309.846 352.379 310.206C351.875 311.215 352.271 312.476 353.316 312.98C353.46 313.052 353.568 313.088 353.712 313.125L351.658 326.67C351.046 326.778 350.47 327.174 350.181 327.787C349.713 328.723 350.037 329.876 350.902 330.417L310.337 408.7C309.725 408.447 309.077 408.484 308.536 408.772L254.858 337.009C255.363 336.613 255.759 336.109 256.083 335.496ZM171.424 351.672L144.333 271.155L160.292 263.914C160.472 264.31 160.796 264.67 161.229 264.887C161.517 265.031 161.841 265.103 162.165 265.103L171.82 351.564C171.712 351.6 171.568 351.636 171.424 351.672ZM82.9096 296.373C81.4325 295.724 79.7754 296.121 78.7667 297.273L75.6685 295.112C77.7219 292.482 81.4325 291.545 84.6028 293.058L82.9096 296.373ZM84.6748 301.164C85.1792 300.191 85.1431 299.075 84.7108 298.174L88.1332 296.625C89.0339 298.534 89.0699 300.84 88.0612 302.857C87.9891 303.001 87.9171 303.109 87.845 303.254L84.6388 301.272C84.6388 301.236 84.6388 301.2 84.6748 301.164ZM84.4947 297.778C84.2065 297.309 83.7742 296.877 83.2698 296.589L84.963 293.275C86.2599 293.995 87.2686 295.04 87.9171 296.265L84.4947 297.778ZM85.1792 292.842L102.651 258.366C103.66 258.834 104.849 258.402 105.353 257.393C105.425 257.249 105.461 257.069 105.497 256.925L140.442 260.852L143.828 270.903L88.3494 296.012C87.6289 294.752 86.5481 293.599 85.1792 292.842ZM7.94089 244.568L77.758 226.448C78.0822 227.42 78.7667 228.285 79.7754 228.789C81.7207 229.762 84.0984 228.969 85.0711 227.024C85.4674 226.195 85.5754 225.295 85.3953 224.466L117.062 216.252C117.638 218.27 119.043 220.035 121.06 221.08L104.092 254.511C103.12 254.223 102.075 254.619 101.607 255.556C101.535 255.7 101.463 255.88 101.427 256.024L7.94089 245.505C7.97692 245.217 7.97692 244.893 7.94089 244.568ZM534.523 407.619C533.658 409.384 534.379 411.51 536.144 412.41C537.549 413.095 539.17 412.807 540.215 411.798L543.061 414.32C540.899 416.553 537.441 417.238 534.487 415.761C530.848 413.959 529.335 409.564 531.137 405.962C531.389 405.457 531.713 404.989 532.073 404.557L534.919 407.079C534.775 407.223 534.631 407.403 534.523 407.619ZM540.575 411.474C540.719 411.293 540.863 411.077 541.008 410.825C541.764 409.276 541.296 407.439 539.963 406.43L542.16 403.404C544.97 405.493 546.015 409.312 544.394 412.518C544.142 413.059 543.781 413.527 543.421 413.995L540.575 411.474ZM539.566 406.178C539.494 406.142 539.422 406.07 539.35 406.034C537.909 405.313 536.288 405.637 535.207 406.718L532.361 404.196C534.523 401.927 538.017 401.206 541.008 402.683C541.26 402.828 541.512 402.972 541.764 403.116L539.566 406.178ZM532.001 403.872L458.401 338.63C458.726 338.27 458.978 337.838 459.23 337.37C459.446 336.937 459.59 336.505 459.698 336.073L572.782 360.462L542.016 402.755C541.764 402.575 541.476 402.431 541.188 402.287C538.017 400.702 534.307 401.459 532.001 403.872ZM530.524 447.967C530.308 448.436 530.272 448.94 530.38 449.408L491.869 457.478C491.545 455.497 490.284 453.731 488.375 452.759C486.97 452.074 485.456 451.93 484.051 452.254L455.231 340.72C455.808 340.54 456.384 340.288 456.888 339.963L530.992 447.283C530.848 447.463 530.668 447.679 530.524 447.967ZM646.418 565.878C645.913 566.887 646.309 568.148 647.354 568.652C647.462 568.688 647.534 568.724 647.642 568.76L625.703 691.102C625.127 690.958 624.514 691.03 623.974 691.282L488.879 464.071C489.527 463.674 490.104 463.17 490.608 462.557L646.418 565.878ZM370.211 775.149C370.716 774.141 370.32 772.88 369.275 772.375C368.987 772.231 368.698 772.159 368.41 772.159L364.736 717.653L392.295 706.701L419.602 716.572C418.341 720.211 419.962 724.318 423.565 726.119C424.826 726.767 426.195 726.983 427.492 726.911L429.725 748.707C429.113 748.815 428.572 749.211 428.248 749.823C427.744 750.832 428.14 752.093 429.185 752.597C429.509 752.742 429.833 752.814 430.158 752.814L430.23 753.39L415.856 802.312C412.865 801.52 409.695 802.529 407.75 804.906L370.067 775.437C370.103 775.329 370.175 775.257 370.211 775.149ZM328.206 730.082L336.78 686.635L362.862 696.038L364.303 717.365L329.503 731.198C329.323 730.802 328.999 730.442 328.566 730.19C328.422 730.154 328.314 730.118 328.206 730.082ZM187.527 585.584C188.067 584.503 188.031 583.314 187.599 582.27L228.056 562.384C228.236 562.708 228.524 562.996 228.92 563.176C229.893 563.645 231.046 563.32 231.586 562.42L284.904 592.213C283.859 594.338 284.615 596.86 286.561 598.121L254.246 654.464C254.21 654.428 254.138 654.392 254.102 654.356C253.381 653.996 252.517 654.104 251.904 654.572L186.879 586.521C187.095 586.232 187.347 585.944 187.527 585.584ZM100.706 679.502C100.454 679.43 100.202 679.358 99.9495 679.358L125.383 511.12C128.482 511.588 131.616 510.219 133.273 507.445L165.588 525.494C165.083 526.466 165.48 527.655 166.38 528.196L100.706 679.502ZM129.526 505.392L132.841 507.229C131.292 509.787 128.337 511.12 125.419 510.651L125.996 506.941C127.401 507.157 128.77 506.58 129.526 505.392ZM169.37 527.151C169.695 526.214 169.298 525.133 168.398 524.665L178.989 500.312C179.962 500.636 181.043 500.24 181.511 499.303C181.655 498.979 181.727 498.655 181.727 498.295L218.833 494.692C218.905 495.377 219.301 495.989 219.95 496.313C220.562 496.601 221.247 496.601 221.787 496.313L252.661 541.597C251.688 542.318 250.86 543.254 250.283 544.407C249.202 546.569 249.238 549.018 250.211 551.072L231.55 560.258C231.37 559.97 231.082 559.718 230.757 559.538C229.857 559.105 228.812 559.358 228.236 560.114L169.37 527.151ZM104.489 254.691L121.421 221.26C123.294 222.089 125.347 222.125 127.185 221.512L140.262 260.419L105.533 256.493C105.569 255.772 105.173 255.088 104.489 254.691ZM117.53 216.144L121.168 215.208C121.457 216.108 122.069 216.901 122.97 217.333L121.277 220.648C119.367 219.711 118.07 218.054 117.53 216.144ZM84.891 223.169L119.98 198.42L122.465 206.706C120.412 207.246 118.575 208.651 117.53 210.705C116.701 212.362 116.557 214.163 116.917 215.856L85.2512 224.07C85.2152 223.746 85.0711 223.457 84.891 223.169ZM105.425 132.313C105.786 131.557 106.002 130.8 106.074 130.008L201.325 135.231C201.325 135.592 201.469 135.988 201.649 136.276L160.4 168.015L105.065 132.962C105.209 132.746 105.317 132.53 105.425 132.313ZM368.734 80.545L435.705 281.891C435.561 281.963 435.417 282.035 435.273 282.143L301.439 143.049C301.619 142.833 301.799 142.545 301.944 142.292C302.592 140.996 302.448 139.555 301.727 138.438L366.897 80.0767C367.041 80.1848 367.185 80.3289 367.365 80.4009C367.834 80.6171 368.302 80.6531 368.734 80.545ZM450.296 231.275C451.268 229.33 450.476 226.952 448.494 225.979C448.458 225.979 448.422 225.943 448.386 225.943L473.82 163.908C474.036 163.98 474.217 163.98 474.433 163.98L488.411 282.575C487.726 282.827 487.114 283.115 486.537 283.548L449.215 232.608C449.647 232.248 450.008 231.815 450.296 231.275ZM488.447 283.043L488.879 286.79L486.789 283.908C487.33 283.548 487.87 283.26 488.447 283.043ZM488.699 287.222C488.375 287.51 488.086 287.871 487.906 288.267C487.726 288.627 487.618 289.024 487.582 289.42L483.835 288.988C483.943 288.159 484.16 287.366 484.52 286.574C484.988 285.601 485.673 284.809 486.501 284.16L488.699 287.222ZM487.546 289.852C487.546 290.825 487.978 291.798 488.699 292.446L486.285 295.292C484.592 293.779 483.655 291.617 483.763 289.384L487.546 289.852ZM485.961 295.688L457.429 329.444C457.069 329.156 456.708 328.94 456.312 328.723C454.799 327.967 453.106 327.859 451.593 328.327L437.399 285.637C437.831 285.457 438.191 285.133 438.407 284.664C438.479 284.52 438.515 284.376 438.551 284.232L483.259 289.348C483.151 291.725 484.124 294.067 485.961 295.688ZM505.306 747.049L434.481 721.508C435.561 717.941 433.94 713.978 430.446 712.249C429.113 711.601 427.708 711.348 426.339 711.456L424.718 695.641C425.294 695.497 425.799 695.137 426.087 694.597L463.733 702.882L505.487 746.761C505.451 746.833 505.378 746.905 505.306 747.049ZM231.766 562.023C231.946 561.555 231.91 561.015 231.73 560.582L250.391 551.396C251.148 552.801 252.301 554.026 253.85 554.782C256.371 556.043 259.217 555.827 261.451 554.458L286.128 590.664C285.732 590.988 285.372 591.384 285.084 591.816L231.766 562.023ZM337.753 280.954L250.679 225.223C250.896 224.754 250.932 224.25 250.824 223.782L296.972 202.455C297.152 202.779 297.44 203.067 297.837 203.247C298.413 203.535 299.061 203.499 299.638 203.247L338.509 280.125C338.221 280.341 337.969 280.63 337.753 280.954ZM205.216 136.06C205.324 135.844 205.36 135.664 205.396 135.448L250.715 137.933C250.752 138.654 251.112 139.338 251.76 139.699L224.525 208.687L160.76 168.303L201.901 136.636C202.045 136.781 202.225 136.925 202.406 137.033C203.486 137.501 204.711 137.069 205.216 136.06ZM296.9 200.437C296.648 200.942 296.612 201.518 296.792 202.022L250.643 223.349C250.535 223.133 250.391 222.917 250.175 222.737L296.576 144.022C296.612 144.022 296.612 144.058 296.648 144.058C297.296 144.382 297.945 144.49 298.629 144.454L298.557 199.321C297.873 199.393 297.224 199.789 296.9 200.437ZM296.215 143.806L249.851 222.485C249.815 222.449 249.779 222.449 249.743 222.413C248.842 221.98 247.797 222.233 247.185 222.989L224.921 208.867L252.193 139.843C253.129 140.131 254.174 139.699 254.642 138.798C254.75 138.582 254.786 138.366 254.822 138.15L294.45 140.311C294.378 141.68 295.027 143.013 296.215 143.806ZM224.381 209.047L217.032 227.6C216.347 227.42 215.627 227.564 215.122 228.033L152.51 174.643L160.436 168.555L224.381 209.047ZM217.464 227.781L224.777 209.3L246.969 223.349C246.789 223.71 246.717 224.106 246.753 224.502L218.473 229.113C218.365 228.573 218.005 228.069 217.464 227.781ZM300.611 202.275C301.115 201.266 300.719 200.005 299.674 199.501C299.458 199.393 299.206 199.321 298.989 199.285L299.061 144.418C299.71 144.31 300.358 144.022 300.863 143.625L449.215 329.588C449.035 329.768 448.819 329.948 448.675 330.128L300.466 202.491C300.539 202.419 300.575 202.347 300.611 202.275ZM434.733 282.827C434.228 283.836 434.625 285.097 435.669 285.601C436.102 285.817 436.57 285.853 437.002 285.781L451.196 328.471C450.62 328.687 450.08 328.976 449.575 329.336L301.583 143.842L434.985 282.467C434.877 282.575 434.805 282.683 434.733 282.827ZM451.016 340.54L427.6 404.809C426.159 404.377 424.61 404.809 423.601 405.854L400.185 385.896C400.257 385.788 400.329 385.68 400.401 385.535C400.761 384.815 400.653 384.022 400.221 383.41L448.783 339.027C449.287 339.531 449.863 339.963 450.512 340.288C450.692 340.396 450.872 340.468 451.016 340.54ZM358.936 591.564L423.781 637.785L423.889 660.336L358.683 591.816C358.791 591.708 358.863 591.636 358.936 591.564ZM359.188 591.204C359.26 591.096 359.332 590.988 359.404 590.844C360.016 589.619 359.944 588.214 359.296 587.133L417.261 548.298C417.981 549.306 418.954 550.135 420.143 550.747C421.151 551.252 422.232 551.504 423.313 551.576L423.781 637.28L359.188 591.204ZM420.359 550.351C419.242 549.811 418.341 549.018 417.657 548.082L420.791 545.992C421.115 546.424 421.512 546.785 422.016 547.037C422.412 547.253 422.844 547.361 423.277 547.397L423.313 551.144C422.304 551.072 421.295 550.82 420.359 550.351ZM422.16 540.552C421.403 540.877 420.791 541.417 420.395 542.21C419.854 543.326 419.926 544.587 420.539 545.596L417.441 547.685C416.108 545.596 415.856 542.894 417.008 540.516C417.873 538.823 419.314 537.598 420.971 536.986L422.16 540.552ZM423.709 547.361C424.97 547.325 426.195 546.641 426.807 545.416C426.987 545.091 427.059 544.731 427.131 544.371L430.914 544.659C430.842 545.488 430.59 546.316 430.23 547.073C428.969 549.595 426.447 551.036 423.781 551.072L423.709 547.361ZM427.167 543.939C427.204 542.606 426.483 541.273 425.186 540.624C424.321 540.192 423.385 540.156 422.556 540.408L421.367 536.842C423.133 536.301 425.078 536.409 426.843 537.274C429.545 538.607 431.094 541.417 430.95 544.227L427.167 543.939ZM420.791 536.554C418.99 537.202 417.477 538.499 416.54 540.336C415.279 542.858 415.567 545.74 417.008 547.974L359.008 586.809C358.647 586.305 358.179 585.872 357.567 585.584C357.531 585.584 357.531 585.584 357.495 585.548L399.248 483.164C400.473 483.596 401.77 483.668 402.995 483.38L420.791 536.554ZM404.363 471.24C404.219 471.168 404.075 471.132 403.931 471.06L410.344 453.407C411.244 453.587 412.217 453.191 412.649 452.326C413.154 451.318 412.757 450.093 411.749 449.588L425.294 412.374C426.051 412.59 426.843 412.59 427.564 412.374L440.209 447.571C438.479 448.255 437.002 449.516 436.138 451.282C434.228 455.1 435.85 459.784 439.704 461.729C441.578 462.666 443.631 462.774 445.468 462.233L446.585 465.295C446.189 465.476 445.865 465.8 445.648 466.232C445.468 466.592 445.432 466.953 445.432 467.313L407.678 475.274C407.209 473.581 406.057 472.104 404.363 471.24ZM446.441 448.255C449.179 449.624 450.692 452.398 450.548 455.244L446.765 454.848C446.765 453.515 446.045 452.218 444.784 451.57C443.919 451.137 442.947 451.101 442.082 451.354L440.821 447.823C442.586 447.247 444.64 447.319 446.441 448.255ZM444.496 458.09C445.324 457.802 446.009 457.19 446.441 456.361C446.621 456.001 446.693 455.641 446.765 455.28L450.548 455.677C450.44 456.469 450.224 457.298 449.863 458.054C448.999 459.784 447.522 461.008 445.829 461.621L444.496 458.09ZM441.686 451.534C440.965 451.858 440.353 452.398 439.992 453.155C439.128 454.92 439.848 457.046 441.614 457.946C442.406 458.343 443.271 458.415 444.063 458.198L445.324 461.765C443.595 462.269 441.686 462.161 439.92 461.297C436.282 459.495 434.769 455.1 436.57 451.498C437.399 449.841 438.768 448.652 440.389 448.003L441.686 451.534ZM447.017 465.115L445.937 462.053C447.738 461.405 449.323 460.108 450.26 458.234C450.656 457.406 450.908 456.541 451.016 455.677L479.08 458.523C479.08 459.063 479.152 459.567 479.26 460.108L449.503 466.412C449.323 465.908 448.963 465.476 448.458 465.223C447.99 465.043 447.486 465.007 447.017 465.115ZM479.728 455.713C479.332 456.505 479.116 457.334 479.08 458.162L451.052 455.316C451.232 452.29 449.575 449.3 446.693 447.859C444.748 446.887 442.586 446.814 440.677 447.427L428.032 412.23C428.536 412.014 428.969 411.726 429.365 411.33L480.341 454.812C480.089 455.064 479.873 455.352 479.728 455.713ZM399.932 386.22L423.349 406.178C423.205 406.358 423.061 406.574 422.953 406.826C422.484 407.799 422.412 408.844 422.736 409.78L391.466 421.633C390.746 419.976 389.485 418.535 387.72 417.67C385.738 416.697 383.541 416.625 381.631 417.274L377.344 404.377L397.266 386.184C397.411 386.292 397.555 386.4 397.699 386.472C398.419 386.868 399.32 386.724 399.932 386.22ZM381.019 423.038C380.587 423.902 380.551 424.803 380.839 425.668L377.308 427.001C376.66 425.199 376.732 423.182 377.633 421.345C378.425 419.723 379.794 418.535 381.343 417.886L382.532 421.489C381.884 421.813 381.343 422.353 381.019 423.038ZM380.983 426.064C381.307 426.784 381.884 427.433 382.64 427.829C383.325 428.153 384.045 428.261 384.73 428.189L385.918 431.792C384.333 432.152 382.568 431.972 380.983 431.179C379.326 430.351 378.101 428.982 377.453 427.433L380.983 426.064ZM385.162 428.045C386.135 427.793 386.999 427.181 387.468 426.208C387.9 425.343 387.936 424.371 387.648 423.506L391.142 422.173C391.791 423.974 391.755 426.028 390.854 427.865C389.917 429.738 388.26 431.035 386.351 431.576L385.162 428.045ZM387.468 423.146C387.143 422.425 386.567 421.849 385.81 421.453C384.874 420.984 383.829 420.984 382.928 421.309L381.74 417.742C383.541 417.094 385.63 417.166 387.468 418.102C389.089 418.931 390.314 420.264 390.962 421.813L387.468 423.146ZM381.199 417.454C379.542 418.138 378.101 419.399 377.236 421.128C376.264 423.074 376.228 425.235 376.876 427.145L336.095 442.6C336.023 442.491 335.951 442.383 335.843 442.275L376.948 404.701L381.199 417.454ZM336.276 442.996L377.02 427.577C377.741 429.27 379.002 430.711 380.767 431.576C382.46 432.44 384.333 432.584 386.063 432.188L391.719 449.228L336.42 443.572C336.384 443.392 336.348 443.176 336.276 442.996ZM386.495 432.08C388.512 431.504 390.278 430.135 391.286 428.117C392.259 426.136 392.295 423.974 391.611 422.029L422.88 410.177C423.241 411.005 423.853 411.69 424.718 412.122C424.79 412.158 424.862 412.158 424.934 412.194L411.388 449.372C410.452 449.12 409.407 449.552 408.975 450.453C408.903 450.597 408.831 450.777 408.795 450.957L392.187 449.264L386.495 432.08ZM408.759 451.39C408.759 452.146 409.191 452.867 409.911 453.227C409.947 453.227 409.947 453.227 409.983 453.263L403.571 470.915C402.166 470.447 400.689 470.483 399.392 470.951L392.367 449.732L408.759 451.39ZM398.888 482.984L357.134 585.368C355.297 584.719 353.207 585.548 352.307 587.349C352.019 587.962 351.911 588.574 351.911 589.187L293.55 593.69C293.369 592.213 292.469 590.844 291.028 590.159C289.515 589.403 287.822 589.583 286.489 590.447L261.811 554.242C262.856 553.521 263.721 552.549 264.333 551.36C265.45 549.162 265.342 546.641 264.333 544.551L395.681 479.958C396.294 481.183 397.266 482.227 398.599 482.876C398.707 482.912 398.78 482.948 398.888 482.984ZM263.937 551.108C263.36 552.225 262.568 553.161 261.559 553.846L259.434 550.711C259.902 550.387 260.262 549.955 260.55 549.451C261.055 548.442 261.019 547.361 260.586 546.424L263.973 544.767C264.873 546.677 264.982 549.054 263.937 551.108ZM260.37 545.992C260.01 545.452 259.542 544.947 258.893 544.659C257.74 544.083 256.444 544.191 255.399 544.803L253.273 541.669C255.363 540.336 258.137 540.084 260.55 541.273C261.955 541.957 263.036 543.038 263.721 544.299L260.37 545.992ZM255.075 545.055C254.678 545.38 254.354 545.74 254.102 546.244C253.634 547.181 253.634 548.226 254.03 549.126L250.643 550.784C249.743 548.838 249.707 546.569 250.715 544.551C251.256 543.47 252.012 542.606 252.949 541.921L255.075 545.055ZM254.174 549.523C254.534 550.135 255.039 550.675 255.723 551C256.84 551.54 258.065 551.468 259.073 550.928L261.199 554.062C259.109 555.323 256.444 555.539 254.066 554.35C252.625 553.63 251.508 552.513 250.824 551.18L254.174 549.523ZM293.081 596.284C293.441 595.599 293.55 594.842 293.55 594.122L351.911 589.619C351.983 590.123 352.163 590.628 352.415 591.096L254.75 654.933C254.678 654.861 254.642 654.789 254.57 654.753L286.921 598.373L286.957 598.409C289.227 599.49 291.964 598.553 293.081 596.284ZM254.966 655.257L352.667 591.42C353.027 591.924 353.496 592.357 354.072 592.645C354.324 592.789 354.577 592.861 354.865 592.933L338.689 674.855L255.183 656.446C255.219 656.049 255.147 655.617 254.966 655.257ZM355.297 593.005C355.513 593.041 355.693 593.041 355.909 593.041L361.782 679.934L339.122 674.927L355.297 593.005ZM356.342 593.041C357.098 592.933 357.819 592.645 358.431 592.141L423.925 660.985L424.105 691.534C423.421 691.607 422.772 692.003 422.448 692.651C422.34 692.831 422.304 693.047 422.268 693.228L362.214 680.006L356.342 593.041ZM422.232 693.696C422.232 693.912 422.268 694.128 422.34 694.308L392.295 706.233L363.259 695.749L362.214 680.475L422.232 693.696ZM422.52 694.705C422.7 695.029 422.989 695.281 423.349 695.461C423.673 695.605 423.997 695.677 424.321 695.677L425.943 711.492C423.457 711.817 421.187 713.33 419.998 715.707C419.926 715.852 419.854 716.032 419.782 716.212L392.943 706.521L422.52 694.705ZM420.395 715.888C421.512 713.654 423.637 712.249 425.979 711.925L426.375 715.671C425.294 715.852 424.321 716.536 423.817 717.581V717.617L420.251 716.32C420.287 716.176 420.323 716.032 420.395 715.888ZM423.637 718.013C423.097 719.67 423.817 721.544 425.438 722.336C425.979 722.588 426.519 722.696 427.095 722.696L427.492 726.443C426.267 726.515 425.006 726.263 423.817 725.686C420.467 724.029 418.918 720.139 420.107 716.716L423.637 718.013ZM427.492 722.696C428.645 722.552 429.689 721.868 430.23 720.751C430.266 720.643 430.302 720.535 430.338 720.427L433.904 721.724C433.832 721.976 433.724 722.192 433.58 722.444C432.427 724.75 430.23 726.155 427.852 726.407L427.492 722.696ZM430.482 720.03C430.878 718.445 430.122 716.752 428.572 715.996C427.996 715.707 427.384 715.599 426.771 715.635L426.375 711.889C427.672 711.781 429.005 712.033 430.23 712.645C433.508 714.266 435.057 717.977 434.048 721.327L430.482 720.03ZM426.267 694.128C426.519 693.192 426.087 692.183 425.186 691.715C424.97 691.607 424.754 691.534 424.502 691.534L424.321 661.417L463.193 702.27L426.267 694.128ZM424.357 660.805L424.249 638.109L534.739 716.86C534.703 716.932 534.667 716.968 534.631 717.04C534.487 717.329 534.379 717.653 534.307 717.941L463.985 702.45L424.357 660.805ZM534.919 716.5L424.213 637.569L423.745 551.576C426.591 551.54 429.293 549.991 430.626 547.325C431.058 546.497 431.274 545.596 431.382 544.731L466.831 547.469C466.795 548.262 467.228 549.018 467.984 549.415C468.453 549.667 468.993 549.667 469.461 549.559L536.324 715.347C535.784 715.563 535.315 715.996 534.919 716.5ZM467.047 546.569C466.975 546.713 466.939 546.857 466.903 547.001L431.418 544.263C431.563 541.273 429.941 538.283 427.059 536.878C425.186 535.941 423.097 535.833 421.223 536.409L403.463 483.236C405.084 482.732 406.489 481.579 407.318 479.958C408.002 478.589 408.146 477.076 407.858 475.707L445.576 467.745C445.721 468.286 446.117 468.754 446.621 469.006C447.63 469.51 448.891 469.114 449.395 468.069C449.575 467.709 449.647 467.277 449.611 466.881L479.404 460.576C479.909 462.197 481.061 463.566 482.682 464.395C483.223 464.647 483.763 464.827 484.304 464.935L469.029 545.452C468.2 545.416 467.408 545.812 467.047 546.569ZM480.557 454.416L429.617 410.969C429.761 410.789 429.905 410.573 430.013 410.321C430.986 408.375 430.194 405.998 428.212 405.025C428.14 404.989 428.068 404.989 427.996 404.953L451.413 340.648C452.529 341.008 453.718 341.08 454.835 340.828L483.655 452.362C482.466 452.759 481.386 453.443 480.557 454.416ZM296.972 136.853C296.071 137.213 295.315 137.861 294.883 138.762C294.702 139.122 294.594 139.518 294.522 139.879L254.858 137.717C254.822 136.997 254.39 136.348 253.706 136.024L275.249 81.5177C275.537 81.5898 275.825 81.6258 276.113 81.5898L296.972 136.853ZM274.852 81.3736L253.309 135.88C252.373 135.664 251.4 136.06 250.968 136.961C250.896 137.141 250.824 137.321 250.788 137.501L205.432 135.015C205.396 134.691 205.324 134.403 205.179 134.115L274.312 80.9413C274.456 81.0854 274.636 81.2295 274.852 81.3736ZM160.04 168.303L152.186 174.355L104.525 133.682C104.633 133.574 104.741 133.43 104.813 133.322L160.04 168.303ZM139.073 182.245L103.48 134.655C103.732 134.475 103.984 134.259 104.237 134.007L151.862 174.607L141.559 182.533C141.415 182.389 141.235 182.245 141.054 182.172C140.406 181.848 139.649 181.884 139.073 182.245ZM103.12 134.871L138.713 182.461C138.533 182.641 138.353 182.821 138.244 183.073C137.92 183.686 137.956 184.406 138.28 184.946L120.196 197.699L101.499 135.592C102.075 135.448 102.615 135.195 103.12 134.871ZM138.533 185.343C138.677 185.487 138.821 185.631 139.001 185.739L128.085 207.282L128.049 207.246C126.392 206.417 124.591 206.237 122.898 206.598L120.376 198.168L138.533 185.343ZM127.797 215.784C128.59 214.163 128.013 212.218 126.536 211.245L128.229 207.895C131.58 209.84 132.913 214.019 131.183 217.477C130.391 219.098 129.022 220.287 127.437 220.936L126.212 217.333C126.896 217.009 127.437 216.469 127.797 215.784ZM126.176 211.029C125.491 210.705 124.771 210.596 124.123 210.668L123.042 207.066C124.591 206.742 126.284 206.922 127.833 207.678C127.833 207.678 127.869 207.678 127.869 207.714L126.176 211.029ZM117.962 210.885C118.935 208.939 120.628 207.642 122.609 207.138L123.69 210.741C122.718 210.993 121.853 211.605 121.349 212.578C120.988 213.298 120.916 214.055 121.06 214.775L117.422 215.712C117.026 214.163 117.206 212.47 117.962 210.885ZM123.366 217.513C124.195 217.838 125.059 217.801 125.852 217.513L127.041 221.08C125.347 221.656 123.402 221.62 121.637 220.864L123.366 217.513ZM127.617 221.368C129.31 220.684 130.751 219.423 131.616 217.693C133.453 214.019 132.012 209.552 128.446 207.498L139.361 185.955C139.794 186.135 140.226 186.135 140.622 186.027L161.409 261.14C160.94 261.32 160.544 261.644 160.292 262.149C160.184 262.329 160.148 262.509 160.112 262.725L140.73 260.528L127.617 221.368ZM161.841 260.996L141.018 185.847C141.054 185.811 141.126 185.811 141.163 185.775L187.203 247.306L163.714 261.644C163.534 261.464 163.318 261.284 163.102 261.176C162.706 260.996 162.273 260.924 161.841 260.996ZM141.523 185.523C141.703 185.343 141.847 185.163 141.955 184.946C142.315 184.262 142.207 183.469 141.811 182.857L152.15 174.895L214.834 228.357C214.762 228.465 214.69 228.573 214.618 228.681C214.33 229.294 214.33 229.978 214.654 230.554L187.563 247.09L141.523 185.523ZM218.365 230.554C218.509 230.23 218.581 229.906 218.581 229.546L246.861 224.935C247.005 225.403 247.329 225.799 247.761 226.051L225.678 263.554C225.57 263.518 225.498 263.446 225.39 263.374C224.021 262.689 222.544 262.473 221.139 262.581L217.068 231.599C217.608 231.455 218.077 231.095 218.365 230.554ZM225.174 263.806C225.282 263.842 225.354 263.914 225.426 263.95L223.516 267.156C223.516 267.156 223.48 267.156 223.48 267.12C222.904 266.832 222.255 266.724 221.643 266.76L221.139 263.049C222.508 262.941 223.877 263.157 225.174 263.806ZM221.247 266.832C220.166 267.012 219.229 267.697 218.725 268.705C218.653 268.885 218.581 269.066 218.509 269.246L214.726 268.813C214.834 268.201 215.05 267.589 215.339 267.012C216.419 264.815 218.509 263.41 220.778 263.085L221.247 266.832ZM218.401 269.678C218.149 271.191 218.869 272.776 220.346 273.497C222.111 274.397 224.273 273.677 225.138 271.912C225.354 271.443 225.462 270.975 225.498 270.471L229.244 270.903C229.172 271.803 228.956 272.74 228.524 273.605C226.723 277.207 222.328 278.648 218.689 276.847C215.771 275.406 214.222 272.308 214.654 269.282L218.401 269.678ZM225.498 270.038C225.39 268.993 224.849 267.985 223.913 267.372L225.822 264.13C228.056 265.535 229.316 267.949 229.28 270.471L225.498 270.038ZM226.038 263.734L248.158 226.231C248.986 226.52 249.887 226.267 250.427 225.583L337.536 281.35C337.32 281.782 337.212 282.215 337.176 282.647L229.749 270.543C229.785 267.841 228.452 265.247 226.038 263.734ZM342.364 286.826C343.301 286.502 344.129 285.817 344.633 284.845C345.606 282.899 344.814 280.522 342.832 279.549C341.499 278.9 339.986 279.045 338.833 279.837L299.998 202.995C300.07 202.923 300.142 202.887 300.214 202.815L448.386 330.453C448.098 330.813 447.846 331.209 447.63 331.642C447.45 332.038 447.306 332.434 447.198 332.83L356.306 311.431C356.414 310.567 355.981 309.702 355.189 309.306C354.648 309.054 354.072 309.018 353.532 309.234L342.364 286.826ZM356.09 312.08C356.126 312.008 356.162 311.936 356.198 311.828L447.09 333.227C446.693 335.172 447.234 337.225 448.494 338.702L399.968 383.086C399.824 382.978 399.68 382.87 399.5 382.761C398.491 382.257 397.23 382.653 396.726 383.698C396.366 384.419 396.474 385.247 396.942 385.86L377.164 403.944L352.883 330.597C353.316 330.417 353.676 330.092 353.892 329.624C354.396 328.615 354 327.354 352.955 326.85C352.667 326.706 352.415 326.634 352.127 326.634L354.18 313.197C354.937 313.269 355.729 312.836 356.09 312.08ZM352.451 330.741L376.804 404.269L335.519 441.987C335.447 441.915 335.339 441.879 335.231 441.807C335.015 441.699 334.835 441.663 334.618 441.627L351.478 330.705C351.803 330.813 352.163 330.813 352.451 330.741ZM336.204 444.617C336.312 444.437 336.348 444.221 336.384 444.041L391.863 449.696L398.96 471.096C397.627 471.672 396.51 472.645 395.789 474.014L336.168 444.653L336.204 444.617ZM395.501 479.525L264.153 544.155C263.396 542.786 262.244 541.633 260.767 540.913C258.209 539.652 255.255 539.904 253.021 541.345L222.183 496.061C222.4 495.881 222.616 495.665 222.76 495.377C222.94 495.016 222.976 494.656 222.976 494.296L395.069 477.652C395.105 478.265 395.249 478.913 395.501 479.525ZM338.581 675.251L336.456 686.059L256.335 657.13L338.581 675.251ZM339.014 675.359L361.782 680.367L362.826 695.569L336.888 686.203L339.014 675.359ZM363.295 696.218L391.719 706.485L364.736 717.221L363.295 696.218ZM415.711 802.709L414.667 806.311C413.334 805.987 411.965 806.455 411.1 807.5L408.11 805.158C409.911 802.925 412.901 801.988 415.711 802.709ZM415.063 806.455L416.108 802.853C416.432 802.961 416.756 803.105 417.08 803.249C418.233 803.825 419.17 804.654 419.854 805.663L416.72 807.752C416.396 807.284 415.964 806.888 415.387 806.599C415.315 806.527 415.171 806.491 415.063 806.455ZM417.297 802.853C416.936 802.673 416.612 802.529 416.252 802.42L430.338 754.471L434.589 794.027C433.94 794.135 433.364 794.531 433.076 795.143C432.787 795.72 432.787 796.368 433.04 796.909L420.251 805.375C419.53 804.33 418.521 803.465 417.297 802.853ZM435.021 793.99L430.59 752.706C431.166 752.561 431.671 752.201 431.959 751.625C432.463 750.616 432.067 749.355 431.022 748.851C430.734 748.707 430.446 748.635 430.122 748.635L427.888 726.839C430.446 726.551 432.787 725.038 434.012 722.624C434.12 722.372 434.264 722.12 434.337 721.868L505.126 747.446C504.982 747.986 505.09 748.527 505.342 748.959L436.426 794.639C436.246 794.459 436.066 794.315 435.814 794.171C435.597 794.099 435.309 794.026 435.021 793.99ZM505.811 746.401L464.526 702.991L534.235 718.337C534.127 719.454 534.451 720.535 535.171 721.363L508.585 746.401C508.441 746.257 508.296 746.149 508.116 746.077C507.324 745.717 506.423 745.861 505.811 746.401ZM536.72 715.131L469.857 549.343C470.218 549.162 470.542 548.838 470.722 548.442C471.226 547.433 470.83 546.172 469.785 545.668C469.641 545.596 469.533 545.56 469.389 545.524L484.664 465.007C485.312 465.079 485.925 465.079 486.537 464.971L536.973 715.023C536.937 715.059 536.829 715.095 536.72 715.131ZM459.806 335.676C459.951 334.848 459.951 334.019 459.77 333.227L616.949 295.364C617.201 296.265 617.705 297.093 618.462 297.706L573.07 360.102L459.806 335.676ZM617.237 292.086C616.769 292.986 616.661 293.995 616.841 294.932L459.662 332.794C459.518 332.29 459.338 331.822 459.086 331.353L577.969 259.339C578.15 259.591 578.402 259.843 578.726 259.987C579.519 260.383 580.455 260.203 581.068 259.663L617.813 291.257C617.597 291.509 617.417 291.761 617.237 292.086ZM579.338 256.06L577.537 248.711C578.005 248.531 578.438 248.171 578.654 247.703C578.942 247.162 578.942 246.55 578.726 246.009L700.888 184.334L581.284 256.781C581.104 256.565 580.888 256.349 580.599 256.204C580.167 256.06 579.735 256.024 579.338 256.06ZM577.105 248.819L578.906 256.168C578.438 256.349 578.042 256.673 577.789 257.177C577.501 257.754 577.501 258.402 577.753 258.942L458.834 330.993C458.546 330.525 458.185 330.092 457.753 329.732L486.285 295.976C486.681 296.301 487.15 296.589 487.654 296.841C491.545 298.75 496.228 297.237 498.137 293.383C499.218 291.185 499.146 288.735 498.209 286.682L575.051 247.883C575.232 248.207 575.52 248.459 575.88 248.639C576.276 248.819 576.709 248.891 577.105 248.819ZM497.705 293.166C495.904 296.769 491.509 298.21 487.87 296.409C487.402 296.193 487.006 295.904 486.609 295.616L489.023 292.734C489.167 292.842 489.347 292.95 489.527 293.058C491.293 293.959 493.454 293.239 494.319 291.473C494.787 290.537 494.787 289.492 494.391 288.555L497.741 286.862C498.678 288.807 498.714 291.113 497.705 293.166ZM494.211 288.159C493.85 287.547 493.346 287.006 492.662 286.682C492.301 286.502 491.905 286.394 491.509 286.358L491.797 282.611C492.662 282.719 493.49 282.935 494.319 283.332C495.76 284.052 496.84 285.169 497.561 286.466L494.211 288.159ZM491.112 286.322C490.5 286.322 489.888 286.466 489.347 286.754L488.879 282.899C489.671 282.647 490.536 282.539 491.401 282.575L491.112 286.322ZM488.843 282.431L474.865 163.908C475.441 163.764 475.982 163.403 476.27 162.827C476.774 161.818 476.378 160.557 475.333 160.053C474.325 159.549 473.064 159.945 472.559 160.99C472.055 161.998 472.451 163.187 473.424 163.728L447.99 225.763C446.153 225.151 444.099 225.943 443.199 227.745C442.226 229.69 443.019 232.068 445 233.04C446.297 233.689 447.738 233.545 448.891 232.824L486.213 283.8C485.348 284.484 484.628 285.349 484.124 286.394C483.727 287.222 483.475 288.087 483.367 288.952L438.66 283.836C438.66 283.043 438.263 282.287 437.507 281.927C437.074 281.71 436.57 281.674 436.138 281.782L369.167 80.437C369.599 80.2569 369.959 79.9326 370.175 79.4643C370.247 79.2842 370.32 79.1401 370.356 78.9599L498.93 91.1365C498.75 94.1626 500.371 97.1527 503.289 98.5937C504.226 99.0621 505.162 99.3142 506.135 99.3863L491.473 282.143C490.536 282.071 489.671 282.179 488.843 282.431ZM503.469 98.1614C500.731 96.7925 499.218 93.9825 499.362 91.1725L503.145 91.5328C503.109 92.8657 503.829 94.1986 505.126 94.8471C505.559 95.0633 505.991 95.1713 506.459 95.2074L506.171 98.918C505.234 98.8459 504.334 98.5937 503.469 98.1614ZM506.892 95.1713C508.152 95.1353 509.341 94.4148 509.918 93.226C510.314 92.3974 510.386 91.4967 510.134 90.6682L513.7 89.4073C514.277 91.1725 514.205 93.1539 513.34 94.9192C512.043 97.513 509.377 98.99 506.603 98.918L506.892 95.1713ZM509.954 90.2719C509.629 89.5154 509.053 88.8669 508.26 88.4706C506.495 87.57 504.334 88.2905 503.469 90.0557C503.433 90.1278 503.397 90.2359 503.361 90.3439L499.758 89.1191C499.831 88.8669 499.939 88.6147 500.083 88.3986C501.884 84.796 506.279 83.355 509.918 85.1563C511.611 85.9849 512.836 87.4259 513.52 89.047L509.954 90.2719ZM503.217 90.7402C503.181 90.8483 503.181 90.9924 503.145 91.1005L499.362 90.7402C499.398 90.3439 499.506 89.9116 499.614 89.5154L503.217 90.7402ZM498.93 90.7042L370.356 78.5276C370.356 77.7711 369.923 77.0506 369.203 76.6903C368.302 76.258 367.221 76.5102 366.645 77.2668L247.869 3.63099C247.869 3.63099 247.87 3.59497 247.906 3.59497L499.218 89.3712C499.074 89.8036 498.966 90.2359 498.93 90.7042ZM247.617 3.95522L366.429 77.627C366.105 78.3475 366.177 79.1401 366.609 79.7165L301.511 138.077C301.151 137.645 300.719 137.249 300.178 136.997C299.278 136.564 298.305 136.492 297.368 136.745L276.51 81.5177C276.978 81.3376 277.41 80.9774 277.662 80.509C278.167 79.5003 277.771 78.2394 276.726 77.7351C276.185 77.4469 275.573 77.4469 275.033 77.663L247.329 4.24342C247.473 4.13535 247.545 4.0633 247.617 3.95522ZM274.024 80.5811L204.927 133.754C204.747 133.574 204.531 133.394 204.315 133.286C203.306 132.782 202.045 133.178 201.541 134.223C201.433 134.403 201.397 134.583 201.361 134.799L106.11 129.576C106.11 128.999 106.074 128.423 105.93 127.882L273.88 80.2569C273.952 80.3649 273.988 80.473 274.024 80.5811ZM101.102 135.736L119.836 197.988L84.6388 222.809C84.2785 222.377 83.8462 221.98 83.3058 221.728C83.0537 221.584 82.7655 221.512 82.4773 221.44L98.5806 135.844C99.4092 135.988 100.274 135.952 101.102 135.736ZM140.91 260.96L160.112 263.121C160.112 263.265 160.148 263.41 160.184 263.518L144.225 270.759L140.91 260.96ZM163.967 262.005L187.455 247.666L202.225 267.408L164.219 263.121C164.255 262.761 164.183 262.365 163.967 262.005ZM187.851 247.45L214.906 230.915C215.086 231.131 215.303 231.347 215.591 231.455C215.915 231.635 216.275 231.671 216.636 231.671L220.706 262.617C218.293 262.977 216.059 264.454 214.906 266.796C214.582 267.444 214.366 268.093 214.258 268.741L202.838 267.444L187.851 247.45ZM311.382 411.546C311.85 410.609 311.526 409.528 310.698 408.952L350.974 331.245L334.186 441.663C333.862 441.699 333.538 441.771 333.249 441.951L310.95 412.122C311.13 411.906 311.274 411.762 311.382 411.546ZM335.915 445.013L395.609 474.374C395.213 475.274 394.997 476.247 395.033 477.184L222.904 493.863C222.76 493.323 222.4 492.855 221.859 492.603C221.787 492.567 221.679 492.531 221.607 492.495L239.908 397.748L332.385 443.284C332.205 444.185 332.601 445.121 333.466 445.554C334.294 445.95 335.303 445.734 335.915 445.013ZM178.593 500.096L168.001 524.485C167.209 524.233 166.344 524.521 165.804 525.169L133.453 507.085C133.489 507.049 133.525 506.977 133.525 506.941C134.174 505.608 134.426 504.203 134.282 502.834L177.584 498.655C177.728 499.231 178.052 499.772 178.593 500.096ZM133.129 506.761C133.093 506.797 133.093 506.833 133.057 506.869L129.742 505.031C130.031 504.455 130.103 503.842 130.067 503.266L133.813 502.906C133.957 504.167 133.741 505.5 133.129 506.761ZM101.102 679.682L166.777 528.448C167.677 528.736 168.686 528.376 169.19 527.583L227.984 560.438C227.731 560.943 227.695 561.519 227.875 562.023L187.419 581.873C187.059 581.189 186.482 580.648 185.726 580.252C183.78 579.28 181.403 580.072 180.43 582.018C179.638 583.603 180.034 585.476 181.259 586.629L101.391 679.79C101.282 679.79 101.21 679.718 101.102 679.682ZM186.554 586.845L251.58 654.897C251.472 655.005 251.364 655.149 251.292 655.293C250.788 656.302 251.184 657.491 252.157 658.031L178.845 785.849C178.773 785.813 178.737 785.777 178.665 785.741C177.836 785.344 176.972 785.092 176.143 784.984L184.033 587.745C184.969 587.745 185.834 587.421 186.554 586.845ZM178.485 786.173C178.521 786.209 178.593 786.209 178.629 786.245L176.756 789.487C176.503 789.379 176.251 789.271 175.963 789.235L176.107 785.453C176.936 785.561 177.728 785.777 178.485 786.173ZM175.567 789.163C174.774 789.091 173.982 789.271 173.297 789.703L171.172 786.569C172.505 785.705 174.09 785.272 175.711 785.416L175.567 789.163ZM178.665 791.613L182.159 790.208C182.339 790.712 182.484 791.253 182.556 791.829L178.809 792.189C178.773 792.009 178.701 791.829 178.665 791.613ZM178.485 791.217C178.197 790.604 177.728 790.064 177.152 789.703L179.025 786.461C180.394 787.29 181.403 788.479 182.015 789.848L178.485 791.217ZM179.241 786.065L252.553 658.211C253.489 658.499 254.534 658.067 254.966 657.13C254.966 657.13 254.966 657.13 254.966 657.094L336.348 686.491L327.738 730.01C326.909 729.937 326.116 730.37 325.72 731.162C325.468 731.667 325.432 732.243 325.612 732.747L182.375 789.667C181.763 788.19 180.682 786.93 179.241 786.065ZM407.245 806.491C407.426 806.131 407.642 805.807 407.858 805.519L410.848 807.86C410.776 807.968 410.704 808.076 410.632 808.185C409.983 809.445 410.236 810.922 411.064 812.003L408.218 814.453C406.417 812.255 405.913 809.157 407.245 806.491ZM411.388 812.291C411.641 812.544 411.929 812.796 412.289 812.94C412.937 813.264 413.622 813.372 414.306 813.3L415.135 816.975C413.658 817.227 412.073 817.011 410.632 816.29C409.803 815.894 409.119 815.354 408.542 814.741L411.388 812.291ZM414.703 813.228C415.711 813.012 416.576 812.363 417.08 811.391C417.621 810.31 417.549 809.085 417.008 808.112L420.143 806.023C421.403 808.112 421.656 810.742 420.503 813.048C419.494 815.065 417.657 816.398 415.603 816.867L414.703 813.228ZM420.899 813.264C422.124 810.778 421.872 807.968 420.539 805.771L433.328 797.305C433.508 797.557 433.76 797.773 434.048 797.917C434.373 798.097 434.733 798.133 435.093 798.133L456.132 993.319C456.132 993.319 456.132 993.319 456.096 993.319L415.711 817.371C417.873 816.867 419.818 815.426 420.899 813.264ZM456.492 993.211L435.453 798.025C435.994 797.881 436.498 797.521 436.75 796.945C437.074 796.296 437.038 795.54 436.678 794.963L505.595 749.283C505.775 749.463 505.991 749.643 506.207 749.751C506.892 750.076 507.684 750.004 508.26 749.607L673.401 923.177C673.148 923.466 672.896 923.754 672.716 924.114C672.284 925.015 672.212 925.987 672.464 926.888L460.491 995.624C460.131 994.796 459.518 994.039 458.618 993.607C457.933 993.283 457.213 993.174 456.492 993.211ZM673.761 922.961L508.657 749.427C508.801 749.283 508.945 749.103 509.053 748.887C509.413 748.166 509.305 747.374 508.873 746.761L535.496 721.724C535.748 721.976 536.072 722.192 536.396 722.372C537.585 722.948 538.918 722.876 539.999 722.3L673.941 922.817C673.869 922.853 673.797 922.889 673.761 922.961ZM539.891 715.239C539.098 714.843 538.234 714.771 537.441 714.915L487.006 464.899C487.51 464.791 488.014 464.575 488.519 464.323L623.614 691.534C623.325 691.751 623.073 692.039 622.893 692.363C622.713 692.723 622.641 693.12 622.641 693.516L541.908 717.617C541.584 716.608 540.899 715.743 539.891 715.239ZM534.451 448.58C534.343 447.931 533.947 447.355 533.334 447.031C532.722 446.706 532.001 446.742 531.425 447.067L457.321 339.747C457.609 339.531 457.897 339.279 458.185 338.991L531.785 404.233C531.389 404.701 531.065 405.205 530.776 405.746C528.867 409.564 530.488 414.248 534.343 416.193C537.513 417.778 541.188 417.021 543.493 414.644L572.746 440.582L534.451 448.58ZM543.745 414.284C544.142 413.815 544.502 413.311 544.79 412.734C546.483 409.312 545.403 405.241 542.412 403.044L573.286 360.606L758.096 400.45C758.024 400.846 758.024 401.278 758.096 401.675L573.286 440.438L543.745 414.284ZM758.42 399.297C758.312 399.513 758.204 399.765 758.132 400.018L573.502 360.21L618.822 297.922C618.966 298.03 619.11 298.138 619.291 298.21C621.56 299.327 624.298 298.426 625.451 296.157C626.568 293.887 625.667 291.113 623.397 289.996C621.56 289.096 619.435 289.528 618.102 290.897L581.356 259.267C581.428 259.195 581.464 259.087 581.536 259.014C581.824 258.402 581.824 257.718 581.536 257.177L704.166 182.893C704.346 183.145 704.598 183.361 704.887 183.505C705.247 183.686 705.643 183.758 706.039 183.722L760.798 397.316C759.789 397.604 758.925 398.288 758.42 399.297ZM704.995 179.759C704.562 179.939 704.166 180.263 703.914 180.731C703.662 181.272 703.626 181.848 703.842 182.389L578.51 245.649C578.402 245.505 578.294 245.361 578.114 245.217L678.696 99.5304C678.948 99.6745 679.201 99.8546 679.489 99.9627C681.182 100.791 683.019 100.971 684.712 100.611L704.995 179.759ZM679.705 99.5304C679.453 99.4223 679.201 99.2782 678.984 99.0981L681.11 95.9999C681.182 96.0359 681.29 96.108 681.362 96.144C682.119 96.5043 682.911 96.5763 683.668 96.4322L684.604 100.071C682.983 100.503 681.254 100.323 679.705 99.5304ZM684.064 96.3962C684.929 96.108 685.721 95.4956 686.154 94.5949C686.73 93.4421 686.586 92.1452 685.937 91.1365L689 89.011C690.404 91.1365 690.729 93.9104 689.504 96.3241C688.567 98.2335 686.874 99.5304 684.965 100.071L684.064 96.3962ZM680.101 90.8123L676.931 88.7228C677.94 87.3538 679.345 86.3811 680.93 85.9488L681.866 89.5874C681.182 89.8396 680.534 90.2359 680.101 90.8123ZM679.849 91.1725C679.813 91.2446 679.741 91.3166 679.705 91.4247C678.948 92.9738 679.417 94.7751 680.714 95.8198L678.588 98.8819C675.742 96.7925 674.697 92.9378 676.283 89.7315C676.391 89.5154 676.499 89.2992 676.643 89.0831L679.849 91.1725ZM675.922 89.5154C674.229 92.9378 675.346 97.0446 678.372 99.2422L577.789 244.929C577.753 244.929 577.753 244.893 577.717 244.893C576.709 244.388 575.448 244.784 574.943 245.829C574.691 246.37 574.655 246.946 574.871 247.45L498.029 286.25C497.273 284.845 496.12 283.656 494.607 282.899C493.742 282.467 492.842 282.215 491.941 282.107L506.603 99.3503C509.557 99.4223 512.403 97.8732 513.772 95.0993C514.709 93.1899 514.781 91.1005 514.169 89.2271L618.642 52.4813C618.822 52.9136 619.146 53.2739 619.615 53.49C620.479 53.9223 621.488 53.6702 622.064 52.9857L676.355 88.7588C676.138 89.047 676.03 89.2992 675.922 89.5154ZM244.807 4.24342C244.915 4.31547 245.023 4.38752 245.132 4.45957C245.744 4.74778 246.428 4.74778 246.969 4.45957L274.672 77.8431C274.384 78.0233 274.132 78.3115 273.952 78.6357C273.772 79.032 273.7 79.4643 273.772 79.8606L105.786 127.45C105.569 126.73 105.209 126.045 104.705 125.433L244.807 4.24342ZM24.4405 153.821C26.0256 154.001 27.6467 153.172 28.4033 151.659C28.7996 150.866 28.8716 150.038 28.7635 149.209L93.537 131.557C94.0774 133.106 95.1942 134.475 96.7793 135.268C97.2476 135.484 97.716 135.664 98.1843 135.772L82.081 221.404C80.4599 221.188 78.8027 221.98 78.0101 223.566C77.6138 224.394 77.5058 225.259 77.6859 226.087L7.86884 244.172C7.61666 243.055 6.89616 242.011 5.77937 241.47C5.63527 241.398 5.49117 241.362 5.38309 241.326L24.4405 153.821ZM7.29244 247.162C7.40051 247.018 7.47256 246.874 7.54461 246.73C7.68871 246.478 7.76077 246.189 7.83282 245.901L101.427 256.457C101.427 257.105 101.715 257.718 102.255 258.114L84.7829 292.59C81.3965 290.969 77.4698 291.978 75.2722 294.788L7.29244 247.162ZM78.2623 306.064C74.6237 304.262 73.1467 299.903 74.912 296.301C75.0561 296.012 75.2362 295.724 75.4163 295.436L78.5145 297.598C78.4424 297.706 78.3344 297.814 78.2983 297.958C77.4337 299.687 78.1542 301.813 79.9195 302.713C81.5046 303.506 83.4139 303.001 84.3866 301.596L87.5929 303.578C85.6115 306.604 81.6127 307.721 78.2623 306.064ZM88.2053 303.506C88.2773 303.362 88.3854 303.218 88.4575 303.073C89.5382 300.912 89.4662 298.498 88.5295 296.445L143.936 271.335L170.991 351.78C170.271 352.068 169.659 352.536 169.226 353.185L88.2053 303.506ZM176.251 354.193C175.927 353.221 175.242 352.392 174.27 351.924C173.621 351.6 172.937 351.491 172.288 351.527L162.634 265.067C163.21 264.923 163.75 264.562 164.039 263.986C164.111 263.842 164.147 263.734 164.183 263.59L202.622 267.913L249.022 329.948C248.554 330.345 248.158 330.849 247.869 331.425C247.401 332.362 247.293 333.407 247.509 334.343L176.251 354.193ZM251.364 337.982C252.481 338.126 253.561 337.874 254.498 337.261L308.176 409.024C307.96 409.204 307.78 409.42 307.672 409.672C307.167 410.681 307.563 411.942 308.608 412.446C309.293 412.771 310.049 412.698 310.662 412.338L332.961 442.167C332.781 442.347 332.637 442.527 332.493 442.744C332.493 442.78 332.493 442.78 332.457 442.816L239.908 397.28L251.364 337.982ZM221.139 492.386C220.706 492.35 220.238 492.422 219.878 492.639L196.93 458.991L225.714 392.704C226.47 392.776 227.191 392.416 227.623 391.732L239.44 397.532L221.139 492.386ZM192.535 451.173C192.967 450.273 192.715 449.192 191.958 448.616L225.246 392.56H225.282L196.641 458.523L192.066 451.786C192.246 451.642 192.427 451.426 192.535 451.173ZM175.026 433.701C176.828 430.099 181.223 428.658 184.861 430.459C188.5 432.26 190.013 436.655 188.212 440.258C187.671 441.339 186.879 442.239 185.942 442.888L183.816 439.754C184.213 439.429 184.573 439.033 184.825 438.565C185.69 436.799 184.969 434.674 183.204 433.773C181.439 432.873 179.277 433.593 178.413 435.358C177.98 436.223 177.944 437.16 178.233 438.024L174.666 439.249C174.09 437.52 174.126 435.503 175.026 433.701ZM183.492 440.042L185.618 443.176C183.528 444.509 180.79 444.725 178.377 443.536C176.719 442.708 175.495 441.339 174.81 439.717L178.377 438.493C178.701 439.213 179.277 439.826 180.034 440.186C181.187 440.726 182.484 440.654 183.492 440.042ZM143.216 453.515C144.693 454.056 146.35 453.443 147.071 452.002C147.503 451.138 147.467 450.165 147.107 449.336L174.414 439.862C175.098 441.555 176.395 443.032 178.197 443.932C180.754 445.193 183.672 444.941 185.906 443.536L189.4 448.652C189.184 448.832 189.004 449.048 188.86 449.336C188.356 450.345 188.752 451.606 189.797 452.11C190.445 452.434 191.166 452.398 191.742 452.074L196.497 459.027L180.286 496.349C179.349 496.097 178.341 496.529 177.872 497.43C177.728 497.682 177.692 497.97 177.656 498.259L134.318 502.438C133.957 499.988 132.444 497.718 130.031 496.529C129.706 496.385 129.382 496.241 129.058 496.133L143.216 453.515ZM119.908 500.168C121.493 496.998 125.095 495.485 128.41 496.421L127.221 499.988C125.672 499.664 124.014 500.384 123.294 501.861C122.898 502.654 122.862 503.482 123.042 504.275L119.475 505.464C118.971 503.771 119.079 501.861 119.908 500.168ZM46.1277 648.088C46.1638 648.052 46.1998 647.98 46.1998 647.944C47.1725 645.998 46.3799 643.621 44.3985 642.648C43.7861 642.36 43.1376 642.216 42.4892 642.252L32.7623 537.85C32.9425 537.814 33.1586 537.778 33.3387 537.706L98.5806 679.718C98.2924 679.898 98.0042 680.114 97.788 680.403L46.1277 648.088ZM101.499 683.897C101.787 683.681 102.003 683.393 102.183 683.068C102.687 682.06 102.435 680.907 101.715 680.15L181.583 586.953C181.799 587.097 181.979 587.241 182.231 587.349C182.664 587.565 183.168 587.673 183.636 587.745L175.747 784.912C174.018 784.804 172.324 785.236 170.919 786.173L101.499 683.897ZM181.871 795.972C180.07 799.574 175.675 801.015 172.036 799.214C168.398 797.413 166.885 793.018 168.686 789.415C169.226 788.371 169.983 787.506 170.847 786.821L172.973 789.956C172.613 790.244 172.288 790.64 172.072 791.108C171.208 792.874 171.928 794.999 173.729 795.9C175.495 796.8 177.656 796.08 178.521 794.315C178.773 793.774 178.881 793.234 178.881 792.658L182.664 792.297C182.664 793.522 182.448 794.783 181.871 795.972ZM182.988 791.793C182.916 791.217 182.772 790.604 182.556 790.064L325.828 733.108C326.008 733.432 326.297 733.72 326.693 733.9C326.801 733.936 326.873 733.972 326.981 734.008L318.443 777.311C317.615 777.239 316.822 777.671 316.426 778.464C316.318 778.644 316.282 778.824 316.246 779.04L182.988 791.793ZM320.136 780.301C320.316 779.905 320.388 779.472 320.316 779.076L366.357 774.645C366.465 775.149 366.753 775.618 367.185 775.942L292.541 912.118C292.469 912.045 292.361 912.009 292.253 911.937L318.047 781.454C318.875 781.526 319.74 781.093 320.136 780.301ZM293.441 912.982L408.146 815.029C408.759 815.714 409.515 816.29 410.38 816.722C411.929 817.479 413.622 817.695 415.207 817.443L455.627 993.427C454.727 993.715 453.934 994.363 453.43 995.228L293.91 915.252C294.09 914.459 293.91 913.631 293.441 912.982ZM677.399 922.169C676.319 921.88 675.202 922.025 674.301 922.565L540.359 722.048C540.899 721.688 541.368 721.183 541.692 720.535C542.088 719.706 542.196 718.842 542.016 718.013L622.713 693.948C622.857 694.633 623.289 695.245 623.974 695.605C625.163 696.182 626.604 695.713 627.216 694.525C627.54 693.912 627.54 693.192 627.288 692.615L764.833 651.582C765.481 653.456 766.85 655.113 768.796 656.086C768.976 656.194 769.156 656.266 769.336 656.338L677.399 922.169ZM775.496 642.612C779.135 644.413 780.648 648.808 778.847 652.411C777.189 655.725 773.335 657.202 769.912 656.013L771.137 652.483C772.794 653.059 774.668 652.339 775.46 650.718C776.325 648.953 775.604 646.827 773.803 645.926C772.506 645.278 771.029 645.494 769.984 646.323L767.427 643.549C769.588 641.747 772.758 641.243 775.496 642.612ZM766.814 643.513C766.49 643.801 766.202 644.161 765.914 644.521L650.092 567.787C650.092 567.787 650.092 567.751 650.128 567.751C650.633 566.743 650.236 565.482 649.192 564.977C649.047 564.905 648.903 564.869 648.795 564.833L655.964 524.773C656.469 524.809 656.937 524.629 657.297 524.341L766.814 643.513ZM657.261 521.027C657.153 520.955 657.081 520.883 656.973 520.846C656.036 520.378 654.956 520.702 654.379 521.531L542.701 461.657C542.773 461.477 542.809 461.261 542.845 461.08L595.91 462.774C595.946 463.494 596.378 464.143 597.063 464.503C598.072 465.007 599.332 464.611 599.837 463.566C600.341 462.558 599.945 461.297 598.9 460.792C598.108 460.396 597.207 460.576 596.595 461.116L573.682 440.798L758.204 402.107C758.384 402.792 758.744 403.404 759.285 403.908L657.261 521.027ZM716.775 69.7014C716.955 69.9536 717.207 70.1698 717.495 70.3139C717.784 70.458 718.108 70.53 718.432 70.53L761.266 397.172H761.23L706.472 183.577C706.976 183.397 707.408 183.037 707.661 182.533C708.165 181.524 707.769 180.263 706.724 179.759C706.292 179.543 705.859 179.507 705.427 179.579L685.145 100.431C687.198 99.8546 688.999 98.4857 690.008 96.4682C691.269 93.9104 690.981 90.9564 689.468 88.6868L716.775 69.7014ZM686.19 86.4892C687.234 87.0296 688.135 87.7501 688.783 88.6507L685.721 90.7762C685.397 90.38 685.001 90.0557 684.532 89.8036C683.812 89.4433 683.055 89.3713 682.335 89.4793L681.398 85.8408C682.947 85.5526 684.604 85.7327 686.19 86.4892ZM676.535 88.4706L622.245 52.6975C622.245 52.6615 622.281 52.6254 622.317 52.6254C622.533 52.1571 622.569 51.6527 622.461 51.1844L664.358 36.4501C664.718 37.2786 665.331 37.9991 666.195 38.4314C667.024 38.8638 667.961 38.9358 668.789 38.7197L680.786 85.5526C679.129 85.9849 677.615 86.9936 676.535 88.4706Z" fill="url(#paint0_linear_1761:1639)" fill-opacity="0.6"/>
<defs>
<linearGradient id="paint0_linear_1761:1639" x1="735.856" y1="103.835" x2="-69.7065" y2="735.473" gradientUnits="userSpaceOnUse">
<stop stop-color="#8B64EC"/>
<stop offset="0.353531" stop-color="#4B92FF"/>
<stop offset="0.832706" stop-color="#28E5BB"/>
</linearGradient>
</defs>
</svg>
