<svg width="202" height="1123" viewBox="0 0 202 1123" fill="none" xmlns="http://www.w3.org/2000/svg">
<path opacity="0.3" d="M72.3526 36.5602C71.8122 37.641 71.7762 38.7938 72.1004 39.8385L25.0874 56.3741C24.8713 55.9418 24.511 55.5816 24.0427 55.3294C23.034 54.825 21.8091 55.1493 21.1606 56.0139L-22.8262 27.0135C-22.7902 26.9414 -22.7182 26.8694 -22.6822 26.7613C-21.6014 24.5638 -22.5021 21.8979 -24.6996 20.8171C-26.8972 19.7364 -29.563 20.637 -30.6438 22.8345C-30.8959 23.3029 -31.004 23.8072 -31.076 24.3116L-394.68 2.33614C-394.68 1.47153 -395.148 0.678976 -395.977 0.246673C-397.129 -0.329732 -398.534 0.138597 -399.075 1.29141C-399.507 2.15601 -399.363 3.16472 -398.75 3.8492L-555.893 139.809C-556.505 139.124 -557.226 138.584 -558.054 138.152C-561.657 136.35 -566.016 137.827 -567.781 141.43C-568.61 143.087 -568.718 144.924 -568.286 146.582L-640.949 166.359C-641.273 165.207 -642.065 164.198 -643.218 163.621C-645.416 162.541 -648.082 163.441 -649.162 165.639C-650.243 167.836 -649.343 170.502 -647.145 171.583C-646.821 171.763 -646.461 171.871 -646.1 171.943L-667.499 269.968C-669.481 269.5 -671.57 270.401 -672.543 272.31C-673.624 274.507 -672.723 277.173 -670.525 278.254C-668.652 279.191 -666.455 278.65 -665.158 277.137L-588.892 330.635C-589.108 330.959 -589.324 331.283 -589.505 331.644C-591.63 335.895 -589.829 341.118 -585.506 343.28C-581.507 345.261 -576.716 343.928 -574.338 340.326L-483.446 396.129C-483.482 396.165 -483.518 396.201 -483.518 396.273C-484.599 398.471 -483.698 401.136 -481.501 402.217C-479.303 403.298 -476.637 402.397 -475.556 400.2C-475.088 399.263 -475.016 398.218 -475.232 397.282L-395.292 375.018C-394.896 376.351 -393.995 377.504 -392.662 378.152C-392.302 378.332 -391.906 378.44 -391.545 378.549L-404.37 444.943L-417.52 438.459C-417.123 437.378 -417.592 436.117 -418.672 435.577C-419.825 435 -421.23 435.469 -421.771 436.621C-422.311 437.738 -421.915 439.035 -420.87 439.647L-458.192 502.476C-458.877 502.151 -459.633 502.187 -460.282 502.512L-464.172 496.784C-463.056 495.991 -462.119 494.91 -461.471 493.613C-459.345 489.326 -461.146 484.067 -465.469 481.905C-469.828 479.744 -475.088 481.473 -477.214 485.76C-478.294 487.921 -478.366 490.299 -477.61 492.425L-508.303 503.088C-508.628 502.584 -509.096 502.151 -509.672 501.863C-511.402 500.999 -513.491 501.719 -514.32 503.448C-515.148 505.142 -514.5 507.159 -512.843 508.06L-528.802 555.901C-532.765 554.784 -537.124 556.586 -538.997 560.368C-540.006 562.422 -540.114 564.655 -539.501 566.709L-633.636 598.159C-633.96 597.438 -634.5 596.79 -635.257 596.394C-636.95 595.565 -639.003 596.25 -639.868 597.943C-640.697 599.636 -640.012 601.689 -638.319 602.554C-637.814 602.806 -637.238 602.914 -636.698 602.878L-625.782 719.997C-627.151 720.213 -628.448 721.041 -629.096 722.41C-630.177 724.608 -629.276 727.274 -627.079 728.354C-625.098 729.327 -622.72 728.679 -621.495 726.913L-563.458 763.155C-563.458 763.155 -563.458 763.191 -563.494 763.191C-564.215 764.596 -563.638 766.325 -562.197 767.01C-561.333 767.442 -560.324 767.406 -559.531 766.938L-481.717 881.714C-482.798 882.507 -483.698 883.551 -484.347 884.812C-486.472 889.099 -484.671 894.359 -480.348 896.521C-475.989 898.682 -470.729 896.953 -468.604 892.666C-467.883 891.261 -467.631 889.712 -467.739 888.235L-318.342 873.897C-318.306 874.725 -317.838 875.482 -317.081 875.878C-316.973 875.914 -316.865 875.95 -316.757 875.986L-345.685 1022.32C-347.306 1021.78 -349.108 1022.47 -349.9 1024.01C-350.729 1025.71 -350.044 1027.8 -348.315 1028.63C-346.586 1029.49 -344.496 1028.81 -343.668 1027.11C-343.596 1026.97 -343.56 1026.82 -343.524 1026.68L-164.658 1116.35C-165.595 1118.51 -164.694 1121.03 -162.568 1122.08C-160.371 1123.16 -157.705 1122.26 -156.624 1120.06C-156.12 1119.01 -156.048 1117.86 -156.372 1116.82L81.467 1039.79C81.8633 1040.8 82.5838 1041.67 83.6285 1042.17C85.826 1043.25 88.4919 1042.35 89.5727 1040.15C90.6534 1037.96 89.7528 1035.29 87.5552 1034.21C87.4471 1034.17 87.3391 1034.14 87.267 1034.1L190.444 735.848C194.55 737.253 199.162 735.487 201.107 731.525C203.233 727.238 201.431 721.978 197.108 719.816C193.83 718.195 190.047 718.772 187.49 720.969L64.6432 587.243C64.7513 587.099 64.8593 586.955 64.9674 586.775C65.3997 585.91 65.2196 584.902 64.6072 584.217L178.988 452.797C179.204 452.977 179.456 453.121 179.744 453.265C181.942 454.346 184.607 453.445 185.688 451.248C186.769 449.05 185.868 446.384 183.671 445.303C182.914 444.943 182.122 444.799 181.365 444.871L133.415 78.4937C134.064 78.3496 134.676 77.9173 135.001 77.2688C135.577 76.116 135.109 74.711 133.956 74.1706C132.803 73.6302 131.398 74.0625 130.858 75.2154C130.533 75.8638 130.569 76.6203 130.858 77.2328L100.128 98.5958C99.3356 97.5511 98.2908 96.6504 96.9938 96.002C95.1205 95.0653 93.1031 94.8852 91.2298 95.2815L77.7564 42.7205C78.8372 42.3603 79.7738 41.6037 80.3142 40.487C81.395 38.2894 80.4943 35.6235 78.2968 34.5428C76.0992 33.462 73.4333 34.3626 72.3526 36.5602ZM-31.04 24.7799C-31.04 26.4371 -30.1754 27.9862 -28.5903 28.7787C-26.645 29.7514 -24.3033 29.139 -23.0424 27.4458L20.9445 56.4462C20.7283 56.9145 20.6923 57.4188 20.7644 57.9232L-96.462 99.1362C-97.2546 97.1908 -98.6956 95.4976 -100.749 94.4889C-105.108 92.3274 -110.368 94.0566 -112.493 98.3436C-112.637 98.6318 -112.745 98.92 -112.854 99.2442L-394.788 2.9846C-394.788 2.91255 -394.752 2.87652 -394.752 2.80447L-31.04 24.7799ZM-4.30927 517.426C-4.41736 517.642 -4.48938 517.894 -4.52539 518.147L-64.1113 516.237C-64.2194 515.517 -64.6517 514.868 -65.3722 514.508C-66.525 513.932 -67.93 514.4 -68.4703 515.553C-68.5424 515.733 -68.6144 515.913 -68.6505 516.093L-121.103 514.4C-121.067 513.968 -121.103 513.571 -121.139 513.175L-77.8369 504.097C-77.6208 504.529 -77.2605 504.889 -76.8282 505.105C-75.6754 505.682 -74.2704 505.214 -73.73 504.061C-73.5859 503.773 -73.5139 503.484 -73.4779 503.16L-30.1034 494.082L-4.12915 517.102C-4.20117 517.21 -4.27325 517.282 -4.30927 517.426ZM60.8245 584.938C60.3562 586.054 60.8245 587.351 61.9053 587.928C62.0494 588 62.1935 588.072 62.3737 588.108L54.304 633.031C53.5834 632.995 52.8989 633.32 52.4306 633.86L-122.4 518.003C-122.22 517.714 -122.04 517.426 -121.86 517.138C-121.5 516.417 -121.283 515.625 -121.175 514.868L-68.7225 516.562C-68.7225 517.426 -68.2542 518.255 -67.4256 518.651C-66.3448 519.191 -65.0479 518.795 -64.4355 517.786L60.8245 584.938ZM189.687 735.019C187.634 734.01 186.193 732.281 185.508 730.3L189.543 729.075C189.903 730.012 190.552 730.804 191.524 731.272C191.56 731.272 191.56 731.272 191.596 731.308L190.227 735.271C190.047 735.163 189.867 735.091 189.687 735.019ZM190.191 725.148L186.661 722.807C186.949 722.446 187.237 722.086 187.562 721.762L190.444 724.896C190.336 725.004 190.263 725.076 190.191 725.148ZM189.903 725.58C189.831 725.689 189.759 725.797 189.687 725.905C189.255 726.769 189.183 727.742 189.399 728.607L185.364 729.831C184.824 727.958 184.968 725.905 185.904 724.031C186.048 723.743 186.193 723.491 186.373 723.239L189.903 725.58ZM185.436 723.779C184.463 725.761 184.319 727.958 184.86 729.976L30.4912 776.016C30.2391 775.584 29.8788 775.223 29.4105 775.007H29.3744L54.0157 637.679C54.7723 637.751 55.5288 637.462 56.0331 636.85L185.94 722.951C185.76 723.203 185.58 723.491 185.436 723.779ZM-344.496 1023.01L-260.701 870.186C-259.837 870.546 -258.864 870.366 -258.216 869.718L-215.922 902.789C-216.174 903.149 -216.426 903.545 -216.642 903.978C-218.228 907.148 -217.651 910.859 -215.49 913.452L-344.136 1023.29C-344.244 1023.19 -344.352 1023.11 -344.496 1023.01ZM-315.352 871.591L-305.769 823.029C-304.832 823.137 -303.896 822.669 -303.463 821.768C-303.211 821.264 -303.175 820.723 -303.283 820.219L-264.34 804.764L-260.233 865.791C-260.918 865.935 -261.566 866.367 -261.89 867.016C-262.034 867.34 -262.106 867.7 -262.142 868.025L-313.839 872.996C-314.055 872.456 -314.415 872.023 -314.956 871.735C-315.1 871.699 -315.244 871.627 -315.352 871.591ZM-633.744 600.969C-633.347 600.212 -633.311 599.348 -633.491 598.591L-539.357 567.141C-538.601 569.195 -537.088 570.996 -534.962 572.041C-534.278 572.365 -533.557 572.617 -532.837 572.761L-561.405 761.642C-561.585 761.678 -561.765 761.714 -561.945 761.786L-635.185 602.446C-634.572 602.122 -634.068 601.617 -633.744 600.969ZM-534.854 565.628C-534.494 566.565 -533.845 567.357 -532.873 567.826C-532.621 567.934 -532.404 568.042 -532.152 568.114L-532.765 572.257C-533.413 572.113 -534.098 571.896 -534.71 571.572C-536.691 570.563 -538.132 568.906 -538.817 566.961L-534.854 565.628ZM-527.469 556.946C-524.947 558.207 -523.326 560.584 -522.93 563.142L-527.145 563.539C-527.361 562.35 -528.117 561.269 -529.306 560.693C-529.486 560.621 -529.63 560.548 -529.811 560.512L-528.478 556.514C-528.153 556.622 -527.829 556.766 -527.469 556.946ZM-452.356 514.868L-426.778 552.407C-426.994 552.587 -427.174 552.839 -427.319 553.091C-427.463 553.343 -427.535 553.632 -427.535 553.92L-469.252 557.955C-469.396 557.342 -469.792 556.802 -470.405 556.478L-452.356 514.868ZM-385.781 375.847C-384.52 373.289 -385.565 370.191 -388.087 368.93C-389.816 368.065 -391.798 368.281 -393.311 369.326L-445.115 300.049L-432.794 301.454C-433.263 305.057 -431.425 308.767 -427.967 310.497C-423.608 312.658 -418.348 310.929 -416.223 306.642C-415.718 305.597 -415.43 304.517 -415.358 303.436L-294.853 317.017C-294.853 318.674 -293.989 320.26 -292.404 321.016C-291.467 321.484 -290.422 321.556 -289.45 321.34L-276.877 346.558C-277.237 346.774 -277.525 347.098 -277.705 347.459C-278.282 348.612 -277.813 350.016 -276.661 350.557C-276.517 350.629 -276.372 350.701 -276.228 350.737L-278.534 365.94C-279.218 366.048 -279.867 366.516 -280.191 367.201C-280.732 368.245 -280.335 369.542 -279.399 370.155L-324.935 457.984C-325.619 457.696 -326.34 457.732 -326.952 458.092L-387.186 377.576C-386.61 377.072 -386.106 376.531 -385.781 375.847ZM-480.744 393.967L-511.113 303.652L-493.209 295.546C-492.993 296.015 -492.632 296.375 -492.164 296.627C-491.84 296.807 -491.48 296.879 -491.119 296.843L-480.312 393.859C-480.456 393.895 -480.6 393.931 -480.744 393.967ZM-580.066 331.932C-581.723 331.211 -583.596 331.644 -584.713 332.94L-588.172 330.491C-585.866 327.537 -581.723 326.492 -578.157 328.185L-580.066 331.932ZM-578.085 337.336C-577.544 336.219 -577.58 334.994 -578.048 333.949L-574.23 332.22C-573.221 334.382 -573.185 336.939 -574.302 339.209C-574.374 339.353 -574.482 339.497 -574.554 339.641L-578.157 337.444C-578.121 337.408 -578.085 337.372 -578.085 337.336ZM-578.265 333.517C-578.589 332.977 -579.057 332.508 -579.634 332.148L-577.76 328.437C-576.319 329.23 -575.166 330.419 -574.446 331.788L-578.265 333.517ZM-577.508 327.969L-557.91 289.314C-556.794 289.818 -555.425 289.35 -554.884 288.233C-554.812 288.053 -554.74 287.873 -554.704 287.693L-515.509 292.124L-511.726 303.4L-573.978 331.572C-574.734 330.094 -575.959 328.834 -577.508 327.969ZM-664.149 273.823L-585.83 253.505C-585.47 254.621 -584.713 255.594 -583.596 256.135C-581.399 257.215 -578.733 256.315 -577.652 254.117C-577.184 253.18 -577.112 252.208 -577.292 251.271L-541.771 242.049C-541.123 244.318 -539.537 246.3 -537.304 247.452L-556.253 284.991C-557.334 284.667 -558.523 285.135 -559.027 286.18C-559.099 286.36 -559.171 286.54 -559.207 286.72L-664.185 274.868C-664.149 274.507 -664.113 274.183 -664.149 273.823ZM-73.3698 456.723C-74.3425 458.705 -73.5139 461.083 -71.5325 462.091C-69.9474 462.884 -68.1461 462.524 -66.9573 461.371L-63.751 464.217C-66.1647 466.739 -70.0555 467.495 -73.3698 465.838C-77.4407 463.82 -79.1699 458.885 -77.1525 454.85C-76.8643 454.274 -76.504 453.733 -76.1077 453.265L-72.9375 456.075C-73.1176 456.291 -73.2617 456.507 -73.3698 456.723ZM-66.6331 461.047C-66.4529 460.83 -66.3088 460.578 -66.1647 460.326C-65.3001 458.597 -65.8405 456.507 -67.3536 455.391L-64.9038 452.004C-61.7336 454.346 -60.5808 458.633 -62.3821 462.235C-62.6703 462.848 -63.0665 463.388 -63.4628 463.893L-66.6331 461.047ZM-67.7498 455.138C-67.8219 455.102 -67.8939 455.03 -68.002 454.994C-69.5871 454.202 -71.4604 454.562 -72.6493 455.751L-75.8195 452.941C-73.4058 450.383 -69.4791 449.59 -66.1287 451.248C-65.8405 451.392 -65.5523 451.572 -65.2641 451.752L-67.7498 455.138ZM-76.2158 452.545L-158.786 379.377C-158.426 378.945 -158.137 378.476 -157.885 377.972C-157.633 377.504 -157.489 376.999 -157.345 376.495L-30.4636 403.874L-64.9759 451.32C-65.2641 451.14 -65.5883 450.923 -65.9125 450.779C-69.4431 448.978 -73.6219 449.843 -76.2158 452.545ZM-77.8729 501.971C-78.1251 502.512 -78.1612 503.088 -78.0171 503.592L-121.211 512.635C-121.608 510.437 -122.977 508.42 -125.138 507.375C-126.687 506.583 -128.416 506.438 -130.002 506.799L-162.316 381.683C-161.668 381.503 -161.019 381.214 -160.443 380.818L-77.2966 501.215C-77.5127 501.431 -77.7288 501.683 -77.8729 501.971ZM52.1425 634.292C51.566 635.445 52.0344 636.85 53.1872 637.39C53.2952 637.426 53.4033 637.463 53.5114 637.499L28.9061 774.755C28.2576 774.575 27.5731 774.647 26.9968 774.971L-124.562 520.092C-123.841 519.66 -123.157 519.083 -122.616 518.399L52.1425 634.292ZM-257.711 869.069C-257.135 867.917 -257.603 866.511 -258.756 865.971C-259.08 865.827 -259.405 865.755 -259.729 865.719L-263.872 804.548L-232.926 792.263L-202.304 803.323C-203.709 807.394 -201.908 812.041 -197.873 814.023C-196.432 814.743 -194.919 814.995 -193.442 814.923L-190.956 839.348C-191.641 839.492 -192.253 839.925 -192.614 840.573C-193.19 841.726 -192.722 843.131 -191.569 843.671C-191.209 843.852 -190.848 843.924 -190.488 843.888L-190.416 844.536L-206.555 899.403C-209.906 898.502 -213.472 899.655 -215.634 902.321L-257.891 869.249C-257.819 869.285 -257.783 869.177 -257.711 869.069ZM-304.868 818.526L-295.25 769.784L-265.997 780.339L-264.376 804.26L-303.427 819.787C-303.644 819.318 -304.004 818.922 -304.508 818.67C-304.616 818.598 -304.724 818.562 -304.868 818.526ZM-462.695 656.412C-462.083 655.187 -462.119 653.854 -462.587 652.701L-417.231 630.402C-417.015 630.762 -416.691 631.086 -416.259 631.302C-415.178 631.843 -413.881 631.446 -413.269 630.438L-353.467 663.869C-354.655 666.247 -353.791 669.093 -351.593 670.498L-387.871 733.722C-387.943 733.686 -387.979 733.65 -388.051 733.614C-388.88 733.218 -389.816 733.326 -390.501 733.866L-463.452 657.493C-463.164 657.132 -462.876 656.808 -462.695 656.412ZM-560.108 761.75C-560.396 761.642 -560.684 761.606 -560.972 761.606L-532.44 572.869C-528.982 573.409 -525.452 571.86 -523.614 568.762L-487.373 589.008C-487.913 590.089 -487.517 591.422 -486.472 592.035L-560.108 761.75ZM-527.757 566.421L-524.047 568.51C-525.776 571.392 -529.09 572.869 -532.368 572.365L-531.756 568.186C-530.171 568.438 -528.586 567.753 -527.757 566.421ZM-483.05 590.846C-482.689 589.765 -483.122 588.576 -484.13 588.036L-472.278 560.693C-471.197 561.089 -469.973 560.62 -469.432 559.54C-469.252 559.18 -469.18 558.783 -469.216 558.423L-427.571 554.388C-427.499 555.145 -427.03 555.829 -426.31 556.189C-425.625 556.514 -424.869 556.478 -424.256 556.189L-389.636 606.985C-390.717 607.778 -391.654 608.822 -392.302 610.119C-393.491 612.533 -393.455 615.271 -392.41 617.577L-413.377 627.88C-413.593 627.556 -413.881 627.267 -414.277 627.087C-415.286 626.583 -416.439 626.871 -417.123 627.7L-483.05 590.846ZM-555.821 285.171L-536.836 247.669C-534.71 248.605 -532.44 248.641 -530.387 247.957L-515.689 291.619L-554.668 287.224C-554.632 286.396 -555.064 285.603 -555.821 285.171ZM-541.231 241.941L-537.16 240.896C-536.836 241.904 -536.151 242.769 -535.142 243.309L-537.052 247.056C-539.141 245.939 -540.618 244.03 -541.231 241.941ZM-577.832 249.794L-538.457 222.019L-535.647 231.313C-537.952 231.925 -540.006 233.511 -541.159 235.78C-542.095 237.654 -542.275 239.671 -541.843 241.58L-577.364 250.803C-577.472 250.443 -577.652 250.118 -577.832 249.794ZM-554.776 147.878C-554.344 147.05 -554.128 146.149 -554.056 145.285L-447.205 151.121C-447.205 151.553 -447.06 151.949 -446.808 152.31L-493.065 187.903L-555.208 148.599C-555.064 148.347 -554.92 148.131 -554.776 147.878ZM-259.369 89.8056L-184.256 315.684C-184.436 315.756 -184.58 315.865 -184.724 315.973L-334.878 159.947C-334.661 159.695 -334.445 159.407 -334.301 159.082C-333.581 157.641 -333.725 156.02 -334.517 154.759L-261.386 89.2652C-261.242 89.4093 -261.062 89.5174 -260.882 89.6255C-260.413 89.8416 -259.873 89.9137 -259.369 89.8056ZM-167.9 258.872C-166.819 256.675 -167.72 254.009 -169.918 252.928C-169.954 252.892 -169.99 252.892 -170.026 252.892L-141.494 183.291C-141.278 183.363 -141.025 183.399 -140.809 183.363L-125.102 316.441C-125.859 316.693 -126.579 317.053 -127.228 317.522L-169.089 260.349C-168.621 259.989 -168.188 259.485 -167.9 258.872ZM-125.066 316.981L-124.562 321.16L-126.939 317.954C-126.363 317.522 -125.715 317.233 -125.066 316.981ZM-124.814 321.665C-125.174 321.989 -125.498 322.385 -125.715 322.853C-125.931 323.286 -126.039 323.718 -126.075 324.15L-130.29 323.682C-130.182 322.781 -129.93 321.845 -129.497 320.98C-128.957 319.899 -128.2 318.963 -127.3 318.278L-124.814 321.665ZM-126.111 324.619C-126.111 325.735 -125.643 326.78 -124.814 327.537L-127.516 330.743C-129.425 329.05 -130.47 326.6 -130.326 324.114L-126.111 324.619ZM-127.876 331.139L-159.867 369.002C-160.263 368.714 -160.659 368.425 -161.127 368.209C-162.857 367.345 -164.73 367.237 -166.423 367.741L-182.346 319.899C-181.878 319.683 -181.446 319.323 -181.194 318.819C-181.122 318.638 -181.049 318.494 -181.013 318.314L-130.866 324.078C-131.01 326.744 -129.93 329.374 -127.876 331.139ZM-106.153 837.511C-106.153 837.547 -106.153 837.547 -106.153 837.511L-185.625 808.835C-184.4 804.836 -186.237 800.405 -190.164 798.46C-191.641 797.739 -193.226 797.451 -194.775 797.559L-196.576 779.799C-195.928 779.654 -195.352 779.258 -195.027 778.61L-152.77 787.904L-105.937 837.151C-106.009 837.295 -106.081 837.403 -106.153 837.511ZM-413.053 629.969C-412.872 629.429 -412.872 628.852 -413.089 628.348L-392.158 618.045C-391.329 619.63 -389.996 620.999 -388.267 621.828C-385.457 623.232 -382.251 622.98 -379.765 621.467L-352.098 662.104C-352.566 662.464 -352.926 662.896 -353.251 663.401L-413.053 629.969ZM-294.133 314.64L-391.834 252.1C-391.581 251.595 -391.545 251.019 -391.69 250.479L-339.885 226.522C-339.669 226.882 -339.345 227.206 -338.912 227.422C-338.264 227.747 -337.507 227.711 -336.895 227.422L-293.304 313.667C-293.629 313.955 -293.917 314.279 -294.133 314.64ZM-442.845 152.093C-442.737 151.877 -442.665 151.625 -442.629 151.409L-391.762 154.183C-391.726 154.975 -391.329 155.732 -390.573 156.164L-421.122 233.547L-492.668 188.191L-446.52 152.67C-446.34 152.85 -446.16 152.994 -445.944 153.102C-444.791 153.678 -443.386 153.21 -442.845 152.093ZM-339.993 224.288C-340.281 224.865 -340.317 225.513 -340.101 226.053L-391.87 249.974C-392.014 249.722 -392.158 249.47 -392.374 249.29L-340.353 160.992C-340.317 160.992 -340.317 161.028 -340.281 161.028C-339.561 161.388 -338.804 161.496 -338.084 161.46L-338.12 223.027C-338.912 223.099 -339.597 223.568 -339.993 224.288ZM-340.75 160.775L-392.77 249.038C-392.806 249.001 -392.842 248.965 -392.878 248.965C-393.887 248.461 -395.076 248.749 -395.724 249.614L-420.69 233.799L-390.104 156.344C-389.024 156.669 -387.871 156.2 -387.366 155.156C-387.258 154.939 -387.186 154.687 -387.15 154.435L-342.695 156.885C-342.803 158.398 -342.083 159.875 -340.75 160.775ZM-421.302 233.979L-429.516 254.802C-430.273 254.585 -431.065 254.766 -431.678 255.27L-501.927 195.324L-493.065 188.479L-421.302 233.979ZM-429.084 254.982L-420.906 234.231L-396.013 250.01C-396.229 250.443 -396.301 250.875 -396.229 251.307L-427.931 256.459C-428.075 255.846 -428.507 255.306 -429.084 254.982ZM-335.814 226.378C-335.238 225.225 -335.706 223.82 -336.859 223.279C-337.111 223.135 -337.363 223.099 -337.652 223.063L-337.579 161.496C-336.823 161.388 -336.138 161.064 -335.562 160.595L-169.125 369.254C-169.341 369.434 -169.557 369.65 -169.738 369.866L-335.958 226.594C-335.922 226.522 -335.85 226.45 -335.814 226.378ZM-185.372 316.729C-185.949 317.882 -185.481 319.287 -184.328 319.827C-183.859 320.079 -183.319 320.115 -182.815 320.007L-166.892 367.885C-167.54 368.137 -168.152 368.461 -168.693 368.858L-334.733 160.775L-185.084 316.297C-185.192 316.441 -185.264 316.585 -185.372 316.729ZM-167.072 381.467L-193.334 453.589C-194.955 453.085 -196.684 453.589 -197.837 454.778L-224.1 432.37C-223.992 432.262 -223.92 432.118 -223.848 431.974C-223.451 431.182 -223.559 430.245 -224.064 429.596L-169.593 379.809C-169.053 380.386 -168.369 380.854 -167.648 381.25C-167.432 381.322 -167.252 381.395 -167.072 381.467ZM-270.392 663.113L-197.621 714.989L-197.477 740.279L-270.644 663.401C-270.536 663.293 -270.464 663.185 -270.392 663.113ZM-270.104 662.716C-270.032 662.572 -269.924 662.464 -269.852 662.32C-269.167 660.951 -269.275 659.366 -269.96 658.141L-204.934 614.586C-204.106 615.703 -203.025 616.676 -201.692 617.324C-200.539 617.901 -199.35 618.189 -198.125 618.225L-197.585 714.377L-270.104 662.716ZM-201.476 616.856C-202.737 616.244 -203.745 615.343 -204.502 614.298L-201.008 611.957C-200.647 612.425 -200.179 612.821 -199.603 613.109C-199.134 613.326 -198.666 613.47 -198.161 613.506L-198.125 617.721C-199.278 617.649 -200.431 617.396 -201.476 616.856ZM-199.458 605.904C-200.287 606.265 -201.007 606.877 -201.44 607.742C-202.052 609.003 -201.944 610.407 -201.26 611.56L-204.754 613.902C-206.267 611.56 -206.555 608.534 -205.222 605.868C-204.286 603.959 -202.665 602.59 -200.755 601.906L-199.458 605.904ZM-197.693 613.506C-196.252 613.47 -194.883 612.677 -194.235 611.344C-194.055 610.984 -193.947 610.588 -193.874 610.191L-189.623 610.516C-189.732 611.452 -189.984 612.353 -190.416 613.253C-191.821 616.063 -194.667 617.721 -197.657 617.757L-197.693 613.506ZM-193.838 609.687C-193.802 608.174 -194.631 606.697 -196.072 605.976C-197.045 605.508 -198.089 605.436 -199.026 605.724L-200.359 601.725C-198.414 601.113 -196.216 601.221 -194.199 602.23C-191.173 603.743 -189.443 606.877 -189.587 610.011L-193.838 609.687ZM-200.971 601.365C-202.989 602.122 -204.718 603.563 -205.727 605.616C-207.132 608.426 -206.808 611.668 -205.222 614.19L-270.284 657.745C-270.68 657.168 -271.221 656.7 -271.869 656.376C-271.905 656.376 -271.941 656.376 -271.941 656.34L-225.108 541.491C-223.739 541.995 -222.262 542.031 -220.929 541.707L-200.971 601.365ZM-219.416 528.126C-219.561 528.054 -219.741 527.982 -219.885 527.91L-212.68 508.096C-211.671 508.312 -210.59 507.843 -210.122 506.871C-209.545 505.754 -210.014 504.385 -211.131 503.773L-195.928 462.019C-195.063 462.271 -194.199 462.271 -193.37 462.019L-179.176 501.503C-181.085 502.259 -182.743 503.701 -183.751 505.682C-185.877 509.969 -184.076 515.229 -179.753 517.39C-177.663 518.435 -175.357 518.543 -173.304 517.93L-172.079 521.353C-172.511 521.569 -172.908 521.929 -173.16 522.398C-173.34 522.794 -173.412 523.226 -173.376 523.622L-215.742 532.557C-216.21 530.719 -217.507 529.062 -219.416 528.126ZM-172.187 502.296C-169.125 503.809 -167.396 506.979 -167.576 510.149L-171.827 509.717C-171.791 508.24 -172.62 506.763 -174.061 506.042C-175.033 505.538 -176.114 505.502 -177.087 505.826L-178.528 501.863C-176.51 501.179 -174.241 501.287 -172.187 502.296ZM-174.385 513.355C-173.484 513.031 -172.692 512.347 -172.223 511.41C-172.043 511.014 -171.935 510.617 -171.863 510.185L-167.648 510.617C-167.756 511.518 -168.008 512.419 -168.441 513.283C-169.413 515.229 -171.07 516.598 -172.98 517.282L-174.385 513.355ZM-177.555 506.006C-178.348 506.366 -179.032 506.979 -179.464 507.807C-180.437 509.789 -179.608 512.166 -177.627 513.175C-176.726 513.607 -175.79 513.68 -174.889 513.463L-173.448 517.462C-175.393 518.039 -177.519 517.894 -179.5 516.922C-183.571 514.904 -185.3 509.969 -183.283 505.934C-182.346 504.097 -180.797 502.728 -178.996 502.007L-177.555 506.006ZM-171.575 521.245L-172.8 517.822C-170.746 517.102 -168.981 515.625 -167.972 513.535C-167.504 512.599 -167.252 511.662 -167.144 510.689L-135.658 513.896C-135.658 514.508 -135.586 515.085 -135.441 515.661L-168.837 522.722C-169.017 522.182 -169.413 521.677 -169.99 521.389C-170.494 521.137 -171.034 521.101 -171.575 521.245ZM-134.865 510.689C-135.297 511.59 -135.549 512.491 -135.622 513.427L-167.072 510.221C-166.892 506.835 -168.693 503.484 -171.971 501.863C-174.169 500.782 -176.582 500.674 -178.708 501.395L-192.902 461.911C-192.361 461.695 -191.857 461.335 -191.425 460.902L-134.253 509.681C-134.469 509.969 -134.685 510.293 -134.865 510.689ZM-224.388 432.731L-198.125 455.138C-198.306 455.355 -198.45 455.607 -198.558 455.859C-199.098 456.94 -199.134 458.128 -198.81 459.173L-233.899 472.467C-234.691 470.593 -236.132 469.008 -238.078 468.035C-240.311 466.919 -242.761 466.847 -244.922 467.603L-249.714 453.121L-227.378 432.695C-227.234 432.839 -227.054 432.947 -226.874 433.019C-226.081 433.451 -225.072 433.307 -224.388 432.731ZM-245.607 474.016C-246.075 474.952 -246.111 476.033 -245.823 476.97L-249.786 478.483C-250.506 476.465 -250.434 474.196 -249.426 472.142C-248.525 470.341 -247.012 469.008 -245.283 468.288L-243.95 472.322C-244.634 472.683 -245.211 473.259 -245.607 474.016ZM-245.643 477.402C-245.283 478.231 -244.634 478.951 -243.77 479.383C-243.013 479.744 -242.22 479.888 -241.428 479.78L-240.095 483.815C-241.896 484.211 -243.842 484.031 -245.607 483.13C-247.48 482.193 -248.813 480.68 -249.57 478.915L-245.643 477.402ZM-240.96 479.672C-239.879 479.383 -238.906 478.699 -238.366 477.618C-237.897 476.645 -237.825 475.565 -238.15 474.592L-234.223 473.115C-233.466 475.132 -233.538 477.438 -234.547 479.527C-235.592 481.653 -237.465 483.094 -239.591 483.706L-240.96 479.672ZM-238.366 474.16C-238.726 473.367 -239.374 472.683 -240.203 472.25C-241.248 471.71 -242.437 471.71 -243.445 472.106L-244.778 468.108C-242.761 467.387 -240.419 467.459 -238.33 468.504C-236.492 469.404 -235.159 470.917 -234.403 472.647L-238.366 474.16ZM-245.427 467.783C-247.3 468.54 -248.921 469.981 -249.894 471.926C-250.975 474.124 -251.047 476.537 -250.29 478.663L-296.042 495.991C-296.114 495.883 -296.222 495.739 -296.294 495.631L-250.182 453.481L-245.427 467.783ZM-295.79 496.423L-250.074 479.095C-249.281 480.969 -247.84 482.626 -245.859 483.598C-243.95 484.535 -241.86 484.751 -239.951 484.319L-233.61 503.448L-295.682 497.108C-295.682 496.856 -295.718 496.64 -295.79 496.423ZM-239.483 484.175C-237.213 483.526 -235.232 481.977 -234.115 479.744C-233.034 477.546 -232.962 475.096 -233.754 472.935L-198.666 459.642C-198.27 460.542 -197.549 461.335 -196.612 461.839C-196.54 461.875 -196.468 461.911 -196.36 461.947L-211.563 503.664C-212.608 503.376 -213.76 503.845 -214.265 504.853C-214.337 505.033 -214.409 505.214 -214.445 505.394L-233.106 503.484L-239.483 484.175ZM-214.481 505.862C-214.481 506.727 -214.013 507.519 -213.184 507.952C-213.148 507.952 -213.112 507.988 -213.112 507.988L-220.317 527.765C-221.902 527.225 -223.523 527.261 -225.036 527.801L-232.926 504.025L-214.481 505.862ZM-225.577 541.275L-272.41 656.16C-274.499 655.439 -276.805 656.34 -277.813 658.357C-278.138 659.042 -278.282 659.726 -278.246 660.447L-343.74 665.49C-343.956 663.833 -344.965 662.32 -346.55 661.527C-348.243 660.699 -350.152 660.879 -351.629 661.852L-379.297 621.251C-378.144 620.459 -377.135 619.342 -376.487 618.009C-375.262 615.523 -375.334 612.713 -376.487 610.371L-229.143 537.889C-228.459 539.258 -227.342 540.446 -225.865 541.167C-225.757 541.203 -225.649 541.239 -225.577 541.275ZM-376.955 617.721C-377.604 618.982 -378.504 620.026 -379.621 620.783L-381.999 617.252C-381.494 616.892 -381.062 616.424 -380.774 615.811C-380.233 614.695 -380.27 613.47 -380.738 612.389L-376.955 610.516C-375.91 612.749 -375.802 615.379 -376.955 617.721ZM-380.954 611.993C-381.35 611.38 -381.891 610.84 -382.611 610.48C-383.908 609.831 -385.385 609.939 -386.538 610.66L-388.916 607.165C-386.538 605.652 -383.476 605.4 -380.774 606.733C-379.189 607.525 -378 608.714 -377.207 610.155L-380.954 611.993ZM-386.934 610.948C-387.366 611.308 -387.763 611.74 -388.015 612.281C-388.555 613.326 -388.519 614.514 -388.123 615.523L-391.906 617.396C-392.878 615.235 -392.95 612.677 -391.798 610.371C-391.185 609.183 -390.321 608.174 -389.312 607.453L-386.934 610.948ZM-387.907 615.955C-387.511 616.64 -386.934 617.252 -386.178 617.613C-384.953 618.225 -383.548 618.153 -382.431 617.54L-380.053 621.035C-382.395 622.44 -385.385 622.656 -388.051 621.359C-389.672 620.567 -390.897 619.27 -391.69 617.793L-387.907 615.955ZM-344.244 668.408C-343.848 667.616 -343.704 666.787 -343.74 665.959L-278.246 660.915C-278.174 661.491 -277.994 662.032 -277.669 662.572L-387.258 734.19C-387.33 734.118 -387.403 734.046 -387.475 733.974L-351.197 670.714L-351.161 670.75C-348.603 671.975 -345.505 670.966 -344.244 668.408ZM-387.006 734.587L-277.417 662.968C-277.021 663.509 -276.481 664.013 -275.832 664.337C-275.544 664.482 -275.256 664.59 -274.967 664.662L-293.124 756.562L-386.79 735.92C-386.718 735.451 -386.826 734.983 -387.006 734.587ZM-274.463 664.698C-274.247 664.734 -273.995 664.734 -273.779 664.734L-267.186 762.218L-292.62 756.598L-274.463 664.698ZM-273.31 664.734C-272.446 664.626 -271.653 664.265 -270.969 663.725L-197.477 740.963L-197.297 775.259C-198.089 775.331 -198.81 775.764 -199.17 776.52C-199.278 776.736 -199.35 776.953 -199.386 777.169L-266.754 762.326L-273.31 664.734ZM-199.386 777.673C-199.386 777.925 -199.35 778.141 -199.242 778.358L-232.926 791.759L-265.529 779.979L-266.682 762.831L-199.386 777.673ZM-199.026 778.79C-198.81 779.15 -198.486 779.438 -198.089 779.618C-197.729 779.799 -197.369 779.871 -197.009 779.835L-195.207 797.559C-197.981 797.919 -200.539 799.612 -201.872 802.278C-201.944 802.458 -202.052 802.639 -202.124 802.819L-232.241 791.939L-199.026 778.79ZM-201.404 802.567C-200.143 800.045 -197.765 798.496 -195.171 798.135L-194.739 802.35C-195.928 802.567 -197.045 803.287 -197.621 804.476C-197.621 804.476 -197.621 804.512 -197.657 804.512L-201.656 803.071C-201.584 802.891 -201.512 802.747 -201.404 802.567ZM-197.801 804.98C-198.414 806.854 -197.585 808.943 -195.784 809.844C-195.207 810.132 -194.559 810.276 -193.947 810.24L-193.514 814.455C-194.883 814.527 -196.324 814.275 -197.657 813.59C-201.44 811.717 -203.169 807.358 -201.836 803.539L-197.801 804.98ZM-193.442 810.204C-192.181 810.024 -190.992 809.267 -190.38 808.042C-190.308 807.934 -190.308 807.79 -190.236 807.682L-186.237 809.123C-186.345 809.411 -186.453 809.664 -186.597 809.916C-187.858 812.474 -190.344 814.059 -193.046 814.383L-193.442 810.204ZM-190.092 807.214C-189.66 805.449 -190.488 803.539 -192.217 802.675C-192.866 802.35 -193.586 802.242 -194.235 802.278L-194.667 798.099C-193.226 797.991 -191.749 798.244 -190.344 798.928C-186.669 800.765 -184.94 804.908 -186.093 808.655L-190.092 807.214ZM-194.847 778.177C-194.559 777.133 -195.027 775.98 -196.036 775.476C-196.288 775.367 -196.54 775.295 -196.793 775.259L-196.973 741.468L-153.382 787.292L-194.847 778.177ZM-197.009 740.783L-197.153 715.349L-73.1896 803.719C-73.2257 803.791 -73.2617 803.827 -73.2977 803.899C-73.4779 804.224 -73.5499 804.584 -73.658 804.908L-152.553 787.544L-197.009 740.783ZM-72.9375 803.287L-197.153 714.737L-197.693 618.261C-194.523 618.225 -191.461 616.496 -189.984 613.47C-189.515 612.533 -189.263 611.524 -189.155 610.552L-149.383 613.614C-149.419 614.514 -148.951 615.343 -148.086 615.775C-147.546 616.027 -146.933 616.063 -146.393 615.919L-71.3884 801.954C-71.9648 802.242 -72.5052 802.675 -72.9375 803.287ZM-149.095 612.641C-149.167 612.785 -149.239 612.965 -149.275 613.109L-189.083 610.047C-188.903 606.697 -190.74 603.347 -193.983 601.761C-196.108 600.717 -198.45 600.573 -200.539 601.221L-220.461 541.563C-218.66 540.987 -217.039 539.726 -216.138 537.889C-215.382 536.339 -215.201 534.682 -215.562 533.097L-173.232 524.163C-173.052 524.739 -172.656 525.28 -172.043 525.568C-170.89 526.144 -169.485 525.676 -168.945 524.523C-168.729 524.091 -168.657 523.659 -168.729 523.19L-135.297 516.129C-134.721 517.93 -133.46 519.516 -131.623 520.416C-131.046 520.704 -130.434 520.921 -129.785 521.029L-146.897 611.344C-147.798 611.308 -148.663 611.776 -149.095 612.641ZM-133.928 509.248L-191.064 460.506C-190.884 460.29 -190.74 460.038 -190.632 459.786C-189.551 457.588 -190.452 454.922 -192.65 453.841C-192.722 453.805 -192.794 453.769 -192.902 453.769L-166.639 381.647C-165.378 382.079 -164.046 382.115 -162.821 381.827L-130.506 506.979C-131.803 507.375 -133.028 508.132 -133.928 509.248ZM-339.885 152.958C-340.858 153.354 -341.722 154.075 -342.263 155.083C-342.479 155.48 -342.587 155.912 -342.659 156.344L-387.15 153.895C-387.222 153.102 -387.655 152.382 -388.411 151.985L-364.274 90.8503C-363.95 90.9584 -363.626 90.9945 -363.302 90.9224L-339.885 152.958ZM-364.707 90.7062L-388.88 151.877C-389.924 151.625 -391.041 152.093 -391.509 153.102C-391.617 153.318 -391.654 153.498 -391.69 153.715L-442.557 150.941C-442.593 150.58 -442.665 150.256 -442.845 149.932L-365.355 90.2019C-365.175 90.418 -364.959 90.5621 -364.707 90.7062ZM-493.533 188.227L-502.359 195L-555.821 149.391C-555.713 149.247 -555.605 149.103 -555.497 148.959L-493.533 188.227ZM-517.058 203.862L-556.974 150.472C-556.685 150.256 -556.397 150.004 -556.145 149.752L-502.72 195.324L-514.284 204.222C-514.464 204.078 -514.644 203.934 -514.86 203.826C-515.581 203.429 -516.409 203.502 -517.058 203.862ZM-557.37 150.76L-517.418 204.186C-517.634 204.366 -517.814 204.582 -517.922 204.87C-518.282 205.555 -518.21 206.348 -517.886 206.996L-538.168 221.298L-559.171 151.589C-558.559 151.409 -557.946 151.121 -557.37 150.76ZM-517.634 207.356C-517.49 207.536 -517.31 207.68 -517.13 207.789L-529.378 231.962C-529.414 231.962 -529.414 231.926 -529.45 231.926C-531.324 230.989 -533.341 230.809 -535.214 231.205L-538.06 221.766L-517.634 207.356ZM-529.703 241.508C-528.802 239.707 -529.45 237.509 -531.107 236.429L-529.198 232.682C-525.452 234.844 -523.938 239.563 -525.884 243.418C-526.784 245.255 -528.298 246.588 -530.063 247.308L-531.432 243.273C-530.711 242.877 -530.099 242.301 -529.703 241.508ZM-531.504 236.176C-531.54 236.176 -531.54 236.176 -531.504 236.176C-532.26 235.78 -533.053 235.672 -533.809 235.78L-535.034 231.709C-533.269 231.349 -531.396 231.529 -529.666 232.394C-529.63 232.394 -529.63 232.43 -529.63 232.43L-531.504 236.176ZM-540.726 236.032C-539.645 233.871 -537.7 232.394 -535.539 231.817L-534.314 235.852C-535.395 236.104 -536.403 236.825 -536.944 237.906C-537.34 238.698 -537.412 239.563 -537.268 240.391L-541.375 241.472C-541.771 239.671 -541.591 237.762 -540.726 236.032ZM-534.674 243.454C-533.737 243.814 -532.765 243.778 -531.864 243.454L-530.531 247.452C-532.44 248.101 -534.602 248.065 -536.583 247.2L-534.674 243.454ZM-529.919 247.777C-528.045 247.02 -526.388 245.579 -525.415 243.634C-523.362 239.491 -524.947 234.483 -528.982 232.178L-516.733 208.005C-516.265 208.185 -515.761 208.221 -515.292 208.113L-491.948 292.376C-492.452 292.592 -492.921 292.952 -493.173 293.493C-493.281 293.709 -493.317 293.925 -493.353 294.105L-515.112 291.655L-529.919 247.777ZM-491.516 292.232L-514.86 207.933C-514.788 207.897 -514.752 207.861 -514.68 207.825L-463.02 276.885L-489.39 292.988C-489.57 292.772 -489.822 292.592 -490.111 292.448C-490.543 292.232 -491.047 292.16 -491.516 292.232ZM-514.284 207.572C-514.104 207.392 -513.923 207.176 -513.779 206.924C-513.383 206.131 -513.491 205.267 -513.959 204.582L-502.359 195.648L-432.038 255.63C-432.11 255.738 -432.218 255.882 -432.254 255.99C-432.614 256.675 -432.542 257.467 -432.218 258.08L-462.623 276.669L-514.284 207.572ZM-428.075 258.08C-427.895 257.72 -427.823 257.323 -427.859 256.963L-396.121 251.811C-395.941 252.316 -395.616 252.748 -395.112 253.072L-419.897 295.078C-420.005 295.006 -420.113 294.934 -420.222 294.898C-421.771 294.141 -423.392 293.853 -424.977 294.033L-429.552 259.269C-428.94 259.089 -428.399 258.692 -428.075 258.08ZM-420.438 295.366C-420.33 295.402 -420.258 295.474 -420.15 295.546L-422.275 299.149C-422.275 299.149 -422.311 299.149 -422.311 299.113C-422.959 298.788 -423.68 298.68 -424.364 298.716L-424.905 294.538C-423.428 294.393 -421.879 294.646 -420.438 295.366ZM-424.833 298.788C-426.022 299.005 -427.102 299.761 -427.679 300.914C-427.787 301.13 -427.859 301.31 -427.895 301.526L-432.146 301.058C-432.002 300.374 -431.786 299.689 -431.461 299.041C-430.237 296.591 -427.931 295.006 -425.373 294.646L-424.833 298.788ZM-428.039 301.995C-428.327 303.688 -427.499 305.453 -425.878 306.282C-423.896 307.29 -421.482 306.498 -420.51 304.517C-420.258 304.012 -420.113 303.472 -420.113 302.895L-415.899 303.364C-415.971 304.372 -416.223 305.417 -416.727 306.39C-418.745 310.425 -423.68 312.046 -427.787 310.028C-431.065 308.407 -432.794 304.913 -432.326 301.526L-428.039 301.995ZM-420.113 302.391C-420.222 301.202 -420.834 300.085 -421.879 299.401L-419.753 295.762C-417.231 297.311 -415.826 300.049 -415.863 302.859L-420.113 302.391ZM-419.465 295.33L-394.68 253.252C-393.743 253.577 -392.734 253.289 -392.122 252.532L-294.385 315.072C-294.637 315.54 -294.745 316.045 -294.817 316.549L-415.322 302.967C-415.286 299.941 -416.799 296.987 -419.465 295.33ZM-288.981 321.232C-287.901 320.872 -287 320.115 -286.46 318.999C-285.379 316.801 -286.279 314.135 -288.477 313.055C-289.954 312.298 -291.647 312.514 -292.944 313.379L-336.535 227.17C-336.463 227.098 -336.355 227.026 -336.283 226.954L-170.026 370.155C-170.35 370.551 -170.638 370.983 -170.89 371.488C-171.106 371.92 -171.287 372.352 -171.395 372.821L-273.346 348.792C-273.238 347.855 -273.707 346.882 -274.607 346.414C-275.22 346.126 -275.868 346.09 -276.444 346.306L-288.981 321.232ZM-273.562 349.548C-273.526 349.476 -273.49 349.368 -273.454 349.26L-171.467 373.289C-171.899 375.486 -171.323 377.756 -169.882 379.449L-224.352 429.236C-224.496 429.092 -224.676 428.984 -224.856 428.876C-226.009 428.299 -227.414 428.768 -227.954 429.921C-228.351 430.749 -228.243 431.65 -227.738 432.334L-249.93 452.617L-277.165 370.335C-276.697 370.119 -276.3 369.758 -276.048 369.254C-275.472 368.101 -275.94 366.696 -277.093 366.156C-277.381 366.012 -277.705 365.94 -278.03 365.904L-275.724 350.809C-274.859 350.881 -273.995 350.377 -273.562 349.548ZM-277.633 370.479L-250.326 452.977L-296.655 495.307C-296.763 495.235 -296.835 495.163 -296.943 495.126C-297.159 495.018 -297.411 494.946 -297.627 494.91L-278.714 370.479C-278.354 370.551 -277.994 370.551 -277.633 370.479ZM-295.898 498.225C-295.79 498.009 -295.718 497.792 -295.682 497.576L-233.43 503.917L-225.469 527.946C-226.946 528.558 -228.207 529.675 -229.035 531.224L-295.934 498.297C-295.934 498.261 -295.898 498.261 -295.898 498.225ZM-229.359 537.42L-376.739 609.903C-377.568 608.39 -378.865 607.093 -380.558 606.265C-383.44 604.824 -386.718 605.112 -389.24 606.733L-423.86 555.937C-423.608 555.721 -423.392 555.469 -423.212 555.145C-423.032 554.748 -422.96 554.352 -422.996 553.92L-229.936 535.223C-229.792 536.015 -229.648 536.736 -229.359 537.42ZM-293.196 756.995L-295.61 769.135L-385.493 736.676L-293.196 756.995ZM-292.728 757.103L-267.186 762.723L-266.033 779.799L-295.142 769.279L-292.728 757.103ZM-265.493 780.519L-233.61 792.047L-263.908 804.08L-265.493 780.519ZM-206.699 900.015L-207.888 904.05C-209.365 903.69 -210.914 904.194 -211.887 905.383L-215.238 902.753C-213.184 900.231 -209.834 899.15 -206.699 900.015ZM-207.42 904.194L-206.231 900.159C-205.871 900.267 -205.475 900.411 -205.114 900.591C-203.817 901.24 -202.773 902.177 -201.98 903.293L-205.511 905.635C-205.871 905.131 -206.375 904.662 -206.988 904.374C-207.132 904.266 -207.276 904.23 -207.42 904.194ZM-204.898 900.123C-205.294 899.943 -205.691 899.763 -206.087 899.655L-190.272 845.869L-185.481 890.252C-186.201 890.36 -186.85 890.793 -187.174 891.513C-187.498 892.162 -187.462 892.882 -187.21 893.495L-201.548 903.005C-202.376 901.816 -203.529 900.808 -204.898 900.123ZM-185.012 890.216L-190.02 843.924C-189.371 843.779 -188.795 843.347 -188.471 842.699C-187.894 841.546 -188.363 840.141 -189.515 839.601C-189.84 839.456 -190.164 839.384 -190.524 839.348L-193.01 814.923C-190.164 814.599 -187.534 812.906 -186.165 810.168C-186.021 809.88 -185.913 809.591 -185.805 809.303L-106.369 837.979C-106.513 838.556 -106.441 839.168 -106.117 839.673L-183.427 890.973C-183.607 890.757 -183.823 890.576 -184.112 890.468C-184.4 890.324 -184.688 890.216 -185.012 890.216ZM-105.612 836.827L-151.941 788.12L-73.73 805.34C-73.8741 806.565 -73.4778 807.826 -72.6853 808.763L-102.514 836.827C-102.658 836.683 -102.839 836.538 -103.055 836.466C-103.919 836.034 -104.928 836.214 -105.612 836.827ZM-70.92 801.738L-145.925 615.703C-145.529 615.487 -145.168 615.127 -144.952 614.694C-144.376 613.542 -144.844 612.137 -145.997 611.596C-146.141 611.524 -146.285 611.452 -146.429 611.416L-129.317 521.101C-128.597 521.209 -127.876 521.173 -127.192 521.065L-70.5958 801.594C-70.7039 801.63 -70.812 801.666 -70.92 801.738ZM-157.201 376.027C-157.021 375.09 -157.057 374.153 -157.237 373.253L19.1072 330.743C19.3954 331.752 19.9718 332.688 20.8364 333.373L-30.1034 403.406L-157.201 376.027ZM19.4314 327.104C18.9271 328.113 18.819 329.23 18.9991 330.275L-157.345 372.784C-157.489 372.208 -157.705 371.668 -157.993 371.163L-24.5915 290.359C-24.3754 290.647 -24.0872 290.899 -23.7629 291.079C-22.8623 291.511 -21.8536 291.331 -21.1691 290.683L20.0439 326.132C19.7917 326.456 19.5755 326.78 19.4314 327.104ZM-23.1144 286.72L-25.1679 278.47C-24.6275 278.254 -24.1592 277.894 -23.907 277.353C-23.6188 276.741 -23.6188 276.056 -23.835 275.48L113.241 206.311L-20.9529 287.549C-21.1691 287.296 -21.4213 287.08 -21.7455 286.9C-22.1778 286.72 -22.6461 286.648 -23.1144 286.72ZM-25.6362 278.578L-23.5828 286.828C-24.1232 287.044 -24.5555 287.404 -24.8437 287.945C-25.1679 288.593 -25.1319 289.314 -24.8797 289.926L-158.281 370.731C-158.606 370.227 -159.038 369.722 -159.506 369.326L-127.516 331.463C-127.048 331.824 -126.543 332.148 -126.003 332.436C-121.644 334.598 -116.384 332.868 -114.259 328.581C-113.034 326.132 -113.106 323.394 -114.186 321.052L-27.9779 277.534C-27.7617 277.894 -27.4375 278.182 -27.0413 278.398C-26.5729 278.578 -26.0685 278.65 -25.6362 278.578ZM-114.691 328.329C-116.708 332.364 -121.644 333.985 -125.751 331.968C-126.255 331.716 -126.723 331.427 -127.156 331.067L-124.454 327.861C-124.274 328.005 -124.093 328.113 -123.877 328.221C-121.896 329.194 -119.482 328.401 -118.51 326.456C-117.969 325.411 -118.005 324.222 -118.401 323.214L-114.619 321.304C-113.61 323.43 -113.538 326.024 -114.691 328.329ZM-118.582 322.745C-118.978 322.061 -119.554 321.484 -120.311 321.088C-120.743 320.872 -121.175 320.764 -121.608 320.728L-121.283 316.549C-120.347 316.657 -119.374 316.909 -118.473 317.378C-116.852 318.17 -115.628 319.431 -114.835 320.908L-118.582 322.745ZM-122.112 320.656C-122.797 320.656 -123.481 320.8 -124.093 321.124L-124.598 316.801C-123.697 316.513 -122.724 316.405 -121.788 316.441L-122.112 320.656ZM-124.67 316.297L-140.341 183.327C-139.692 183.183 -139.08 182.751 -138.756 182.102C-138.179 180.95 -138.648 179.545 -139.8 179.004C-140.953 178.428 -142.358 178.896 -142.899 180.049C-143.475 181.166 -143.007 182.535 -141.926 183.111L-170.458 252.712C-172.511 252.028 -174.853 252.928 -175.826 254.946C-176.907 257.143 -176.006 259.809 -173.808 260.89C-172.367 261.61 -170.746 261.466 -169.449 260.638L-127.552 317.81C-128.525 318.566 -129.317 319.539 -129.93 320.728C-130.398 321.665 -130.65 322.637 -130.758 323.574L-180.905 317.81C-180.869 316.945 -181.338 316.081 -182.202 315.684C-182.707 315.432 -183.247 315.396 -183.751 315.504L-258.864 89.6255C-258.396 89.4093 -258 89.0491 -257.747 88.5447C-257.639 88.3646 -257.603 88.1485 -257.567 87.9683L-113.322 101.622C-113.502 105.008 -111.701 108.359 -108.422 109.98C-107.378 110.484 -106.297 110.772 -105.216 110.88L-121.68 315.901C-122.724 315.901 -123.697 316.009 -124.67 316.297ZM-108.242 109.547C-111.304 108.034 -113.034 104.864 -112.854 101.694L-108.603 102.09C-108.639 103.603 -107.81 105.08 -106.369 105.801C-105.901 106.053 -105.396 106.161 -104.892 106.197L-105.216 110.376C-106.261 110.304 -107.27 110.052 -108.242 109.547ZM-104.424 106.233C-103.019 106.161 -101.686 105.405 -101.001 104.072C-100.533 103.135 -100.497 102.126 -100.785 101.19L-96.7863 99.7846C-96.1378 101.766 -96.2098 103.964 -97.2185 105.981C-98.6595 108.899 -101.686 110.556 -104.784 110.484L-104.424 106.233ZM-100.929 100.685C-101.289 99.8567 -101.938 99.1001 -102.839 98.6678C-104.82 97.6591 -107.234 98.4877 -108.206 100.433C-108.242 100.541 -108.278 100.649 -108.314 100.757L-112.349 99.3883C-112.241 99.1001 -112.133 98.848 -111.989 98.5598C-109.971 94.5249 -105.036 92.9038 -100.929 94.9212C-99.0198 95.8579 -97.6509 97.443 -96.8943 99.2803L-100.929 100.685ZM-108.494 101.226C-108.531 101.37 -108.53 101.514 -108.567 101.622L-112.818 101.226C-112.781 100.757 -112.673 100.289 -112.529 99.8567L-108.494 101.226ZM-113.322 101.19L-257.567 87.536C-257.567 86.7074 -258.036 85.8789 -258.864 85.4826C-259.873 84.9782 -261.062 85.2664 -261.746 86.131L-395.004 3.48895C-395.004 3.48895 -395.004 3.45293 -394.968 3.45293L-112.998 99.6766C-113.178 100.181 -113.25 100.685 -113.322 101.19ZM-395.256 3.88523L-261.962 86.5273C-262.359 87.3199 -262.215 88.2205 -261.746 88.905L-334.806 154.327C-335.202 153.823 -335.706 153.39 -336.283 153.102C-337.291 152.598 -338.408 152.526 -339.417 152.814L-362.797 90.8503C-362.257 90.6702 -361.789 90.2739 -361.5 89.6975C-360.924 88.5447 -361.392 87.1397 -362.545 86.5994C-363.157 86.3112 -363.842 86.3112 -364.418 86.5273L-395.544 4.13741C-395.436 4.06536 -395.364 3.99331 -395.256 3.88523ZM-365.643 89.8416L-443.17 149.5C-443.35 149.283 -443.602 149.103 -443.854 148.959C-445.007 148.383 -446.412 148.851 -446.952 150.004C-447.06 150.22 -447.096 150.436 -447.169 150.652L-554.02 144.816C-554.02 144.168 -554.092 143.519 -554.236 142.907L-365.787 89.4814C-365.751 89.5895 -365.679 89.6975 -365.643 89.8416ZM-559.64 151.733L-538.601 221.55L-578.121 249.398C-578.517 248.893 -579.021 248.461 -579.634 248.173C-579.922 248.029 -580.246 247.921 -580.57 247.849L-562.522 151.805C-561.549 151.985 -560.576 151.949 -559.64 151.733ZM-514.968 292.196L-493.425 294.61C-493.425 294.754 -493.389 294.934 -493.353 295.078L-511.258 303.184L-514.968 292.196ZM-489.102 293.385L-462.731 277.281L-446.16 299.437L-488.814 294.646C-488.778 294.213 -488.886 293.781 -489.102 293.385ZM-462.335 277.029L-431.966 258.476C-431.75 258.728 -431.497 258.944 -431.209 259.089C-430.849 259.269 -430.453 259.341 -430.056 259.305L-425.481 294.033C-428.183 294.429 -430.669 296.087 -431.966 298.716C-432.326 299.437 -432.542 300.157 -432.686 300.914L-445.475 299.473L-462.335 277.029ZM-323.746 461.119C-323.241 460.074 -323.566 458.849 -324.502 458.201L-279.327 371.019L-298.132 494.874C-298.492 494.91 -298.852 495.018 -299.177 495.199L-324.214 461.731C-323.998 461.551 -323.854 461.371 -323.746 461.119ZM-296.222 498.693L-229.287 531.656C-229.756 532.665 -229.972 533.746 -229.936 534.79L-423.068 553.487C-423.248 552.875 -423.644 552.371 -424.256 552.047C-424.364 552.01 -424.437 551.974 -424.545 551.938L-404.046 445.628L-300.293 496.712C-300.509 497.72 -300.041 498.801 -299.068 499.269C-298.024 499.738 -296.871 499.486 -296.222 498.693ZM-472.71 560.476L-484.599 587.82C-485.499 587.567 -486.472 587.856 -487.049 588.576L-523.326 568.294C-523.29 568.258 -523.254 568.186 -523.254 568.15C-522.533 566.673 -522.245 565.088 -522.389 563.539L-473.791 558.819C-473.683 559.54 -473.287 560.116 -472.71 560.476ZM-523.686 567.934C-523.722 567.97 -523.722 568.006 -523.758 568.078L-527.469 565.988C-527.145 565.34 -527.073 564.691 -527.109 564.007L-522.894 563.611C-522.786 565.052 -523.002 566.565 -523.686 567.934ZM-559.64 761.93L-485.968 592.251C-484.959 592.575 -483.842 592.179 -483.266 591.278L-417.304 628.132C-417.592 628.708 -417.628 629.357 -417.412 629.933L-462.767 652.233C-463.2 651.476 -463.848 650.828 -464.677 650.432C-466.874 649.351 -469.54 650.252 -470.621 652.413C-471.522 654.214 -471.053 656.268 -469.684 657.601L-559.279 762.146C-559.423 762.074 -559.531 762.002 -559.64 761.93ZM-463.776 657.781L-390.825 734.118C-390.933 734.263 -391.041 734.407 -391.149 734.587C-391.726 735.704 -391.257 737.073 -390.176 737.649L-472.422 881.03C-472.494 880.994 -472.53 880.958 -472.602 880.922C-473.539 880.453 -474.476 880.201 -475.448 880.057L-466.622 658.789C-465.577 658.826 -464.569 658.465 -463.776 657.781ZM-472.819 881.426C-472.783 881.462 -472.71 881.498 -472.674 881.498L-474.764 885.137C-475.052 884.992 -475.34 884.92 -475.629 884.848L-475.448 880.633C-474.584 880.741 -473.683 880.994 -472.819 881.426ZM-476.097 884.776C-476.997 884.704 -477.898 884.92 -478.655 885.389L-481.032 881.894C-479.519 880.922 -477.754 880.453 -475.953 880.597L-476.097 884.776ZM-472.638 887.55L-468.712 886.001C-468.496 886.578 -468.351 887.19 -468.279 887.802L-472.494 888.199C-472.53 887.983 -472.566 887.766 -472.638 887.55ZM-472.819 887.118C-473.143 886.433 -473.647 885.821 -474.332 885.389L-472.242 881.75C-470.729 882.651 -469.576 884.02 -468.892 885.533L-472.819 887.118ZM-471.99 881.282L-389.708 737.865C-388.663 738.189 -387.475 737.685 -386.97 736.676C-386.97 736.676 -386.97 736.676 -386.97 736.64L-295.682 769.603L-305.337 818.418C-306.237 818.346 -307.174 818.814 -307.606 819.715C-307.895 820.291 -307.931 820.939 -307.715 821.48L-468.423 885.353C-469.144 883.696 -470.333 882.291 -471.99 881.282ZM-216.174 904.23C-215.994 903.834 -215.742 903.473 -215.49 903.113L-212.139 905.743C-212.211 905.851 -212.319 905.995 -212.355 906.103C-213.076 907.544 -212.824 909.201 -211.851 910.354L-215.057 913.092C-217.111 910.679 -217.651 907.22 -216.174 904.23ZM-211.563 910.751C-211.275 911.039 -210.951 911.291 -210.554 911.507C-209.834 911.867 -209.041 911.975 -208.285 911.903L-207.348 916.01C-209.005 916.299 -210.77 916.082 -212.428 915.254C-213.328 914.785 -214.121 914.209 -214.769 913.489L-211.563 910.751ZM-207.816 911.795C-206.699 911.543 -205.691 910.823 -205.15 909.742C-204.538 908.517 -204.646 907.148 -205.258 906.067L-201.764 903.726C-200.323 906.067 -200.071 909.021 -201.368 911.615C-202.485 913.885 -204.574 915.398 -206.88 915.902L-207.816 911.795ZM-200.899 911.831C-199.53 909.057 -199.783 905.887 -201.332 903.401L-186.994 893.891C-186.777 894.179 -186.525 894.431 -186.165 894.611C-185.805 894.791 -185.409 894.863 -185.012 894.827L-161.416 1113.79C-161.416 1113.79 -161.416 1113.79 -161.452 1113.79L-206.772 916.407C-204.286 915.866 -202.088 914.245 -200.899 911.831ZM-160.911 1113.72L-184.508 894.755C-183.895 894.575 -183.355 894.179 -183.031 893.567C-182.671 892.846 -182.743 892.017 -183.103 891.369L-105.793 840.105C-105.612 840.321 -105.36 840.501 -105.108 840.645C-104.352 841.042 -103.487 840.934 -102.802 840.501L82.4757 1035.25C82.1875 1035.58 81.8993 1035.9 81.7192 1036.3C81.2148 1037.31 81.1428 1038.39 81.431 1039.4L-156.408 1116.42C-156.804 1115.48 -157.525 1114.65 -158.498 1114.15C-159.29 1113.79 -160.119 1113.65 -160.911 1113.72ZM82.7999 1034.89L-102.442 840.177C-102.262 839.997 -102.118 839.817 -102.01 839.601C-101.614 838.808 -101.722 837.907 -102.226 837.223L-72.3611 809.123C-72.0729 809.411 -71.7487 809.664 -71.3524 809.844C-70.0195 810.492 -68.5063 810.42 -67.3175 809.772L82.98 1034.71C82.944 1034.79 82.8719 1034.82 82.7999 1034.89ZM-67.3536 801.882C-68.2542 801.45 -69.1909 801.342 -70.1275 801.486L-126.723 520.993C-126.147 520.849 -125.57 520.632 -125.03 520.38L26.5284 775.295C26.2042 775.548 25.916 775.836 25.7358 776.232C25.5197 776.628 25.4477 777.097 25.4837 777.529L-65.12 804.548C-65.4442 803.395 -66.2368 802.422 -67.3536 801.882ZM-73.4779 502.656C-73.5859 501.935 -74.0182 501.287 -74.7388 500.927C-75.4593 500.566 -76.2158 500.602 -76.8642 500.963L-160.011 380.566C-159.686 380.314 -159.362 380.026 -159.074 379.737L-76.504 452.941C-76.9363 453.445 -77.3326 454.022 -77.6208 454.634C-79.7463 458.921 -77.945 464.181 -73.6219 466.342C-70.0915 468.107 -65.9485 467.279 -63.3547 464.613L-30.5356 493.721L-73.4779 502.656ZM-63.0665 464.217C-62.6343 463.676 -62.2019 463.1 -61.8777 462.452C-59.9684 458.633 -61.1932 454.058 -64.5796 451.572L-29.9593 403.982L177.402 448.69C177.33 449.158 177.33 449.59 177.402 450.059L-29.9593 493.541L-63.0665 464.217ZM177.799 447.393C177.655 447.645 177.583 447.933 177.51 448.185L-29.599 403.514L21.1967 333.697C21.3768 333.805 21.5569 333.949 21.7371 334.021C24.2949 335.282 27.357 334.237 28.6539 331.716C29.9148 329.158 28.8701 326.096 26.3483 324.799C24.2949 323.79 21.9172 324.258 20.4041 325.807L-20.8448 290.323C-20.7728 290.214 -20.7007 290.142 -20.6647 290.034C-20.3405 289.35 -20.3765 288.593 -20.6647 287.981L116.916 204.618C117.132 204.907 117.384 205.123 117.708 205.303C118.141 205.519 118.573 205.591 119.005 205.519L180.465 445.159C179.348 445.52 178.375 446.276 177.799 447.393ZM117.853 201.088C117.348 201.304 116.916 201.664 116.664 202.205C116.376 202.817 116.34 203.465 116.592 204.042L-24.0151 275.012C-24.1232 274.832 -24.2673 274.652 -24.4474 274.543L88.3839 111.097C88.6721 111.277 88.9602 111.457 89.2484 111.601C91.1218 112.538 93.1752 112.754 95.0846 112.321L117.853 201.088ZM89.4646 111.097C89.1764 110.952 88.9243 110.808 88.6721 110.628L91.0497 107.17C91.1578 107.242 91.2299 107.314 91.3379 107.35C92.1665 107.746 93.0671 107.854 93.8958 107.674L94.9404 111.781C93.1752 112.177 91.2299 111.997 89.4646 111.097ZM94.3641 107.602C95.3368 107.278 96.2014 106.593 96.7057 105.585C97.3542 104.288 97.21 102.847 96.4896 101.694L99.948 99.2803C101.533 101.658 101.857 104.756 100.524 107.458C99.4796 109.584 97.5703 111.061 95.4088 111.637L94.3641 107.602ZM89.933 101.334L86.4025 98.9921C87.5192 97.443 89.1044 96.3622 90.9056 95.8939L91.9503 99.9648C91.1578 100.217 90.4373 100.649 89.933 101.334ZM89.6808 101.73C89.6448 101.802 89.5727 101.91 89.5007 101.982C88.636 103.711 89.1765 105.765 90.6534 106.918L88.2758 110.376C85.0695 108.034 83.9167 103.711 85.718 100.109C85.8261 99.8567 85.9702 99.6045 86.1143 99.3883L89.6808 101.73ZM85.2136 99.8567C83.3043 103.711 84.5652 108.287 87.9515 110.772L-24.8797 274.219C-24.9158 274.219 -24.9157 274.183 -24.9517 274.183C-26.1046 273.607 -27.5095 274.075 -28.0499 275.228C-28.3381 275.804 -28.3741 276.489 -28.158 277.065L-114.403 320.584C-115.231 319.035 -116.564 317.702 -118.257 316.837C-119.23 316.369 -120.239 316.081 -121.247 315.973L-104.784 110.952C-101.47 111.061 -98.2633 109.295 -96.7142 106.161C-95.6695 104.036 -95.5614 101.694 -96.2819 99.5685L20.9084 58.3555C21.1246 58.8238 21.4849 59.2561 21.9892 59.5083C22.9619 59.9767 24.0787 59.7245 24.7632 58.9679L85.6459 99.1001C85.5018 99.3523 85.3577 99.6045 85.2136 99.8567ZM-398.426 4.20946C-398.318 4.28151 -398.174 4.38958 -398.066 4.46164C-397.382 4.78586 -396.625 4.74984 -395.977 4.46164L-364.923 86.7795C-365.247 86.9956 -365.535 87.2838 -365.715 87.6801C-365.931 88.1124 -366.003 88.5808 -365.931 89.0491L-554.38 142.439C-554.632 141.61 -555.028 140.853 -555.569 140.169L-398.426 4.20946ZM-645.668 171.979C-643.867 172.159 -642.065 171.259 -641.237 169.566C-640.805 168.701 -640.697 167.728 -640.841 166.828L-568.178 147.014C-567.565 148.743 -566.34 150.256 -564.539 151.157C-564.035 151.409 -563.494 151.589 -562.954 151.733L-581.003 247.777C-582.84 247.524 -584.677 248.425 -585.542 250.19C-586.01 251.091 -586.082 252.1 -585.902 253.036L-664.257 273.355C-664.545 272.094 -665.338 270.941 -666.599 270.292C-666.743 270.22 -666.923 270.184 -667.067 270.112L-645.668 171.979ZM-664.906 276.741C-664.797 276.597 -664.689 276.453 -664.617 276.273C-664.473 275.984 -664.365 275.66 -664.293 275.372L-559.315 287.224C-559.315 287.945 -558.991 288.665 -558.379 289.098L-578.012 327.789C-581.795 325.988 -586.226 327.104 -588.676 330.275L-664.906 276.741ZM-585.29 342.811C-589.36 340.794 -591.054 335.895 -589.036 331.86C-588.856 331.535 -588.676 331.211 -588.46 330.887L-585.001 333.337C-585.073 333.481 -585.182 333.589 -585.254 333.733C-586.226 335.678 -585.398 338.056 -583.416 339.065C-581.615 339.965 -579.489 339.389 -578.409 337.84L-574.806 340.074C-577.04 343.424 -581.507 344.685 -585.29 342.811ZM-574.086 339.929C-573.978 339.785 -573.906 339.605 -573.798 339.461C-572.609 337.047 -572.645 334.309 -573.725 332.04L-511.546 303.868L-481.176 394.147C-481.969 394.472 -482.653 395.012 -483.194 395.733L-574.086 339.929ZM-475.34 396.813C-475.701 395.733 -476.457 394.796 -477.574 394.256C-478.294 393.895 -479.051 393.787 -479.807 393.823L-490.615 296.807C-489.967 296.663 -489.354 296.231 -489.03 295.582C-488.958 295.438 -488.886 295.294 -488.85 295.15L-445.727 300.013L-393.671 369.614C-394.211 370.047 -394.644 370.623 -394.968 371.271C-395.508 372.316 -395.616 373.469 -395.4 374.55L-475.34 396.813ZM-391.077 378.621C-389.852 378.801 -388.591 378.476 -387.547 377.828L-327.312 458.345C-327.528 458.525 -327.745 458.777 -327.889 459.065C-328.465 460.218 -327.997 461.623 -326.844 462.163C-326.087 462.56 -325.223 462.452 -324.538 462.019L-299.537 495.487C-299.753 495.667 -299.897 495.883 -300.041 496.135C-300.041 496.171 -300.077 496.207 -300.077 496.207L-403.902 445.159L-391.077 378.621ZM-424.977 551.83C-425.481 551.758 -425.986 551.866 -426.418 552.119L-452.14 514.364L-419.861 439.972C-419.033 440.044 -418.204 439.647 -417.736 438.891L-404.479 445.412L-424.977 551.83ZM-457.075 505.61C-456.571 504.601 -456.859 503.412 -457.724 502.728L-420.402 439.828C-420.402 439.828 -420.366 439.828 -420.366 439.864L-452.5 513.86L-457.652 506.294C-457.4 506.114 -457.22 505.898 -457.075 505.61ZM-476.709 486.012C-474.692 481.977 -469.756 480.356 -465.65 482.374C-461.579 484.391 -459.849 489.326 -461.867 493.361C-462.479 494.586 -463.344 495.595 -464.389 496.315L-466.766 492.821C-466.298 492.461 -465.902 492.028 -465.65 491.452C-464.677 489.47 -465.505 487.093 -467.487 486.084C-469.468 485.075 -471.882 485.904 -472.855 487.849C-473.323 488.822 -473.395 489.903 -473.071 490.839L-477.07 492.208C-477.79 490.299 -477.718 488.029 -476.709 486.012ZM-467.199 493.109L-464.821 496.604C-467.163 498.081 -470.225 498.333 -472.927 497C-474.8 496.063 -476.169 494.514 -476.925 492.713L-472.927 491.308C-472.566 492.1 -471.918 492.785 -471.089 493.217C-469.792 493.902 -468.351 493.794 -467.199 493.109ZM-512.41 508.24C-510.753 508.852 -508.88 508.132 -508.087 506.547C-507.619 505.574 -507.619 504.457 -508.051 503.556L-477.394 492.929C-476.601 494.838 -475.16 496.495 -473.143 497.504C-470.261 498.945 -467.018 498.657 -464.497 497.072L-460.606 502.8C-460.858 503.016 -461.074 503.268 -461.218 503.556C-461.795 504.709 -461.326 506.114 -460.174 506.655C-459.453 507.015 -458.661 506.979 -458.012 506.583L-452.68 514.4L-470.873 556.261C-471.918 555.973 -473.071 556.442 -473.575 557.45C-473.719 557.738 -473.791 558.063 -473.827 558.351L-522.425 563.106C-522.822 560.368 -524.551 557.811 -527.253 556.478C-527.613 556.297 -527.973 556.153 -528.37 556.045L-512.41 508.24ZM-538.529 560.584C-536.763 557.018 -532.693 555.361 -528.982 556.37L-530.315 560.368C-532.08 560.008 -533.917 560.801 -534.746 562.458C-535.178 563.322 -535.25 564.295 -535.034 565.16L-539.033 566.493C-539.573 564.583 -539.465 562.494 -538.529 560.584ZM-621.315 726.481C-621.279 726.409 -621.243 726.373 -621.207 726.337C-620.126 724.139 -621.027 721.474 -623.224 720.393C-623.909 720.033 -624.665 719.924 -625.386 719.961L-636.265 602.806C-636.049 602.77 -635.833 602.698 -635.617 602.626L-562.413 761.966C-562.738 762.146 -563.062 762.434 -563.278 762.759L-621.315 726.481ZM-559.207 766.685C-558.883 766.433 -558.631 766.109 -558.451 765.749C-557.91 764.632 -558.163 763.335 -558.991 762.47L-469.396 657.961C-469.18 658.141 -468.928 658.285 -468.676 658.429C-468.171 658.681 -467.631 658.826 -467.127 658.862L-475.953 880.093C-477.862 879.949 -479.771 880.453 -481.357 881.498L-559.207 766.685ZM-469.036 892.414C-471.053 896.449 -475.989 898.07 -480.096 896.052C-484.167 894.035 -485.86 889.099 -483.878 885.065C-483.302 883.876 -482.437 882.903 -481.429 882.182L-479.051 885.677C-479.447 886.001 -479.807 886.433 -480.06 886.938C-481.032 888.919 -480.204 891.297 -478.222 892.306C-476.241 893.314 -473.827 892.522 -472.855 890.54C-472.566 889.928 -472.458 889.316 -472.458 888.703L-468.243 888.307C-468.135 889.676 -468.387 891.081 -469.036 892.414ZM-467.775 887.73C-467.847 887.082 -468.027 886.397 -468.243 885.785L-307.534 821.912C-307.318 822.272 -306.994 822.597 -306.562 822.813C-306.454 822.849 -306.346 822.885 -306.237 822.921L-315.82 871.483C-316.721 871.411 -317.658 871.879 -318.09 872.78C-318.198 872.996 -318.234 873.176 -318.27 873.392L-467.775 887.73ZM-313.947 874.869C-313.731 874.437 -313.659 873.933 -313.731 873.464L-262.07 868.529C-261.962 869.105 -261.638 869.61 -261.134 869.97L-344.893 1022.72C-345.001 1022.65 -345.073 1022.57 -345.181 1022.54L-316.253 876.13C-315.316 876.238 -314.379 875.734 -313.947 874.869ZM-343.848 1023.69L-215.165 913.813C-214.445 914.569 -213.616 915.218 -212.644 915.686C-210.914 916.551 -209.005 916.767 -207.24 916.479L-161.92 1113.9C-162.929 1114.22 -163.829 1114.94 -164.37 1115.91L-343.308 1026.21C-343.163 1025.35 -343.344 1024.45 -343.848 1023.69ZM86.9068 1033.99C85.718 1033.63 84.4571 1033.85 83.4124 1034.43L-66.8492 809.519C-66.2368 809.087 -65.6964 808.547 -65.3361 807.826C-64.8678 806.926 -64.7957 805.917 -64.9759 804.98L25.5557 777.961C25.7358 778.718 26.2042 779.438 26.9968 779.799C28.3297 780.447 29.9508 779.907 30.5992 778.574C30.9595 777.853 30.9595 777.097 30.7073 776.412L185.04 730.372C185.76 732.497 187.309 734.335 189.471 735.415C189.687 735.523 189.867 735.595 190.083 735.704L86.9068 1033.99ZM196.964 720.393C201.035 722.41 202.764 727.346 200.747 731.38C198.909 735.091 194.586 736.748 190.696 735.415L192.065 731.453C193.938 732.101 196.028 731.272 196.928 729.471C197.901 727.49 197.072 725.112 195.091 724.103C193.65 723.383 191.957 723.599 190.804 724.572L187.922 721.438C190.336 719.384 193.902 718.844 196.964 720.393ZM187.201 721.401C186.841 721.762 186.517 722.122 186.193 722.518L56.2493 636.418L56.2853 636.382C56.8618 635.229 56.3934 633.824 55.2406 633.284C55.0965 633.212 54.9524 633.139 54.7723 633.103L62.8419 588.18C63.3823 588.216 63.9227 588.036 64.355 587.675L187.201 721.401ZM64.319 583.965C64.2109 583.893 64.1028 583.821 63.9948 583.749C62.95 583.244 61.7252 583.569 61.0767 584.505L-64.2194 517.354C-64.1473 517.138 -64.0753 516.922 -64.0753 516.706L-4.5614 518.615C-4.48938 519.408 -4.05707 520.164 -3.30054 520.524C-2.14771 521.101 -0.742737 520.632 -0.202393 519.48C0.374023 518.327 -0.0942993 516.922 -1.24713 516.381C-2.11176 515.949 -3.15643 516.129 -3.84094 516.742L-29.563 493.938L177.438 450.527C177.655 451.284 178.051 452.004 178.627 452.545L64.319 583.965ZM131.074 77.6291C131.29 77.9173 131.542 78.1334 131.866 78.3135C132.191 78.4937 132.551 78.5657 132.911 78.5297L180.969 445.015H180.933L119.474 205.411C120.05 205.231 120.518 204.834 120.807 204.258C121.383 203.105 120.915 201.7 119.762 201.16C119.294 200.944 118.789 200.872 118.321 200.944L95.5529 112.177C97.8585 111.529 99.8759 109.98 100.993 107.71C102.434 104.828 102.073 101.514 100.38 98.9921L131.074 77.6291ZM96.7417 96.4703C97.9305 97.0467 98.9033 97.9113 99.6598 98.884L96.2014 101.298C95.8411 100.865 95.4088 100.505 94.8684 100.217C94.0759 99.8207 93.2113 99.7126 92.3827 99.8567L91.3379 95.7498C93.1031 95.4256 95.0125 95.6057 96.7417 96.4703ZM85.9341 98.7039L25.0153 58.5717C25.0514 58.5356 25.0514 58.4996 25.0874 58.4636C25.3396 57.9232 25.3756 57.3468 25.2315 56.8424L72.2445 40.3068C72.6407 41.2435 73.3613 42.036 74.334 42.5044C75.2706 42.9727 76.3154 43.0448 77.2521 42.8646L90.7255 95.3895C88.8522 95.8939 87.1229 97.0467 85.9341 98.7039Z" fill="url(#paint0_linear_1761:1641)" fill-opacity="0.6"/>
<defs>
<linearGradient id="paint0_linear_1761:1641" x1="152.351" y1="115.898" x2="-751.384" y2="824.394" gradientUnits="userSpaceOnUse">
<stop stop-color="#8B64EC"/>
<stop offset="0.353531" stop-color="#4B92FF"/>
<stop offset="0.832706" stop-color="#28E5BB"/>
</linearGradient>
</defs>
</svg>
