<?xml version="1.0" encoding="utf-8"?>
<!-- Generator: Adobe Illustrator 26.0.0, SVG Export Plug-In . SVG Version: 6.00 Build 0)  -->
<svg version="1.1" id="Layer_1" xmlns="http://www.w3.org/2000/svg" xmlns:xlink="http://www.w3.org/1999/xlink" x="0px" y="0px"
	 viewBox="0 0 738 696" style="enable-background:new 0 0 738 696;" xml:space="preserve">
<style type="text/css">
	.st0{opacity:0.5;}
	.st1{fill:none;}
	.st2{fill:url(#SVGID_1_);fill-opacity:0.29;}
	.st3{fill:none;stroke:url(#SVGID_00000133522059052914455760000012771730218350334901_);stroke-width:2;}
	.st4{fill:#FFFFFF;}
	.st5{fill:url(#SVGID_00000055700552372205516340000015729161111279464586_);fill-opacity:0.29;}
	.st6{fill:none;stroke:url(#SVGID_00000034052703331243257600000006347823683675776675_);stroke-width:2;}
	.st7{fill:url(#SVGID_00000076588350373941398230000002654833112598590882_);fill-opacity:0.29;}
	.st8{fill:none;stroke:url(#SVGID_00000106120551659158143250000004421884859686458263_);stroke-width:2;}
</style>
<g class="st0">
	
		<image style="overflow:visible;" width="642" height="201" xlink:href="19AD56C25374B2CA.png"  transform="matrix(1 0 0 1 53.4247 453.5107)">
	</image>
</g>
<image style="overflow:visible;" width="696" height="690" xlink:href="../../../../../../../../../../../../Users/bentoth/Desktop/SORCE/DESKTOP/3D_Donut 1.png"  transform="matrix(1 0 0 1 15.4247 -53.4893)">
</image>
<rect x="52.4" y="-61.5" class="st1" width="696" height="690"/>
<g>
	
		<linearGradient id="SVGID_1_" gradientUnits="userSpaceOnUse" x1="160.4704" y1="829.1343" x2="240.7114" y2="727.783" gradientTransform="matrix(1 0 0 -1 0 857.0214)">
		<stop  offset="0" style="stop-color:#87539F"/>
		<stop  offset="1" style="stop-color:#000000"/>
	</linearGradient>
	<path shape-rendering="crispEdges" class="st2" d="M74.4,24.5h257c8.3,0,15,6.7,15,15v84c0,8.3-6.7,15-15,15h-257
		c-8.3,0-15-6.7-15-15v-84C59.4,31.2,66.1,24.5,74.4,24.5z"/>
	
		<radialGradient id="SVGID_00000068668002882436067720000007868152521113934772_" cx="-133.3839" cy="682.3282" r="1" gradientTransform="matrix(57.7949 -37.9624 -59.6401 -90.7975 48595.8633 57021.5977)" gradientUnits="userSpaceOnUse">
		<stop  offset="0" style="stop-color:#98FFD4;stop-opacity:0.33"/>
		<stop  offset="1" style="stop-color:#FFFFFF;stop-opacity:0"/>
	</radialGradient>
	
		<path shape-rendering="crispEdges" style="fill:none;stroke:url(#SVGID_00000068668002882436067720000007868152521113934772_);stroke-width:2;" d="
		M74.4,25.5h257c7.7,0,14,6.3,14,14v84c0,7.7-6.3,14-14,14h-257c-7.7,0-14-6.3-14-14v-84C60.4,31.8,66.7,25.5,74.4,25.5z"/>
</g>
<path class="st4" d="M143.4,54.3h-6.2l-1.2,3.3h-2l5.2-13.8h2.1l5.2,13.8h-2L143.4,54.3z M142.9,52.8l-2.6-7.1l-2.6,7.1H142.9z
	 M154.7,46.4c1,0,1.8,0.2,2.6,0.7c0.8,0.5,1.4,1.1,1.8,2c0.4,0.9,0.7,1.9,0.7,3c0,1.1-0.2,2.1-0.7,3c-0.4,0.8-1,1.5-1.8,1.9
	c-0.8,0.5-1.6,0.7-2.6,0.7c-1.1,0-2-0.3-2.7-0.8c-0.7-0.5-1.2-1.3-1.5-2.1v2.8h-1.8V42.7h1.8v6.6c0.3-0.9,0.8-1.6,1.5-2.1
	C152.7,46.7,153.6,46.4,154.7,46.4z M154.1,48c-0.7,0-1.3,0.2-1.9,0.5c-0.6,0.3-1,0.8-1.3,1.4s-0.5,1.3-0.5,2.1
	c0,0.8,0.2,1.5,0.5,2.1c0.3,0.6,0.8,1.1,1.3,1.4c0.6,0.3,1.2,0.5,1.9,0.5c1.1,0,2-0.4,2.7-1.1c0.7-0.7,1-1.7,1-3
	c0-1.3-0.3-2.2-1-2.9C156.2,48.4,155.3,48,154.1,48z M165.7,46.4c1.2,0,2.2,0.3,3,1c0.8,0.6,1.2,1.5,1.4,2.6h-1.7
	c-0.1-0.7-0.4-1.2-0.8-1.6c-0.5-0.4-1.1-0.6-1.8-0.6c-0.7,0-1.2,0.2-1.5,0.5c-0.4,0.3-0.5,0.7-0.5,1.3c0,0.4,0.1,0.7,0.4,1
	c0.3,0.2,0.6,0.4,0.9,0.6c0.4,0.1,0.9,0.3,1.5,0.4c0.8,0.2,1.5,0.4,2,0.6c0.5,0.2,0.9,0.5,1.3,0.9c0.4,0.4,0.5,1,0.5,1.7
	c0,0.9-0.3,1.6-1,2.2c-0.7,0.6-1.6,0.8-2.7,0.8c-1.3,0-2.4-0.3-3.2-0.9c-0.8-0.6-1.3-1.5-1.5-2.6h1.8c0.1,0.7,0.4,1.2,0.9,1.6
	c0.5,0.4,1.2,0.6,2,0.6c0.6,0,1.1-0.2,1.5-0.5c0.4-0.3,0.5-0.7,0.5-1.3c0-0.4-0.1-0.8-0.4-1c-0.3-0.3-0.6-0.4-0.9-0.6
	c-0.4-0.1-0.9-0.3-1.5-0.4c-0.8-0.2-1.5-0.4-2-0.6c-0.5-0.2-0.9-0.5-1.2-0.9c-0.3-0.4-0.5-1-0.5-1.7c0-0.9,0.3-1.7,1-2.2
	C163.6,46.7,164.5,46.4,165.7,46.4z M182.9,51.4c0,0.4,0,0.7-0.1,1H174c0,1.3,0.4,2.2,1.1,2.8c0.7,0.6,1.5,0.9,2.5,0.9
	c0.9,0,1.6-0.2,2.2-0.7c0.6-0.5,1-1.1,1.1-1.8h1.9c-0.1,0.8-0.4,1.4-0.9,2c-0.5,0.6-1,1.1-1.8,1.4c-0.7,0.3-1.6,0.5-2.5,0.5
	c-1.1,0-2-0.2-2.8-0.7c-0.8-0.5-1.5-1.1-1.9-1.9c-0.5-0.9-0.7-1.9-0.7-3c0-1.1,0.2-2.1,0.7-3c0.5-0.9,1.1-1.5,1.9-2
	c0.8-0.5,1.7-0.7,2.8-0.7c1.1,0,2,0.2,2.8,0.7c0.8,0.5,1.4,1.1,1.8,1.8C182.7,49.7,182.9,50.5,182.9,51.4z M181.1,51.5
	c0-0.8-0.1-1.5-0.4-2c-0.3-0.5-0.7-1-1.3-1.2c-0.5-0.3-1.1-0.4-1.7-0.4c-1,0-1.8,0.3-2.5,0.9c-0.7,0.6-1,1.5-1.1,2.7H181.1z
	 M191.3,46.4c1.3,0,2.3,0.4,3.1,1.2c0.8,0.8,1.2,2,1.2,3.5v6.4h-1.8v-6.2c0-1.1-0.3-1.9-0.8-2.5c-0.6-0.6-1.3-0.9-2.3-0.9
	c-1,0-1.8,0.3-2.4,1c-0.6,0.6-0.9,1.6-0.9,2.8v5.8h-1.8v-11h1.8v2.6c0.3-0.9,0.8-1.6,1.5-2.1C189.5,46.6,190.3,46.4,191.3,46.4z
	 M203.8,55.9v1.6h-1.4c-1.1,0-2-0.3-2.5-0.8c-0.5-0.5-0.8-1.4-0.8-2.7v-5.9h-1.6v-1.6h1.6v-2.7h1.8v2.7h2.8v1.6h-2.8v6
	c0,0.7,0.1,1.2,0.4,1.5c0.3,0.3,0.7,0.4,1.4,0.4H203.8z M216.3,51.4c0,0.4,0,0.7-0.1,1h-8.8c0,1.3,0.4,2.2,1.1,2.8
	c0.7,0.6,1.5,0.9,2.5,0.9c0.9,0,1.6-0.2,2.2-0.7c0.6-0.5,1-1.1,1.1-1.8h1.9c-0.1,0.8-0.4,1.4-0.9,2c-0.5,0.6-1,1.1-1.8,1.4
	c-0.7,0.3-1.6,0.5-2.5,0.5c-1.1,0-2-0.2-2.8-0.7c-0.8-0.5-1.5-1.1-1.9-1.9c-0.5-0.9-0.7-1.9-0.7-3c0-1.1,0.2-2.1,0.7-3
	c0.5-0.9,1.1-1.5,1.9-2c0.8-0.5,1.7-0.7,2.8-0.7c1.1,0,2,0.2,2.8,0.7c0.8,0.5,1.4,1.1,1.8,1.8C216.1,49.7,216.3,50.5,216.3,51.4z
	 M214.5,51.5c0-0.8-0.1-1.5-0.4-2c-0.3-0.5-0.7-1-1.3-1.2c-0.5-0.3-1.1-0.4-1.7-0.4c-1,0-1.8,0.3-2.5,0.9c-0.7,0.6-1,1.5-1.1,2.7
	H214.5z M229,51.4c0,0.4,0,0.7-0.1,1h-8.8c0,1.3,0.4,2.2,1.1,2.8c0.7,0.6,1.5,0.9,2.5,0.9c0.9,0,1.6-0.2,2.2-0.7
	c0.6-0.5,1-1.1,1.1-1.8h1.9c-0.1,0.8-0.4,1.4-0.9,2c-0.5,0.6-1,1.1-1.8,1.4c-0.7,0.3-1.6,0.5-2.5,0.5c-1.1,0-2-0.2-2.8-0.7
	c-0.8-0.5-1.5-1.1-1.9-1.9c-0.5-0.9-0.7-1.9-0.7-3c0-1.1,0.2-2.1,0.7-3c0.5-0.9,1.1-1.5,1.9-2c0.8-0.5,1.7-0.7,2.8-0.7
	c1.1,0,2,0.2,2.8,0.7c0.8,0.5,1.4,1.1,1.8,1.8C228.8,49.7,229,50.5,229,51.4z M227.1,51.5c0-0.8-0.1-1.5-0.4-2
	c-0.3-0.5-0.7-1-1.3-1.2c-0.5-0.3-1.1-0.4-1.7-0.4c-1,0-1.8,0.3-2.5,0.9c-0.7,0.6-1,1.5-1.1,2.7H227.1z M231.2,43.3
	c0-0.3,0.1-0.6,0.3-0.8c0.2-0.2,0.5-0.3,0.9-0.3c0.4,0,0.7,0.1,0.9,0.3c0.2,0.2,0.3,0.5,0.3,0.8s-0.1,0.6-0.3,0.8
	c-0.2,0.2-0.5,0.3-0.9,0.3c-0.4,0-0.7-0.1-0.9-0.3C231.3,43.9,231.2,43.6,231.2,43.3z M233.4,46.5v11h-1.8v-11H233.4z M239.9,46.4
	c1.2,0,2.2,0.3,3,1c0.8,0.6,1.2,1.5,1.4,2.6h-1.7c-0.1-0.7-0.4-1.2-0.8-1.6c-0.5-0.4-1.1-0.6-1.8-0.6c-0.7,0-1.2,0.2-1.5,0.5
	c-0.4,0.3-0.5,0.7-0.5,1.3c0,0.4,0.1,0.7,0.4,1c0.3,0.2,0.6,0.4,0.9,0.6c0.4,0.1,0.9,0.3,1.5,0.4c0.8,0.2,1.5,0.4,2,0.6
	c0.5,0.2,0.9,0.5,1.3,0.9c0.4,0.4,0.5,1,0.5,1.7c0,0.9-0.3,1.6-1,2.2c-0.7,0.6-1.6,0.8-2.7,0.8c-1.3,0-2.4-0.3-3.2-0.9
	c-0.8-0.6-1.3-1.5-1.5-2.6h1.8c0.1,0.7,0.4,1.2,0.9,1.6c0.5,0.4,1.2,0.6,2,0.6c0.6,0,1.1-0.2,1.5-0.5c0.4-0.3,0.5-0.7,0.5-1.3
	c0-0.4-0.1-0.8-0.4-1c-0.3-0.3-0.6-0.4-0.9-0.6c-0.4-0.1-0.9-0.3-1.5-0.4c-0.8-0.2-1.5-0.4-2-0.6c-0.5-0.2-0.9-0.5-1.2-0.9
	c-0.3-0.4-0.5-1-0.5-1.7c0-0.9,0.3-1.7,1-2.2C237.8,46.7,238.8,46.4,239.9,46.4z M260.5,46.4c1.3,0,2.3,0.4,3.1,1.2
	c0.8,0.8,1.2,2,1.2,3.5v6.4H263v-6.2c0-1.1-0.3-1.9-0.8-2.5c-0.5-0.6-1.2-0.9-2.2-0.9c-1,0-1.7,0.3-2.3,1c-0.6,0.6-0.9,1.6-0.9,2.8
	v5.8H255v-6.2c0-1.1-0.3-1.9-0.8-2.5c-0.5-0.6-1.3-0.9-2.2-0.9c-1,0-1.8,0.3-2.3,1c-0.6,0.6-0.9,1.6-0.9,2.8v5.8H247v-11h1.8V49
	c0.3-0.9,0.7-1.5,1.4-2c0.7-0.5,1.5-0.7,2.4-0.7c0.9,0,1.7,0.2,2.4,0.7c0.7,0.5,1.2,1.2,1.5,2.1c0.3-0.9,0.8-1.6,1.5-2.1
	C258.8,46.6,259.6,46.4,260.5,46.4z"/>
<path class="st4" d="M139.3,93.2c2.4,0.7,4.3,1.5,5.8,2.2s2.8,1.8,3.8,3.1c1.1,1.4,1.6,3.2,1.6,5.4c0,1.8-0.5,3.5-1.4,5
	c-0.9,1.5-2.3,2.7-4.2,3.6c-1.9,0.9-4.1,1.4-6.8,1.4h0v4h-1.9v-4.1c-3.5-0.3-6.3-1.4-8.5-3.2c-2.2-1.9-3.4-4.3-3.6-7.2h7.5
	c0.1,1.2,0.6,2.3,1.4,3.2c0.8,0.9,1.9,1.5,3.2,1.8v-9.8l-1-0.3c-2.4-0.7-4.3-1.4-5.8-2c-1.5-0.7-2.7-1.7-3.8-3.1
	c-1-1.4-1.5-3.2-1.5-5.5c0-2,0.5-3.7,1.5-5.1c1.1-1.5,2.5-2.6,4.3-3.4c1.9-0.8,4-1.2,6.3-1.2v-4.2h1.9v4.2c3.5,0.2,6.2,1.2,8.2,3.1
	c2.1,1.8,3.2,4,3.5,6.8h-7.6c-0.2-1.1-0.6-2-1.4-2.8c-0.7-0.8-1.6-1.3-2.8-1.6v9.5L139.3,93.2z M131.5,87.2c0,1.2,0.4,2.2,1.2,2.9
	c0.8,0.7,1.9,1.4,3.4,2v-9c-1.5,0.1-2.6,0.4-3.4,1.1C131.9,85,131.5,85.9,131.5,87.2z M138.1,108.5c1.5,0,2.7-0.4,3.6-1.2
	c0.9-0.8,1.3-1.9,1.3-3.2c0-1.2-0.4-2.2-1.3-2.9c-0.8-0.8-2-1.4-3.6-1.9V108.5z M153.8,84.8v-6.6h12.7v35.3h-7.4V84.8H153.8z
	 M178.1,109c0.8,1.8,1.2,3.6,1.2,5.4c0,2.1-0.6,3.8-1.7,5.1c-1.1,1.3-2.7,2-5,2v-2.7c0.9,0,1.5-0.2,1.9-0.7c0.4-0.4,0.6-1.1,0.6-2.2
	v-0.5h-3.2V109H178.1z M202.9,87.8c-0.5-3.5-2.3-5.2-5.3-5.2c-2.3,0-4,1-5.1,3.1c-1.1,2-1.5,5.2-1.4,9.6c0.5-1.6,1.6-2.9,3.1-3.8
	c1.6-1,3.4-1.4,5.4-1.4c3.4,0,6.1,1,8,3.1c2,2,3,4.9,3,8.7c0,2.3-0.5,4.4-1.4,6.2c-0.9,1.8-2.3,3.2-4.2,4.2c-1.8,1-4.1,1.6-6.7,1.6
	c-5.1,0-8.7-1.6-10.6-4.8c-1.9-3.2-2.9-7.6-2.9-13.2c0-6.4,1-11.2,3.1-14.3c2.1-3.1,5.5-4.7,10.2-4.7c3.6,0,6.3,1,8.2,3.1
	c1.9,2,3,4.6,3.2,7.8H202.9z M191.7,101.4c0,1.9,0.5,3.4,1.6,4.6c1.1,1.2,2.7,1.8,4.8,1.8c1.8,0,3.2-0.5,4.3-1.6
	c1.1-1.1,1.6-2.6,1.6-4.4c0-2-0.5-3.5-1.7-4.6c-1.1-1.1-2.5-1.6-4.3-1.6c-1.7,0-3.2,0.5-4.5,1.5C192.3,98.1,191.7,99.5,191.7,101.4z
	 M217.2,86.3c0-1.7,0.5-3.3,1.4-4.8c1-1.5,2.4-2.6,4.2-3.6c1.9-0.9,4.2-1.3,6.9-1.3c2.7,0,4.9,0.4,6.8,1.3c1.9,0.9,3.3,2.1,4.2,3.6
	c1,1.5,1.5,3.1,1.5,4.8c0,1.9-0.5,3.6-1.4,4.9c-0.9,1.3-2.3,2.3-4.2,3c2.1,0.8,3.7,2,4.8,3.5c1.1,1.5,1.7,3.3,1.7,5.5
	c0,2.3-0.6,4.4-1.8,6.1c-1.2,1.7-2.8,2.9-4.8,3.8c-2,0.9-4.3,1.3-6.8,1.3c-2.6,0-4.9-0.4-6.9-1.3c-2-0.9-3.6-2.1-4.8-3.8
	c-1.1-1.7-1.7-3.7-1.7-6.1c0-2.2,0.5-4,1.7-5.5c1.1-1.5,2.8-2.7,4.8-3.5c-1.9-0.7-3.3-1.7-4.2-3.1C217.7,89.8,217.2,88.2,217.2,86.3
	z M224.1,87.4c0,1.6,0.5,2.8,1.5,3.7c1,0.9,2.4,1.3,4.1,1.3c1.7,0,3.1-0.4,4.1-1.3c1-0.9,1.5-2.1,1.5-3.7c0-1.6-0.5-2.8-1.5-3.7
	c-1-0.9-2.4-1.3-4-1.3c-1.7,0-3,0.4-4.1,1.3C224.6,84.6,224.1,85.8,224.1,87.4z M223.2,102.8c0,1.8,0.6,3.2,1.8,4.2
	c1.2,1,2.8,1.6,4.8,1.6s3.6-0.5,4.8-1.6c1.2-1,1.8-2.4,1.8-4.2c0-1.8-0.6-3.2-1.9-4.1c-1.2-1-2.8-1.4-4.7-1.4
	c-1.9,0-3.5,0.5-4.7,1.4C223.8,99.6,223.2,101,223.2,102.8z M273.9,83.7h-16.8v8.9c0.8-0.9,1.8-1.6,3.2-2.2c1.4-0.6,2.9-0.8,4.5-0.8
	c2.4,0,4.5,0.5,6,1.6c1.6,1,2.8,2.4,3.6,4.2c0.8,1.7,1.2,3.7,1.2,5.8c0,3.8-1.1,6.8-3.2,9.1c-2.1,2.3-5.1,3.4-9,3.4
	c-2.6,0-4.8-0.4-6.7-1.3c-1.9-0.9-3.4-2.2-4.4-3.9c-1.1-1.7-1.7-3.6-1.8-5.8h6.8c0.3,1.5,0.9,2.7,1.8,3.6c1,0.9,2.2,1.3,3.9,1.3
	c1.9,0,3.4-0.6,4.3-1.8c1-1.2,1.5-2.8,1.5-4.8c0-1.9-0.5-3.3-1.5-4.4c-1-1-2.4-1.6-4.2-1.6c-1.3,0-2.5,0.3-3.4,0.9
	c-0.9,0.6-1.6,1.3-2,2.3h-6.8V77.5h23.1V83.7z"/>
<g>
	
		<linearGradient id="SVGID_00000172400321598205354250000008115041902150972818_" gradientUnits="userSpaceOnUse" x1="79.7156" y1="435.6395" x2="186.1156" y2="293.3845" gradientTransform="matrix(1 0 0 -1 0 857.0214)">
		<stop  offset="0" style="stop-color:#6BE7C1"/>
		<stop  offset="1" style="stop-color:#000000"/>
	</linearGradient>
	
		<path shape-rendering="crispEdges" style="fill:url(#SVGID_00000172400321598205354250000008115041902150972818_);fill-opacity:0.29;" d="
		M19.4,428.5h221c8.3,0,15,6.7,15,15v90c0,8.3-6.7,15-15,15h-221c-8.3,0-15-6.7-15-15v-90C4.4,435.2,11.1,428.5,19.4,428.5z"/>
	
		<radialGradient id="SVGID_00000176034866106670607370000016002427172080438709_" cx="-133.0134" cy="682.5186" r="1" gradientTransform="matrix(50.5453 -39.9604 -66.5604 -84.1912 52272.9961 52687.8867)" gradientUnits="userSpaceOnUse">
		<stop  offset="0" style="stop-color:#98FFD4;stop-opacity:0.33"/>
		<stop  offset="1" style="stop-color:#FFFFFF;stop-opacity:0"/>
	</radialGradient>
	
		<path shape-rendering="crispEdges" style="fill:none;stroke:url(#SVGID_00000176034866106670607370000016002427172080438709_);stroke-width:2;" d="
		M19.4,429.5h221c7.7,0,14,6.3,14,14v90c0,7.7-6.3,14-14,14h-221c-7.7,0-14-6.3-14-14v-90C5.4,435.8,11.7,429.5,19.4,429.5z"/>
</g>
<g>
	
		<linearGradient id="SVGID_00000029728807717437103630000015436219164158789563_" gradientUnits="userSpaceOnUse" x1="471.1066" y1="604.0888" x2="515.3266" y2="515.7568" gradientTransform="matrix(1 0 0 -1 0 857.0214)">
		<stop  offset="0" style="stop-color:#6B95E7"/>
		<stop  offset="1" style="stop-color:#000000"/>
	</linearGradient>
	
		<path shape-rendering="crispEdges" style="fill:url(#SVGID_00000029728807717437103630000015436219164158789563_);fill-opacity:0.29;" d="
		M377.4,246.5h235c8.3,0,15,6.7,15,15v78c0,8.3-6.7,15-15,15h-235c-8.3,0-15-6.7-15-15v-78C362.4,253.2,369.1,246.5,377.4,246.5z"/>
	
		<radialGradient id="SVGID_00000001657057518936645940000004624426198785408951_" cx="-133.5166" cy="682.5944" r="1" gradientTransform="matrix(53.3646 -35.9644 -57.0648 -84.6738 46562.8086 53343.8438)" gradientUnits="userSpaceOnUse">
		<stop  offset="0" style="stop-color:#98FFD4;stop-opacity:0.33"/>
		<stop  offset="1" style="stop-color:#FFFFFF;stop-opacity:0"/>
	</radialGradient>
	
		<path shape-rendering="crispEdges" style="fill:none;stroke:url(#SVGID_00000001657057518936645940000004624426198785408951_);stroke-width:2;" d="
		M377.4,247.5h235c7.7,0,14,6.3,14,14v78c0,7.7-6.3,14-14,14h-235c-7.7,0-14-6.3-14-14v-78C363.4,253.8,369.7,247.5,377.4,247.5z"/>
</g>
<path class="st4" d="M395.2,272.3H389l-1.2,3.3h-2l5.2-13.8h2.1l5.2,13.8h-2L395.2,272.3z M394.7,270.8l-2.6-7.1l-2.6,7.1H394.7z
	 M405.7,273.9v1.6h-1.4c-1.1,0-2-0.3-2.5-0.8c-0.5-0.5-0.8-1.4-0.8-2.7v-5.9h-1.6v-1.6h1.6v-2.7h1.8v2.7h2.8v1.6h-2.8v6
	c0,0.7,0.1,1.2,0.4,1.5c0.3,0.3,0.7,0.4,1.4,0.4H405.7z M413.3,273.9v1.6H412c-1.1,0-2-0.3-2.5-0.8c-0.5-0.5-0.8-1.4-0.8-2.7v-5.9
	H407v-1.6h1.6v-2.7h1.8v2.7h2.8v1.6h-2.8v6c0,0.7,0.1,1.2,0.4,1.5c0.3,0.3,0.7,0.4,1.4,0.4H413.3z M417.6,266.8
	c0.4-0.8,0.9-1.3,1.6-1.8c0.7-0.4,1.5-0.6,2.5-0.6v2h-0.6c-1,0-1.9,0.3-2.5,0.8c-0.7,0.5-1,1.4-1,2.6v5.8h-1.8v-11h1.8V266.8z
	 M423.3,261.3c0-0.3,0.1-0.6,0.3-0.8c0.2-0.2,0.5-0.3,0.9-0.3s0.7,0.1,0.9,0.3c0.2,0.2,0.3,0.5,0.3,0.8c0,0.3-0.1,0.6-0.3,0.8
	c-0.2,0.2-0.5,0.3-0.9,0.3s-0.7-0.1-0.9-0.3C423.4,261.9,423.3,261.6,423.3,261.3z M425.4,264.5v11h-1.8v-11H425.4z M433.8,273.9
	v1.6h-1.4c-1.1,0-2-0.3-2.5-0.8c-0.5-0.5-0.8-1.4-0.8-2.7v-5.9h-1.6v-1.6h1.6v-2.7h1.8v2.7h2.8v1.6H431v6c0,0.7,0.1,1.2,0.4,1.5
	c0.3,0.3,0.7,0.4,1.4,0.4H433.8z M435.9,261.3c0-0.3,0.1-0.6,0.3-0.8c0.2-0.2,0.5-0.3,0.9-0.3s0.7,0.1,0.9,0.3
	c0.2,0.2,0.3,0.5,0.3,0.8c0,0.3-0.1,0.6-0.3,0.8c-0.2,0.2-0.5,0.3-0.9,0.3s-0.7-0.1-0.9-0.3C436,261.9,435.9,261.6,435.9,261.3z
	 M438.1,264.5v11h-1.8v-11H438.1z M446.2,264.4c1.1,0,2,0.2,2.8,0.7c0.8,0.5,1.5,1.1,2,2c0.5,0.9,0.7,1.9,0.7,3s-0.2,2.1-0.7,3
	c-0.5,0.8-1.1,1.5-2,1.9c-0.8,0.5-1.8,0.7-2.8,0.7c-1.1,0-2-0.2-2.8-0.7c-0.8-0.5-1.5-1.1-2-1.9c-0.5-0.9-0.7-1.9-0.7-3
	s0.2-2.1,0.7-3c0.5-0.9,1.1-1.5,2-2C444.2,264.6,445.1,264.4,446.2,264.4z M446.2,266c-0.7,0-1.3,0.1-1.8,0.4
	c-0.5,0.3-1,0.7-1.3,1.4c-0.3,0.6-0.5,1.3-0.5,2.2c0,0.9,0.2,1.6,0.5,2.2c0.3,0.6,0.8,1,1.3,1.3c0.6,0.3,1.2,0.4,1.8,0.4
	c0.7,0,1.3-0.1,1.8-0.4c0.6-0.3,1-0.7,1.3-1.3c0.3-0.6,0.5-1.4,0.5-2.2c0-0.9-0.2-1.6-0.5-2.2c-0.3-0.6-0.8-1.1-1.3-1.4
	C447.4,266.1,446.8,266,446.2,266z M460,264.4c1.3,0,2.3,0.4,3.1,1.2c0.8,0.8,1.2,2,1.2,3.5v6.4h-1.8v-6.2c0-1.1-0.3-1.9-0.8-2.5
	c-0.6-0.6-1.3-0.9-2.3-0.9c-1,0-1.8,0.3-2.4,1c-0.6,0.6-0.9,1.6-0.9,2.8v5.8h-1.8v-11h1.8v2.6c0.3-0.9,0.8-1.6,1.5-2.1
	C458.3,264.6,459.1,264.4,460,264.4z M477.3,261.9c-1,0-1.7,0.2-2,0.5c-0.4,0.3-0.6,0.9-0.6,1.8v0.3h2.6v1.6h-2.6v9.4h-1.8v-9.4
	h-1.6v-1.6h1.6v-0.4c0-2.6,1.5-3.9,4.4-3.8V261.9z M481.3,266.8c0.4-0.8,0.9-1.3,1.6-1.8c0.7-0.4,1.5-0.6,2.5-0.6v2h-0.6
	c-1,0-1.9,0.3-2.5,0.8c-0.7,0.5-1,1.4-1,2.6v5.8h-1.8v-11h1.8V266.8z M492.3,264.4c1.1,0,2,0.2,2.8,0.7c0.8,0.5,1.5,1.1,2,2
	c0.5,0.9,0.7,1.9,0.7,3s-0.2,2.1-0.7,3c-0.5,0.8-1.1,1.5-2,1.9c-0.8,0.5-1.8,0.7-2.8,0.7c-1,0-2-0.2-2.8-0.7c-0.8-0.5-1.5-1.1-2-1.9
	c-0.5-0.9-0.7-1.9-0.7-3s0.2-2.1,0.7-3c0.5-0.9,1.1-1.5,2-2C490.3,264.6,491.3,264.4,492.3,264.4z M492.3,266
	c-0.7,0-1.3,0.1-1.8,0.4c-0.5,0.3-1,0.7-1.3,1.4c-0.3,0.6-0.5,1.3-0.5,2.2c0,0.9,0.2,1.6,0.5,2.2c0.4,0.6,0.8,1,1.3,1.3
	c0.6,0.3,1.2,0.4,1.8,0.4c0.7,0,1.3-0.1,1.8-0.4c0.6-0.3,1-0.7,1.3-1.3c0.3-0.6,0.5-1.4,0.5-2.2c0-0.9-0.2-1.6-0.5-2.2
	c-0.3-0.6-0.8-1.1-1.3-1.4C493.6,266.1,493,266,492.3,266z M513.9,264.4c1.3,0,2.3,0.4,3.1,1.2c0.8,0.8,1.2,2,1.2,3.5v6.4h-1.8v-6.2
	c0-1.1-0.3-1.9-0.8-2.5c-0.5-0.6-1.2-0.9-2.2-0.9c-1,0-1.7,0.3-2.3,1c-0.6,0.6-0.9,1.6-0.9,2.8v5.8h-1.8v-6.2c0-1.1-0.3-1.9-0.8-2.5
	c-0.5-0.6-1.3-0.9-2.2-0.9c-1,0-1.8,0.3-2.3,1c-0.6,0.6-0.9,1.6-0.9,2.8v5.8h-1.8v-11h1.8v2.5c0.3-0.9,0.7-1.5,1.4-2
	c0.7-0.5,1.5-0.7,2.4-0.7c0.9,0,1.7,0.2,2.4,0.7c0.7,0.5,1.2,1.2,1.5,2.1c0.3-0.9,0.8-1.6,1.5-2.1
	C512.2,264.6,513,264.4,513.9,264.4z M533.2,268.2c0.9,0.2,1.6,0.6,2.1,1.2c0.6,0.6,0.8,1.4,0.8,2.3c0,1.1-0.4,2.1-1.2,2.8
	c-0.8,0.7-1.9,1-3.4,1h-5.2v-14.1h5.2c1.4,0,2.5,0.3,3.2,0.9c0.7,0.6,1.1,1.5,1.1,2.6c0,0.9-0.2,1.6-0.7,2.2
	C534.6,267.7,534,268.1,533.2,268.2z M528.1,267.6h3c0.9,0,1.6-0.2,2-0.6c0.5-0.4,0.7-1,0.7-1.7c0-0.7-0.2-1.3-0.7-1.7
	c-0.5-0.4-1.2-0.6-2.1-0.6h-3V267.6z M531.2,274c1,0,1.7-0.2,2.2-0.7c0.5-0.4,0.8-1.1,0.8-1.9c0-0.8-0.3-1.4-0.8-1.8
	c-0.5-0.5-1.3-0.7-2.2-0.7h-3v5H531.2z M548.3,264.5v11h-1.8v-2.6c-0.3,0.9-0.8,1.6-1.5,2.1c-0.7,0.5-1.5,0.7-2.5,0.7
	c-1.3,0-2.3-0.4-3.1-1.2c-0.8-0.8-1.2-2-1.2-3.5v-6.4h1.8v6.2c0,1.1,0.3,1.9,0.8,2.5c0.6,0.6,1.3,0.9,2.3,0.9c1,0,1.8-0.3,2.4-1
	c0.6-0.7,0.9-1.6,0.9-2.8v-5.8H548.3z M553.3,266.8c0.4-0.8,0.9-1.3,1.6-1.8c0.7-0.4,1.5-0.6,2.5-0.6v2h-0.6c-1,0-1.9,0.3-2.5,0.8
	c-0.7,0.5-1,1.4-1,2.6v5.8h-1.8v-11h1.8V266.8z M565.1,264.4c1.3,0,2.3,0.4,3.1,1.2c0.8,0.8,1.2,2,1.2,3.5v6.4h-1.8v-6.2
	c0-1.1-0.3-1.9-0.8-2.5c-0.6-0.6-1.3-0.9-2.3-0.9c-1,0-1.8,0.3-2.4,1c-0.6,0.6-0.9,1.6-0.9,2.8v5.8h-1.8v-11h1.8v2.6
	c0.3-0.9,0.8-1.6,1.5-2.1C563.4,264.6,564.2,264.4,565.1,264.4z M577.4,264.4c1.1,0,2,0.2,2.8,0.7c0.8,0.5,1.5,1.1,2,2
	c0.5,0.9,0.7,1.9,0.7,3s-0.2,2.1-0.7,3c-0.5,0.8-1.1,1.5-2,1.9c-0.8,0.5-1.8,0.7-2.8,0.7c-1.1,0-2-0.2-2.8-0.7
	c-0.8-0.5-1.5-1.1-2-1.9c-0.5-0.9-0.7-1.9-0.7-3s0.2-2.1,0.7-3s1.1-1.5,2-2C575.4,264.6,576.3,264.4,577.4,264.4z M577.4,266
	c-0.7,0-1.3,0.1-1.8,0.4c-0.6,0.3-1,0.7-1.3,1.4c-0.3,0.6-0.5,1.3-0.5,2.2c0,0.9,0.2,1.6,0.5,2.2c0.3,0.6,0.8,1,1.3,1.3
	c0.6,0.3,1.2,0.4,1.8,0.4c0.7,0,1.2-0.1,1.8-0.4c0.6-0.3,1-0.7,1.3-1.3c0.3-0.6,0.5-1.4,0.5-2.2c0-0.9-0.2-1.6-0.5-2.2
	c-0.3-0.6-0.8-1.1-1.3-1.4C578.6,266.1,578,266,577.4,266z M595.2,264.5v11h-1.8v-2.6c-0.3,0.9-0.8,1.6-1.5,2.1
	c-0.7,0.5-1.5,0.7-2.5,0.7c-1.3,0-2.3-0.4-3.1-1.2c-0.8-0.8-1.2-2-1.2-3.5v-6.4h1.8v6.2c0,1.1,0.3,1.9,0.8,2.5
	c0.6,0.6,1.3,0.9,2.3,0.9c1,0,1.8-0.3,2.4-1c0.6-0.7,0.9-1.6,0.9-2.8v-5.8H595.2z M603.6,273.9v1.6h-1.4c-1.1,0-2-0.3-2.5-0.8
	c-0.5-0.5-0.8-1.4-0.8-2.7v-5.9h-1.6v-1.6h1.6v-2.7h1.8v2.7h2.8v1.6h-2.8v6c0,0.7,0.1,1.2,0.4,1.5c0.3,0.3,0.7,0.4,1.4,0.4H603.6z"
	/>
<path class="st4" d="M68.3,456.9c0,0.7-0.2,1.3-0.5,1.9s-0.8,1-1.5,1.4c-0.7,0.4-1.5,0.5-2.4,0.5c-0.9,0-1.8-0.2-2.5-0.5
	c-0.7-0.3-1.3-0.8-1.7-1.4c-0.4-0.6-0.7-1.3-0.7-2h1.9c0,0.4,0.2,0.8,0.4,1.2c0.2,0.4,0.6,0.7,1,0.9c0.4,0.2,1,0.4,1.6,0.4
	c0.8,0,1.4-0.2,1.8-0.6c0.4-0.4,0.6-1,0.6-1.6c0-0.6-0.2-1-0.5-1.4c-0.3-0.4-0.7-0.6-1.1-0.8c-0.4-0.2-1-0.4-1.8-0.7
	c-0.9-0.3-1.6-0.6-2.2-0.8c-0.5-0.3-1-0.7-1.4-1.2c-0.4-0.5-0.6-1.2-0.6-2.1c0-0.7,0.2-1.4,0.5-1.9c0.4-0.6,0.9-1,1.5-1.3
	c0.7-0.3,1.4-0.5,2.3-0.5c1.4,0,2.5,0.3,3.3,1c0.8,0.7,1.3,1.5,1.4,2.6h-2c-0.1-0.6-0.4-1.1-0.9-1.5c-0.5-0.4-1.1-0.6-1.9-0.6
	c-0.7,0-1.3,0.2-1.8,0.6c-0.4,0.4-0.7,0.9-0.7,1.6c0,0.5,0.1,1,0.4,1.3c0.3,0.3,0.7,0.6,1.1,0.8c0.4,0.2,1,0.4,1.8,0.6
	c0.9,0.3,1.6,0.6,2.2,0.8c0.6,0.3,1,0.7,1.4,1.2C68.1,455.2,68.3,456,68.3,456.9z M76.2,458.9v1.6h-1.4c-1.1,0-2-0.3-2.5-0.8
	c-0.5-0.5-0.8-1.4-0.8-2.7v-5.9h-1.6v-1.6h1.6v-2.7h1.8v2.7h2.8v1.6h-2.8v6c0,0.7,0.1,1.2,0.4,1.5c0.3,0.3,0.7,0.4,1.4,0.4H76.2z
	 M80.4,451.8c0.4-0.8,0.9-1.3,1.6-1.8c0.7-0.4,1.5-0.6,2.5-0.6v2h-0.6c-1,0-1.9,0.3-2.5,0.8c-0.7,0.5-1,1.4-1,2.6v5.8h-1.8v-11h1.8
	V451.8z M96.6,454.4c0,0.4,0,0.7-0.1,1h-8.8c0,1.3,0.4,2.2,1.1,2.8c0.7,0.6,1.5,0.9,2.5,0.9c0.9,0,1.6-0.2,2.2-0.7
	c0.6-0.5,1-1.1,1.1-1.8h1.9c-0.1,0.8-0.4,1.4-0.9,2c-0.5,0.6-1,1.1-1.8,1.4c-0.7,0.3-1.6,0.5-2.5,0.5c-1.1,0-2-0.2-2.8-0.7
	s-1.5-1.1-1.9-1.9c-0.5-0.9-0.7-1.9-0.7-3c0-1.1,0.2-2.1,0.7-3c0.5-0.9,1.1-1.5,1.9-2s1.7-0.7,2.8-0.7c1.1,0,2,0.2,2.8,0.7
	c0.8,0.5,1.4,1.1,1.8,1.8C96.3,452.7,96.6,453.5,96.6,454.4z M94.7,454.5c0-0.8-0.1-1.5-0.4-2s-0.7-1-1.3-1.2
	c-0.5-0.3-1.1-0.4-1.7-0.4c-1,0-1.8,0.3-2.5,0.9c-0.7,0.6-1,1.5-1.1,2.7H94.7z M102.6,449.4c1.2,0,2.2,0.3,3,1
	c0.8,0.6,1.2,1.5,1.4,2.6h-1.7c-0.1-0.7-0.4-1.2-0.8-1.6c-0.5-0.4-1.1-0.6-1.8-0.6c-0.7,0-1.2,0.2-1.5,0.5c-0.4,0.3-0.5,0.7-0.5,1.3
	c0,0.4,0.1,0.7,0.4,1c0.3,0.2,0.6,0.4,0.9,0.6c0.4,0.1,0.9,0.3,1.5,0.4c0.8,0.2,1.5,0.4,2,0.6c0.5,0.2,0.9,0.5,1.3,0.9
	c0.4,0.4,0.5,1,0.5,1.7c0,0.9-0.3,1.6-1,2.2c-0.7,0.6-1.6,0.8-2.7,0.8c-1.3,0-2.4-0.3-3.2-0.9c-0.8-0.6-1.3-1.5-1.5-2.6h1.8
	c0.1,0.7,0.4,1.2,0.9,1.6c0.5,0.4,1.2,0.6,2,0.6c0.6,0,1.1-0.2,1.5-0.5c0.4-0.3,0.5-0.7,0.5-1.3c0-0.4-0.1-0.8-0.4-1
	c-0.3-0.3-0.6-0.4-0.9-0.6c-0.4-0.1-0.9-0.3-1.5-0.4c-0.8-0.2-1.5-0.4-2-0.6c-0.5-0.2-0.9-0.5-1.2-0.9c-0.3-0.4-0.5-1-0.5-1.7
	c0-0.9,0.3-1.7,1-2.2C100.5,449.7,101.4,449.4,102.6,449.4z M113.1,449.4c1.2,0,2.2,0.3,3,1c0.8,0.6,1.2,1.5,1.4,2.6h-1.7
	c-0.1-0.7-0.4-1.2-0.8-1.6c-0.5-0.4-1.1-0.6-1.8-0.6c-0.7,0-1.2,0.2-1.5,0.5c-0.4,0.3-0.5,0.7-0.5,1.3c0,0.4,0.1,0.7,0.4,1
	c0.3,0.2,0.6,0.4,0.9,0.6c0.4,0.1,0.9,0.3,1.5,0.4c0.8,0.2,1.5,0.4,2,0.6c0.5,0.2,0.9,0.5,1.3,0.9c0.4,0.4,0.5,1,0.5,1.7
	c0,0.9-0.3,1.6-1,2.2c-0.7,0.6-1.6,0.8-2.7,0.8c-1.3,0-2.4-0.3-3.2-0.9c-0.8-0.6-1.3-1.5-1.5-2.6h1.8c0.1,0.7,0.4,1.2,0.9,1.6
	c0.5,0.4,1.2,0.6,2,0.6c0.6,0,1.1-0.2,1.5-0.5c0.4-0.3,0.5-0.7,0.5-1.3c0-0.4-0.1-0.8-0.4-1c-0.3-0.3-0.6-0.4-0.9-0.6
	c-0.4-0.1-0.9-0.3-1.5-0.4c-0.8-0.2-1.5-0.4-2-0.6c-0.5-0.2-0.9-0.5-1.2-0.9c-0.3-0.4-0.5-1-0.5-1.7c0-0.9,0.3-1.7,1-2.2
	C111,449.7,111.9,449.4,113.1,449.4z M126.4,452.4v1.5h-8v-1.5H126.4z M132,451.8c0.4-0.8,0.9-1.3,1.6-1.8c0.7-0.4,1.5-0.6,2.5-0.6
	v2h-0.6c-1,0-1.9,0.3-2.5,0.8c-0.7,0.5-1,1.4-1,2.6v5.8h-1.8v-11h1.8V451.8z M148.2,454.4c0,0.4,0,0.7-0.1,1h-8.8
	c0,1.3,0.4,2.2,1.1,2.8c0.7,0.6,1.5,0.9,2.5,0.9c0.9,0,1.6-0.2,2.2-0.7c0.6-0.5,1-1.1,1.1-1.8h1.9c-0.1,0.8-0.4,1.4-0.9,2
	c-0.5,0.6-1,1.1-1.8,1.4c-0.7,0.3-1.6,0.5-2.5,0.5c-1.1,0-2-0.2-2.8-0.7c-0.8-0.5-1.5-1.1-1.9-1.9c-0.5-0.9-0.7-1.9-0.7-3
	c0-1.1,0.2-2.1,0.7-3c0.5-0.9,1.1-1.5,1.9-2c0.8-0.5,1.7-0.7,2.8-0.7c1.1,0,2,0.2,2.8,0.7c0.8,0.5,1.4,1.1,1.8,1.8
	C148,452.7,148.2,453.5,148.2,454.4z M146.4,454.5c0-0.8-0.1-1.5-0.4-2c-0.3-0.5-0.7-1-1.3-1.2c-0.5-0.3-1.1-0.4-1.7-0.4
	c-1,0-1.8,0.3-2.5,0.9c-0.7,0.6-1,1.5-1.1,2.7H146.4z M152.6,445.7v14.8h-1.8v-14.8H152.6z M160.2,449.4c1.1,0,2,0.3,2.7,0.8
	c0.7,0.5,1.3,1.2,1.6,2.1v-2.8h1.8v11h-1.8v-2.8c-0.3,0.9-0.8,1.6-1.6,2.1c-0.7,0.5-1.6,0.8-2.7,0.8c-1,0-1.8-0.2-2.6-0.7
	s-1.4-1.1-1.8-1.9c-0.4-0.9-0.6-1.9-0.6-3c0-1.1,0.2-2.1,0.6-3c0.4-0.9,1-1.5,1.8-2S159.3,449.4,160.2,449.4z M160.7,451
	c-1.1,0-2,0.4-2.7,1.1c-0.7,0.7-1,1.7-1,2.9s0.3,2.2,1,3c0.7,0.7,1.6,1.1,2.7,1.1c0.7,0,1.4-0.2,1.9-0.5c0.6-0.3,1-0.8,1.3-1.4
	c0.3-0.6,0.5-1.3,0.5-2.1c0-0.8-0.2-1.5-0.5-2.1c-0.3-0.6-0.8-1.1-1.3-1.4C162.1,451.2,161.5,451,160.7,451z M174.6,458.9v1.6h-1.4
	c-1.1,0-2-0.3-2.5-0.8c-0.5-0.5-0.8-1.4-0.8-2.7v-5.9h-1.6v-1.6h1.6v-2.7h1.8v2.7h2.8v1.6h-2.8v6c0,0.7,0.1,1.2,0.4,1.5
	c0.3,0.3,0.7,0.4,1.4,0.4H174.6z M187.2,454.4c0,0.4,0,0.7-0.1,1h-8.8c0,1.3,0.4,2.2,1.1,2.8c0.7,0.6,1.5,0.9,2.5,0.9
	c0.9,0,1.6-0.2,2.2-0.7c0.6-0.5,1-1.1,1.1-1.8h1.9c-0.1,0.8-0.4,1.4-0.9,2c-0.5,0.6-1,1.1-1.8,1.4c-0.7,0.3-1.6,0.5-2.5,0.5
	c-1.1,0-2-0.2-2.8-0.7c-0.8-0.5-1.5-1.1-1.9-1.9c-0.5-0.9-0.7-1.9-0.7-3c0-1.1,0.2-2.1,0.7-3c0.5-0.9,1.1-1.5,1.9-2
	c0.8-0.5,1.7-0.7,2.8-0.7c1.1,0,2,0.2,2.8,0.7c0.8,0.5,1.4,1.1,1.8,1.8C186.9,452.7,187.2,453.5,187.2,454.4z M185.3,454.5
	c0-0.8-0.1-1.5-0.4-2c-0.3-0.5-0.7-1-1.3-1.2c-0.5-0.3-1.1-0.4-1.7-0.4c-1,0-1.8,0.3-2.5,0.9c-0.7,0.6-1,1.5-1.1,2.7H185.3z
	 M194.2,449.4c1.1,0,2,0.3,2.7,0.8c0.7,0.5,1.3,1.2,1.6,2.1v-6.6h1.8v14.8h-1.8v-2.8c-0.3,0.9-0.8,1.6-1.6,2.1
	c-0.7,0.5-1.6,0.8-2.7,0.8c-1,0-1.8-0.2-2.6-0.7s-1.4-1.1-1.8-1.9c-0.4-0.9-0.6-1.9-0.6-3c0-1.1,0.2-2.1,0.6-3c0.4-0.9,1-1.5,1.8-2
	S193.3,449.4,194.2,449.4z M194.8,451c-1.1,0-2,0.4-2.7,1.1c-0.7,0.7-1,1.7-1,2.9s0.3,2.2,1,3c0.7,0.7,1.6,1.1,2.7,1.1
	c0.7,0,1.4-0.2,1.9-0.5c0.6-0.3,1-0.8,1.3-1.4c0.3-0.6,0.5-1.3,0.5-2.1c0-0.8-0.2-1.5-0.5-2.1c-0.3-0.6-0.8-1.1-1.3-1.4
	C196.1,451.2,195.5,451,194.8,451z M54.4,472.4c1,0,1.8,0.2,2.6,0.7s1.4,1.1,1.8,2c0.4,0.9,0.7,1.9,0.7,3c0,1.1-0.2,2.1-0.7,3
	c-0.4,0.8-1,1.5-1.8,1.9s-1.6,0.7-2.6,0.7c-1.1,0-2-0.3-2.7-0.8c-0.7-0.5-1.2-1.3-1.5-2.1v8h-1.8v-16.2h1.8v2.8
	c0.3-0.9,0.8-1.6,1.5-2.1C52.4,472.7,53.3,472.4,54.4,472.4z M53.9,474c-0.7,0-1.3,0.2-1.9,0.5c-0.6,0.3-1,0.8-1.3,1.4
	c-0.3,0.6-0.5,1.3-0.5,2.1c0,0.8,0.2,1.5,0.5,2.1c0.3,0.6,0.8,1.1,1.3,1.4s1.2,0.5,1.9,0.5c1.1,0,2-0.4,2.7-1.1c0.7-0.7,1-1.7,1-3
	s-0.3-2.2-1-2.9C55.9,474.4,55,474,53.9,474z M63.8,474.8c0.4-0.8,0.9-1.3,1.6-1.8c0.7-0.4,1.5-0.6,2.5-0.6v2h-0.6
	c-1,0-1.9,0.3-2.5,0.8c-0.7,0.5-1,1.4-1,2.6v5.8H62v-11h1.8V474.8z M74.9,472.4c1.1,0,2,0.2,2.8,0.7c0.8,0.5,1.5,1.1,2,2
	c0.5,0.9,0.7,1.9,0.7,3c0,1.1-0.2,2.1-0.7,3c-0.5,0.8-1.1,1.5-2,1.9c-0.8,0.5-1.8,0.7-2.8,0.7c-1.1,0-2-0.2-2.8-0.7
	c-0.8-0.5-1.5-1.1-2-1.9c-0.5-0.9-0.7-1.9-0.7-3c0-1.1,0.2-2.1,0.7-3c0.5-0.9,1.1-1.5,2-2C72.9,472.6,73.8,472.4,74.9,472.4z
	 M74.9,474c-0.7,0-1.3,0.1-1.8,0.4c-0.5,0.3-1,0.7-1.3,1.4c-0.3,0.6-0.5,1.3-0.5,2.2c0,0.9,0.2,1.6,0.5,2.2c0.3,0.6,0.8,1,1.3,1.3
	c0.6,0.3,1.2,0.4,1.8,0.4c0.7,0,1.3-0.1,1.8-0.4c0.6-0.3,1-0.7,1.3-1.3c0.3-0.6,0.5-1.4,0.5-2.2c0-0.9-0.2-1.6-0.5-2.2
	c-0.3-0.6-0.8-1.1-1.3-1.4C76.1,474.1,75.5,474,74.9,474z M87.4,472.4c1.1,0,2,0.3,2.7,0.8c0.7,0.5,1.3,1.2,1.6,2.1v-6.6h1.8v14.8
	h-1.8v-2.8c-0.3,0.9-0.8,1.6-1.6,2.1c-0.7,0.5-1.6,0.8-2.7,0.8c-1,0-1.8-0.2-2.6-0.7s-1.4-1.1-1.8-1.9c-0.4-0.9-0.6-1.9-0.6-3
	c0-1.1,0.2-2.1,0.6-3c0.4-0.9,1-1.5,1.8-2S86.5,472.4,87.4,472.4z M88,474c-1.1,0-2,0.4-2.7,1.1c-0.7,0.7-1,1.7-1,2.9s0.3,2.2,1,3
	c0.7,0.7,1.6,1.1,2.7,1.1c0.7,0,1.4-0.2,1.9-0.5c0.6-0.3,1-0.8,1.3-1.4c0.3-0.6,0.5-1.3,0.5-2.1c0-0.8-0.2-1.5-0.5-2.1
	c-0.3-0.6-0.8-1.1-1.3-1.4C89.3,474.2,88.7,474,88,474z M106.4,472.5v11h-1.8v-2.6c-0.3,0.9-0.8,1.6-1.5,2.1
	c-0.7,0.5-1.5,0.7-2.5,0.7c-1.3,0-2.3-0.4-3.1-1.2c-0.8-0.8-1.2-2-1.2-3.5v-6.4h1.8v6.2c0,1.1,0.3,1.9,0.8,2.5
	c0.6,0.6,1.3,0.9,2.3,0.9c1,0,1.8-0.3,2.4-1c0.6-0.7,0.9-1.6,0.9-2.8v-5.8H106.4z M114.3,472.4c1.4,0,2.6,0.4,3.5,1.1s1.5,1.7,1.7,3
	h-1.9c-0.1-0.8-0.5-1.4-1.1-1.8c-0.6-0.5-1.3-0.7-2.2-0.7c-0.6,0-1.2,0.1-1.8,0.4c-0.5,0.3-0.9,0.7-1.3,1.4
	c-0.3,0.6-0.5,1.3-0.5,2.2s0.2,1.6,0.5,2.3c0.3,0.6,0.7,1,1.3,1.3c0.5,0.3,1.1,0.4,1.8,0.4c0.9,0,1.6-0.2,2.2-0.7
	c0.6-0.5,1-1.1,1.1-1.9h1.9c-0.2,1.3-0.8,2.3-1.7,3c-0.9,0.7-2.1,1.1-3.5,1.1c-1.1,0-2-0.2-2.8-0.7c-0.8-0.5-1.5-1.1-1.9-1.9
	c-0.5-0.9-0.7-1.9-0.7-3c0-1.1,0.2-2.1,0.7-3c0.5-0.9,1.1-1.5,1.9-2C112.4,472.6,113.3,472.4,114.3,472.4z M127.3,481.9v1.6H126
	c-1.1,0-2-0.3-2.5-0.8c-0.5-0.5-0.8-1.4-0.8-2.7v-5.9H121v-1.6h1.6v-2.7h1.8v2.7h2.8v1.6h-2.8v6c0,0.7,0.1,1.2,0.4,1.5
	c0.3,0.3,0.7,0.4,1.4,0.4H127.3z M129.4,469.3c0-0.3,0.1-0.6,0.3-0.8c0.2-0.2,0.5-0.3,0.9-0.3c0.4,0,0.7,0.1,0.9,0.3
	c0.2,0.2,0.3,0.5,0.3,0.8s-0.1,0.6-0.3,0.8c-0.2,0.2-0.5,0.3-0.9,0.3c-0.4,0-0.7-0.1-0.9-0.3C129.6,469.9,129.4,469.6,129.4,469.3z
	 M131.6,472.5v11h-1.8v-11H131.6z M139,481.6l3.4-9h2l-4.3,11h-2.2l-4.3-11h2L139,481.6z M146,469.3c0-0.3,0.1-0.6,0.3-0.8
	c0.2-0.2,0.5-0.3,0.9-0.3c0.4,0,0.7,0.1,0.9,0.3c0.2,0.2,0.3,0.5,0.3,0.8s-0.1,0.6-0.3,0.8c-0.2,0.2-0.5,0.3-0.9,0.3
	c-0.4,0-0.7-0.1-0.9-0.3C146.1,469.9,146,469.6,146,469.3z M148.1,472.5v11h-1.8v-11H148.1z M156.5,481.9v1.6h-1.4
	c-1.1,0-2-0.3-2.5-0.8c-0.5-0.5-0.8-1.4-0.8-2.7v-5.9h-1.6v-1.6h1.6v-2.7h1.8v2.7h2.8v1.6h-2.8v6c0,0.7,0.1,1.2,0.4,1.5
	c0.3,0.3,0.7,0.4,1.4,0.4H156.5z M159.7,472.5l3.6,8.6l3.3-8.6h2l-6.5,16.2H160l2.3-5.4l-4.6-10.8H159.7z M177.4,468.7v14.8h-1.8
	v-14.8H177.4z M185.5,472.4c1.1,0,2,0.2,2.8,0.7c0.8,0.5,1.5,1.1,2,2c0.5,0.9,0.7,1.9,0.7,3c0,1.1-0.2,2.1-0.7,3
	c-0.5,0.8-1.1,1.5-2,1.9c-0.8,0.5-1.8,0.7-2.8,0.7c-1.1,0-2-0.2-2.8-0.7c-0.8-0.5-1.5-1.1-2-1.9c-0.5-0.9-0.7-1.9-0.7-3
	c0-1.1,0.2-2.1,0.7-3c0.5-0.9,1.1-1.5,2-2C183.5,472.6,184.5,472.4,185.5,472.4z M185.5,474c-0.7,0-1.3,0.1-1.8,0.4
	c-0.5,0.3-1,0.7-1.3,1.4c-0.3,0.6-0.5,1.3-0.5,2.2c0,0.9,0.2,1.6,0.5,2.2c0.3,0.6,0.8,1,1.3,1.3c0.6,0.3,1.2,0.4,1.8,0.4
	c0.7,0,1.3-0.1,1.8-0.4c0.6-0.3,1-0.7,1.3-1.3c0.3-0.6,0.5-1.4,0.5-2.2c0-0.9-0.2-1.6-0.5-2.2c-0.3-0.6-0.8-1.1-1.3-1.4
	C186.8,474.1,186.2,474,185.5,474z M197,472.4c1.2,0,2.2,0.3,3,1c0.8,0.6,1.2,1.5,1.4,2.6h-1.7c-0.1-0.7-0.4-1.2-0.8-1.6
	c-0.5-0.4-1.1-0.6-1.8-0.6c-0.7,0-1.2,0.2-1.5,0.5c-0.4,0.3-0.5,0.7-0.5,1.3c0,0.4,0.1,0.7,0.4,1c0.3,0.2,0.6,0.4,0.9,0.6
	c0.4,0.1,0.9,0.3,1.5,0.4c0.8,0.2,1.5,0.4,2,0.6c0.5,0.2,0.9,0.5,1.3,0.9c0.4,0.4,0.5,1,0.5,1.7c0,0.9-0.3,1.6-1,2.2
	c-0.7,0.6-1.6,0.8-2.7,0.8c-1.3,0-2.4-0.3-3.2-0.9s-1.3-1.5-1.5-2.6h1.8c0.1,0.7,0.4,1.2,0.9,1.6c0.5,0.4,1.2,0.6,2,0.6
	c0.6,0,1.1-0.2,1.5-0.5c0.4-0.3,0.5-0.7,0.5-1.3c0-0.4-0.1-0.8-0.4-1s-0.6-0.4-0.9-0.6s-0.9-0.3-1.5-0.4c-0.8-0.2-1.5-0.4-2-0.6
	c-0.5-0.2-0.9-0.5-1.2-0.9c-0.3-0.4-0.5-1-0.5-1.7c0-0.9,0.3-1.7,1-2.2C194.9,472.7,195.8,472.4,197,472.4z M207.5,472.4
	c1.2,0,2.2,0.3,3,1c0.8,0.6,1.2,1.5,1.4,2.6h-1.7c-0.1-0.7-0.4-1.2-0.8-1.6c-0.5-0.4-1.1-0.6-1.8-0.6c-0.7,0-1.2,0.2-1.5,0.5
	c-0.4,0.3-0.5,0.7-0.5,1.3c0,0.4,0.1,0.7,0.4,1c0.3,0.2,0.6,0.4,0.9,0.6c0.4,0.1,0.9,0.3,1.5,0.4c0.8,0.2,1.5,0.4,2,0.6
	c0.5,0.2,0.9,0.5,1.3,0.9c0.4,0.4,0.5,1,0.5,1.7c0,0.9-0.3,1.6-1,2.2c-0.7,0.6-1.6,0.8-2.7,0.8c-1.3,0-2.4-0.3-3.2-0.9
	c-0.8-0.6-1.3-1.5-1.5-2.6h1.8c0.1,0.7,0.4,1.2,0.9,1.6c0.5,0.4,1.2,0.6,2,0.6c0.6,0,1.1-0.2,1.5-0.5c0.4-0.3,0.5-0.7,0.5-1.3
	c0-0.4-0.1-0.8-0.4-1s-0.6-0.4-0.9-0.6s-0.9-0.3-1.5-0.4c-0.8-0.2-1.5-0.4-2-0.6c-0.5-0.2-0.9-0.5-1.2-0.9c-0.3-0.4-0.5-1-0.5-1.7
	c0-0.9,0.3-1.7,1-2.2C205.4,472.7,206.4,472.4,207.5,472.4z"/>
<path class="st4" d="M432.5,311.2c2.4,0.7,4.3,1.5,5.8,2.1c1.5,0.7,2.8,1.8,3.8,3.2c1.1,1.4,1.6,3.2,1.6,5.4c0,1.8-0.5,3.5-1.4,5
	c-0.9,1.5-2.3,2.7-4.2,3.6c-1.9,0.9-4.1,1.4-6.8,1.4h0v4h-1.9v-4.1c-3.5-0.3-6.3-1.4-8.5-3.2c-2.2-1.9-3.4-4.3-3.6-7.2h7.5
	c0.1,1.2,0.6,2.3,1.4,3.2c0.8,0.9,1.9,1.5,3.2,1.8v-9.8l-1-0.3c-2.4-0.7-4.3-1.4-5.8-2c-1.5-0.7-2.7-1.7-3.8-3.1
	c-1-1.4-1.6-3.2-1.6-5.5c0-2,0.5-3.7,1.6-5.1c1.1-1.5,2.5-2.6,4.3-3.4c1.9-0.8,4-1.2,6.3-1.2v-4.2h1.9v4.2c3.5,0.2,6.2,1.2,8.2,3
	c2.1,1.8,3.2,4,3.5,6.8h-7.6c-0.2-1.1-0.6-2-1.3-2.8c-0.7-0.8-1.6-1.3-2.8-1.5v9.5L432.5,311.2z M424.7,305.2c0,1.2,0.4,2.2,1.2,2.9
	c0.8,0.7,2,1.4,3.5,2v-9c-1.5,0.1-2.6,0.4-3.5,1.1C425.1,303,424.7,303.9,424.7,305.2z M431.2,326.5c1.5,0,2.7-0.5,3.6-1.2
	c0.9-0.8,1.3-1.9,1.3-3.2c0-1.2-0.4-2.2-1.3-3c-0.8-0.8-2-1.4-3.6-1.9V326.5z M461.5,294.9c2.4,0,4.5,0.4,6.2,1.2
	c1.7,0.8,3,2,3.9,3.4c0.9,1.5,1.4,3.1,1.4,4.9c0,2.3-0.6,4.1-1.9,5.6c-1.2,1.4-2.9,2.3-4.9,2.7v0.2c4.9,1.5,7.4,4.4,7.4,8.7
	c0,3-1,5.5-3,7.4c-2,1.9-4.9,2.8-8.6,2.8c-3.9,0-7.1-1-9.4-2.9c-2.3-2-3.6-4.9-3.9-8.9h6.9c0.2,1.8,0.8,3.2,1.8,4.3
	c1,1,2.5,1.6,4.3,1.6c1.6,0,2.9-0.4,3.8-1.3c0.9-0.9,1.4-2.1,1.4-3.5c0-1.7-0.7-3-2-3.9s-3.2-1.4-5.8-1.4h-1.5v-5.8h1.5
	c4.7,0.1,7-1.5,7-4.9c0-1.4-0.4-2.5-1.2-3.3c-0.8-0.8-2-1.2-3.4-1.2c-1.5,0-2.7,0.5-3.7,1.4c-1,0.9-1.5,2.2-1.7,4h-6.9
	c0.2-3.6,1.4-6.4,3.5-8.3C454.7,295.8,457.7,294.9,461.5,294.9z M484.7,327c0.8,1.8,1.2,3.6,1.2,5.4c0,2.1-0.5,3.8-1.6,5.1
	c-1.1,1.3-2.7,2-5,2v-2.7c0.9,0,1.5-0.2,1.9-0.6c0.4-0.4,0.6-1.1,0.6-2.2v-0.5h-3.2V327H484.7z M509.5,305.8
	c-0.5-3.5-2.3-5.2-5.3-5.2c-2.3,0-4,1-5.1,3.1c-1.1,2-1.5,5.2-1.4,9.6c0.5-1.6,1.6-2.9,3.1-3.8c1.6-1,3.4-1.5,5.5-1.5
	c3.4,0,6.1,1,8,3.1c2,2,2.9,4.9,2.9,8.7c0,2.3-0.5,4.4-1.4,6.2c-0.9,1.8-2.3,3.2-4.2,4.2c-1.8,1-4.1,1.6-6.7,1.6
	c-5.1,0-8.7-1.6-10.6-4.8c-1.9-3.2-2.9-7.6-2.9-13.2c0-6.4,1-11.2,3.1-14.3c2.1-3.1,5.5-4.6,10.1-4.6c3.6,0,6.3,1,8.2,3
	s3,4.6,3.2,7.8H509.5z M498.3,319.4c0,1.9,0.5,3.4,1.6,4.6c1.1,1.2,2.7,1.8,4.8,1.8c1.8,0,3.2-0.5,4.3-1.6c1.1-1.1,1.6-2.6,1.6-4.5
	c0-2-0.6-3.5-1.7-4.6c-1.1-1.1-2.5-1.6-4.3-1.6c-1.7,0-3.2,0.5-4.5,1.5C498.9,316.1,498.3,317.5,498.3,319.4z M544.7,301.2
	l-12.9,30.4h-7.3l13-29.5h-16.3v-6.1h23.5V301.2z M548.3,326c11.3-7.8,16.9-14.3,16.9-19.5c0-1.6-0.4-2.8-1.2-3.7
	c-0.7-0.9-1.9-1.4-3.5-1.4c-3.3,0-5,2.2-5.2,6.8h-6.8c0.2-4.2,1.5-7.3,3.8-9.4c2.3-2.2,5.3-3.2,8.8-3.2c3.6,0,6.4,0.9,8.3,2.8
	c2,1.9,3,4.4,3,7.5c0,2.5-0.7,5-2.2,7.5c-1.4,2.5-3.3,4.8-5.5,6.9c-2.2,2.1-4.6,3.9-7,5.4h15.4v5.8h-24.8V326z"/>
<path class="st4" d="M61.4,513.2c2.4,0.7,4.3,1.4,5.8,2.1s2.8,1.8,3.8,3.2c1.1,1.4,1.6,3.2,1.6,5.4c0,1.8-0.5,3.5-1.4,5
	c-0.9,1.5-2.3,2.7-4.2,3.7c-1.9,0.9-4.1,1.3-6.8,1.3h0v4h-1.9v-4.1c-3.5-0.3-6.3-1.4-8.5-3.2c-2.2-1.9-3.4-4.3-3.6-7.2h7.5
	c0.1,1.2,0.6,2.3,1.4,3.2c0.8,0.9,1.9,1.5,3.2,1.8v-9.8l-1-0.3c-2.4-0.7-4.3-1.4-5.8-2.1c-1.5-0.7-2.7-1.7-3.8-3.1
	c-1-1.4-1.6-3.2-1.6-5.5c0-2,0.5-3.7,1.6-5.2c1.1-1.5,2.5-2.6,4.3-3.4c1.9-0.8,4-1.2,6.3-1.2v-4.2h1.9v4.2c3.5,0.2,6.2,1.2,8.2,3
	c2.1,1.8,3.2,4,3.5,6.8h-7.6c-0.2-1.1-0.6-2-1.3-2.8c-0.7-0.8-1.6-1.3-2.8-1.5v9.5L61.4,513.2z M53.6,507.2c0,1.2,0.4,2.2,1.2,3
	c0.8,0.7,2,1.4,3.5,1.9v-9c-1.5,0.1-2.6,0.5-3.5,1.2C54,505,53.6,505.9,53.6,507.2z M60.1,528.5c1.5,0,2.7-0.5,3.6-1.2
	c0.9-0.8,1.3-1.9,1.3-3.2c0-1.2-0.4-2.2-1.3-3c-0.8-0.8-2-1.4-3.6-2V528.5z M102.9,503.7H86.2v8.9c0.8-0.9,1.8-1.6,3.1-2.1
	c1.4-0.6,2.9-0.9,4.5-0.9c2.4,0,4.5,0.5,6,1.6c1.6,1,2.8,2.4,3.6,4.2c0.8,1.7,1.2,3.7,1.2,5.8c0,3.8-1.1,6.8-3.2,9
	c-2.1,2.3-5.1,3.4-9,3.4c-2.6,0-4.8-0.5-6.7-1.4c-1.9-0.9-3.4-2.2-4.5-3.8c-1.1-1.7-1.7-3.6-1.8-5.8h6.8c0.3,1.5,0.9,2.7,1.9,3.6
	c1,0.9,2.2,1.3,3.8,1.3c1.9,0,3.4-0.6,4.3-1.8c1-1.2,1.5-2.8,1.5-4.8c0-1.9-0.5-3.3-1.5-4.3c-1-1-2.4-1.5-4.2-1.5
	c-1.3,0-2.5,0.3-3.4,0.9c-0.9,0.6-1.6,1.3-2.1,2.3h-6.8v-20.9h23.2V503.7z M115.3,529c0.8,1.8,1.2,3.6,1.2,5.5
	c0,2.1-0.5,3.8-1.6,5.1c-1.1,1.3-2.7,2-5,2v-2.7c0.9,0,1.5-0.2,1.9-0.6c0.4-0.4,0.6-1.1,0.6-2.2v-0.5h-3.2V529H115.3z M121,526.4
	v-5.9l16.9-22.8h7.6v22.5h4.6v6.1h-4.6v7.1h-7.1v-7.1H121z M138.9,506.1l-10.7,14.3h10.7V506.1z M173.4,507.8
	c-0.5-3.5-2.3-5.2-5.3-5.2c-2.3,0-4,1-5.1,3.1c-1.1,2-1.5,5.2-1.4,9.6c0.5-1.6,1.6-2.9,3.1-3.8c1.6-1,3.4-1.5,5.5-1.5
	c3.4,0,6.1,1,8,3.1c2,2,3,4.9,3,8.7c0,2.3-0.5,4.4-1.4,6.2c-0.9,1.8-2.3,3.2-4.2,4.2c-1.8,1-4.1,1.5-6.7,1.5
	c-5.1,0-8.7-1.6-10.6-4.8c-1.9-3.2-2.9-7.6-2.9-13.2c0-6.4,1-11.2,3.1-14.3c2.1-3.1,5.5-4.6,10.2-4.6c3.6,0,6.3,1,8.2,3
	c1.9,2,3,4.6,3.2,7.8H173.4z M162.2,521.4c0,1.9,0.5,3.4,1.6,4.7c1.1,1.2,2.7,1.8,4.8,1.8c1.8,0,3.2-0.5,4.3-1.6
	c1.1-1.1,1.6-2.5,1.6-4.5c0-2-0.5-3.5-1.6-4.6c-1.1-1.1-2.5-1.6-4.4-1.6c-1.7,0-3.2,0.5-4.4,1.5
	C162.8,518.1,162.2,519.5,162.2,521.4z M186.7,515.6c0,12,4.5,18,13.5,18c4.8,0,8.2-1.6,10.3-4.8c2.1-3.2,3.2-7.6,3.2-13.2
	c0-5.5-1-9.9-3.2-13.1c-2.1-3.2-5.5-4.8-10.3-4.8C191.2,497.7,186.7,503.6,186.7,515.6z M206.7,515.6c0,3.6-0.5,6.4-1.3,8.4
	c-0.9,1.9-2.6,2.9-5.2,2.9c-2.6,0-4.3-1-5.2-2.9c-0.9-2-1.3-4.8-1.3-8.4c0-3.6,0.4-6.4,1.3-8.3c0.9-2,2.7-3,5.2-3c2.6,0,4.3,1,5.2,3
	C206.2,509.2,206.7,512,206.7,515.6z"/>
</svg>
