<?xml version="1.0" encoding="utf-8"?>
<svg width="315" height="281" viewBox="0 0 315 281" fill="none" xmlns="http://www.w3.org/2000/svg">
<g filter="url(#filter0_d_1761:1827)">
<path d="M73.4563 160.909L109.04 77.0234L109.179 77.2319L157.133 140.128L156.959 140.163L73.4563 160.909ZM109.109 77.5447L73.8733 160.561L156.716 139.955L109.109 77.5447Z" stroke="white" stroke-width="2" stroke-linecap="round" stroke-linejoin="round"/>
<path d="M156.923 140.268L156.784 140.094L108.83 77.1632L109.073 77.1284L189.831 72.75L189.761 72.9585L156.923 140.268ZM109.316 77.4064L156.853 139.782L189.414 73.0975L109.316 77.4064Z" stroke="white" stroke-width="2" stroke-linecap="round" stroke-linejoin="round"/>
<path d="M189.866 73.0303H189.657L108.761 77.4088L109.004 77.1655L158.765 54.2656L158.835 54.4046L189.866 73.0303ZM109.386 77.1308L189.379 72.8218L158.661 54.6826L109.386 77.1308Z" stroke="white" stroke-width="2" stroke-linecap="round" stroke-linejoin="round"/>
<path d="M244.111 144.368L243.867 144.403L156.716 140.163L156.82 139.955L189.624 72.6797L189.763 72.8187L244.111 144.368ZM157.098 139.885L243.589 144.194L189.658 73.1662L157.098 139.885Z" stroke="white" stroke-width="2" stroke-linecap="round" stroke-linejoin="round"/>
<path d="M195.806 220.124L195.667 219.95L156.678 139.922L244.073 144.161L244.004 144.37L195.806 220.124ZM157.13 140.13L195.737 219.602L243.656 144.474L157.13 140.13Z" stroke="white" stroke-width="2" stroke-linecap="round" stroke-linejoin="round"/>
<path d="M132.598 221.409L132.458 221.27L73.4192 160.667L73.6277 160.598L157.096 139.922L157.026 140.13L132.598 221.409ZM73.9057 160.806L132.458 220.923L156.714 140.304L73.9057 160.806Z" stroke="white" stroke-width="2" stroke-linecap="round" stroke-linejoin="round"/>
<path d="M93.2969 224.816V224.677L73.4897 160.391L73.733 160.669L132.738 221.272L132.529 221.341L93.2969 224.816ZM73.8372 161.086L93.5402 224.503L132.286 221.098L73.8372 161.086Z" stroke="white" stroke-width="2" stroke-linecap="round" stroke-linejoin="round"/>
<path d="M160.155 262.935L92.9844 224.641L93.3666 224.537L132.564 221.027L132.599 221.097L160.155 262.935ZM93.8531 224.676L159.53 262.449L132.46 221.305L93.8531 224.676Z" stroke="white" stroke-width="2" stroke-linecap="round" stroke-linejoin="round"/>
<path d="M159.843 262.901L132.321 221.063H132.53L196.156 219.742L195.878 219.985L159.843 262.901ZM132.738 221.271L159.878 262.519L195.426 220.02L132.738 221.271Z" stroke="white" stroke-width="2" stroke-linecap="round" stroke-linejoin="round"/>
<path d="M159.32 262.97L159.772 262.587L195.772 219.672L195.842 219.776L221.14 226.135L220.966 226.205L159.32 262.97ZM195.772 220.054L160.363 262.414L220.723 225.996L195.772 220.054Z" stroke="white" stroke-width="2" stroke-linecap="round" stroke-linejoin="round"/>
<path d="M220.965 226.274L220.861 226.135L195.598 219.95L195.737 219.88L270.31 188.293L270.032 188.71L220.965 226.274ZM196.015 220.054L220.965 225.857L269.545 188.988L196.015 220.054Z" stroke="white" stroke-width="2" stroke-linecap="round" stroke-linejoin="round"/>
<path d="M93.6081 225.127L34.6035 168.312L73.7661 160.562V160.701L93.6081 225.127ZM35.0205 168.485L93.2606 224.189L73.5576 160.91L35.0205 168.485Z" stroke="white" stroke-width="2" stroke-linecap="round" stroke-linejoin="round"/>
<path d="M73.8387 160.806L34.676 168.556L34.7108 168.382L44.3364 100.898L73.8387 160.806ZM34.954 168.243L73.4564 160.633L44.4754 101.767L34.954 168.243Z" stroke="white" stroke-width="2" stroke-linecap="round" stroke-linejoin="round"/>
<path d="M34.9526 168.415L34.7094 168.38L18.6204 112.92L18.6551 112.885L44.6129 100.723L34.9526 168.415ZM18.8984 112.989L35.0569 165.774L44.196 101.904L18.8984 112.989Z" stroke="white" stroke-width="2" stroke-linecap="round" stroke-linejoin="round"/>
<path d="M73.6628 161.048L73.5238 160.77L44.23 101.279L44.3342 101.209L109.281 77.0234L109.177 77.3362L73.6628 161.048ZM44.5775 101.383L73.6628 160.387L108.829 77.5447L44.5775 101.383Z" stroke="white" stroke-width="2" stroke-linecap="round" stroke-linejoin="round"/>
<path d="M196.016 219.984H195.772L132.355 221.304L132.424 221.131L156.923 139.852L157.062 140.06L196.016 219.984ZM132.702 221.026L195.529 219.741L156.992 140.408L132.702 221.026Z" stroke="white" stroke-width="2" stroke-linecap="round" stroke-linejoin="round"/>
<path d="M195.531 220.123L195.67 219.811L243.937 144.23L244.041 144.543L270.069 188.71L269.965 188.745L195.531 220.123ZM243.902 144.96L196.018 219.602L269.756 188.606L243.902 144.96Z" stroke="white" stroke-width="2" stroke-linecap="round" stroke-linejoin="round"/>
<path d="M270.378 189.335L243.691 144.195L296.163 112.816L296.302 112.851L270.378 189.335ZM244.004 144.404L270.309 188.327L295.989 112.99L244.004 144.404Z" stroke="white" stroke-width="2" stroke-linecap="round" stroke-linejoin="round"/>
<path d="M244.178 145.065L243.831 144.683L189.378 72.8555L241.363 81.5428L241.398 81.6471L244.178 145.065ZM189.899 73.0292L243.657 144.127L241.19 81.8208L189.899 73.0292Z" stroke="white" stroke-width="2" stroke-linecap="round" stroke-linejoin="round"/>
<path d="M296.232 113.06L243.76 144.438L240.98 81.125L296.232 113.06ZM243.934 144.126L295.746 112.886L241.571 82.2022L243.934 144.126Z" stroke="white" stroke-width="2" stroke-linecap="round" stroke-linejoin="round"/>
<path d="M296.512 113.825L295.887 113.061L240.913 81.4387L270.381 44.5L270.416 44.5695L296.512 113.825ZM241.643 81.9252L295.47 112.157L270.207 44.7432L241.643 81.9252Z" stroke="white" stroke-width="2" stroke-linecap="round" stroke-linejoin="round"/>
<path d="M108.967 77.4778L108.933 77.304L97.2568 18.8555L158.972 54.6822L108.967 77.4778ZM97.6391 19.3767L109.176 77.0956L158.416 54.6822L97.6391 19.3767Z" stroke="white" stroke-width="2" stroke-linecap="round" stroke-linejoin="round"/>
<path d="M44.4373 101.556L47.2867 50.5781L47.4605 50.6476L109.419 77.3005L109.106 77.4047L44.4373 101.556ZM47.4952 50.9604L44.6805 101.208L108.724 77.3005L47.4952 50.9604Z" stroke="white" stroke-width="2" stroke-linecap="round" stroke-linejoin="round"/>
<path d="M109.247 77.5094L47.1145 50.7871L47.323 50.6481L97.536 18.9219L109.247 77.5094ZM47.6705 50.7524L108.899 77.0577L97.3622 19.3389L47.6705 50.7524Z" stroke="white" stroke-width="2" stroke-linecap="round" stroke-linejoin="round"/>
<path d="M18.6204 113.234L18.7594 112.921L47.5667 50.0938L44.6824 101.453L44.6129 101.488L18.6204 113.234ZM47.2192 51.449L19.1416 112.712L44.4392 101.28L47.2192 51.449Z" stroke="white" stroke-width="2" stroke-linecap="round" stroke-linejoin="round"/>
<path d="M189.692 73.0981L158.453 54.6809L218.013 17.7422L189.692 73.0981ZM158.939 54.6809L189.588 72.7506L217.388 18.4372L158.939 54.6809Z" stroke="white" stroke-width="2" stroke-linecap="round" stroke-linejoin="round"/>
<path d="M189.378 73.168L217.734 17.7773L241.085 81.5426L240.981 81.5773L189.378 73.168ZM217.664 18.4376L189.899 72.7162L240.738 81.3688L217.664 18.4376Z" stroke="white" stroke-width="2" stroke-linecap="round" stroke-linejoin="round"/>
<path d="M240.842 81.6129L240.808 81.4739L217.491 17.8477L217.769 17.9867L270.553 44.7437L240.842 81.6129ZM217.908 18.3341L241.016 81.2654L269.893 44.709L217.908 18.3341Z" stroke="white" stroke-width="2" stroke-linecap="round" stroke-linejoin="round"/>
<path d="M271.807 189.089C271.807 190.097 271.008 190.896 270 190.896C268.993 190.896 268.193 190.097 268.193 189.089C268.193 188.082 268.993 187.282 270 187.282C270.973 187.248 271.807 188.082 271.807 189.089Z" stroke="white" stroke-width="2" stroke-linecap="round" stroke-linejoin="round"/>
<path d="M241.051 84.1493C242.414 84.1493 243.518 83.0447 243.518 81.6821C243.518 80.3194 242.414 79.2148 241.051 79.2148C239.689 79.2148 238.584 80.3194 238.584 81.6821C238.584 83.0447 239.689 84.1493 241.051 84.1493Z" stroke="white" stroke-width="2" stroke-linecap="round" stroke-linejoin="round"/>
<path d="M191.848 73.0961C191.848 74.4513 190.736 75.5633 189.38 75.5633C188.025 75.5633 186.913 74.4513 186.913 73.0961C186.913 71.7409 188.025 70.6289 189.38 70.6289C190.736 70.6289 191.848 71.7409 191.848 73.0961Z" stroke="white" stroke-width="2" stroke-linecap="round" stroke-linejoin="round"/>
<path d="M246.508 144.229C246.508 145.584 245.396 146.696 244.041 146.696C242.686 146.696 241.574 145.584 241.574 144.229C241.574 142.874 242.686 141.762 244.041 141.762C245.431 141.762 246.508 142.874 246.508 144.229Z" stroke="white" stroke-width="2" stroke-linecap="round" stroke-linejoin="round"/>
<path d="M159.183 140.268C159.183 141.623 158.071 142.735 156.716 142.735C155.361 142.735 154.249 141.623 154.249 140.268C154.249 138.913 155.361 137.801 156.716 137.801C158.071 137.801 159.183 138.913 159.183 140.268Z" stroke="white" stroke-width="2" stroke-linecap="round" stroke-linejoin="round"/>
<path d="M111.889 77.5102C111.889 78.8654 110.777 79.9774 109.422 79.9774C108.067 79.9774 106.955 78.8654 106.955 77.5102C106.955 76.1549 108.067 75.043 109.422 75.043C110.777 75.043 111.889 76.1202 111.889 77.5102Z" stroke="white" stroke-width="2" stroke-linecap="round" stroke-linejoin="round"/>
<path d="M46.6981 101.557C46.6981 102.912 45.5861 104.024 44.2309 104.024C42.8757 104.024 41.7637 102.912 41.7637 101.557C41.7637 100.202 42.8757 99.0898 44.2309 99.0898C45.5861 99.0898 46.6981 100.202 46.6981 101.557Z" stroke="white" stroke-width="2" stroke-linecap="round" stroke-linejoin="round"/>
<path d="M76.2718 160.909C76.2718 162.264 75.1598 163.376 73.8046 163.376C72.4494 163.376 71.3374 162.264 71.3374 160.909C71.3374 159.553 72.4494 158.441 73.8046 158.441C75.1598 158.441 76.2718 159.553 76.2718 160.909Z" stroke="white" stroke-width="2" stroke-linecap="round" stroke-linejoin="round"/>
<path d="M135.241 221.409C135.241 222.764 134.129 223.876 132.774 223.876C131.419 223.876 130.307 222.764 130.307 221.409C130.307 220.053 131.419 218.941 132.774 218.941C134.129 218.941 135.241 220.019 135.241 221.409Z" stroke="white" stroke-width="2" stroke-linecap="round" stroke-linejoin="round"/>
<path d="M197.997 219.705C197.997 221.061 196.885 222.173 195.53 222.173C194.174 222.173 193.062 221.061 193.062 219.705C193.062 218.35 194.174 217.238 195.53 217.238C196.885 217.238 197.997 218.35 197.997 219.705Z" stroke="white" stroke-width="2" stroke-linecap="round" stroke-linejoin="round"/>
<path d="M298.041 112.815C298.041 113.823 297.242 114.622 296.234 114.622C295.226 114.622 294.427 113.823 294.427 112.815C294.427 111.807 295.226 111.008 296.234 111.008C297.207 111.008 298.041 111.807 298.041 112.815Z" stroke="white" stroke-width="2" stroke-linecap="round" stroke-linejoin="round"/>
<path d="M271.807 44.9163C271.807 45.9241 271.008 46.7233 270 46.7233C268.993 46.7233 268.193 45.9241 268.193 44.9163C268.193 43.9086 268.993 43.1094 270 43.1094C271.008 43.1094 271.807 43.9086 271.807 44.9163Z" stroke="white" stroke-width="2" stroke-linecap="round" stroke-linejoin="round"/>
<path d="M219.3 18.1937C219.3 19.2014 218.501 20.0007 217.493 20.0007C216.486 20.0007 215.687 19.2014 215.687 18.1937C215.687 17.186 216.486 16.3867 217.493 16.3867C218.501 16.3867 219.3 17.186 219.3 18.1937Z" stroke="white" stroke-width="2" stroke-linecap="round" stroke-linejoin="round"/>
<path d="M160.157 54.6098C160.157 55.5133 159.427 56.243 158.524 56.243C157.62 56.243 156.89 55.5133 156.89 54.6098C156.89 53.7063 157.62 52.9766 158.524 52.9766C159.427 52.9766 160.157 53.7063 160.157 54.6098Z" stroke="white" stroke-width="2" stroke-linecap="round" stroke-linejoin="round"/>
<path d="M99.5173 19.5815C99.5173 20.5892 98.718 21.3884 97.7103 21.3884C96.7026 21.3884 95.9033 20.5892 95.9033 19.5815C95.9033 18.5737 96.7026 17.7745 97.7103 17.7745C98.718 17.7397 99.5173 18.5737 99.5173 19.5815Z" stroke="white" stroke-width="2" stroke-linecap="round" stroke-linejoin="round"/>
<path d="M49.3727 50.9281C49.3727 51.9358 48.5735 52.735 47.5658 52.735C46.558 52.735 45.7588 51.9358 45.7588 50.9281C45.7588 49.9203 46.558 49.1211 47.5658 49.1211C48.5735 49.1211 49.3727 49.9551 49.3727 50.9281Z" stroke="white" stroke-width="2" stroke-linecap="round" stroke-linejoin="round"/>
<path d="M20.4636 113.233C20.4636 114.24 19.6643 115.04 18.6566 115.04C17.6488 115.04 16.8496 114.24 16.8496 113.233C16.8496 112.225 17.6488 111.426 18.6566 111.426C19.6296 111.426 20.4636 112.225 20.4636 113.233Z" stroke="white" stroke-width="2" stroke-linecap="round" stroke-linejoin="round"/>
<path d="M36.9325 168.416C36.9325 169.424 36.1333 170.223 35.1256 170.223C34.1178 170.223 33.3186 169.424 33.3186 168.416C33.3186 167.409 34.1178 166.609 35.1256 166.609C36.1333 166.609 36.9325 167.409 36.9325 168.416Z" stroke="white" stroke-width="2" stroke-linecap="round" stroke-linejoin="round"/>
<path d="M95.4177 224.816C95.4177 225.824 94.6184 226.623 93.6107 226.623C92.6029 226.623 91.8037 225.824 91.8037 224.816C91.8037 223.808 92.6029 223.009 93.6107 223.009C94.6184 222.974 95.4177 223.808 95.4177 224.816Z" stroke="white" stroke-width="2" stroke-linecap="round" stroke-linejoin="round"/>
<path d="M161.997 262.342C161.997 263.35 161.198 264.149 160.191 264.149C159.183 264.149 158.384 263.35 158.384 262.342C158.384 261.334 159.183 260.535 160.191 260.535C161.164 260.535 161.997 261.334 161.997 262.342Z" stroke="white" stroke-width="2" stroke-linecap="round" stroke-linejoin="round"/>
<path d="M222.708 225.959C222.708 226.793 222.013 227.488 221.179 227.488C220.31 227.488 219.65 226.793 219.65 225.959C219.65 225.125 220.345 224.43 221.179 224.43C222.048 224.43 222.708 225.125 222.708 225.959Z" stroke="white" stroke-width="2" stroke-linecap="round" stroke-linejoin="round"/>
<path d="M116.023 165.601L115.849 165.323L156.61 140.164L156.784 140.407L116.023 165.601Z" stroke="white" stroke-width="2" stroke-linecap="round" stroke-linejoin="round"/>
<path d="M124.538 60.6498L115.781 165.434L116.093 165.46L124.85 60.6758L124.538 60.6498Z" stroke="white" stroke-width="2" stroke-linecap="round" stroke-linejoin="round"/>
<path d="M73.4776 160.736L73.4443 161.047L115.908 165.595L115.941 165.284L73.4776 160.736Z" stroke="white" stroke-width="2" stroke-linecap="round" stroke-linejoin="round"/>
<path d="M115.814 165.566L44.1255 101.696L44.334 101.453L116.022 165.357L115.814 165.566Z" stroke="white" stroke-width="2" stroke-linecap="round" stroke-linejoin="round"/>
<path d="M115.918 165.601V165.289L200.359 160.91V161.223L115.918 165.601Z" stroke="white" stroke-width="2" stroke-linecap="round" stroke-linejoin="round"/>
<path d="M116.074 165.369L115.807 165.531L158.323 235.741L158.591 235.579L116.074 165.369Z" stroke="white" stroke-width="2" stroke-linecap="round" stroke-linejoin="round"/>
<path d="M200.245 161.01L158.307 235.617L158.579 235.77L200.517 161.163L200.245 161.01Z" stroke="white" stroke-width="2" stroke-linecap="round" stroke-linejoin="round"/>
<path d="M189.842 73.1536L189.532 73.1914L200.228 161.087L200.538 161.049L189.842 73.1536Z" stroke="white" stroke-width="2" stroke-linecap="round" stroke-linejoin="round"/>
<path d="M92.9964 224.449L92.9443 224.758L158.387 235.809L158.439 235.5L92.9964 224.449Z" stroke="white" stroke-width="2" stroke-linecap="round" stroke-linejoin="round"/>
<path d="M35.2196 168.288L35.0698 168.562L158.377 235.827L158.527 235.553L35.2196 168.288Z" stroke="white" stroke-width="2" stroke-linecap="round" stroke-linejoin="round"/>
<path d="M195.498 219.569L158.415 235.547L158.538 235.834L195.622 219.856L195.498 219.569Z" stroke="white" stroke-width="2" stroke-linecap="round" stroke-linejoin="round"/>
<path d="M195.669 219.743H195.391L200.221 161.051L200.499 161.086L195.669 219.743Z" stroke="white" stroke-width="2" stroke-linecap="round" stroke-linejoin="round"/>
<path d="M246.473 182.316L200.291 161.188L200.43 160.91L246.577 182.038L246.473 182.316Z" stroke="white" stroke-width="2" stroke-linecap="round" stroke-linejoin="round"/>
<path d="M246.374 182.104L220.824 226.215L221.095 226.372L246.645 182.261L246.374 182.104Z" stroke="white" stroke-width="2" stroke-linecap="round" stroke-linejoin="round"/>
<path d="M246.573 182.028L246.485 182.328L269.474 189.14L269.563 188.84L246.573 182.028Z" stroke="white" stroke-width="2" stroke-linecap="round" stroke-linejoin="round"/>
<path d="M295.354 112.044L246.392 182.078L246.648 182.257L295.61 112.224L295.354 112.044Z" stroke="white" stroke-width="2" stroke-linecap="round" stroke-linejoin="round"/>
<path d="M252.641 117.108L246.328 182.164L246.64 182.194L252.952 117.138L252.641 117.108Z" stroke="white" stroke-width="2" stroke-linecap="round" stroke-linejoin="round"/>
<path d="M189.77 73.0363L189.591 73.293L252.703 117.234L252.882 116.977L189.77 73.0363Z" stroke="white" stroke-width="2" stroke-linecap="round" stroke-linejoin="round"/>
<path d="M200.464 161.19L200.255 160.946L252.692 116.988L252.866 117.232L200.464 161.19Z" stroke="white" stroke-width="2" stroke-linecap="round" stroke-linejoin="round"/>
<path d="M270.416 44.7316L252.587 117.066L252.891 117.141L270.72 44.8065L270.416 44.7316Z" stroke="white" stroke-width="2" stroke-linecap="round" stroke-linejoin="round"/>
<path d="M295.419 111.991L252.76 117.004L252.797 117.315L295.455 112.302L295.419 111.991Z" stroke="white" stroke-width="2" stroke-linecap="round" stroke-linejoin="round"/>
<path d="M270.463 44.5571L189.664 73.1016L189.768 73.3965L270.567 44.852L270.463 44.5571Z" stroke="white" stroke-width="2" stroke-linecap="round" stroke-linejoin="round"/>
<path d="M71.0563 72.9255L70.7783 72.7865L97.5701 19.5156L97.8481 19.6546L71.0563 72.9255Z" stroke="white" stroke-width="2" stroke-linecap="round" stroke-linejoin="round"/>
<path d="M44.334 101.662L44.1255 101.453L70.8131 72.75L71.0216 72.9585L44.334 101.662Z" stroke="white" stroke-width="2" stroke-linecap="round" stroke-linejoin="round"/>
<path d="M124.651 60.5042L70.8713 72.7031L70.9405 73.0081L124.72 60.8092L124.651 60.5042Z" stroke="white" stroke-width="2" stroke-linecap="round" stroke-linejoin="round"/>
<path d="M97.8554 19.4885L97.594 19.6602L124.579 60.7667L124.84 60.5951L97.8554 19.4885Z" stroke="white" stroke-width="2" stroke-linecap="round" stroke-linejoin="round"/>
<path d="M124.822 60.5901L124.578 60.7852L156.519 100.824L156.763 100.629L124.822 60.5901Z" stroke="white" stroke-width="2" stroke-linecap="round" stroke-linejoin="round"/>
<path d="M189.54 73.0143L156.553 100.629L156.753 100.869L189.741 73.2541L189.54 73.0143Z" stroke="white" stroke-width="2" stroke-linecap="round" stroke-linejoin="round"/>
<path d="M158.818 54.7158L156.516 100.738L156.828 100.754L159.13 54.7314L158.818 54.7158Z" stroke="white" stroke-width="2" stroke-linecap="round" stroke-linejoin="round"/>
<path d="M156.539 140.268L156.504 100.723H156.782L156.852 140.268H156.539Z" stroke="white" stroke-width="2" stroke-linecap="round" stroke-linejoin="round"/>
<path d="M70.8431 72.708L18.5234 113.098L18.7146 113.345L71.0342 72.9556L70.8431 72.708Z" stroke="white" stroke-width="2" stroke-linecap="round" stroke-linejoin="round"/>
<path d="M70.7541 72.7614L34.9824 168.34L35.2753 168.449L71.047 72.8711L70.7541 72.7614Z" stroke="white" stroke-width="2" stroke-linecap="round" stroke-linejoin="round"/>
<path d="M158.927 54.54L124.661 60.5195L124.715 60.8276L158.981 54.8481L158.927 54.54Z" stroke="white" stroke-width="2" stroke-linecap="round" stroke-linejoin="round"/>
<path d="M158.989 54.5439L158.962 54.8555L227.574 60.833L227.601 60.5214L158.989 54.5439Z" stroke="white" stroke-width="2" stroke-linecap="round" stroke-linejoin="round"/>
<path d="M217.871 17.7386L217.566 17.8086L227.419 60.7178L227.724 60.6478L217.871 17.7386Z" stroke="white" stroke-width="2" stroke-linecap="round" stroke-linejoin="round"/>
<path d="M227.709 60.5953L227.447 60.7656L241.432 82.3033L241.695 82.133L227.709 60.5953Z" stroke="white" stroke-width="2" stroke-linecap="round" stroke-linejoin="round"/>
<path d="M160.015 262.97L158.243 235.726L158.556 235.691L160.328 262.935L160.015 262.97Z" stroke="white" stroke-width="2" stroke-linecap="round" stroke-linejoin="round"/>
<path d="M157.967 100.551C157.967 101.281 157.376 101.837 156.681 101.837C155.952 101.837 155.396 101.246 155.396 100.551C155.396 99.8216 155.986 99.2656 156.681 99.2656C157.376 99.2656 157.967 99.8564 157.967 100.551Z" stroke="white" stroke-width="2" stroke-linecap="round" stroke-linejoin="round"/>
<path d="M125.857 60.8326C125.857 61.5623 125.267 62.1183 124.572 62.1183C123.842 62.1183 123.286 61.5276 123.286 60.8326C123.286 60.1029 123.877 59.5469 124.572 59.5469C125.301 59.5469 125.857 60.1376 125.857 60.8326Z" stroke="white" stroke-width="2" stroke-linecap="round" stroke-linejoin="round"/>
<path d="M72.3097 72.8575C72.3097 73.5872 71.719 74.1432 71.024 74.1432C70.2943 74.1432 69.7383 73.5525 69.7383 72.8575C69.7383 72.1278 70.329 71.5718 71.024 71.5718C71.7537 71.537 72.3097 72.1278 72.3097 72.8575Z" stroke="white" stroke-width="2" stroke-linecap="round" stroke-linejoin="round"/>
<path d="M117.379 165.602C117.379 166.332 116.788 166.888 116.093 166.888C115.364 166.888 114.808 166.297 114.808 165.602C114.808 164.872 115.398 164.316 116.093 164.316C116.823 164.316 117.379 164.907 117.379 165.602Z" stroke="white" stroke-width="2" stroke-linecap="round" stroke-linejoin="round"/>
<path d="M159.427 235.693C159.427 236.423 158.836 236.979 158.141 236.979C157.411 236.979 156.855 236.388 156.855 235.693C156.855 234.964 157.446 234.408 158.141 234.408C158.871 234.373 159.427 234.964 159.427 235.693Z" stroke="white" stroke-width="2" stroke-linecap="round" stroke-linejoin="round"/>
<path d="M183.857 192.844C183.857 193.574 183.266 194.13 182.571 194.13C181.841 194.13 181.285 193.539 181.285 192.844C181.285 192.115 181.876 191.559 182.571 191.559C183.301 191.559 183.857 192.115 183.857 192.844Z" stroke="white" stroke-width="2" stroke-linecap="round" stroke-linejoin="round"/>
<path d="M169.227 162.926C169.227 163.656 168.636 164.212 167.941 164.212C167.212 164.212 166.656 163.621 166.656 162.926C166.656 162.197 167.246 161.641 167.941 161.641C168.636 161.641 169.227 162.197 169.227 162.926Z" stroke="white" stroke-width="2" stroke-linecap="round" stroke-linejoin="round"/>
<path d="M201.822 161.051C201.822 161.781 201.232 162.337 200.537 162.337C199.807 162.337 199.251 161.746 199.251 161.051C199.251 160.322 199.842 159.766 200.537 159.766C201.232 159.766 201.822 160.322 201.822 161.051Z" stroke="white" stroke-width="2" stroke-linecap="round" stroke-linejoin="round"/>
<path d="M225.937 174.185C226.647 174.185 227.222 173.609 227.222 172.899C227.222 172.189 226.647 171.613 225.937 171.613C225.227 171.613 224.651 172.189 224.651 172.899C224.651 173.609 225.227 174.185 225.937 174.185Z" stroke="white" stroke-width="2" stroke-linecap="round" stroke-linejoin="round"/>
<path d="M247.688 182.04C247.688 182.769 247.098 183.325 246.403 183.325C245.673 183.325 245.117 182.735 245.117 182.04C245.117 181.31 245.708 180.754 246.403 180.754C247.098 180.754 247.688 181.31 247.688 182.04Z" stroke="white" stroke-width="2" stroke-linecap="round" stroke-linejoin="round"/>
<path d="M254.052 117.09C254.052 117.82 253.461 118.376 252.766 118.376C252.071 118.376 251.48 117.785 251.48 117.09C251.48 116.361 252.071 115.805 252.766 115.805C253.461 115.805 254.052 116.395 254.052 117.09Z" stroke="white" stroke-width="2" stroke-linecap="round" stroke-linejoin="round"/>
<path d="M228.542 60.8326C228.542 61.5623 227.951 62.1183 227.256 62.1183C226.527 62.1183 225.971 61.5276 225.971 60.8326C225.971 60.1029 226.561 59.5469 227.256 59.5469C227.951 59.5469 228.542 60.1376 228.542 60.8326Z" stroke="white" stroke-width="2" stroke-linecap="round" stroke-linejoin="round"/>
<path d="M151.051 163.727C151.051 164.457 150.46 165.013 149.765 165.013C149.035 165.013 148.479 164.422 148.479 163.727C148.479 162.997 149.07 162.441 149.765 162.441C150.46 162.441 151.051 162.997 151.051 163.727Z" stroke="white" stroke-width="2" stroke-linecap="round" stroke-linejoin="round"/>
</g>
<defs>
<filter id="filter0_d_1761:1827" x="0.849609" y="0.386719" width="313.192" height="279.762" filterUnits="userSpaceOnUse" color-interpolation-filters="sRGB">
<feFlood flood-opacity="0" result="BackgroundImageFix"/>
<feColorMatrix in="SourceAlpha" type="matrix" values="0 0 0 0 0 0 0 0 0 0 0 0 0 0 0 0 0 0 127 0" result="hardAlpha"/>
<feOffset/>
<feGaussianBlur stdDeviation="7.5"/>
<feColorMatrix type="matrix" values="0 0 0 0 0.156863 0 0 0 0 0.898039 0 0 0 0 0.733333 0 0 0 1 0"/>
<feBlend mode="normal" in2="BackgroundImageFix" result="effect1_dropShadow_1761:1827"/>
<feBlend mode="normal" in="SourceGraphic" in2="effect1_dropShadow_1761:1827" result="shape"/>
</filter>
</defs>
</svg>
