<svg width="622" height="209" viewBox="0 0 622 209" fill="none" xmlns="http://www.w3.org/2000/svg">
<g filter="url(#filter0_b_1761:1430)">
<rect x="397" y="35" width="71" height="89" rx="4" fill="url(#paint0_linear_1761:1430)" fill-opacity="0.15"/>
<rect x="397" y="35" width="71" height="89" rx="4" fill="url(#paint1_linear_1761:1430)" fill-opacity="0.2"/>
</g>
<g filter="url(#filter1_d_1761:1430)">
<path d="M430.5 43C415.864 43 404 55.3122 404 70.5C404 85.6878 415.864 98 430.5 98C445.136 98 457 85.6878 457 70.5C457 55.3122 445.136 43 430.5 43Z" stroke="#C6AFFF" stroke-width="5" stroke-linecap="round" stroke-linejoin="round" stroke-dasharray="0.2 8"/>
</g>
<g filter="url(#filter2_d_1761:1430)">
<path d="M414.562 106.298V116H413.288V108.258L410.194 116H409.06L405.952 108.286V116H404.678V106.298H406.204L409.648 114.446L413.036 106.298H414.562ZM419.47 108.216C420.216 108.216 420.846 108.403 421.36 108.776C421.882 109.149 422.246 109.649 422.452 110.274V108.314H423.726V116H422.452V114.04C422.246 114.665 421.882 115.165 421.36 115.538C420.846 115.911 420.216 116.098 419.47 116.098C418.788 116.098 418.182 115.939 417.65 115.622C417.118 115.305 416.698 114.852 416.39 114.264C416.091 113.667 415.942 112.967 415.942 112.164C415.942 111.361 416.091 110.661 416.39 110.064C416.698 109.467 417.118 109.009 417.65 108.692C418.182 108.375 418.788 108.216 419.47 108.216ZM419.834 109.35C419.05 109.35 418.42 109.602 417.944 110.106C417.477 110.601 417.244 111.287 417.244 112.164C417.244 113.041 417.477 113.732 417.944 114.236C418.42 114.731 419.05 114.978 419.834 114.978C420.338 114.978 420.786 114.861 421.178 114.628C421.579 114.395 421.892 114.068 422.116 113.648C422.34 113.219 422.452 112.724 422.452 112.164C422.452 111.604 422.34 111.109 422.116 110.68C421.892 110.251 421.579 109.924 421.178 109.7C420.786 109.467 420.338 109.35 419.834 109.35ZM425.249 106.06C425.249 105.827 425.329 105.64 425.487 105.5C425.646 105.351 425.856 105.276 426.117 105.276C426.379 105.276 426.589 105.351 426.747 105.5C426.906 105.64 426.985 105.827 426.985 106.06C426.985 106.293 426.906 106.485 426.747 106.634C426.589 106.774 426.379 106.844 426.117 106.844C425.856 106.844 425.646 106.774 425.487 106.634C425.329 106.485 425.249 106.293 425.249 106.06ZM426.747 108.314V116H425.473V108.314H426.747ZM432.562 108.188C433.458 108.188 434.181 108.477 434.732 109.056C435.282 109.625 435.558 110.451 435.558 111.534V116H434.284V111.646C434.284 110.881 434.088 110.293 433.696 109.882C433.304 109.471 432.772 109.266 432.1 109.266C431.4 109.266 430.84 109.495 430.42 109.952C430 110.4 429.79 111.058 429.79 111.926V116H428.516V108.314H429.79V110.134C429.986 109.509 430.331 109.028 430.826 108.692C431.33 108.356 431.908 108.188 432.562 108.188ZM440.9 114.88V116H439.948C439.164 116 438.576 115.813 438.184 115.44C437.801 115.067 437.61 114.441 437.61 113.564V109.42H436.462V108.314H437.61V106.396H438.898V108.314H440.886V109.42H438.898V113.592C438.898 114.087 438.986 114.427 439.164 114.614C439.35 114.791 439.668 114.88 440.116 114.88H440.9ZM445.324 108.216C446.071 108.216 446.701 108.403 447.214 108.776C447.737 109.149 448.101 109.649 448.306 110.274V108.314H449.58V116H448.306V114.04C448.101 114.665 447.737 115.165 447.214 115.538C446.701 115.911 446.071 116.098 445.324 116.098C444.643 116.098 444.036 115.939 443.504 115.622C442.972 115.305 442.552 114.852 442.244 114.264C441.946 113.667 441.796 112.967 441.796 112.164C441.796 111.361 441.946 110.661 442.244 110.064C442.552 109.467 442.972 109.009 443.504 108.692C444.036 108.375 444.643 108.216 445.324 108.216ZM445.688 109.35C444.904 109.35 444.274 109.602 443.798 110.106C443.332 110.601 443.098 111.287 443.098 112.164C443.098 113.041 443.332 113.732 443.798 114.236C444.274 114.731 444.904 114.978 445.688 114.978C446.192 114.978 446.64 114.861 447.032 114.628C447.434 114.395 447.746 114.068 447.97 113.648C448.194 113.219 448.306 112.724 448.306 112.164C448.306 111.604 448.194 111.109 447.97 110.68C447.746 110.251 447.434 109.924 447.032 109.7C446.64 109.467 446.192 109.35 445.688 109.35ZM451.104 106.06C451.104 105.827 451.183 105.64 451.342 105.5C451.501 105.351 451.711 105.276 451.972 105.276C452.233 105.276 452.443 105.351 452.602 105.5C452.761 105.64 452.84 105.827 452.84 106.06C452.84 106.293 452.761 106.485 452.602 106.634C452.443 106.774 452.233 106.844 451.972 106.844C451.711 106.844 451.501 106.774 451.342 106.634C451.183 106.485 451.104 106.293 451.104 106.06ZM452.602 108.314V116H451.328V108.314H452.602ZM458.416 108.188C459.312 108.188 460.035 108.477 460.586 109.056C461.137 109.625 461.412 110.451 461.412 111.534V116H460.138V111.646C460.138 110.881 459.942 110.293 459.55 109.882C459.158 109.471 458.626 109.266 457.954 109.266C457.254 109.266 456.694 109.495 456.274 109.952C455.854 110.4 455.644 111.058 455.644 111.926V116H454.37V108.314H455.644V110.134C455.84 109.509 456.185 109.028 456.68 108.692C457.184 108.356 457.763 108.188 458.416 108.188Z" fill="#C6AFFF"/>
</g>
<g filter="url(#filter3_d_1761:1430)">
<path d="M435.14 55.95V63H434.22V59.74H430.64V63H429.73V55.95H430.64V59H434.22V55.95H435.14ZM440.135 63L438.295 60.12H437.305V63H436.395V55.95H438.715C439.515 55.95 440.115 56.1433 440.515 56.53C440.915 56.91 441.115 57.4167 441.115 58.05C441.115 58.6233 440.955 59.0867 440.635 59.44C440.315 59.7867 439.852 60.0033 439.245 60.09L441.165 63H440.135ZM437.305 59.46H438.635C439.669 59.46 440.185 59.0067 440.185 58.1C440.185 57.1933 439.669 56.74 438.635 56.74H437.305V59.46ZM442.485 55.95L444.635 61.99L446.815 55.95H447.805L445.215 63H444.065L441.485 55.95H442.485Z" fill="#F0EAFF"/>
</g>
<path d="M425.229 55.7957C424.985 55.5434 424.694 55.3433 424.375 55.2068C424.056 55.0703 423.714 55 423.368 55C423.022 55 422.68 55.0703 422.361 55.2068C422.041 55.3433 421.751 55.5434 421.507 55.7957L421 56.3189L420.493 55.7957C419.999 55.2864 419.33 55.0003 418.632 55.0003C417.934 55.0003 417.264 55.2864 416.771 55.7957C416.277 56.305 416 56.9957 416 57.7159C416 58.4362 416.277 59.1269 416.771 59.6362L417.278 60.1595L421 64L424.722 60.1595L425.229 59.6362C425.473 59.3841 425.667 59.0847 425.8 58.7552C425.932 58.4257 426 58.0726 426 57.7159C426 57.3593 425.932 57.0061 425.8 56.6766C425.667 56.3472 425.473 56.0478 425.229 55.7957V55.7957Z" stroke="#C6AFFF" stroke-linecap="round" stroke-linejoin="round"/>
<g filter="url(#filter4_d_1761:1430)">
<path d="M430.966 71.025L424.291 87H421.891L428.666 71.25H419.416V69.275H430.966V71.025ZM438.687 68.9C439.821 68.9 440.796 69.1 441.612 69.5C442.429 69.9 443.046 70.45 443.462 71.15C443.879 71.85 444.087 72.6417 444.087 73.525C444.087 74.625 443.762 75.55 443.112 76.3C442.479 77.05 441.546 77.5 440.312 77.65V77.8C441.596 78.1333 442.596 78.65 443.312 79.35C444.046 80.05 444.412 81.0167 444.412 82.25C444.412 83.7 443.929 84.8833 442.962 85.8C441.996 86.7167 440.604 87.175 438.787 87.175C436.971 87.175 435.496 86.7083 434.362 85.775C433.246 84.825 432.587 83.4417 432.387 81.625H434.637C434.787 82.725 435.204 83.6 435.887 84.25C436.587 84.9 437.529 85.225 438.712 85.225C439.829 85.225 440.687 84.9417 441.287 84.375C441.887 83.7917 442.187 83.0417 442.187 82.125C442.187 81.025 441.754 80.1917 440.887 79.625C440.037 79.0417 438.821 78.75 437.237 78.75H436.637V76.85H437.237C440.304 76.85 441.837 75.825 441.837 73.775C441.837 72.875 441.554 72.1583 440.987 71.625C440.421 71.0917 439.637 70.825 438.637 70.825C437.637 70.825 436.796 71.1167 436.112 71.7C435.429 72.2667 435.029 73.1083 434.912 74.225H432.687C432.804 72.5583 433.379 71.2583 434.412 70.325C435.462 69.375 436.887 68.9 438.687 68.9Z" fill="#F0EAFF"/>
</g>
<g filter="url(#filter5_b_1761:1430)">
<rect x="97" y="115" width="62" height="59" rx="4" fill="url(#paint2_linear_1761:1430)" fill-opacity="0.15"/>
<rect x="97" y="115" width="62" height="59" rx="4" fill="url(#paint3_linear_1761:1430)" fill-opacity="0.2"/>
</g>
<g filter="url(#filter6_d_1761:1430)">
<path d="M128.5 121C116.626 121 107 131.074 107 143.5C107 155.926 116.626 166 128.5 166C140.374 166 150 155.926 150 143.5C150 131.074 140.374 121 128.5 121Z" stroke="#C6AFFF" stroke-width="5" stroke-linecap="round" stroke-linejoin="round" stroke-dasharray="0.2 8"/>
</g>
<g filter="url(#filter7_d_1761:1430)">
<path d="M131.298 132.065V137H130.654V134.718H128.148V137H127.511V132.065H128.148V134.2H130.654V132.065H131.298ZM134.795 137L133.507 134.984H132.814V137H132.177V132.065H133.801C134.361 132.065 134.781 132.2 135.061 132.471C135.341 132.737 135.481 133.092 135.481 133.535C135.481 133.936 135.369 134.261 135.145 134.508C134.921 134.751 134.596 134.902 134.172 134.963L135.516 137H134.795ZM132.814 134.522H133.745C134.468 134.522 134.83 134.205 134.83 133.57C134.83 132.935 134.468 132.618 133.745 132.618H132.814V134.522ZM136.44 132.065L137.945 136.293L139.471 132.065H140.164L138.351 137H137.546L135.74 132.065H136.44Z" fill="#F0EAFF"/>
</g>
<path d="M124.46 131.53C124.289 131.362 124.086 131.229 123.863 131.138C123.639 131.047 123.4 131 123.158 131C122.916 131 122.676 131.047 122.453 131.138C122.229 131.229 122.026 131.362 121.855 131.53L121.5 131.879L121.145 131.53C120.799 131.191 120.331 131 119.842 131C119.354 131 118.885 131.191 118.54 131.53C118.194 131.87 118 132.33 118 132.811C118 133.291 118.194 133.751 118.54 134.091L118.895 134.44L121.5 137L124.105 134.44L124.46 134.091C124.631 133.923 124.767 133.723 124.86 133.503C124.952 133.284 125 133.048 125 132.811C125 132.573 124.952 132.337 124.86 132.118C124.767 131.898 124.631 131.699 124.46 131.53V131.53Z" stroke="#C6AFFF" stroke-linecap="round" stroke-linejoin="round"/>
<g filter="url(#filter8_d_1761:1430)">
<path d="M127.966 142.025L121.291 158H118.891L125.666 142.25H116.416V140.275H127.966V142.025ZM135.687 139.9C136.821 139.9 137.796 140.1 138.612 140.5C139.429 140.9 140.046 141.45 140.462 142.15C140.879 142.85 141.087 143.642 141.087 144.525C141.087 145.625 140.762 146.55 140.112 147.3C139.479 148.05 138.546 148.5 137.312 148.65V148.8C138.596 149.133 139.596 149.65 140.312 150.35C141.046 151.05 141.412 152.017 141.412 153.25C141.412 154.7 140.929 155.883 139.962 156.8C138.996 157.717 137.604 158.175 135.787 158.175C133.971 158.175 132.496 157.708 131.362 156.775C130.246 155.825 129.587 154.442 129.387 152.625H131.637C131.787 153.725 132.204 154.6 132.887 155.25C133.587 155.9 134.529 156.225 135.712 156.225C136.829 156.225 137.687 155.942 138.287 155.375C138.887 154.792 139.187 154.042 139.187 153.125C139.187 152.025 138.754 151.192 137.887 150.625C137.037 150.042 135.821 149.75 134.237 149.75H133.637V147.85H134.237C137.304 147.85 138.837 146.825 138.837 144.775C138.837 143.875 138.554 143.158 137.987 142.625C137.421 142.092 136.637 141.825 135.637 141.825C134.637 141.825 133.796 142.117 133.112 142.7C132.429 143.267 132.029 144.108 131.912 145.225H129.687C129.804 143.558 130.379 142.258 131.412 141.325C132.462 140.375 133.887 139.9 135.687 139.9Z" fill="#F0EAFF"/>
</g>
<g filter="url(#filter9_b_1761:1430)">
<rect x="189" y="53" width="79" height="93" rx="4" fill="url(#paint4_linear_1761:1430)" fill-opacity="0.15"/>
<rect x="189" y="53" width="79" height="93" rx="4" fill="url(#paint5_linear_1761:1430)" fill-opacity="0.2"/>
</g>
<g filter="url(#filter10_d_1761:1430)">
<path d="M201 92C201 76.536 212.641 64 227 64" stroke="url(#paint6_linear_1761:1430)" stroke-width="5" stroke-linecap="round" stroke-linejoin="round"/>
</g>
<g filter="url(#filter11_d_1761:1430)">
<path d="M255 92C255 107.464 243.359 120 229 120" stroke="url(#paint7_linear_1761:1430)" stroke-width="5" stroke-linecap="round" stroke-linejoin="round"/>
</g>
<g filter="url(#filter12_d_1761:1430)">
<path d="M227 64C242.464 64 255 75.6406 255 90" stroke="url(#paint8_angular_1761:1430)" stroke-width="5" stroke-linecap="round" stroke-linejoin="round"/>
</g>
<g filter="url(#filter13_d_1761:1430)">
<path d="M229 120C213.536 120 201 108.359 201 94" stroke="url(#paint9_angular_1761:1430)" stroke-width="5" stroke-linecap="round" stroke-linejoin="round"/>
</g>
<g filter="url(#filter14_d_1761:1430)">
<path d="M207.756 139L205.18 134.968H203.794V139H202.52V129.13H205.768C206.888 129.13 207.728 129.401 208.288 129.942C208.848 130.474 209.128 131.183 209.128 132.07C209.128 132.873 208.904 133.521 208.456 134.016C208.008 134.501 207.36 134.805 206.51 134.926L209.198 139H207.756ZM203.794 134.044H205.656C207.103 134.044 207.826 133.409 207.826 132.14C207.826 130.871 207.103 130.236 205.656 130.236H203.794V134.044ZM217.472 134.73C217.472 135.001 217.454 135.234 217.416 135.43H211.27C211.298 136.307 211.546 136.965 212.012 137.404C212.488 137.843 213.067 138.062 213.748 138.062C214.364 138.062 214.878 137.908 215.288 137.6C215.708 137.283 215.965 136.863 216.058 136.34H217.416C217.323 136.872 217.113 137.348 216.786 137.768C216.469 138.188 216.054 138.515 215.54 138.748C215.027 138.981 214.448 139.098 213.804 139.098C213.067 139.098 212.414 138.939 211.844 138.622C211.275 138.305 210.827 137.852 210.5 137.264C210.183 136.667 210.024 135.967 210.024 135.164C210.024 134.361 210.183 133.661 210.5 133.064C210.827 132.467 211.275 132.009 211.844 131.692C212.414 131.375 213.067 131.216 213.804 131.216C214.551 131.216 215.2 131.375 215.75 131.692C216.31 132.009 216.735 132.434 217.024 132.966C217.323 133.498 217.472 134.086 217.472 134.73ZM216.184 134.814C216.212 134.245 216.119 133.769 215.904 133.386C215.69 133.003 215.396 132.719 215.022 132.532C214.649 132.345 214.243 132.252 213.804 132.252C213.104 132.252 212.516 132.471 212.04 132.91C211.564 133.339 211.308 133.974 211.27 134.814H216.184ZM222.261 131.216C223.241 131.216 224.053 131.477 224.697 132C225.341 132.523 225.737 133.223 225.887 134.1H224.543C224.449 133.549 224.193 133.12 223.773 132.812C223.362 132.495 222.849 132.336 222.233 132.336C221.785 132.336 221.374 132.439 221.001 132.644C220.637 132.849 220.343 133.167 220.119 133.596C219.895 134.016 219.783 134.539 219.783 135.164C219.783 135.789 219.895 136.317 220.119 136.746C220.343 137.166 220.637 137.479 221.001 137.684C221.374 137.889 221.785 137.992 222.233 137.992C222.849 137.992 223.362 137.833 223.773 137.516C224.193 137.199 224.449 136.765 224.543 136.214H225.887C225.737 137.101 225.341 137.805 224.697 138.328C224.053 138.841 223.241 139.098 222.261 139.098C221.523 139.098 220.87 138.939 220.301 138.622C219.731 138.305 219.283 137.852 218.957 137.264C218.639 136.667 218.481 135.967 218.481 135.164C218.481 134.361 218.639 133.661 218.957 133.064C219.283 132.467 219.731 132.009 220.301 131.692C220.87 131.375 221.523 131.216 222.261 131.216ZM230.76 131.216C231.497 131.216 232.155 131.375 232.734 131.692C233.322 132.009 233.779 132.467 234.106 133.064C234.442 133.661 234.61 134.361 234.61 135.164C234.61 135.967 234.442 136.667 234.106 137.264C233.779 137.852 233.322 138.305 232.734 138.622C232.155 138.939 231.497 139.098 230.76 139.098C230.023 139.098 229.36 138.939 228.772 138.622C228.193 138.305 227.736 137.852 227.4 137.264C227.064 136.667 226.896 135.967 226.896 135.164C226.896 134.361 227.064 133.661 227.4 133.064C227.736 132.467 228.193 132.009 228.772 131.692C229.36 131.375 230.023 131.216 230.76 131.216ZM230.76 132.336C230.303 132.336 229.878 132.439 229.486 132.644C229.103 132.849 228.791 133.167 228.548 133.596C228.315 134.016 228.198 134.539 228.198 135.164C228.198 135.78 228.315 136.303 228.548 136.732C228.791 137.152 229.103 137.465 229.486 137.67C229.878 137.875 230.303 137.978 230.76 137.978C231.217 137.978 231.637 137.875 232.02 137.67C232.412 137.465 232.725 137.152 232.958 136.732C233.201 136.303 233.322 135.78 233.322 135.164C233.322 134.539 233.201 134.016 232.958 133.596C232.725 133.167 232.412 132.849 232.02 132.644C231.637 132.439 231.217 132.336 230.76 132.336ZM238.972 137.642L241.352 131.314H242.724L239.714 139H238.202L235.192 131.314H236.564L238.972 137.642ZM250.764 134.73C250.764 135.001 250.746 135.234 250.708 135.43H244.562C244.59 136.307 244.838 136.965 245.304 137.404C245.78 137.843 246.359 138.062 247.04 138.062C247.656 138.062 248.17 137.908 248.58 137.6C249 137.283 249.257 136.863 249.35 136.34H250.708C250.615 136.872 250.405 137.348 250.078 137.768C249.761 138.188 249.346 138.515 248.832 138.748C248.319 138.981 247.74 139.098 247.096 139.098C246.359 139.098 245.706 138.939 245.136 138.622C244.567 138.305 244.119 137.852 243.792 137.264C243.475 136.667 243.316 135.967 243.316 135.164C243.316 134.361 243.475 133.661 243.792 133.064C244.119 132.467 244.567 132.009 245.136 131.692C245.706 131.375 246.359 131.216 247.096 131.216C247.843 131.216 248.492 131.375 249.042 131.692C249.602 132.009 250.027 132.434 250.316 132.966C250.615 133.498 250.764 134.086 250.764 134.73ZM249.476 134.814C249.504 134.245 249.411 133.769 249.196 133.386C248.982 133.003 248.688 132.719 248.314 132.532C247.941 132.345 247.535 132.252 247.096 132.252C246.396 132.252 245.808 132.471 245.332 132.91C244.856 133.339 244.6 133.974 244.562 134.814H249.476ZM253.425 132.868C253.677 132.336 254.045 131.925 254.531 131.636C255.016 131.337 255.595 131.188 256.267 131.188V132.574H255.875C255.156 132.574 254.568 132.761 254.111 133.134C253.653 133.498 253.425 134.105 253.425 134.954V139H252.151V131.314H253.425V132.868Z" fill="#28E5BB"/>
</g>
<g filter="url(#filter15_d_1761:1430)">
<path d="M231.14 77.95V85H230.22V81.74H226.64V85H225.73V77.95H226.64V81H230.22V77.95H231.14ZM236.135 85L234.295 82.12H233.305V85H232.395V77.95H234.715C235.515 77.95 236.115 78.1433 236.515 78.53C236.915 78.91 237.115 79.4167 237.115 80.05C237.115 80.6233 236.955 81.0867 236.635 81.44C236.315 81.7867 235.852 82.0033 235.245 82.09L237.165 85H236.135ZM233.305 81.46H234.635C235.669 81.46 236.185 81.0067 236.185 80.1C236.185 79.1933 235.669 78.74 234.635 78.74H233.305V81.46ZM238.485 77.95L240.635 83.99L242.815 77.95H243.805L241.215 85H240.065L237.485 77.95H238.485Z" fill="#CFFFF4"/>
</g>
<path d="M221.229 77.7957C220.985 77.5434 220.694 77.3433 220.375 77.2068C220.056 77.0703 219.714 77 219.368 77C219.022 77 218.68 77.0703 218.361 77.2068C218.041 77.3433 217.751 77.5434 217.507 77.7957L217 78.3189L216.493 77.7957C215.999 77.2864 215.33 77.0003 214.632 77.0003C213.934 77.0003 213.264 77.2864 212.771 77.7957C212.277 78.305 212 78.9957 212 79.7159C212 80.4362 212.277 81.1269 212.771 81.6362L213.278 82.1595L217 86L220.722 82.1595L221.229 81.6362C221.473 81.3841 221.667 81.0847 221.8 80.7552C221.932 80.4257 222 80.0726 222 79.7159C222 79.3593 221.932 79.0061 221.8 78.6766C221.667 78.3472 221.473 78.0478 221.229 77.7957V77.7957Z" stroke="#28E5BB" stroke-linecap="round" stroke-linejoin="round"/>
<g filter="url(#filter16_d_1761:1430)">
<path d="M224.549 96.075C224.415 95.025 224.057 94.2167 223.474 93.65C222.907 93.0667 222.115 92.775 221.099 92.775C219.682 92.775 218.607 93.325 217.874 94.425C217.157 95.525 216.799 97.2667 216.799 99.65L216.824 100.575C217.074 99.575 217.649 98.7833 218.549 98.2C219.449 97.6 220.507 97.3 221.724 97.3C223.474 97.3 224.84 97.825 225.824 98.875C226.824 99.925 227.324 101.392 227.324 103.275C227.324 104.375 227.107 105.375 226.674 106.275C226.24 107.158 225.574 107.867 224.674 108.4C223.79 108.917 222.69 109.175 221.374 109.175C218.857 109.175 217.124 108.383 216.174 106.8C215.24 105.217 214.774 103.067 214.774 100.35C214.774 97.2167 215.274 94.8667 216.274 93.3C217.29 91.7167 218.94 90.925 221.224 90.925C222.907 90.925 224.199 91.4 225.099 92.35C226.015 93.3 226.557 94.5417 226.724 96.075H224.549ZM217.074 102.9C217.074 104.117 217.424 105.142 218.124 105.975C218.84 106.792 219.907 107.2 221.324 107.2C222.49 107.2 223.424 106.858 224.124 106.175C224.824 105.475 225.174 104.5 225.174 103.25C225.174 101.9 224.824 100.875 224.124 100.175C223.424 99.4583 222.457 99.1 221.224 99.1C220.524 99.1 219.857 99.2417 219.224 99.525C218.59 99.8083 218.074 100.242 217.674 100.825C217.274 101.392 217.074 102.083 217.074 102.9ZM229.976 95.525C229.976 94.6583 230.21 93.8667 230.676 93.15C231.143 92.4333 231.835 91.8667 232.751 91.45C233.668 91.0333 234.76 90.825 236.026 90.825C237.293 90.825 238.376 91.0333 239.276 91.45C240.193 91.8667 240.885 92.4333 241.351 93.15C241.818 93.8667 242.051 94.6583 242.051 95.525C242.051 96.5083 241.785 97.3583 241.251 98.075C240.718 98.7917 239.91 99.3 238.826 99.6C239.993 99.9167 240.901 100.467 241.551 101.25C242.201 102.033 242.526 103 242.526 104.15C242.526 105.817 241.935 107.125 240.751 108.075C239.568 109.025 237.993 109.5 236.026 109.5C234.06 109.5 232.485 109.025 231.301 108.075C230.118 107.125 229.526 105.817 229.526 104.15C229.526 103 229.843 102.033 230.476 101.25C231.126 100.467 232.035 99.9167 233.201 99.6C232.118 99.3 231.31 98.7917 230.776 98.075C230.243 97.3583 229.976 96.5083 229.976 95.525ZM232.226 95.85C232.226 96.85 232.568 97.625 233.251 98.175C233.935 98.7083 234.86 98.975 236.026 98.975C237.193 98.975 238.11 98.7083 238.776 98.175C239.46 97.625 239.801 96.85 239.801 95.85C239.801 94.85 239.46 94.0833 238.776 93.55C238.093 93 237.176 92.725 236.026 92.725C234.876 92.725 233.951 93 233.251 93.55C232.568 94.0833 232.226 94.85 232.226 95.85ZM231.751 104.025C231.751 105.158 232.135 106.042 232.901 106.675C233.668 107.292 234.71 107.6 236.026 107.6C237.326 107.6 238.36 107.283 239.126 106.65C239.893 106.017 240.276 105.142 240.276 104.025C240.276 102.892 239.876 102.033 239.076 101.45C238.276 100.867 237.26 100.575 236.026 100.575C234.776 100.575 233.751 100.867 232.951 101.45C232.151 102.033 231.751 102.892 231.751 104.025Z" fill="#CFFFF4"/>
</g>
<g filter="url(#filter17_b_1761:1430)">
<rect x="529" y="71" width="62" height="59" rx="4" fill="url(#paint10_linear_1761:1430)" fill-opacity="0.15"/>
<rect x="529" y="71" width="62" height="59" rx="4" fill="url(#paint11_linear_1761:1430)" fill-opacity="0.2"/>
</g>
<g filter="url(#filter18_d_1761:1430)">
<path d="M541 100C541 88.9543 549.315 80 559.571 80" stroke="url(#paint12_linear_1761:1430)" stroke-width="4" stroke-linecap="round" stroke-linejoin="round"/>
</g>
<g filter="url(#filter19_d_1761:1430)">
<path d="M579.571 100C579.571 111.046 571.257 120 561 120" stroke="url(#paint13_linear_1761:1430)" stroke-width="4" stroke-linecap="round" stroke-linejoin="round"/>
</g>
<g filter="url(#filter20_d_1761:1430)">
<path d="M559.571 79.9989C570.617 79.9989 579.571 88.3136 579.571 98.5703" stroke="url(#paint14_angular_1761:1430)" stroke-width="4" stroke-linecap="round" stroke-linejoin="round"/>
</g>
<g filter="url(#filter21_d_1761:1430)">
<path d="M561 120.001C549.954 120.001 541 111.686 541 101.43" stroke="url(#paint15_angular_1761:1430)" stroke-width="4" stroke-linecap="round" stroke-linejoin="round"/>
</g>
<g filter="url(#filter22_d_1761:1430)">
<path d="M561.298 90.065V95H560.654V92.718H558.148V95H557.511V90.065H558.148V92.2H560.654V90.065H561.298ZM564.795 95L563.507 92.984H562.814V95H562.177V90.065H563.801C564.361 90.065 564.781 90.2003 565.061 90.471C565.341 90.737 565.481 91.0917 565.481 91.535C565.481 91.9363 565.369 92.2607 565.145 92.508C564.921 92.7507 564.596 92.9023 564.172 92.963L565.516 95H564.795ZM562.814 92.522H563.745C564.468 92.522 564.83 92.2047 564.83 91.57C564.83 90.9353 564.468 90.618 563.745 90.618H562.814V92.522ZM566.44 90.065L567.945 94.293L569.471 90.065H570.164L568.351 95H567.546L565.74 90.065H566.44Z" fill="#CFFFF4"/>
</g>
<path d="M555.537 90.442C555.391 90.3019 555.217 90.1907 555.025 90.1149C554.833 90.039 554.628 90 554.421 90C554.213 90 554.008 90.039 553.816 90.1149C553.625 90.1907 553.451 90.3019 553.304 90.442L553 90.7327L552.696 90.442C552.4 90.1591 551.998 90.0001 551.579 90.0001C551.16 90.0001 550.759 90.1591 550.463 90.442C550.166 90.725 550 91.1087 550 91.5089C550 91.909 550.166 92.2927 550.463 92.5757L550.767 92.8664L553 95L555.233 92.8664L555.537 92.5757C555.684 92.4356 555.8 92.2693 555.88 92.0862C555.959 91.9032 556 91.707 556 91.5089C556 91.3107 555.959 91.1145 555.88 90.9315C555.8 90.7484 555.684 90.5821 555.537 90.442V90.442Z" stroke="#28E5BB" stroke-linecap="round" stroke-linejoin="round"/>
<g filter="url(#filter23_d_1761:1430)">
<path d="M556.655 102.694C556.559 101.938 556.301 101.356 555.881 100.948C555.473 100.528 554.903 100.318 554.171 100.318C553.151 100.318 552.377 100.714 551.849 101.506C551.333 102.298 551.075 103.552 551.075 105.268L551.093 105.934C551.273 105.214 551.687 104.644 552.335 104.224C552.983 103.792 553.745 103.576 554.621 103.576C555.881 103.576 556.865 103.954 557.573 104.71C558.293 105.466 558.653 106.522 558.653 107.878C558.653 108.67 558.497 109.39 558.185 110.038C557.873 110.674 557.393 111.184 556.745 111.568C556.109 111.94 555.317 112.126 554.369 112.126C552.557 112.126 551.309 111.556 550.625 110.416C549.953 109.276 549.617 107.728 549.617 105.772C549.617 103.516 549.977 101.824 550.697 100.696C551.429 99.556 552.617 98.986 554.261 98.986C555.473 98.986 556.403 99.328 557.051 100.012C557.711 100.696 558.101 101.59 558.221 102.694H556.655ZM551.273 107.608C551.273 108.484 551.525 109.222 552.029 109.822C552.545 110.41 553.313 110.704 554.333 110.704C555.173 110.704 555.845 110.458 556.349 109.966C556.853 109.462 557.105 108.76 557.105 107.86C557.105 106.888 556.853 106.15 556.349 105.646C555.845 105.13 555.149 104.872 554.261 104.872C553.757 104.872 553.277 104.974 552.821 105.178C552.365 105.382 551.993 105.694 551.705 106.114C551.417 106.522 551.273 107.02 551.273 107.608ZM560.563 102.298C560.563 101.674 560.731 101.104 561.067 100.588C561.403 100.072 561.901 99.664 562.561 99.364C563.221 99.064 564.007 98.914 564.919 98.914C565.831 98.914 566.611 99.064 567.259 99.364C567.919 99.664 568.417 100.072 568.753 100.588C569.089 101.104 569.257 101.674 569.257 102.298C569.257 103.006 569.065 103.618 568.681 104.134C568.297 104.65 567.715 105.016 566.935 105.232C567.775 105.46 568.429 105.856 568.897 106.42C569.365 106.984 569.599 107.68 569.599 108.508C569.599 109.708 569.173 110.65 568.321 111.334C567.469 112.018 566.335 112.36 564.919 112.36C563.503 112.36 562.369 112.018 561.517 111.334C560.665 110.65 560.239 109.708 560.239 108.508C560.239 107.68 560.467 106.984 560.923 106.42C561.391 105.856 562.045 105.46 562.885 105.232C562.105 105.016 561.523 104.65 561.139 104.134C560.755 103.618 560.563 103.006 560.563 102.298ZM562.183 102.532C562.183 103.252 562.429 103.81 562.921 104.206C563.413 104.59 564.079 104.782 564.919 104.782C565.759 104.782 566.419 104.59 566.899 104.206C567.391 103.81 567.637 103.252 567.637 102.532C567.637 101.812 567.391 101.26 566.899 100.876C566.407 100.48 565.747 100.282 564.919 100.282C564.091 100.282 563.425 100.48 562.921 100.876C562.429 101.26 562.183 101.812 562.183 102.532ZM561.841 108.418C561.841 109.234 562.117 109.87 562.669 110.326C563.221 110.77 563.971 110.992 564.919 110.992C565.855 110.992 566.599 110.764 567.151 110.308C567.703 109.852 567.979 109.222 567.979 108.418C567.979 107.602 567.691 106.984 567.115 106.564C566.539 106.144 565.807 105.934 564.919 105.934C564.019 105.934 563.281 106.144 562.705 106.564C562.129 106.984 561.841 107.602 561.841 108.418Z" fill="#CFFFF4"/>
</g>
<g filter="url(#filter24_b_1761:1430)">
<rect y="15" width="78" height="94" rx="4" fill="url(#paint16_linear_1761:1430)" fill-opacity="0.15"/>
<rect y="15" width="78" height="94" rx="4" fill="url(#paint17_linear_1761:1430)" fill-opacity="0.2"/>
</g>
<path d="M69 55C69 38.4315 55.5685 25 39 25C22.4315 25 9 38.4315 9 55C9 71.5685 22.4315 85 39 85C53.9567 85 66.3571 74.0547 68.6281 59.7368" stroke="url(#paint18_angular_1761:1430)" stroke-width="5" stroke-linecap="round" stroke-linejoin="round"/>
<g filter="url(#filter25_d_1761:1430)">
<path d="M25.1662 99.024V103H23.8922V93.13H27.0282C28.1575 93.13 29.0022 93.396 29.5622 93.928C30.1222 94.4507 30.4022 95.1693 30.4022 96.084C30.4022 97.008 30.1129 97.7313 29.5342 98.254C28.9555 98.7673 28.1202 99.024 27.0282 99.024H25.1662ZM26.9162 97.96C27.6909 97.96 28.2462 97.7967 28.5822 97.47C28.9275 97.1433 29.1002 96.6813 29.1002 96.084C29.1002 95.468 28.9275 95.0013 28.5822 94.684C28.2462 94.3573 27.6909 94.194 26.9162 94.194H25.1662V97.96H26.9162ZM38.4422 95.314V103H37.1682V101.194C36.9722 101.819 36.6222 102.3 36.1182 102.636C35.6236 102.963 35.0449 103.126 34.3822 103.126C33.4956 103.126 32.7769 102.841 32.2262 102.272C31.6756 101.693 31.4002 100.867 31.4002 99.794V95.314H32.6742V99.668C32.6742 100.433 32.8702 101.026 33.2622 101.446C33.6542 101.857 34.1862 102.062 34.8582 102.062C35.5582 102.062 36.1182 101.838 36.5382 101.39C36.9582 100.933 37.1682 100.27 37.1682 99.402V95.314H38.4422ZM42.6113 95.216C43.4793 95.216 44.1746 95.4447 44.6973 95.902C45.2293 96.35 45.5513 96.9567 45.6633 97.722H44.4453C44.3893 97.2647 44.198 96.8913 43.8713 96.602C43.554 96.3033 43.1246 96.154 42.5833 96.154C42.126 96.154 41.7666 96.266 41.5053 96.49C41.2533 96.7047 41.1273 96.9987 41.1273 97.372C41.1273 97.652 41.2113 97.8807 41.3793 98.058C41.5566 98.226 41.7713 98.3567 42.0233 98.45C42.2846 98.534 42.6393 98.6273 43.0873 98.73C43.6566 98.8607 44.114 98.996 44.4593 99.136C44.814 99.2667 45.1126 99.4813 45.3553 99.78C45.6073 100.079 45.7333 100.48 45.7333 100.984C45.7333 101.609 45.4953 102.118 45.0193 102.51C44.5526 102.902 43.9273 103.098 43.1433 103.098C42.2286 103.098 41.482 102.879 40.9033 102.44C40.3246 102.001 39.984 101.39 39.8813 100.606H41.1133C41.16 101.073 41.3606 101.451 41.7153 101.74C42.0793 102.029 42.5553 102.174 43.1433 102.174C43.582 102.174 43.9226 102.062 44.1653 101.838C44.4173 101.614 44.5433 101.32 44.5433 100.956C44.5433 100.657 44.4546 100.419 44.2773 100.242C44.1 100.065 43.8806 99.9293 43.6193 99.836C43.358 99.7427 42.9986 99.6447 42.5413 99.542C41.972 99.4113 41.5146 99.2807 41.1693 99.15C40.8333 99.0193 40.544 98.814 40.3013 98.534C40.068 98.2447 39.9513 97.8573 39.9513 97.372C39.9513 96.728 40.1893 96.21 40.6653 95.818C41.1413 95.4167 41.79 95.216 42.6113 95.216ZM51.2017 95.188C52.0977 95.188 52.821 95.4773 53.3717 96.056C53.9224 96.6253 54.1977 97.4513 54.1977 98.534V103H52.9237V98.646C52.9237 97.8807 52.7277 97.2927 52.3357 96.882C51.9437 96.4713 51.4117 96.266 50.7397 96.266C50.0397 96.266 49.4797 96.4947 49.0597 96.952C48.6397 97.4 48.4297 98.058 48.4297 98.926V103H47.1557V92.64H48.4297V97.134C48.6257 96.5087 48.971 96.028 49.4657 95.692C49.9697 95.356 50.5484 95.188 51.2017 95.188Z" fill="#4B92FF"/>
</g>
<g filter="url(#filter26_d_1761:1430)">
<path d="M42.14 39.95V47H41.22V43.74H37.64V47H36.73V39.95H37.64V43H41.22V39.95H42.14ZM47.1352 47L45.2952 44.12H44.3052V47H43.3952V39.95H45.7152C46.5152 39.95 47.1152 40.1433 47.5152 40.53C47.9152 40.91 48.1152 41.4167 48.1152 42.05C48.1152 42.6233 47.9552 43.0867 47.6352 43.44C47.3152 43.7867 46.8519 44.0033 46.2452 44.09L48.1652 47H47.1352ZM44.3052 43.46H45.6352C46.6686 43.46 47.1852 43.0067 47.1852 42.1C47.1852 41.1933 46.6686 40.74 45.6352 40.74H44.3052V43.46ZM49.4853 39.95L51.6353 45.99L53.8153 39.95H54.8053L52.2153 47H51.0653L48.4853 39.95H49.4853Z" fill="#B8D4FF"/>
</g>
<path d="M32.2289 39.7957C31.9846 39.5434 31.6944 39.3433 31.3751 39.2068C31.0558 39.0703 30.7136 39 30.3679 39C30.0223 39 29.6801 39.0703 29.3607 39.2068C29.0414 39.3433 28.7513 39.5434 28.507 39.7957L27.9999 40.3189L27.4928 39.7957C26.9992 39.2864 26.3298 39.0003 25.6318 39.0003C24.9338 39.0003 24.2644 39.2864 23.7708 39.7957C23.2773 40.305 23 40.9957 23 41.7159C23 42.4362 23.2773 43.1269 23.7708 43.6362L24.2779 44.1595L27.9999 48L31.7218 44.1595L32.2289 43.6362C32.4734 43.3841 32.6673 43.0847 32.7996 42.7552C32.9319 42.4257 33 42.0726 33 41.7159C33 41.3593 32.9319 41.0061 32.7996 40.6766C32.6673 40.3472 32.4734 40.0478 32.2289 39.7957V39.7957Z" stroke="#4B92FF" stroke-linecap="round" stroke-linejoin="round"/>
<g filter="url(#filter27_d_1761:1430)">
<path d="M25.0099 58.525C25.0099 57.6583 25.2432 56.8667 25.7099 56.15C26.1765 55.4333 26.8682 54.8667 27.7849 54.45C28.7015 54.0333 29.7932 53.825 31.0599 53.825C32.3265 53.825 33.4099 54.0333 34.3099 54.45C35.2265 54.8667 35.9182 55.4333 36.3849 56.15C36.8515 56.8667 37.0849 57.6583 37.0849 58.525C37.0849 59.5083 36.8182 60.3583 36.2849 61.075C35.7515 61.7917 34.9432 62.3 33.8599 62.6C35.0265 62.9167 35.9349 63.4667 36.5849 64.25C37.2349 65.0333 37.5599 66 37.5599 67.15C37.5599 68.8167 36.9682 70.125 35.7849 71.075C34.6015 72.025 33.0265 72.5 31.0599 72.5C29.0932 72.5 27.5182 72.025 26.3349 71.075C25.1515 70.125 24.5599 68.8167 24.5599 67.15C24.5599 66 24.8765 65.0333 25.5099 64.25C26.1599 63.4667 27.0682 62.9167 28.2349 62.6C27.1515 62.3 26.3432 61.7917 25.8099 61.075C25.2765 60.3583 25.0099 59.5083 25.0099 58.525ZM27.2599 58.85C27.2599 59.85 27.6015 60.625 28.2849 61.175C28.9682 61.7083 29.8932 61.975 31.0599 61.975C32.2265 61.975 33.1432 61.7083 33.8099 61.175C34.4932 60.625 34.8349 59.85 34.8349 58.85C34.8349 57.85 34.4932 57.0833 33.8099 56.55C33.1265 56 32.2099 55.725 31.0599 55.725C29.9099 55.725 28.9849 56 28.2849 56.55C27.6015 57.0833 27.2599 57.85 27.2599 58.85ZM26.7849 67.025C26.7849 68.1583 27.1682 69.0417 27.9349 69.675C28.7015 70.2917 29.7432 70.6 31.0599 70.6C32.3599 70.6 33.3932 70.2833 34.1599 69.65C34.9265 69.0167 35.3099 68.1417 35.3099 67.025C35.3099 65.8917 34.9099 65.0333 34.1099 64.45C33.3099 63.8667 32.2932 63.575 31.0599 63.575C29.8099 63.575 28.7849 63.8667 27.9849 64.45C27.1849 65.0333 26.7849 65.8917 26.7849 67.025ZM51.6599 56.175H42.6099V62.075C43.0265 61.5083 43.6265 61.0583 44.4099 60.725C45.1932 60.3917 46.0515 60.225 46.9849 60.225C48.2349 60.225 49.2682 60.4917 50.0849 61.025C50.9182 61.5417 51.5265 62.2333 51.9099 63.1C52.3099 63.95 52.5099 64.9 52.5099 65.95C52.5099 67.7667 52.0015 69.25 50.9849 70.4C49.9682 71.55 48.4765 72.125 46.5099 72.125C44.7432 72.125 43.3015 71.65 42.1849 70.7C41.0682 69.7333 40.4432 68.4417 40.3099 66.825H42.5599C42.7432 67.8583 43.1682 68.6667 43.8349 69.25C44.5182 69.8167 45.3765 70.1 46.4099 70.1C47.6932 70.1 48.6599 69.7167 49.3099 68.95C49.9599 68.1833 50.2849 67.175 50.2849 65.925C50.2849 64.7083 49.9515 63.7583 49.2849 63.075C48.6182 62.3917 47.6765 62.05 46.4599 62.05C45.5932 62.05 44.8349 62.2417 44.1849 62.625C43.5349 62.9917 43.0432 63.4917 42.7099 64.125H40.5099V54.15H51.6599V56.175Z" fill="#B8D4FF"/>
</g>
<g filter="url(#filter28_b_1761:1430)">
<rect x="306" y="107" width="62" height="59" rx="4" fill="url(#paint19_linear_1761:1430)" fill-opacity="0.15"/>
<rect x="306" y="107" width="62" height="59" rx="4" fill="url(#paint20_linear_1761:1430)" fill-opacity="0.2"/>
</g>
<path d="M358 136.5C358 125.178 348.822 116 337.5 116C326.178 116 317 125.178 317 136.5C317 147.822 326.178 157 337.5 157C347.72 157 356.194 149.521 357.746 139.737" stroke="url(#paint21_angular_1761:1430)" stroke-width="4" stroke-linecap="round" stroke-linejoin="round"/>
<g filter="url(#filter29_d_1761:1430)">
<path d="M339.298 125.065V130H338.654V127.718H336.148V130H335.511V125.065H336.148V127.2H338.654V125.065H339.298ZM342.795 130L341.507 127.984H340.814V130H340.177V125.065H341.801C342.361 125.065 342.781 125.2 343.061 125.471C343.341 125.737 343.481 126.092 343.481 126.535C343.481 126.936 343.369 127.261 343.145 127.508C342.921 127.751 342.596 127.902 342.172 127.963L343.516 130H342.795ZM340.814 127.522H341.745C342.468 127.522 342.83 127.205 342.83 126.57C342.83 125.935 342.468 125.618 341.745 125.618H340.814V127.522ZM344.44 125.065L345.945 129.293L347.471 125.065H348.164L346.351 130H345.546L343.74 125.065H344.44Z" fill="#B8D4FF"/>
</g>
<path d="M332.537 125.442C332.391 125.302 332.217 125.191 332.025 125.115C331.833 125.039 331.628 125 331.421 125C331.213 125 331.008 125.039 330.816 125.115C330.625 125.191 330.451 125.302 330.304 125.442L330 125.733L329.696 125.442C329.4 125.159 328.998 125 328.579 125C328.16 125 327.759 125.159 327.463 125.442C327.166 125.725 327 126.109 327 126.509C327 126.909 327.166 127.293 327.463 127.576L327.767 127.866L330 130L332.233 127.866L332.537 127.576C332.684 127.436 332.8 127.269 332.88 127.086C332.959 126.903 333 126.707 333 126.509C333 126.311 332.959 126.115 332.88 125.931C332.8 125.748 332.684 125.582 332.537 125.442V125.442Z" stroke="#4B92FF" stroke-linecap="round" stroke-linejoin="round"/>
<g filter="url(#filter30_d_1761:1430)">
<path d="M327.78 137.298C327.78 136.674 327.948 136.104 328.284 135.588C328.62 135.072 329.118 134.664 329.778 134.364C330.438 134.064 331.224 133.914 332.136 133.914C333.048 133.914 333.828 134.064 334.476 134.364C335.136 134.664 335.634 135.072 335.97 135.588C336.306 136.104 336.474 136.674 336.474 137.298C336.474 138.006 336.282 138.618 335.898 139.134C335.514 139.65 334.932 140.016 334.152 140.232C334.992 140.46 335.646 140.856 336.114 141.42C336.582 141.984 336.816 142.68 336.816 143.508C336.816 144.708 336.39 145.65 335.538 146.334C334.686 147.018 333.552 147.36 332.136 147.36C330.72 147.36 329.586 147.018 328.734 146.334C327.882 145.65 327.456 144.708 327.456 143.508C327.456 142.68 327.684 141.984 328.14 141.42C328.608 140.856 329.262 140.46 330.102 140.232C329.322 140.016 328.74 139.65 328.356 139.134C327.972 138.618 327.78 138.006 327.78 137.298ZM329.4 137.532C329.4 138.252 329.646 138.81 330.138 139.206C330.63 139.59 331.296 139.782 332.136 139.782C332.976 139.782 333.636 139.59 334.116 139.206C334.608 138.81 334.854 138.252 334.854 137.532C334.854 136.812 334.608 136.26 334.116 135.876C333.624 135.48 332.964 135.282 332.136 135.282C331.308 135.282 330.642 135.48 330.138 135.876C329.646 136.26 329.4 136.812 329.4 137.532ZM329.058 143.418C329.058 144.234 329.334 144.87 329.886 145.326C330.438 145.77 331.188 145.992 332.136 145.992C333.072 145.992 333.816 145.764 334.368 145.308C334.92 144.852 335.196 144.222 335.196 143.418C335.196 142.602 334.908 141.984 334.332 141.564C333.756 141.144 333.024 140.934 332.136 140.934C331.236 140.934 330.498 141.144 329.922 141.564C329.346 141.984 329.058 142.602 329.058 143.418ZM345.96 135.498L341.154 147H339.426L344.304 135.66H337.644V134.238H345.96V135.498Z" fill="#B8D4FF"/>
</g>
<defs>
<filter id="filter0_b_1761:1430" x="353" y="-9" width="159" height="177" filterUnits="userSpaceOnUse" color-interpolation-filters="sRGB">
<feFlood flood-opacity="0" result="BackgroundImageFix"/>
<feGaussianBlur in="BackgroundImage" stdDeviation="22"/>
<feComposite in2="SourceAlpha" operator="in" result="effect1_backgroundBlur_1761:1430"/>
<feBlend mode="normal" in="SourceGraphic" in2="effect1_backgroundBlur_1761:1430" result="shape"/>
</filter>
<filter id="filter1_d_1761:1430" x="361.5" y="0.5" width="138" height="140" filterUnits="userSpaceOnUse" color-interpolation-filters="sRGB">
<feFlood flood-opacity="0" result="BackgroundImageFix"/>
<feColorMatrix in="SourceAlpha" type="matrix" values="0 0 0 0 0 0 0 0 0 0 0 0 0 0 0 0 0 0 127 0" result="hardAlpha"/>
<feOffset/>
<feGaussianBlur stdDeviation="20"/>
<feColorMatrix type="matrix" values="0 0 0 0 0.776471 0 0 0 0 0.686275 0 0 0 0 1 0 0 0 0.5 0"/>
<feBlend mode="normal" in2="BackgroundImageFix" result="effect1_dropShadow_1761:1430"/>
<feBlend mode="normal" in="SourceGraphic" in2="effect1_dropShadow_1761:1430" result="shape"/>
</filter>
<filter id="filter2_d_1761:1430" x="400.678" y="101.277" width="64.7344" height="18.8203" filterUnits="userSpaceOnUse" color-interpolation-filters="sRGB">
<feFlood flood-opacity="0" result="BackgroundImageFix"/>
<feColorMatrix in="SourceAlpha" type="matrix" values="0 0 0 0 0 0 0 0 0 0 0 0 0 0 0 0 0 0 127 0" result="hardAlpha"/>
<feOffset/>
<feGaussianBlur stdDeviation="2"/>
<feColorMatrix type="matrix" values="0 0 0 0 0.776471 0 0 0 0 0.686275 0 0 0 0 1 0 0 0 0.5 0"/>
<feBlend mode="normal" in2="BackgroundImageFix" result="effect1_dropShadow_1761:1430"/>
<feBlend mode="normal" in="SourceGraphic" in2="effect1_dropShadow_1761:1430" result="shape"/>
</filter>
<filter id="filter3_d_1761:1430" x="421.73" y="47.9492" width="34.0753" height="23.0508" filterUnits="userSpaceOnUse" color-interpolation-filters="sRGB">
<feFlood flood-opacity="0" result="BackgroundImageFix"/>
<feColorMatrix in="SourceAlpha" type="matrix" values="0 0 0 0 0 0 0 0 0 0 0 0 0 0 0 0 0 0 127 0" result="hardAlpha"/>
<feOffset/>
<feGaussianBlur stdDeviation="4"/>
<feColorMatrix type="matrix" values="0 0 0 0 0.941176 0 0 0 0 0.917647 0 0 0 0 1 0 0 0 0.5 0"/>
<feBlend mode="normal" in2="BackgroundImageFix" result="effect1_dropShadow_1761:1430"/>
<feBlend mode="normal" in="SourceGraphic" in2="effect1_dropShadow_1761:1430" result="shape"/>
</filter>
<filter id="filter4_d_1761:1430" x="411.416" y="60.8984" width="40.9965" height="34.2773" filterUnits="userSpaceOnUse" color-interpolation-filters="sRGB">
<feFlood flood-opacity="0" result="BackgroundImageFix"/>
<feColorMatrix in="SourceAlpha" type="matrix" values="0 0 0 0 0 0 0 0 0 0 0 0 0 0 0 0 0 0 127 0" result="hardAlpha"/>
<feOffset/>
<feGaussianBlur stdDeviation="4"/>
<feColorMatrix type="matrix" values="0 0 0 0 0.941176 0 0 0 0 0.917647 0 0 0 0 1 0 0 0 0.5 0"/>
<feBlend mode="normal" in2="BackgroundImageFix" result="effect1_dropShadow_1761:1430"/>
<feBlend mode="normal" in="SourceGraphic" in2="effect1_dropShadow_1761:1430" result="shape"/>
</filter>
<filter id="filter5_b_1761:1430" x="53" y="71" width="150" height="147" filterUnits="userSpaceOnUse" color-interpolation-filters="sRGB">
<feFlood flood-opacity="0" result="BackgroundImageFix"/>
<feGaussianBlur in="BackgroundImage" stdDeviation="22"/>
<feComposite in2="SourceAlpha" operator="in" result="effect1_backgroundBlur_1761:1430"/>
<feBlend mode="normal" in="SourceGraphic" in2="effect1_backgroundBlur_1761:1430" result="shape"/>
</filter>
<filter id="filter6_d_1761:1430" x="64.5" y="78.5" width="128" height="130" filterUnits="userSpaceOnUse" color-interpolation-filters="sRGB">
<feFlood flood-opacity="0" result="BackgroundImageFix"/>
<feColorMatrix in="SourceAlpha" type="matrix" values="0 0 0 0 0 0 0 0 0 0 0 0 0 0 0 0 0 0 127 0" result="hardAlpha"/>
<feOffset/>
<feGaussianBlur stdDeviation="20"/>
<feColorMatrix type="matrix" values="0 0 0 0 0.776471 0 0 0 0 0.686275 0 0 0 0 1 0 0 0 0.5 0"/>
<feBlend mode="normal" in2="BackgroundImageFix" result="effect1_dropShadow_1761:1430"/>
<feBlend mode="normal" in="SourceGraphic" in2="effect1_dropShadow_1761:1430" result="shape"/>
</filter>
<filter id="filter7_d_1761:1430" x="119.511" y="124.066" width="28.6527" height="20.9336" filterUnits="userSpaceOnUse" color-interpolation-filters="sRGB">
<feFlood flood-opacity="0" result="BackgroundImageFix"/>
<feColorMatrix in="SourceAlpha" type="matrix" values="0 0 0 0 0 0 0 0 0 0 0 0 0 0 0 0 0 0 127 0" result="hardAlpha"/>
<feOffset/>
<feGaussianBlur stdDeviation="4"/>
<feColorMatrix type="matrix" values="0 0 0 0 0.941176 0 0 0 0 0.917647 0 0 0 0 1 0 0 0 0.5 0"/>
<feBlend mode="normal" in2="BackgroundImageFix" result="effect1_dropShadow_1761:1430"/>
<feBlend mode="normal" in="SourceGraphic" in2="effect1_dropShadow_1761:1430" result="shape"/>
</filter>
<filter id="filter8_d_1761:1430" x="108.416" y="131.898" width="40.9965" height="34.2773" filterUnits="userSpaceOnUse" color-interpolation-filters="sRGB">
<feFlood flood-opacity="0" result="BackgroundImageFix"/>
<feColorMatrix in="SourceAlpha" type="matrix" values="0 0 0 0 0 0 0 0 0 0 0 0 0 0 0 0 0 0 127 0" result="hardAlpha"/>
<feOffset/>
<feGaussianBlur stdDeviation="4"/>
<feColorMatrix type="matrix" values="0 0 0 0 0.941176 0 0 0 0 0.917647 0 0 0 0 1 0 0 0 0.5 0"/>
<feBlend mode="normal" in2="BackgroundImageFix" result="effect1_dropShadow_1761:1430"/>
<feBlend mode="normal" in="SourceGraphic" in2="effect1_dropShadow_1761:1430" result="shape"/>
</filter>
<filter id="filter9_b_1761:1430" x="145" y="9" width="167" height="181" filterUnits="userSpaceOnUse" color-interpolation-filters="sRGB">
<feFlood flood-opacity="0" result="BackgroundImageFix"/>
<feGaussianBlur in="BackgroundImage" stdDeviation="22"/>
<feComposite in2="SourceAlpha" operator="in" result="effect1_backgroundBlur_1761:1430"/>
<feBlend mode="normal" in="SourceGraphic" in2="effect1_backgroundBlur_1761:1430" result="shape"/>
</filter>
<filter id="filter10_d_1761:1430" x="158.5" y="21.5" width="111" height="113" filterUnits="userSpaceOnUse" color-interpolation-filters="sRGB">
<feFlood flood-opacity="0" result="BackgroundImageFix"/>
<feColorMatrix in="SourceAlpha" type="matrix" values="0 0 0 0 0 0 0 0 0 0 0 0 0 0 0 0 0 0 127 0" result="hardAlpha"/>
<feOffset/>
<feGaussianBlur stdDeviation="20"/>
<feColorMatrix type="matrix" values="0 0 0 0 0.156863 0 0 0 0 0.898039 0 0 0 0 0.733333 0 0 0 0.5 0"/>
<feBlend mode="normal" in2="BackgroundImageFix" result="effect1_dropShadow_1761:1430"/>
<feBlend mode="normal" in="SourceGraphic" in2="effect1_dropShadow_1761:1430" result="shape"/>
</filter>
<filter id="filter11_d_1761:1430" x="186.5" y="49.5" width="111" height="113" filterUnits="userSpaceOnUse" color-interpolation-filters="sRGB">
<feFlood flood-opacity="0" result="BackgroundImageFix"/>
<feColorMatrix in="SourceAlpha" type="matrix" values="0 0 0 0 0 0 0 0 0 0 0 0 0 0 0 0 0 0 127 0" result="hardAlpha"/>
<feOffset/>
<feGaussianBlur stdDeviation="20"/>
<feColorMatrix type="matrix" values="0 0 0 0 0.156863 0 0 0 0 0.898039 0 0 0 0 0.733333 0 0 0 0.5 0"/>
<feBlend mode="normal" in2="BackgroundImageFix" result="effect1_dropShadow_1761:1430"/>
<feBlend mode="normal" in="SourceGraphic" in2="effect1_dropShadow_1761:1430" result="shape"/>
</filter>
<filter id="filter12_d_1761:1430" x="184.5" y="21.5" width="113" height="111" filterUnits="userSpaceOnUse" color-interpolation-filters="sRGB">
<feFlood flood-opacity="0" result="BackgroundImageFix"/>
<feColorMatrix in="SourceAlpha" type="matrix" values="0 0 0 0 0 0 0 0 0 0 0 0 0 0 0 0 0 0 127 0" result="hardAlpha"/>
<feOffset/>
<feGaussianBlur stdDeviation="20"/>
<feColorMatrix type="matrix" values="0 0 0 0 0.156863 0 0 0 0 0.898039 0 0 0 0 0.733333 0 0 0 0.5 0"/>
<feBlend mode="normal" in2="BackgroundImageFix" result="effect1_dropShadow_1761:1430"/>
<feBlend mode="normal" in="SourceGraphic" in2="effect1_dropShadow_1761:1430" result="shape"/>
</filter>
<filter id="filter13_d_1761:1430" x="158.5" y="51.5" width="113" height="111" filterUnits="userSpaceOnUse" color-interpolation-filters="sRGB">
<feFlood flood-opacity="0" result="BackgroundImageFix"/>
<feColorMatrix in="SourceAlpha" type="matrix" values="0 0 0 0 0 0 0 0 0 0 0 0 0 0 0 0 0 0 127 0" result="hardAlpha"/>
<feOffset/>
<feGaussianBlur stdDeviation="20"/>
<feColorMatrix type="matrix" values="0 0 0 0 0.156863 0 0 0 0 0.898039 0 0 0 0 0.733333 0 0 0 0.5 0"/>
<feBlend mode="normal" in2="BackgroundImageFix" result="effect1_dropShadow_1761:1430"/>
<feBlend mode="normal" in="SourceGraphic" in2="effect1_dropShadow_1761:1430" result="shape"/>
</filter>
<filter id="filter14_d_1761:1430" x="198.52" y="125.129" width="61.7465" height="17.9688" filterUnits="userSpaceOnUse" color-interpolation-filters="sRGB">
<feFlood flood-opacity="0" result="BackgroundImageFix"/>
<feColorMatrix in="SourceAlpha" type="matrix" values="0 0 0 0 0 0 0 0 0 0 0 0 0 0 0 0 0 0 127 0" result="hardAlpha"/>
<feOffset/>
<feGaussianBlur stdDeviation="2"/>
<feColorMatrix type="matrix" values="0 0 0 0 0.156863 0 0 0 0 0.898039 0 0 0 0 0.733333 0 0 0 0.5 0"/>
<feBlend mode="normal" in2="BackgroundImageFix" result="effect1_dropShadow_1761:1430"/>
<feBlend mode="normal" in="SourceGraphic" in2="effect1_dropShadow_1761:1430" result="shape"/>
</filter>
<filter id="filter15_d_1761:1430" x="217.73" y="69.9492" width="34.0753" height="23.0508" filterUnits="userSpaceOnUse" color-interpolation-filters="sRGB">
<feFlood flood-opacity="0" result="BackgroundImageFix"/>
<feColorMatrix in="SourceAlpha" type="matrix" values="0 0 0 0 0 0 0 0 0 0 0 0 0 0 0 0 0 0 127 0" result="hardAlpha"/>
<feOffset/>
<feGaussianBlur stdDeviation="4"/>
<feColorMatrix type="matrix" values="0 0 0 0 0.811765 0 0 0 0 1 0 0 0 0 0.956863 0 0 0 0.5 0"/>
<feBlend mode="normal" in2="BackgroundImageFix" result="effect1_dropShadow_1761:1430"/>
<feBlend mode="normal" in="SourceGraphic" in2="effect1_dropShadow_1761:1430" result="shape"/>
</filter>
<filter id="filter16_d_1761:1430" x="206.774" y="82.8242" width="43.7523" height="34.6758" filterUnits="userSpaceOnUse" color-interpolation-filters="sRGB">
<feFlood flood-opacity="0" result="BackgroundImageFix"/>
<feColorMatrix in="SourceAlpha" type="matrix" values="0 0 0 0 0 0 0 0 0 0 0 0 0 0 0 0 0 0 127 0" result="hardAlpha"/>
<feOffset/>
<feGaussianBlur stdDeviation="4"/>
<feColorMatrix type="matrix" values="0 0 0 0 0.811765 0 0 0 0 1 0 0 0 0 0.956863 0 0 0 0.5 0"/>
<feBlend mode="normal" in2="BackgroundImageFix" result="effect1_dropShadow_1761:1430"/>
<feBlend mode="normal" in="SourceGraphic" in2="effect1_dropShadow_1761:1430" result="shape"/>
</filter>
<filter id="filter17_b_1761:1430" x="485" y="27" width="150" height="147" filterUnits="userSpaceOnUse" color-interpolation-filters="sRGB">
<feFlood flood-opacity="0" result="BackgroundImageFix"/>
<feGaussianBlur in="BackgroundImage" stdDeviation="22"/>
<feComposite in2="SourceAlpha" operator="in" result="effect1_backgroundBlur_1761:1430"/>
<feBlend mode="normal" in="SourceGraphic" in2="effect1_backgroundBlur_1761:1430" result="shape"/>
</filter>
<filter id="filter18_d_1761:1430" x="499" y="38" width="102.571" height="104" filterUnits="userSpaceOnUse" color-interpolation-filters="sRGB">
<feFlood flood-opacity="0" result="BackgroundImageFix"/>
<feColorMatrix in="SourceAlpha" type="matrix" values="0 0 0 0 0 0 0 0 0 0 0 0 0 0 0 0 0 0 127 0" result="hardAlpha"/>
<feOffset/>
<feGaussianBlur stdDeviation="20"/>
<feColorMatrix type="matrix" values="0 0 0 0 0.156863 0 0 0 0 0.898039 0 0 0 0 0.733333 0 0 0 0.5 0"/>
<feBlend mode="normal" in2="BackgroundImageFix" result="effect1_dropShadow_1761:1430"/>
<feBlend mode="normal" in="SourceGraphic" in2="effect1_dropShadow_1761:1430" result="shape"/>
</filter>
<filter id="filter19_d_1761:1430" x="519" y="58" width="102.571" height="104" filterUnits="userSpaceOnUse" color-interpolation-filters="sRGB">
<feFlood flood-opacity="0" result="BackgroundImageFix"/>
<feColorMatrix in="SourceAlpha" type="matrix" values="0 0 0 0 0 0 0 0 0 0 0 0 0 0 0 0 0 0 127 0" result="hardAlpha"/>
<feOffset/>
<feGaussianBlur stdDeviation="20"/>
<feColorMatrix type="matrix" values="0 0 0 0 0.156863 0 0 0 0 0.898039 0 0 0 0 0.733333 0 0 0 0.5 0"/>
<feBlend mode="normal" in2="BackgroundImageFix" result="effect1_dropShadow_1761:1430"/>
<feBlend mode="normal" in="SourceGraphic" in2="effect1_dropShadow_1761:1430" result="shape"/>
</filter>
<filter id="filter20_d_1761:1430" x="517.571" y="38" width="104" height="102.57" filterUnits="userSpaceOnUse" color-interpolation-filters="sRGB">
<feFlood flood-opacity="0" result="BackgroundImageFix"/>
<feColorMatrix in="SourceAlpha" type="matrix" values="0 0 0 0 0 0 0 0 0 0 0 0 0 0 0 0 0 0 127 0" result="hardAlpha"/>
<feOffset/>
<feGaussianBlur stdDeviation="20"/>
<feColorMatrix type="matrix" values="0 0 0 0 0.156863 0 0 0 0 0.898039 0 0 0 0 0.733333 0 0 0 0.5 0"/>
<feBlend mode="normal" in2="BackgroundImageFix" result="effect1_dropShadow_1761:1430"/>
<feBlend mode="normal" in="SourceGraphic" in2="effect1_dropShadow_1761:1430" result="shape"/>
</filter>
<filter id="filter21_d_1761:1430" x="499" y="59.4297" width="104" height="102.57" filterUnits="userSpaceOnUse" color-interpolation-filters="sRGB">
<feFlood flood-opacity="0" result="BackgroundImageFix"/>
<feColorMatrix in="SourceAlpha" type="matrix" values="0 0 0 0 0 0 0 0 0 0 0 0 0 0 0 0 0 0 127 0" result="hardAlpha"/>
<feOffset/>
<feGaussianBlur stdDeviation="20"/>
<feColorMatrix type="matrix" values="0 0 0 0 0.156863 0 0 0 0 0.898039 0 0 0 0 0.733333 0 0 0 0.5 0"/>
<feBlend mode="normal" in2="BackgroundImageFix" result="effect1_dropShadow_1761:1430"/>
<feBlend mode="normal" in="SourceGraphic" in2="effect1_dropShadow_1761:1430" result="shape"/>
</filter>
<filter id="filter22_d_1761:1430" x="549.511" y="82.0664" width="28.6527" height="20.9336" filterUnits="userSpaceOnUse" color-interpolation-filters="sRGB">
<feFlood flood-opacity="0" result="BackgroundImageFix"/>
<feColorMatrix in="SourceAlpha" type="matrix" values="0 0 0 0 0 0 0 0 0 0 0 0 0 0 0 0 0 0 127 0" result="hardAlpha"/>
<feOffset/>
<feGaussianBlur stdDeviation="4"/>
<feColorMatrix type="matrix" values="0 0 0 0 0.811765 0 0 0 0 1 0 0 0 0 0.956863 0 0 0 0.5 0"/>
<feBlend mode="normal" in2="BackgroundImageFix" result="effect1_dropShadow_1761:1430"/>
<feBlend mode="normal" in="SourceGraphic" in2="effect1_dropShadow_1761:1430" result="shape"/>
</filter>
<filter id="filter23_d_1761:1430" x="541.617" y="90.9141" width="35.9817" height="29.4453" filterUnits="userSpaceOnUse" color-interpolation-filters="sRGB">
<feFlood flood-opacity="0" result="BackgroundImageFix"/>
<feColorMatrix in="SourceAlpha" type="matrix" values="0 0 0 0 0 0 0 0 0 0 0 0 0 0 0 0 0 0 127 0" result="hardAlpha"/>
<feOffset/>
<feGaussianBlur stdDeviation="4"/>
<feColorMatrix type="matrix" values="0 0 0 0 0.811765 0 0 0 0 1 0 0 0 0 0.956863 0 0 0 0.5 0"/>
<feBlend mode="normal" in2="BackgroundImageFix" result="effect1_dropShadow_1761:1430"/>
<feBlend mode="normal" in="SourceGraphic" in2="effect1_dropShadow_1761:1430" result="shape"/>
</filter>
<filter id="filter24_b_1761:1430" x="-44" y="-29" width="166" height="182" filterUnits="userSpaceOnUse" color-interpolation-filters="sRGB">
<feFlood flood-opacity="0" result="BackgroundImageFix"/>
<feGaussianBlur in="BackgroundImage" stdDeviation="22"/>
<feComposite in2="SourceAlpha" operator="in" result="effect1_backgroundBlur_1761:1430"/>
<feBlend mode="normal" in="SourceGraphic" in2="effect1_backgroundBlur_1761:1430" result="shape"/>
</filter>
<filter id="filter25_d_1761:1430" x="19.8921" y="88.6406" width="38.3057" height="18.4844" filterUnits="userSpaceOnUse" color-interpolation-filters="sRGB">
<feFlood flood-opacity="0" result="BackgroundImageFix"/>
<feColorMatrix in="SourceAlpha" type="matrix" values="0 0 0 0 0 0 0 0 0 0 0 0 0 0 0 0 0 0 127 0" result="hardAlpha"/>
<feOffset/>
<feGaussianBlur stdDeviation="2"/>
<feColorMatrix type="matrix" values="0 0 0 0 0.294118 0 0 0 0 0.572549 0 0 0 0 1 0 0 0 0.5 0"/>
<feBlend mode="normal" in2="BackgroundImageFix" result="effect1_dropShadow_1761:1430"/>
<feBlend mode="normal" in="SourceGraphic" in2="effect1_dropShadow_1761:1430" result="shape"/>
</filter>
<filter id="filter26_d_1761:1430" x="28.73" y="31.9492" width="34.0754" height="23.0508" filterUnits="userSpaceOnUse" color-interpolation-filters="sRGB">
<feFlood flood-opacity="0" result="BackgroundImageFix"/>
<feColorMatrix in="SourceAlpha" type="matrix" values="0 0 0 0 0 0 0 0 0 0 0 0 0 0 0 0 0 0 127 0" result="hardAlpha"/>
<feOffset/>
<feGaussianBlur stdDeviation="4"/>
<feColorMatrix type="matrix" values="0 0 0 0 0.721569 0 0 0 0 0.831373 0 0 0 0 1 0 0 0 0.5 0"/>
<feBlend mode="normal" in2="BackgroundImageFix" result="effect1_dropShadow_1761:1430"/>
<feBlend mode="normal" in="SourceGraphic" in2="effect1_dropShadow_1761:1430" result="shape"/>
</filter>
<filter id="filter27_d_1761:1430" x="16.5598" y="45.8242" width="43.95" height="34.6758" filterUnits="userSpaceOnUse" color-interpolation-filters="sRGB">
<feFlood flood-opacity="0" result="BackgroundImageFix"/>
<feColorMatrix in="SourceAlpha" type="matrix" values="0 0 0 0 0 0 0 0 0 0 0 0 0 0 0 0 0 0 127 0" result="hardAlpha"/>
<feOffset/>
<feGaussianBlur stdDeviation="4"/>
<feColorMatrix type="matrix" values="0 0 0 0 0.721569 0 0 0 0 0.831373 0 0 0 0 1 0 0 0 0.5 0"/>
<feBlend mode="normal" in2="BackgroundImageFix" result="effect1_dropShadow_1761:1430"/>
<feBlend mode="normal" in="SourceGraphic" in2="effect1_dropShadow_1761:1430" result="shape"/>
</filter>
<filter id="filter28_b_1761:1430" x="262" y="63" width="150" height="147" filterUnits="userSpaceOnUse" color-interpolation-filters="sRGB">
<feFlood flood-opacity="0" result="BackgroundImageFix"/>
<feGaussianBlur in="BackgroundImage" stdDeviation="22"/>
<feComposite in2="SourceAlpha" operator="in" result="effect1_backgroundBlur_1761:1430"/>
<feBlend mode="normal" in="SourceGraphic" in2="effect1_backgroundBlur_1761:1430" result="shape"/>
</filter>
<filter id="filter29_d_1761:1430" x="327.511" y="117.066" width="28.6527" height="20.9336" filterUnits="userSpaceOnUse" color-interpolation-filters="sRGB">
<feFlood flood-opacity="0" result="BackgroundImageFix"/>
<feColorMatrix in="SourceAlpha" type="matrix" values="0 0 0 0 0 0 0 0 0 0 0 0 0 0 0 0 0 0 127 0" result="hardAlpha"/>
<feOffset/>
<feGaussianBlur stdDeviation="4"/>
<feColorMatrix type="matrix" values="0 0 0 0 0.721569 0 0 0 0 0.831373 0 0 0 0 1 0 0 0 0.5 0"/>
<feBlend mode="normal" in2="BackgroundImageFix" result="effect1_dropShadow_1761:1430"/>
<feBlend mode="normal" in="SourceGraphic" in2="effect1_dropShadow_1761:1430" result="shape"/>
</filter>
<filter id="filter30_d_1761:1430" x="319.456" y="125.914" width="34.5039" height="29.4453" filterUnits="userSpaceOnUse" color-interpolation-filters="sRGB">
<feFlood flood-opacity="0" result="BackgroundImageFix"/>
<feColorMatrix in="SourceAlpha" type="matrix" values="0 0 0 0 0 0 0 0 0 0 0 0 0 0 0 0 0 0 127 0" result="hardAlpha"/>
<feOffset/>
<feGaussianBlur stdDeviation="4"/>
<feColorMatrix type="matrix" values="0 0 0 0 0.721569 0 0 0 0 0.831373 0 0 0 0 1 0 0 0 0.5 0"/>
<feBlend mode="normal" in2="BackgroundImageFix" result="effect1_dropShadow_1761:1430"/>
<feBlend mode="normal" in="SourceGraphic" in2="effect1_dropShadow_1761:1430" result="shape"/>
</filter>
<linearGradient id="paint0_linear_1761:1430" x1="426.921" y1="-24.9783" x2="526.181" y2="89.7674" gradientUnits="userSpaceOnUse">
<stop stop-color="#041021"/>
<stop offset="1" stop-color="white" stop-opacity="0.3"/>
</linearGradient>
<linearGradient id="paint1_linear_1761:1430" x1="422.523" y1="130.786" x2="422.773" y2="85.978" gradientUnits="userSpaceOnUse">
<stop stop-color="#8B64EC"/>
<stop offset="1" stop-color="#8B64EC" stop-opacity="0"/>
</linearGradient>
<linearGradient id="paint2_linear_1761:1430" x1="123.129" y1="75.2391" x2="184.147" y2="168.157" gradientUnits="userSpaceOnUse">
<stop stop-color="#041021"/>
<stop offset="1" stop-color="white" stop-opacity="0.3"/>
</linearGradient>
<linearGradient id="paint3_linear_1761:1430" x1="119.288" y1="178.499" x2="119.413" y2="148.794" gradientUnits="userSpaceOnUse">
<stop stop-color="#8B64EC"/>
<stop offset="1" stop-color="#8B64EC" stop-opacity="0"/>
</linearGradient>
<linearGradient id="paint4_linear_1761:1430" x1="222.293" y1="-9.67392" x2="324.883" y2="116.609" gradientUnits="userSpaceOnUse">
<stop stop-color="#041021"/>
<stop offset="1" stop-color="white" stop-opacity="0.3"/>
</linearGradient>
<linearGradient id="paint5_linear_1761:1430" x1="217.399" y1="153.091" x2="217.644" y2="106.269" gradientUnits="userSpaceOnUse">
<stop stop-color="#28E5BB"/>
<stop offset="1" stop-color="#28E5BB" stop-opacity="0"/>
</linearGradient>
<linearGradient id="paint6_linear_1761:1430" x1="228.166" y1="61.0865" x2="215.732" y2="104.638" gradientUnits="userSpaceOnUse">
<stop offset="0.0529858" stop-color="#28E5BB"/>
<stop offset="0.998018" stop-color="#28E5BB" stop-opacity="0"/>
</linearGradient>
<linearGradient id="paint7_linear_1761:1430" x1="227.834" y1="122.913" x2="240.268" y2="79.3621" gradientUnits="userSpaceOnUse">
<stop offset="0.0529858" stop-color="#28E5BB"/>
<stop offset="0.998018" stop-color="#28E5BB" stop-opacity="0"/>
</linearGradient>
<radialGradient id="paint8_angular_1761:1430" cx="0" cy="0" r="1" gradientUnits="userSpaceOnUse" gradientTransform="translate(241 77) rotate(-140.052) scale(22.0623 22.9611)">
<stop offset="0.523902" stop-color="#28E5BB"/>
<stop offset="0.93528" stop-color="#28E5BB" stop-opacity="0"/>
</radialGradient>
<radialGradient id="paint9_angular_1761:1430" cx="0" cy="0" r="1" gradientUnits="userSpaceOnUse" gradientTransform="translate(215 107) rotate(39.9484) scale(22.0623 22.9611)">
<stop offset="0.523902" stop-color="#28E5BB"/>
<stop offset="0.93528" stop-color="#28E5BB" stop-opacity="0"/>
</radialGradient>
<linearGradient id="paint10_linear_1761:1430" x1="555.129" y1="31.2391" x2="616.147" y2="124.157" gradientUnits="userSpaceOnUse">
<stop stop-color="#041021"/>
<stop offset="1" stop-color="white" stop-opacity="0.3"/>
</linearGradient>
<linearGradient id="paint11_linear_1761:1430" x1="551.288" y1="134.499" x2="551.413" y2="104.794" gradientUnits="userSpaceOnUse">
<stop stop-color="#28E5BB"/>
<stop offset="1" stop-color="#28E5BB" stop-opacity="0"/>
</linearGradient>
<linearGradient id="paint12_linear_1761:1430" x1="560.404" y1="77.9189" x2="551.523" y2="109.027" gradientUnits="userSpaceOnUse">
<stop offset="0.0529858" stop-color="#28E5BB"/>
<stop offset="0.998018" stop-color="#28E5BB" stop-opacity="0"/>
</linearGradient>
<linearGradient id="paint13_linear_1761:1430" x1="560.167" y1="122.081" x2="569.049" y2="90.9729" gradientUnits="userSpaceOnUse">
<stop offset="0.0529858" stop-color="#28E5BB"/>
<stop offset="0.998018" stop-color="#28E5BB" stop-opacity="0"/>
</linearGradient>
<radialGradient id="paint14_angular_1761:1430" cx="0" cy="0" r="1" gradientUnits="userSpaceOnUse" gradientTransform="translate(569.571 89.2846) rotate(-140.052) scale(15.7588 16.4008)">
<stop offset="0.523902" stop-color="#28E5BB"/>
<stop offset="0.93528" stop-color="#28E5BB" stop-opacity="0"/>
</radialGradient>
<radialGradient id="paint15_angular_1761:1430" cx="0" cy="0" r="1" gradientUnits="userSpaceOnUse" gradientTransform="translate(551 110.715) rotate(39.9484) scale(15.7588 16.4008)">
<stop offset="0.523902" stop-color="#28E5BB"/>
<stop offset="0.93528" stop-color="#28E5BB" stop-opacity="0"/>
</radialGradient>
<linearGradient id="paint16_linear_1761:1430" x1="32.8714" y1="-48.3478" x2="137.037" y2="76.9036" gradientUnits="userSpaceOnUse">
<stop stop-color="#041021"/>
<stop offset="1" stop-color="white" stop-opacity="0.3"/>
</linearGradient>
<linearGradient id="paint17_linear_1761:1430" x1="28.0393" y1="116.168" x2="28.2927" y2="68.8418" gradientUnits="userSpaceOnUse">
<stop stop-color="#4B92FF"/>
<stop offset="1" stop-color="#4B92FF" stop-opacity="0"/>
</linearGradient>
<radialGradient id="paint18_angular_1761:1430" cx="0" cy="0" r="1" gradientUnits="userSpaceOnUse" gradientTransform="translate(39 55) scale(30)">
<stop offset="0.986915" stop-color="#0065FF" stop-opacity="0"/>
<stop offset="0.987026" stop-color="#3786FF"/>
</radialGradient>
<linearGradient id="paint19_linear_1761:1430" x1="332.129" y1="67.2391" x2="393.147" y2="160.157" gradientUnits="userSpaceOnUse">
<stop stop-color="#041021"/>
<stop offset="1" stop-color="white" stop-opacity="0.3"/>
</linearGradient>
<linearGradient id="paint20_linear_1761:1430" x1="328.288" y1="170.499" x2="328.413" y2="140.794" gradientUnits="userSpaceOnUse">
<stop stop-color="#4B92FF"/>
<stop offset="1" stop-color="#4B92FF" stop-opacity="0"/>
</linearGradient>
<radialGradient id="paint21_angular_1761:1430" cx="0" cy="0" r="1" gradientUnits="userSpaceOnUse" gradientTransform="translate(337.5 136.5) scale(20.5)">
<stop offset="0.986915" stop-color="#0065FF" stop-opacity="0"/>
<stop offset="0.987026" stop-color="#3786FF"/>
</radialGradient>
</defs>
</svg>
