<svg width="20" height="21" viewBox="0 0 20 21" fill="none" xmlns="http://www.w3.org/2000/svg">
<path d="M4.47668 20.5H0.330283V7.14732H4.47668V20.5ZM2.40125 5.32589C1.07565 5.32589 0 4.22768 0 2.90179C0 1.57589 1.07565 0.5 2.40125 0.5C3.72685 0.5 4.8025 1.57589 4.8025 2.90179C4.8025 4.22768 3.72685 5.32589 2.40125 5.32589ZM19.9955 20.5H15.8581V14C15.8581 12.4509 15.8268 10.4643 13.7023 10.4643C11.5465 10.4643 11.2162 12.1473 11.2162 13.8884V20.5H7.07431V7.14732H11.0511V8.96875H11.1091C11.6626 7.91964 13.015 6.8125 15.0324 6.8125C19.2278 6.8125 20 9.57589 20 13.1652V20.5H19.9955Z" fill="#F7F7F7"/>
</svg>
