<?xml version="1.0" encoding="utf-8"?>
<svg width="179" height="58" viewBox="0 0 179 58" fill="none" xmlns="http://www.w3.org/2000/svg">
<g opacity="0.77">
<mask id="mask0_1761:2019" style="mask-type:alpha" maskUnits="userSpaceOnUse" x="0" y="0" width="179" height="58">
<rect y="0.957031" width="178.63" height="56.8996" fill="url(#paint0_linear_1761:2019)"/>
</mask>
<g mask="url(#mask0_1761:2019)">
<path d="M0 29.4565V29.3551V26.8398C0 26.4949 0.283991 26.2109 0.628837 26.2109C0.973683 26.2109 1.25767 26.4949 1.25767 26.8398V29.3551V29.4565V31.9719C1.25767 32.3167 0.973683 32.6007 0.628837 32.6007C0.283991 32.6007 0 32.3167 0 31.9719V29.4565Z" fill="white"/>
<path d="M2.96179 29.4553V29.3539V23.6132C2.96179 23.2684 3.24578 22.9844 3.59063 22.9844C3.93548 22.9844 4.21947 23.2684 4.21947 23.6132V29.3539V29.4553V35.196C4.21947 35.5408 3.93548 35.8248 3.59063 35.8248C3.24578 35.8248 2.96179 35.5408 2.96179 35.196V29.4553Z" fill="white"/>
<path d="M5.92358 29.4567V29.3553V17.164C5.92358 16.8191 6.20757 16.5352 6.55242 16.5352C6.89727 16.5352 7.18126 16.8191 7.18126 17.164V29.3553V29.4567V41.6481C7.18126 41.9929 6.89727 42.2769 6.55242 42.2769C6.20757 42.2769 5.92358 41.9929 5.92358 41.6481V29.4567Z" fill="white"/>
<path d="M8.88538 29.4557V29.3543V10.0429C8.88538 9.69805 9.16937 9.41406 9.51421 9.41406C9.85906 9.41406 10.1431 9.69805 10.1431 10.0429V29.3543V29.4557V48.7671C10.1431 49.1119 9.85906 49.3959 9.51421 49.3959C9.16937 49.3959 8.88538 49.1119 8.88538 48.7671V29.4557Z" fill="white"/>
<path d="M11.8263 29.456V29.3546V6.77727C11.8263 6.43243 12.1103 6.14844 12.4551 6.14844C12.8 6.14844 13.084 6.43243 13.084 6.77727V29.3546V29.456V52.0333C13.084 52.3781 12.8 52.6621 12.4551 52.6621C12.1103 52.6621 11.8263 52.3781 11.8263 52.0333V29.456Z" fill="white"/>
<path d="M14.7881 29.4557V29.3543V10.0429C14.7881 9.69805 15.0721 9.41406 15.4169 9.41406C15.7618 9.41406 16.0458 9.69805 16.0458 10.0429V29.3543V29.4557V48.7671C16.0458 49.1119 15.7618 49.3959 15.4169 49.3959C15.0721 49.3959 14.7881 49.1119 14.7881 48.7671V29.4557Z" fill="white"/>
<path d="M17.75 29.4567V29.3553V17.164C17.75 16.8191 18.034 16.5352 18.3788 16.5352C18.7237 16.5352 19.0077 16.8191 19.0077 17.164V29.3553V29.4567V41.6481C19.0077 41.9929 18.7237 42.2769 18.3788 42.2769C18.034 42.2769 17.75 41.9929 17.75 41.6481V29.4567Z" fill="white"/>
<path d="M20.71 29.4576V29.3561V23.5546C20.71 23.2098 20.994 22.9258 21.3388 22.9258C21.6836 22.9258 21.9676 23.2098 21.9676 23.5546V29.3561V29.4576V35.2388C21.9676 35.5837 21.6836 35.8677 21.3388 35.8677C20.994 35.8677 20.71 35.5837 20.71 35.2388V29.4576Z" fill="white"/>
<path d="M23.6736 29.4588V29.3574V26.7812C23.6736 26.4363 23.9576 26.1523 24.3024 26.1523C24.6473 26.1523 24.9313 26.4363 24.9313 26.7812V29.3574V29.4588V32.035C24.9313 32.3799 24.6473 32.6639 24.3024 32.6639C23.9576 32.6639 23.6736 32.3799 23.6736 32.035V29.4588Z" fill="white"/>
<path d="M26.6337 29.4562V29.3548V20.2265C26.6337 19.8816 26.9177 19.5977 27.2625 19.5977C27.6073 19.5977 27.8913 19.8816 27.8913 20.2265V29.3548V29.4562V38.5845C27.8913 38.9293 27.6073 39.2133 27.2625 39.2133C26.9177 39.2133 26.6337 38.9293 26.6337 38.5845V29.4562Z" fill="white"/>
<path d="M29.5972 29.4557V29.3543V15.8242C29.5972 15.4793 29.8812 15.1953 30.226 15.1953C30.5709 15.1953 30.8548 15.4793 30.8548 15.8242V29.3543V29.4557V42.9859C30.8548 43.3307 30.5709 43.6147 30.226 43.6147C29.8812 43.6147 29.5972 43.3307 29.5972 42.9859V29.4557Z" fill="white"/>
<path d="M32.5573 29.456V29.3546V6.77727C32.5573 6.43243 32.8412 6.14844 33.1861 6.14844C33.5309 6.14844 33.8149 6.43243 33.8149 6.77727V29.3546V29.456V52.0333C33.8149 52.3781 33.5309 52.6621 33.1861 52.6621C32.8412 52.6621 32.5573 52.3781 32.5573 52.0333V29.456Z" fill="white"/>
<path d="M35.4999 29.4594V29.358V11.6288C35.4999 11.284 35.7839 11 36.1287 11C36.4736 11 36.7576 11.284 36.7576 11.6288V29.358V29.4594V47.1886C36.7576 47.5334 36.4736 47.8174 36.1287 47.8174C35.7839 47.8174 35.4999 47.5334 35.4999 47.1886V29.4594Z" fill="white"/>
<path d="M38.46 29.4579V29.3565V18.6054C38.46 18.2606 38.744 17.9766 39.0888 17.9766C39.4336 17.9766 39.7176 18.2606 39.7176 18.6054V29.3565V29.4579V40.209C39.7176 40.5538 39.4336 40.8378 39.0888 40.8378C38.744 40.8378 38.46 40.5538 38.46 40.209V29.4579Z" fill="white"/>
<path d="M41.4218 29.4576V29.3562V24.1835C41.4218 23.8387 41.7057 23.5547 42.0506 23.5547C42.3954 23.5547 42.6794 23.8387 42.6794 24.1835V29.3562V29.4576V34.6303C42.6794 34.9752 42.3954 35.2592 42.0506 35.2592C41.7057 35.2592 41.4218 34.9752 41.4218 34.6303V29.4576Z" fill="white"/>
<path d="M44.3835 29.4567V29.3553V12.539C44.3835 12.1941 44.6675 11.9102 45.0124 11.9102C45.3572 11.9102 45.6412 12.1941 45.6412 12.539V29.3553V29.4567V46.2731C45.6412 46.6179 45.3572 46.9019 45.0124 46.9019C44.6675 46.9019 44.3835 46.6179 44.3835 46.2731V29.4567Z" fill="white"/>
<path d="M47.3453 29.458V29.3566V7.14446C47.3453 6.79962 47.6293 6.51562 47.9742 6.51562C48.319 6.51562 48.603 6.79962 48.603 7.14446V29.3566V29.458V51.6702C48.603 52.015 48.319 52.299 47.9742 52.299C47.6293 52.299 47.3453 52.015 47.3453 51.6702V29.458Z" fill="white"/>
<path d="M50.3071 29.4565V29.355V4.24212C50.3071 3.89727 50.5911 3.61328 50.936 3.61328C51.2808 3.61328 51.5648 3.89727 51.5648 4.24212V29.355V29.4565V54.5694C51.5648 54.9142 51.2808 55.1982 50.936 55.1982C50.5911 55.1982 50.3071 54.9142 50.3071 54.5694V29.4565Z" fill="white"/>
<path d="M53.2689 29.4576V29.3561V1.58587C53.2689 1.24102 53.5529 0.957031 53.8978 0.957031C54.2426 0.957031 54.5266 1.24102 54.5266 1.58587V29.3561V29.4576V57.2278C54.5266 57.5727 54.2426 57.8566 53.8978 57.8566C53.5529 57.8566 53.2689 57.5727 53.2689 57.2278V29.4576Z" fill="white"/>
<path d="M56.2307 29.4565V29.355V4.24212C56.2307 3.89727 56.5147 3.61328 56.8595 3.61328C57.2044 3.61328 57.4884 3.89727 57.4884 4.24212V29.355V29.4565V54.5694C57.4884 54.9142 57.2044 55.1982 56.8595 55.1982C56.5147 55.1982 56.2307 54.9142 56.2307 54.5694V29.4565Z" fill="white"/>
<path d="M59.1716 29.458V29.3566V7.14446C59.1716 6.79962 59.4556 6.51562 59.8005 6.51562C60.1453 6.51562 60.4293 6.79962 60.4293 7.14446V29.3566V29.458V51.6702C60.4293 52.015 60.1453 52.299 59.8005 52.299C59.4556 52.299 59.1716 52.015 59.1716 51.6702V29.458Z" fill="white"/>
<path d="M62.1334 29.4562V29.3548V12.1327C62.1334 11.7879 62.4174 11.5039 62.7623 11.5039C63.1071 11.5039 63.3911 11.7879 63.3911 12.1327V29.3548V29.4562V46.6782C63.3911 47.0231 63.1071 47.307 62.7623 47.307C62.4174 47.307 62.1334 47.0231 62.1334 46.6782V29.4562Z" fill="white"/>
<path d="M65.0952 29.4581V29.3567V27.4296C65.0952 27.0848 65.3792 26.8008 65.7241 26.8008C66.0689 26.8008 66.3529 27.0848 66.3529 27.4296V29.3567V29.4581V31.3852C66.3529 31.7301 66.0689 32.014 65.7241 32.014C65.3792 32.014 65.0952 31.7301 65.0952 31.3852V29.4581Z" fill="white"/>
<path d="M68.0553 29.4567V29.3553V23.4726C68.0553 23.1277 68.3393 22.8438 68.6841 22.8438C69.029 22.8438 69.313 23.1277 69.313 23.4726V29.3553V29.4567V35.3394C69.313 35.6842 69.029 35.9682 68.6841 35.9682C68.3393 35.9682 68.0553 35.6842 68.0553 35.3394V29.4567Z" fill="white"/>
<path d="M71.0189 29.4574V29.3559V17.0429C71.0189 16.6981 71.3029 16.4141 71.6478 16.4141C71.9926 16.4141 72.2766 16.6981 72.2766 17.0429V29.3559V29.4574V41.7704C72.2766 42.1152 71.9926 42.3992 71.6478 42.3992C71.3029 42.3992 71.0189 42.1152 71.0189 41.7704V29.4574Z" fill="white"/>
<path d="M73.9789 29.459V29.3576V9.01165C73.9789 8.6668 74.2629 8.38281 74.6077 8.38281H75.2366V29.3576V29.459V49.8049C75.2366 50.1498 74.9526 50.4338 74.6077 50.4338C74.2629 50.4338 73.9789 50.1498 73.9789 49.8049V29.459Z" fill="white"/>
<path d="M76.9425 29.4565V29.3551V21.5859C76.9425 21.241 77.2265 20.957 77.5713 20.957C77.9162 20.957 78.2002 21.241 78.2002 21.5859V29.3551V29.4565V37.2257C78.2002 37.5705 77.9162 37.8545 77.5713 37.8545C77.2265 37.8545 76.9425 37.5705 76.9425 37.2257V29.4565Z" fill="white"/>
<path d="M79.8817 29.4582V29.3568V24.5898C79.8817 24.2449 80.1657 23.9609 80.5106 23.9609C80.8554 23.9609 81.1394 24.2449 81.1394 24.5898V29.3568V29.4582V34.2252C81.1394 34.57 80.8554 34.854 80.5106 34.854C80.1657 34.854 79.8817 34.57 79.8817 34.2252V29.4582Z" fill="white"/>
<path d="M82.8435 29.458V29.3566V16.3945C82.8435 16.0496 83.1275 15.7656 83.4723 15.7656C83.8172 15.7656 84.1012 16.0496 84.1012 16.3945V29.3566V29.458V42.4202C84.1012 42.765 83.8172 43.049 83.4723 43.049C83.1275 43.049 82.8435 42.765 82.8435 42.4202V29.458Z" fill="white"/>
<path d="M85.8053 29.4565V29.3551V21.5859C85.8053 21.241 86.0893 20.957 86.4341 20.957C86.779 20.957 87.063 21.241 87.063 21.5859V29.3551V29.4565V37.2257C87.063 37.5705 86.779 37.8545 86.4341 37.8545C86.0893 37.8545 85.8053 37.5705 85.8053 37.2257V29.4565Z" fill="white"/>
<path d="M88.6851 29.4565V29.3551V26.8398C88.6851 26.4949 88.969 26.2109 89.3139 26.2109C89.6587 26.2109 89.9427 26.4949 89.9427 26.8398V29.3551V29.4565V31.9719C89.9427 32.3167 89.6587 32.6007 89.3139 32.6007C88.969 32.6007 88.6851 32.3167 88.6851 31.9719V29.4565Z" fill="white"/>
<path d="M91.6469 29.4553V29.3539V23.6132C91.6469 23.2684 91.9308 22.9844 92.2757 22.9844C92.6205 22.9844 92.9045 23.2684 92.9045 23.6132V29.3539V29.4553V35.196C92.9045 35.5408 92.6205 35.8248 92.2757 35.8248C91.9308 35.8248 91.6469 35.5408 91.6469 35.196V29.4553Z" fill="white"/>
<path d="M94.6086 29.4567V29.3553V17.164C94.6086 16.8191 94.8926 16.5352 95.2375 16.5352C95.5823 16.5352 95.8663 16.8191 95.8663 17.164V29.3553V29.4567V41.6481C95.8663 41.9929 95.5823 42.2769 95.2375 42.2769C94.8926 42.2769 94.6086 41.9929 94.6086 41.6481V29.4567Z" fill="white"/>
<path d="M97.5704 29.4557V29.3543V10.0429C97.5704 9.69805 97.8544 9.41406 98.1993 9.41406C98.5441 9.41406 98.8281 9.69805 98.8281 10.0429V29.3543V29.4557V48.7671C98.8281 49.1119 98.5441 49.3959 98.1993 49.3959C97.8544 49.3959 97.5704 49.1119 97.5704 48.7671V29.4557Z" fill="white"/>
<path d="M100.511 29.456V29.3546V6.77727C100.511 6.43243 100.795 6.14844 101.14 6.14844C101.485 6.14844 101.769 6.43243 101.769 6.77727V29.3546V29.456V52.0333C101.769 52.3781 101.485 52.6621 101.14 52.6621C100.795 52.6621 100.511 52.3781 100.511 52.0333V29.456Z" fill="white"/>
<path d="M103.473 29.4557V29.3543V10.0429C103.473 9.69805 103.757 9.41406 104.102 9.41406C104.447 9.41406 104.731 9.69805 104.731 10.0429V29.3543V29.4557V48.7671C104.731 49.1119 104.447 49.3959 104.102 49.3959C103.757 49.3959 103.473 49.1119 103.473 48.7671V29.4557Z" fill="white"/>
<path d="M106.435 29.4567V29.3553V17.164C106.435 16.8191 106.719 16.5352 107.064 16.5352C107.409 16.5352 107.693 16.8191 107.693 17.164V29.3553V29.4567V41.6481C107.693 41.9929 107.409 42.2769 107.064 42.2769C106.719 42.2769 106.435 41.9929 106.435 41.6481V29.4567Z" fill="white"/>
<path d="M109.395 29.4576V29.3561V23.5546C109.395 23.2098 109.679 22.9258 110.024 22.9258C110.369 22.9258 110.653 23.2098 110.653 23.5546V29.3561V29.4576V35.2388C110.653 35.5837 110.369 35.8677 110.024 35.8677C109.679 35.8677 109.395 35.5837 109.395 35.2388V29.4576Z" fill="white"/>
<path d="M112.359 29.4588V29.3574V26.7812C112.359 26.4363 112.643 26.1523 112.987 26.1523C113.332 26.1523 113.616 26.4363 113.616 26.7812V29.3574V29.4588V32.035C113.616 32.3799 113.332 32.6639 112.987 32.6639C112.643 32.6639 112.359 32.3799 112.359 32.035V29.4588Z" fill="white"/>
<path d="M115.319 29.4562V29.3548V20.2265C115.319 19.8816 115.603 19.5977 115.948 19.5977C116.292 19.5977 116.576 19.8816 116.576 20.2265V29.3548V29.4562V38.5845C116.576 38.9293 116.292 39.2133 115.948 39.2133C115.603 39.2133 115.319 38.9293 115.319 38.5845V29.4562Z" fill="white"/>
<path d="M118.282 29.4557V29.3543V15.8242C118.282 15.4793 118.566 15.1953 118.911 15.1953C119.256 15.1953 119.54 15.4793 119.54 15.8242V29.3543V29.4557V42.9859C119.54 43.3307 119.256 43.6147 118.911 43.6147C118.566 43.6147 118.282 43.3307 118.282 42.9859V29.4557Z" fill="white"/>
<path d="M121.242 29.456V29.3546V6.77727C121.242 6.43243 121.526 6.14844 121.871 6.14844C122.216 6.14844 122.5 6.43243 122.5 6.77727V29.3546V29.456V52.0333C122.5 52.3781 122.216 52.6621 121.871 52.6621C121.526 52.6621 121.242 52.3781 121.242 52.0333V29.456Z" fill="white"/>
<path d="M124.185 29.4594V29.358V11.6288C124.185 11.284 124.469 11 124.814 11C125.159 11 125.443 11.284 125.443 11.6288V29.358V29.4594V47.1886C125.443 47.5334 125.159 47.8174 124.814 47.8174C124.469 47.8174 124.185 47.5334 124.185 47.1886V29.4594Z" fill="white"/>
<path d="M127.145 29.4579V29.3565V18.6054C127.145 18.2606 127.429 17.9766 127.774 17.9766C128.119 17.9766 128.403 18.2606 128.403 18.6054V29.3565V29.4579V40.209C128.403 40.5538 128.119 40.8378 127.774 40.8378C127.429 40.8378 127.145 40.5538 127.145 40.209V29.4579Z" fill="white"/>
<path d="M130.107 29.4576V29.3562V24.1835C130.107 23.8387 130.391 23.5547 130.736 23.5547C131.08 23.5547 131.364 23.8387 131.364 24.1835V29.3562V29.4576V34.6303C131.364 34.9752 131.08 35.2592 130.736 35.2592C130.391 35.2592 130.107 34.9752 130.107 34.6303V29.4576Z" fill="white"/>
<path d="M133.069 29.4567V29.3553V12.539C133.069 12.1941 133.353 11.9102 133.697 11.9102C134.042 11.9102 134.326 12.1941 134.326 12.539V29.3553V29.4567V46.2731C134.326 46.6179 134.042 46.9019 133.697 46.9019C133.353 46.9019 133.069 46.6179 133.069 46.2731V29.4567Z" fill="white"/>
<path d="M136.03 29.458V29.3566V7.14446C136.03 6.79962 136.314 6.51562 136.659 6.51562C137.004 6.51562 137.288 6.79962 137.288 7.14446V29.3566V29.458V51.6702C137.288 52.015 137.004 52.299 136.659 52.299C136.314 52.299 136.03 52.015 136.03 51.6702V29.458Z" fill="white"/>
<path d="M138.992 29.4565V29.355V4.24212C138.992 3.89727 139.276 3.61328 139.621 3.61328C139.966 3.61328 140.25 3.89727 140.25 4.24212V29.355V29.4565V54.5694C140.25 54.9142 139.966 55.1982 139.621 55.1982C139.276 55.1982 138.992 54.9142 138.992 54.5694V29.4565Z" fill="white"/>
<path d="M141.954 29.4576V29.3561V1.58587C141.954 1.24102 142.238 0.957031 142.583 0.957031C142.928 0.957031 143.212 1.24102 143.212 1.58587V29.3561V29.4576V57.2278C143.212 57.5727 142.928 57.8566 142.583 57.8566C142.238 57.8566 141.954 57.5727 141.954 57.2278V29.4576Z" fill="white"/>
<path d="M144.916 29.4565V29.355V4.24212C144.916 3.89727 145.2 3.61328 145.545 3.61328C145.889 3.61328 146.173 3.89727 146.173 4.24212V29.355V29.4565V54.5694C146.173 54.9142 145.889 55.1982 145.545 55.1982C145.2 55.1982 144.916 54.9142 144.916 54.5694V29.4565Z" fill="white"/>
<path d="M147.857 29.458V29.3566V7.14446C147.857 6.79962 148.141 6.51562 148.486 6.51562C148.83 6.51562 149.114 6.79962 149.114 7.14446V29.3566V29.458V51.6702C149.114 52.015 148.83 52.299 148.486 52.299C148.141 52.299 147.857 52.015 147.857 51.6702V29.458Z" fill="white"/>
<path d="M150.819 29.4562V29.3548V12.1327C150.819 11.7879 151.103 11.5039 151.447 11.5039C151.792 11.5039 152.076 11.7879 152.076 12.1327V29.3548V29.4562V46.6782C152.076 47.0231 151.792 47.307 151.447 47.307C151.103 47.307 150.819 47.0231 150.819 46.6782V29.4562Z" fill="white"/>
<path d="M153.78 29.4581V29.3567V27.4296C153.78 27.0848 154.064 26.8008 154.409 26.8008C154.754 26.8008 155.038 27.0848 155.038 27.4296V29.3567V29.4581V31.3852C155.038 31.7301 154.754 32.014 154.409 32.014C154.064 32.014 153.78 31.7301 153.78 31.3852V29.4581Z" fill="white"/>
<path d="M156.74 29.4567V29.3553V23.4726C156.74 23.1277 157.024 22.8438 157.369 22.8438C157.714 22.8438 157.998 23.1277 157.998 23.4726V29.3553V29.4567V35.3394C157.998 35.6842 157.714 35.9682 157.369 35.9682C157.024 35.9682 156.74 35.6842 156.74 35.3394V29.4567Z" fill="white"/>
<path d="M159.704 29.4574V29.3559V17.0429C159.704 16.6981 159.988 16.4141 160.333 16.4141C160.678 16.4141 160.962 16.6981 160.962 17.0429V29.3559V29.4574V41.7704C160.962 42.1152 160.678 42.3992 160.333 42.3992C159.988 42.3992 159.704 42.1152 159.704 41.7704V29.4574Z" fill="white"/>
<path d="M162.664 29.459V29.3576V9.01165C162.664 8.6668 162.948 8.38281 163.293 8.38281H163.922V29.3576V29.459V49.8049C163.922 50.1498 163.638 50.4338 163.293 50.4338C162.948 50.4338 162.664 50.1498 162.664 49.8049V29.459Z" fill="white"/>
<path d="M165.628 29.4565V29.3551V21.5859C165.628 21.241 165.912 20.957 166.256 20.957C166.601 20.957 166.885 21.241 166.885 21.5859V29.3551V29.4565V37.2257C166.885 37.5705 166.601 37.8545 166.256 37.8545C165.912 37.8545 165.628 37.5705 165.628 37.2257V29.4565Z" fill="white"/>
<path d="M168.567 29.4582V29.3568V24.5898C168.567 24.2449 168.851 23.9609 169.196 23.9609C169.54 23.9609 169.824 24.2449 169.824 24.5898V29.3568V29.4582V34.2252C169.824 34.57 169.54 34.854 169.196 34.854C168.851 34.854 168.567 34.57 168.567 34.2252V29.4582Z" fill="white"/>
<path d="M171.529 29.458V29.3566V16.3945C171.529 16.0496 171.813 15.7656 172.157 15.7656C172.502 15.7656 172.786 16.0496 172.786 16.3945V29.3566V29.458V42.4202C172.786 42.765 172.502 43.049 172.157 43.049C171.813 43.049 171.529 42.765 171.529 42.4202V29.458Z" fill="white"/>
<path d="M174.49 29.4565V29.3551V21.5859C174.49 21.241 174.774 20.957 175.119 20.957C175.464 20.957 175.748 21.241 175.748 21.5859V29.3551V29.4565V37.2257C175.748 37.5705 175.464 37.8545 175.119 37.8545C174.774 37.8545 174.49 37.5705 174.49 37.2257V29.4565Z" fill="white"/>
<path d="M177.999 47.7971C177.654 47.7971 177.37 47.5131 177.37 47.1683V29.4391V29.358V11.6288C177.37 11.284 177.654 11 177.999 11C178.344 11 178.628 11.284 178.628 11.6288V29.358V29.4594V47.1886C178.608 47.5334 178.344 47.7971 177.999 47.7971Z" fill="white"/>
</g>
</g>
<defs>
<linearGradient id="paint0_linear_1761:2019" x1="178.63" y1="57.8566" x2="0" y2="57.8566" gradientUnits="userSpaceOnUse">
<stop stop-color="#C4C4C4" stop-opacity="0"/>
<stop offset="0.521917" stop-color="#C4C4C4"/>
<stop offset="1" stop-color="#C4C4C4" stop-opacity="0"/>
</linearGradient>
</defs>
</svg>
