<svg width="502" height="504" viewBox="0 0 502 504" fill="none" xmlns="http://www.w3.org/2000/svg">
<g filter="url(#filter0_f_1761:2006)">
<ellipse cx="251" cy="252.457" rx="101" ry="101.5" transform="rotate(-180 251 252.457)" fill="#4B92FF" fill-opacity="0.66"/>
</g>
<g filter="url(#filter1_biii_1761:2006)">
<ellipse cx="250" cy="255.457" rx="103" ry="103.5" fill="#041021" fill-opacity="0.1"/>
</g>
<g opacity="0.77">
<path d="M265.393 330.609C265.481 325.154 265.857 303.446 266.564 298.035C266.829 295.981 267.138 293.839 266.431 291.874C265.724 289.93 264.134 288.451 263.185 286.618C262.323 284.917 262.036 282.93 260.976 281.318C259.96 279.772 258.304 278.756 256.714 277.806C256.78 276.989 257.443 276.15 258.238 275.973C259.055 275.797 259.894 276.062 260.601 276.481C261.308 276.923 261.882 277.519 262.456 278.138C263.118 278.844 263.847 279.374 264.51 280.059C265.194 280.743 266.166 281.318 267.094 281.03C267.69 280.854 268.131 280.346 268.374 279.794C268.617 279.242 268.706 278.601 268.794 278.005C269.368 273.588 269.677 269.149 269.81 264.688C269.832 264.158 269.854 263.584 270.097 263.098C270.34 262.613 270.87 262.237 271.4 262.348C271.797 262.436 272.084 262.789 272.217 263.165C272.349 263.54 272.372 263.96 272.372 264.357L272.659 274.935C272.681 275.51 273.321 275.863 273.807 275.532C274.205 275.267 274.359 274.803 274.536 274.361C275.772 270.96 277.23 267.648 278.908 264.446C279.151 263.982 279.416 263.496 279.836 263.187C280.256 262.878 280.874 262.767 281.293 263.054C281.647 263.297 281.779 263.761 281.735 264.18C281.713 264.6 281.536 264.998 281.36 265.395C279.946 268.664 278.312 273.169 277.34 276.592C277.274 276.857 277.628 277.011 277.782 276.79L283.259 267.935C283.436 267.67 283.679 267.427 283.966 267.294C284.849 266.875 285.379 267.559 285.401 268.222C285.423 268.641 285.269 269.039 285.114 269.436C283.789 272.727 281.492 275.686 280.675 279.065C280.565 279.485 281.073 279.794 281.404 279.507L286.814 274.825C287.057 274.604 287.367 274.472 287.698 274.427C288.802 274.317 289.023 275.443 288.669 276.15C288.404 276.68 287.897 277.055 287.411 277.431C285.048 279.308 283.303 281.848 281.779 284.453C280.256 287.059 278.158 289.4 277.23 292.271C274.911 299.294 275.75 324.116 276.501 331.956C272.924 330.3 269.236 329.527 265.393 330.609Z" fill="url(#paint0_linear_1761:2006)"/>
<path d="M328.952 281.695C324.27 278.89 294.722 261.444 290.393 258.131C288.737 256.872 287.036 255.547 285.005 255.172C282.973 254.797 280.897 255.459 278.821 255.349C276.9 255.238 275.045 254.487 273.124 254.62C271.269 254.73 269.568 255.658 267.956 256.541C267.271 256.077 266.896 255.084 267.139 254.311C267.382 253.516 268.044 252.897 268.773 252.522C269.502 252.124 270.319 251.926 271.136 251.749C272.086 251.528 272.903 251.175 273.83 250.932C274.758 250.689 275.752 250.137 275.972 249.187C276.105 248.591 275.906 247.951 275.531 247.443C275.177 246.935 274.67 246.559 274.184 246.184C270.65 243.49 266.94 240.994 263.164 238.631C262.7 238.344 262.236 238.057 261.927 237.593C261.64 237.152 261.574 236.489 261.949 236.092C262.214 235.804 262.678 235.716 263.075 235.782C263.473 235.849 263.826 236.047 264.18 236.246L273.477 241.281C273.985 241.568 274.625 241.171 274.581 240.575C274.537 240.111 274.228 239.713 273.919 239.36C271.6 236.599 269.458 233.662 267.514 230.615C267.227 230.173 266.962 229.709 266.896 229.179C266.83 228.649 267.051 228.075 267.514 227.854C267.912 227.678 268.376 227.788 268.729 228.031C269.082 228.274 269.347 228.627 269.59 228.958C271.71 231.807 274.802 235.495 277.275 238.035C277.474 238.234 277.783 238.013 277.673 237.748L272.726 228.583C272.572 228.296 272.505 227.965 272.527 227.633C272.616 226.662 273.477 226.551 274.051 226.86C274.427 227.059 274.692 227.368 274.957 227.7C277.143 230.482 278.556 233.949 281.074 236.357C281.383 236.666 281.891 236.379 281.825 235.937L280.478 228.914C280.411 228.583 280.433 228.252 280.588 227.965C281.052 226.971 282.134 227.324 282.576 227.987C282.907 228.495 282.973 229.113 283.061 229.709C283.503 232.691 284.828 235.473 286.308 238.101C287.809 240.729 288.781 243.71 290.791 245.963C295.715 251.484 328.554 269.438 335.731 272.685C332.441 275.025 329.923 277.83 328.952 281.695Z" fill="url(#paint1_linear_1761:2006)"/>
<path d="M296.532 202.282C291.784 204.932 272.77 215.466 267.735 217.542C265.814 218.337 263.804 219.154 262.479 220.744C261.154 222.312 260.668 224.454 259.542 226.177C258.504 227.789 256.914 229.025 256.053 230.726C255.213 232.382 255.169 234.325 255.125 236.181C254.374 236.534 253.336 236.379 252.784 235.761C252.232 235.143 252.011 234.281 252.055 233.442C252.078 232.603 252.32 231.808 252.563 231.013C252.85 230.085 252.939 229.202 253.204 228.252C253.447 227.325 253.469 226.199 252.762 225.536C252.32 225.116 251.658 224.984 251.04 225.05C250.421 225.116 249.847 225.337 249.273 225.58C245.165 227.303 241.146 229.246 237.237 231.344C236.751 231.609 236.265 231.852 235.735 231.896C235.205 231.918 234.609 231.653 234.432 231.123C234.322 230.748 234.455 230.306 234.72 229.997C234.985 229.688 235.316 229.467 235.669 229.268L244.679 223.747C245.187 223.438 245.143 222.709 244.613 222.444C244.194 222.246 243.708 222.334 243.244 222.4C239.688 223.041 236.089 223.416 232.467 223.571C231.937 223.593 231.407 223.593 230.921 223.394C230.435 223.195 230.038 222.709 230.082 222.179C230.126 221.76 230.457 221.406 230.833 221.23C231.208 221.053 231.65 220.987 232.07 220.943C235.603 220.523 240.329 219.706 243.774 218.823C244.039 218.756 243.995 218.359 243.73 218.359L233.328 218.05C232.997 218.028 232.688 217.939 232.423 217.763C231.628 217.21 231.959 216.415 232.511 216.062C232.865 215.841 233.284 215.753 233.704 215.709C237.215 215.223 240.925 215.731 244.282 214.737C244.701 214.605 244.701 214.03 244.304 213.876L237.546 211.535C237.237 211.424 236.95 211.248 236.773 210.961C236.133 210.055 236.994 209.304 237.789 209.26C238.386 209.238 238.96 209.481 239.512 209.702C242.316 210.806 245.386 211.049 248.412 211.071C251.437 211.093 254.507 211.734 257.466 211.115C264.709 209.614 285.8 196.474 292.182 191.902C292.491 195.922 293.661 199.499 296.532 202.282Z" fill="url(#paint2_linear_1761:2006)"/>
<path d="M222.44 184.304C222.352 189.759 221.977 211.467 221.27 216.878C221.005 218.932 220.696 221.074 221.403 223.039C222.109 224.983 223.699 226.462 224.649 228.295C225.51 229.996 225.797 231.983 226.857 233.595C227.873 235.141 229.529 236.157 231.119 237.107C231.053 237.924 230.391 238.763 229.596 238.94C228.779 239.116 227.939 238.851 227.233 238.432C226.526 237.99 225.952 237.394 225.378 236.775C224.715 236.069 223.986 235.539 223.324 234.854C222.639 234.17 221.668 233.595 220.74 233.882C220.144 234.059 219.702 234.567 219.459 235.119C219.216 235.671 219.128 236.312 219.04 236.908C218.465 241.325 218.156 245.764 218.024 250.225C218.002 250.755 217.98 251.329 217.737 251.815C217.494 252.3 216.964 252.676 216.434 252.565C216.036 252.477 215.749 252.124 215.617 251.748C215.484 251.373 215.462 250.953 215.462 250.556L215.175 239.978C215.153 239.403 214.512 239.05 214.027 239.381C213.629 239.646 213.474 240.11 213.298 240.552C212.061 243.953 210.604 247.265 208.925 250.467C208.682 250.931 208.417 251.417 207.998 251.726C207.578 252.035 206.96 252.146 206.54 251.859C206.187 251.616 206.054 251.152 206.098 250.732C206.12 250.313 206.297 249.915 206.474 249.518C207.887 246.249 209.521 241.744 210.493 238.321C210.559 238.056 210.206 237.902 210.051 238.123L204.575 246.978C204.398 247.243 204.155 247.486 203.868 247.619C202.985 248.038 202.455 247.354 202.432 246.691C202.41 246.271 202.565 245.874 202.72 245.476C204.045 242.186 206.341 239.227 207.158 235.848C207.269 235.428 206.761 235.119 206.43 235.406L201.019 240.088C200.776 240.309 200.467 240.441 200.136 240.486C199.032 240.596 198.811 239.47 199.164 238.763C199.429 238.233 199.937 237.858 200.423 237.482C202.786 235.605 204.53 233.065 206.054 230.459C207.578 227.854 209.676 225.513 210.604 222.642C212.878 215.619 212.061 190.775 211.288 182.957C214.91 184.613 218.598 185.408 222.44 184.304Z" fill="url(#paint3_linear_1761:2006)"/>
<path d="M157.758 230.527C162.439 233.332 193.114 253.495 197.442 256.807C199.099 258.066 200.799 259.391 202.831 259.766C204.863 260.142 206.938 259.479 209.014 259.59C210.936 259.7 212.791 260.451 214.712 260.318C216.567 260.208 218.267 259.281 219.88 258.397C220.564 258.861 220.94 259.855 220.697 260.628C220.454 261.423 219.791 262.041 219.062 262.416C218.334 262.814 217.517 263.013 216.7 263.189C215.75 263.41 214.933 263.764 214.005 264.006C213.078 264.249 212.084 264.802 211.863 265.751C211.731 266.347 211.929 266.988 212.305 267.496C212.658 268.004 213.166 268.379 213.652 268.755C217.185 271.449 220.895 273.944 224.672 276.307C225.136 276.594 225.599 276.881 225.909 277.345C226.196 277.787 226.262 278.449 225.886 278.847C225.621 279.134 225.158 279.222 224.76 279.156C224.363 279.09 224.009 278.891 223.656 278.692L214.381 273.657C213.873 273.37 213.232 273.768 213.277 274.364C213.321 274.828 213.63 275.225 213.939 275.578C216.258 278.339 218.4 281.276 220.343 284.324C220.63 284.765 220.895 285.229 220.962 285.759C221.028 286.289 220.807 286.863 220.343 287.084C219.946 287.261 219.482 287.15 219.129 286.907C218.775 286.665 218.51 286.311 218.267 285.98C216.147 283.131 213.056 279.443 210.582 276.903C210.384 276.705 210.074 276.926 210.185 277.191L215.132 286.355C215.286 286.642 215.352 286.974 215.33 287.305C215.242 288.277 214.381 288.387 213.807 288.078C213.431 287.879 213.166 287.57 212.901 287.239C210.715 284.456 209.301 280.989 206.784 278.582C206.475 278.273 205.967 278.56 206.033 279.001L207.38 286.024C207.446 286.355 207.424 286.687 207.27 286.974C206.806 287.968 205.724 287.614 205.282 286.952C204.951 286.444 204.885 285.825 204.796 285.229C204.355 282.248 203.03 279.465 201.55 276.837C200.048 274.209 199.077 271.228 197.067 268.975C192.164 263.432 158.155 242.74 151 239.493C154.246 237.197 156.764 234.392 157.758 230.527Z" fill="url(#paint4_linear_1761:2006)"/>
<path d="M191.305 312.655C196.053 310.005 215.067 299.471 220.102 297.395C222.023 296.6 224.033 295.783 225.358 294.193C226.683 292.625 227.169 290.483 228.295 288.761C229.333 287.148 230.923 285.912 231.784 284.211C232.624 282.555 232.668 280.612 232.712 278.757C233.463 278.403 234.501 278.558 235.053 279.176C235.605 279.795 235.826 280.656 235.782 281.495C235.76 282.334 235.517 283.129 235.274 283.924C234.987 284.852 234.898 285.735 234.633 286.685C234.39 287.612 234.368 288.738 235.075 289.401C235.517 289.821 236.179 289.953 236.797 289.887C237.416 289.821 237.99 289.6 238.564 289.357C242.672 287.634 246.691 285.691 250.6 283.593C251.086 283.328 251.572 283.085 252.102 283.041C252.632 283.019 253.228 283.284 253.405 283.814C253.515 284.189 253.382 284.631 253.117 284.94C252.852 285.249 252.521 285.47 252.168 285.669L243.158 291.19C242.65 291.499 242.694 292.228 243.224 292.493C243.643 292.691 244.129 292.603 244.593 292.537C248.149 291.896 251.748 291.521 255.37 291.366C255.9 291.344 256.43 291.344 256.916 291.543C257.402 291.742 257.799 292.228 257.755 292.758C257.711 293.177 257.38 293.531 257.004 293.707C256.629 293.884 256.187 293.95 255.768 293.994C252.234 294.414 247.508 295.231 244.063 296.114C243.798 296.181 243.842 296.578 244.107 296.578L254.509 296.887C254.84 296.91 255.149 296.998 255.414 297.175C256.209 297.727 255.878 298.522 255.326 298.875C254.972 299.096 254.553 299.184 254.133 299.228C250.622 299.714 246.912 299.206 243.555 300.2C243.136 300.333 243.136 300.907 243.533 301.061L250.291 303.402C250.6 303.513 250.887 303.689 251.064 303.976C251.704 304.882 250.843 305.633 250.048 305.677C249.452 305.699 248.877 305.456 248.325 305.235C245.521 304.131 242.451 303.888 239.425 303.866C236.4 303.844 233.33 303.203 230.371 303.822C223.128 305.323 202.037 318.463 195.655 323.035C195.346 319.015 194.176 315.438 191.305 312.655Z" fill="url(#paint5_linear_1761:2006)"/>
</g>
<defs>
<filter id="filter0_f_1761:2006" x="0" y="0.957031" width="502" height="503" filterUnits="userSpaceOnUse" color-interpolation-filters="sRGB">
<feFlood flood-opacity="0" result="BackgroundImageFix"/>
<feBlend mode="normal" in="SourceGraphic" in2="BackgroundImageFix" result="shape"/>
<feGaussianBlur stdDeviation="75" result="effect1_foregroundBlur_1761:2006"/>
</filter>
<filter id="filter1_biii_1761:2006" x="137" y="141.957" width="226" height="227" filterUnits="userSpaceOnUse" color-interpolation-filters="sRGB">
<feFlood flood-opacity="0" result="BackgroundImageFix"/>
<feGaussianBlur in="BackgroundImage" stdDeviation="5"/>
<feComposite in2="SourceAlpha" operator="in" result="effect1_backgroundBlur_1761:2006"/>
<feBlend mode="normal" in="SourceGraphic" in2="effect1_backgroundBlur_1761:2006" result="shape"/>
<feColorMatrix in="SourceAlpha" type="matrix" values="0 0 0 0 0 0 0 0 0 0 0 0 0 0 0 0 0 0 127 0" result="hardAlpha"/>
<feMorphology radius="3" operator="erode" in="SourceAlpha" result="effect2_innerShadow_1761:2006"/>
<feOffset dx="-5" dy="5"/>
<feGaussianBlur stdDeviation="6"/>
<feComposite in2="hardAlpha" operator="arithmetic" k2="-1" k3="1"/>
<feColorMatrix type="matrix" values="0 0 0 0 0.776471 0 0 0 0 0.686275 0 0 0 0 1 0 0 0 0.22 0"/>
<feBlend mode="normal" in2="shape" result="effect2_innerShadow_1761:2006"/>
<feColorMatrix in="SourceAlpha" type="matrix" values="0 0 0 0 0 0 0 0 0 0 0 0 0 0 0 0 0 0 127 0" result="hardAlpha"/>
<feOffset dx="2" dy="-5"/>
<feGaussianBlur stdDeviation="7.5"/>
<feComposite in2="hardAlpha" operator="arithmetic" k2="-1" k3="1"/>
<feColorMatrix type="matrix" values="0 0 0 0 0.294118 0 0 0 0 0.572549 0 0 0 0 1 0 0 0 0.22 0"/>
<feBlend mode="normal" in2="effect2_innerShadow_1761:2006" result="effect3_innerShadow_1761:2006"/>
<feColorMatrix in="SourceAlpha" type="matrix" values="0 0 0 0 0 0 0 0 0 0 0 0 0 0 0 0 0 0 127 0" result="hardAlpha"/>
<feMorphology radius="6" operator="dilate" in="SourceAlpha" result="effect4_innerShadow_1761:2006"/>
<feOffset dx="7"/>
<feGaussianBlur stdDeviation="9"/>
<feComposite in2="hardAlpha" operator="arithmetic" k2="-1" k3="1"/>
<feColorMatrix type="matrix" values="0 0 0 0 0.156863 0 0 0 0 0.898039 0 0 0 0 0.733333 0 0 0 0.22 0"/>
<feBlend mode="normal" in2="effect3_innerShadow_1761:2006" result="effect4_innerShadow_1761:2006"/>
</filter>
<linearGradient id="paint0_linear_1761:2006" x1="270.823" y1="324.204" x2="273.868" y2="251.13" gradientUnits="userSpaceOnUse">
<stop stop-color="white" stop-opacity="0"/>
<stop offset="1" stop-color="white"/>
</linearGradient>
<linearGradient id="paint1_linear_1761:2006" x1="332.646" y1="277.271" x2="267.437" y2="237.436" gradientUnits="userSpaceOnUse">
<stop offset="0.0421705" stop-color="white" stop-opacity="0"/>
<stop offset="1" stop-color="white"/>
</linearGradient>
<linearGradient id="paint2_linear_1761:2006" x1="296.209" y1="197.473" x2="236.583" y2="227.667" gradientUnits="userSpaceOnUse">
<stop offset="0.0880895" stop-color="white" stop-opacity="0"/>
<stop offset="1" stop-color="white"/>
</linearGradient>
<linearGradient id="paint3_linear_1761:2006" x1="218.64" y1="183.84" x2="214.327" y2="248.795" gradientUnits="userSpaceOnUse">
<stop stop-color="white" stop-opacity="0"/>
<stop offset="1" stop-color="white"/>
</linearGradient>
<linearGradient id="paint4_linear_1761:2006" x1="154.784" y1="233.081" x2="221.768" y2="279.006" gradientUnits="userSpaceOnUse">
<stop offset="0.1018" stop-color="white" stop-opacity="0"/>
<stop offset="1" stop-color="white"/>
</linearGradient>
<linearGradient id="paint5_linear_1761:2006" x1="196.783" y1="315.343" x2="247.782" y2="288.955" gradientUnits="userSpaceOnUse">
<stop stop-color="white" stop-opacity="0"/>
<stop offset="1" stop-color="white"/>
</linearGradient>
</defs>
</svg>
