<svg width="502" height="504" viewBox="0 0 502 504" fill="none" xmlns="http://www.w3.org/2000/svg">
<g filter="url(#filter0_f_1761:2016)">
<ellipse cx="251" cy="252.457" rx="101" ry="101.5" transform="rotate(-180 251 252.457)" fill="#8B64EC" fill-opacity="0.44"/>
</g>
<g filter="url(#filter1_biii_1761:2016)">
<ellipse cx="258" cy="258.457" rx="103" ry="103.5" fill="#041021" fill-opacity="0.1"/>
</g>
<g opacity="0.77">
<mask id="mask0_1761:2016" style="mask-type:alpha" maskUnits="userSpaceOnUse" x="171" y="232" width="179" height="58">
<rect x="171" y="232.957" width="178.63" height="56.8996" fill="url(#paint0_linear_1761:2016)"/>
</mask>
<g mask="url(#mask0_1761:2016)">
<path d="M171 261.457V261.355V258.84C171 258.495 171.284 258.211 171.629 258.211C171.974 258.211 172.258 258.495 172.258 258.84V261.355V261.457V263.972C172.258 264.317 171.974 264.601 171.629 264.601C171.284 264.601 171 264.317 171 263.972V261.457Z" fill="white"/>
<path d="M173.962 261.455V261.354V255.613C173.962 255.268 174.246 254.984 174.591 254.984C174.935 254.984 175.219 255.268 175.219 255.613V261.354V261.455V267.196C175.219 267.541 174.935 267.825 174.591 267.825C174.246 267.825 173.962 267.541 173.962 267.196V261.455Z" fill="white"/>
<path d="M176.924 261.457V261.355V249.164C176.924 248.819 177.208 248.535 177.552 248.535C177.897 248.535 178.181 248.819 178.181 249.164V261.355V261.457V273.648C178.181 273.993 177.897 274.277 177.552 274.277C177.208 274.277 176.924 273.993 176.924 273.648V261.457Z" fill="white"/>
<path d="M179.885 261.456V261.354V242.043C179.885 241.698 180.169 241.414 180.514 241.414C180.859 241.414 181.143 241.698 181.143 242.043V261.354V261.456V280.767C181.143 281.112 180.859 281.396 180.514 281.396C180.169 281.396 179.885 281.112 179.885 280.767V261.456Z" fill="white"/>
<path d="M182.826 261.456V261.355V238.777C182.826 238.432 183.11 238.148 183.455 238.148C183.8 238.148 184.084 238.432 184.084 238.777V261.355V261.456V284.033C184.084 284.378 183.8 284.662 183.455 284.662C183.11 284.662 182.826 284.378 182.826 284.033V261.456Z" fill="white"/>
<path d="M185.788 261.456V261.354V242.043C185.788 241.698 186.072 241.414 186.417 241.414C186.762 241.414 187.046 241.698 187.046 242.043V261.354V261.456V280.767C187.046 281.112 186.762 281.396 186.417 281.396C186.072 281.396 185.788 281.112 185.788 280.767V261.456Z" fill="white"/>
<path d="M188.75 261.457V261.355V249.164C188.75 248.819 189.034 248.535 189.379 248.535C189.724 248.535 190.008 248.819 190.008 249.164V261.355V261.457V273.648C190.008 273.993 189.724 274.277 189.379 274.277C189.034 274.277 188.75 273.993 188.75 273.648V261.457Z" fill="white"/>
<path d="M191.71 261.458V261.356V255.555C191.71 255.21 191.994 254.926 192.339 254.926C192.684 254.926 192.968 255.21 192.968 255.555V261.356V261.458V267.239C192.968 267.584 192.684 267.868 192.339 267.868C191.994 267.868 191.71 267.584 191.71 267.239V261.458Z" fill="white"/>
<path d="M194.674 261.459V261.357V258.781C194.674 258.436 194.958 258.152 195.302 258.152C195.647 258.152 195.931 258.436 195.931 258.781V261.357V261.459V264.035C195.931 264.38 195.647 264.664 195.302 264.664C194.958 264.664 194.674 264.38 194.674 264.035V261.459Z" fill="white"/>
<path d="M197.634 261.456V261.355V252.226C197.634 251.882 197.918 251.598 198.263 251.598C198.607 251.598 198.891 251.882 198.891 252.226V261.355V261.456V270.584C198.891 270.929 198.607 271.213 198.263 271.213C197.918 271.213 197.634 270.929 197.634 270.584V261.456Z" fill="white"/>
<path d="M200.597 261.456V261.354V247.824C200.597 247.479 200.881 247.195 201.226 247.195C201.571 247.195 201.855 247.479 201.855 247.824V261.354V261.456V274.986C201.855 275.331 201.571 275.615 201.226 275.615C200.881 275.615 200.597 275.331 200.597 274.986V261.456Z" fill="white"/>
<path d="M203.557 261.456V261.355V238.777C203.557 238.432 203.841 238.148 204.186 238.148C204.531 238.148 204.815 238.432 204.815 238.777V261.355V261.456V284.033C204.815 284.378 204.531 284.662 204.186 284.662C203.841 284.662 203.557 284.378 203.557 284.033V261.456Z" fill="white"/>
<path d="M206.5 261.459V261.358V243.629C206.5 243.284 206.784 243 207.129 243C207.474 243 207.758 243.284 207.758 243.629V261.358V261.459V279.189C207.758 279.533 207.474 279.817 207.129 279.817C206.784 279.817 206.5 279.533 206.5 279.189V261.459Z" fill="white"/>
<path d="M209.46 261.458V261.356V250.605C209.46 250.261 209.744 249.977 210.089 249.977C210.434 249.977 210.718 250.261 210.718 250.605V261.356V261.458V272.209C210.718 272.554 210.434 272.838 210.089 272.838C209.744 272.838 209.46 272.554 209.46 272.209V261.458Z" fill="white"/>
<path d="M212.422 261.458V261.356V256.184C212.422 255.839 212.706 255.555 213.051 255.555C213.395 255.555 213.679 255.839 213.679 256.184V261.356V261.458V266.63C213.679 266.975 213.395 267.259 213.051 267.259C212.706 267.259 212.422 266.975 212.422 266.63V261.458Z" fill="white"/>
<path d="M215.384 261.457V261.355V244.539C215.384 244.194 215.668 243.91 216.012 243.91C216.357 243.91 216.641 244.194 216.641 244.539V261.355V261.457V278.273C216.641 278.618 216.357 278.902 216.012 278.902C215.668 278.902 215.384 278.618 215.384 278.273V261.457Z" fill="white"/>
<path d="M218.345 261.458V261.357V239.144C218.345 238.8 218.629 238.516 218.974 238.516C219.319 238.516 219.603 238.8 219.603 239.144V261.357V261.458V283.67C219.603 284.015 219.319 284.299 218.974 284.299C218.629 284.299 218.345 284.015 218.345 283.67V261.458Z" fill="white"/>
<path d="M221.307 261.456V261.355V236.242C221.307 235.897 221.591 235.613 221.936 235.613C222.281 235.613 222.565 235.897 222.565 236.242V261.355V261.456V286.569C222.565 286.914 222.281 287.198 221.936 287.198C221.591 287.198 221.307 286.914 221.307 286.569V261.456Z" fill="white"/>
<path d="M224.269 261.458V261.356V233.586C224.269 233.241 224.553 232.957 224.898 232.957C225.243 232.957 225.527 233.241 225.527 233.586V261.356V261.458V289.228C225.527 289.573 225.243 289.857 224.898 289.857C224.553 289.857 224.269 289.573 224.269 289.228V261.458Z" fill="white"/>
<path d="M227.231 261.456V261.355V236.242C227.231 235.897 227.515 235.613 227.86 235.613C228.204 235.613 228.488 235.897 228.488 236.242V261.355V261.456V286.569C228.488 286.914 228.204 287.198 227.86 287.198C227.515 287.198 227.231 286.914 227.231 286.569V261.456Z" fill="white"/>
<path d="M230.172 261.458V261.357V239.144C230.172 238.8 230.456 238.516 230.8 238.516C231.145 238.516 231.429 238.8 231.429 239.144V261.357V261.458V283.67C231.429 284.015 231.145 284.299 230.8 284.299C230.456 284.299 230.172 284.015 230.172 283.67V261.458Z" fill="white"/>
<path d="M233.133 261.456V261.355V244.133C233.133 243.788 233.417 243.504 233.762 243.504C234.107 243.504 234.391 243.788 234.391 244.133V261.355V261.456V278.678C234.391 279.023 234.107 279.307 233.762 279.307C233.417 279.307 233.133 279.023 233.133 278.678V261.456Z" fill="white"/>
<path d="M236.095 261.458V261.357V259.43C236.095 259.085 236.379 258.801 236.724 258.801C237.069 258.801 237.353 259.085 237.353 259.43V261.357V261.458V263.385C237.353 263.73 237.069 264.014 236.724 264.014C236.379 264.014 236.095 263.73 236.095 263.385V261.458Z" fill="white"/>
<path d="M239.055 261.457V261.355V255.473C239.055 255.128 239.339 254.844 239.684 254.844C240.029 254.844 240.313 255.128 240.313 255.473V261.355V261.457V267.339C240.313 267.684 240.029 267.968 239.684 267.968C239.339 267.968 239.055 267.684 239.055 267.339V261.457Z" fill="white"/>
<path d="M242.019 261.457V261.356V249.043C242.019 248.698 242.303 248.414 242.648 248.414C242.993 248.414 243.277 248.698 243.277 249.043V261.356V261.457V273.77C243.277 274.115 242.993 274.399 242.648 274.399C242.303 274.399 242.019 274.115 242.019 273.77V261.457Z" fill="white"/>
<path d="M244.979 261.459V261.358V241.012C244.979 240.667 245.263 240.383 245.608 240.383H246.237V261.358V261.459V281.805C246.237 282.15 245.953 282.434 245.608 282.434C245.263 282.434 244.979 282.15 244.979 281.805V261.459Z" fill="white"/>
<path d="M247.943 261.456V261.355V253.586C247.943 253.241 248.226 252.957 248.571 252.957C248.916 252.957 249.2 253.241 249.2 253.586V261.355V261.456V269.226C249.2 269.571 248.916 269.854 248.571 269.854C248.226 269.854 247.943 269.571 247.943 269.226V261.456Z" fill="white"/>
<path d="M250.882 261.458V261.357V256.59C250.882 256.245 251.166 255.961 251.511 255.961C251.855 255.961 252.139 256.245 252.139 256.59V261.357V261.458V266.225C252.139 266.57 251.855 266.854 251.511 266.854C251.166 266.854 250.882 266.57 250.882 266.225V261.458Z" fill="white"/>
<path d="M253.844 261.458V261.357V248.394C253.844 248.05 254.127 247.766 254.472 247.766C254.817 247.766 255.101 248.05 255.101 248.394V261.357V261.458V274.42C255.101 274.765 254.817 275.049 254.472 275.049C254.127 275.049 253.844 274.765 253.844 274.42V261.458Z" fill="white"/>
<path d="M256.805 261.456V261.355V253.586C256.805 253.241 257.089 252.957 257.434 252.957C257.779 252.957 258.063 253.241 258.063 253.586V261.355V261.456V269.226C258.063 269.571 257.779 269.854 257.434 269.854C257.089 269.854 256.805 269.571 256.805 269.226V261.456Z" fill="white"/>
<path d="M259.685 261.457V261.355V258.84C259.685 258.495 259.969 258.211 260.314 258.211C260.659 258.211 260.943 258.495 260.943 258.84V261.355V261.457V263.972C260.943 264.317 260.659 264.601 260.314 264.601C259.969 264.601 259.685 264.317 259.685 263.972V261.457Z" fill="white"/>
<path d="M262.647 261.455V261.354V255.613C262.647 255.268 262.931 254.984 263.276 254.984C263.621 254.984 263.905 255.268 263.905 255.613V261.354V261.455V267.196C263.905 267.541 263.621 267.825 263.276 267.825C262.931 267.825 262.647 267.541 262.647 267.196V261.455Z" fill="white"/>
<path d="M265.609 261.457V261.355V249.164C265.609 248.819 265.893 248.535 266.237 248.535C266.582 248.535 266.866 248.819 266.866 249.164V261.355V261.457V273.648C266.866 273.993 266.582 274.277 266.237 274.277C265.893 274.277 265.609 273.993 265.609 273.648V261.457Z" fill="white"/>
<path d="M268.57 261.456V261.354V242.043C268.57 241.698 268.854 241.414 269.199 241.414C269.544 241.414 269.828 241.698 269.828 242.043V261.354V261.456V280.767C269.828 281.112 269.544 281.396 269.199 281.396C268.854 281.396 268.57 281.112 268.57 280.767V261.456Z" fill="white"/>
<path d="M271.511 261.456V261.355V238.777C271.511 238.432 271.795 238.148 272.14 238.148C272.485 238.148 272.769 238.432 272.769 238.777V261.355V261.456V284.033C272.769 284.378 272.485 284.662 272.14 284.662C271.795 284.662 271.511 284.378 271.511 284.033V261.456Z" fill="white"/>
<path d="M274.473 261.456V261.354V242.043C274.473 241.698 274.757 241.414 275.102 241.414C275.447 241.414 275.731 241.698 275.731 242.043V261.354V261.456V280.767C275.731 281.112 275.447 281.396 275.102 281.396C274.757 281.396 274.473 281.112 274.473 280.767V261.456Z" fill="white"/>
<path d="M277.435 261.457V261.355V249.164C277.435 248.819 277.719 248.535 278.064 248.535C278.409 248.535 278.693 248.819 278.693 249.164V261.355V261.457V273.648C278.693 273.993 278.409 274.277 278.064 274.277C277.719 274.277 277.435 273.993 277.435 273.648V261.457Z" fill="white"/>
<path d="M280.395 261.458V261.356V255.555C280.395 255.21 280.679 254.926 281.024 254.926C281.369 254.926 281.653 255.21 281.653 255.555V261.356V261.458V267.239C281.653 267.584 281.369 267.868 281.024 267.868C280.679 267.868 280.395 267.584 280.395 267.239V261.458Z" fill="white"/>
<path d="M283.359 261.459V261.357V258.781C283.359 258.436 283.643 258.152 283.987 258.152C284.332 258.152 284.616 258.436 284.616 258.781V261.357V261.459V264.035C284.616 264.38 284.332 264.664 283.987 264.664C283.643 264.664 283.359 264.38 283.359 264.035V261.459Z" fill="white"/>
<path d="M286.319 261.456V261.355V252.226C286.319 251.882 286.603 251.598 286.948 251.598C287.292 251.598 287.576 251.882 287.576 252.226V261.355V261.456V270.584C287.576 270.929 287.292 271.213 286.948 271.213C286.603 271.213 286.319 270.929 286.319 270.584V261.456Z" fill="white"/>
<path d="M289.282 261.456V261.354V247.824C289.282 247.479 289.566 247.195 289.911 247.195C290.256 247.195 290.54 247.479 290.54 247.824V261.354V261.456V274.986C290.54 275.331 290.256 275.615 289.911 275.615C289.566 275.615 289.282 275.331 289.282 274.986V261.456Z" fill="white"/>
<path d="M292.242 261.456V261.355V238.777C292.242 238.432 292.526 238.148 292.871 238.148C293.216 238.148 293.5 238.432 293.5 238.777V261.355V261.456V284.033C293.5 284.378 293.216 284.662 292.871 284.662C292.526 284.662 292.242 284.378 292.242 284.033V261.456Z" fill="white"/>
<path d="M295.185 261.459V261.358V243.629C295.185 243.284 295.469 243 295.814 243C296.159 243 296.443 243.284 296.443 243.629V261.358V261.459V279.189C296.443 279.533 296.159 279.817 295.814 279.817C295.469 279.817 295.185 279.533 295.185 279.189V261.459Z" fill="white"/>
<path d="M298.145 261.458V261.356V250.605C298.145 250.261 298.429 249.977 298.774 249.977C299.119 249.977 299.403 250.261 299.403 250.605V261.356V261.458V272.209C299.403 272.554 299.119 272.838 298.774 272.838C298.429 272.838 298.145 272.554 298.145 272.209V261.458Z" fill="white"/>
<path d="M301.107 261.458V261.356V256.184C301.107 255.839 301.391 255.555 301.736 255.555C302.08 255.555 302.364 255.839 302.364 256.184V261.356V261.458V266.63C302.364 266.975 302.08 267.259 301.736 267.259C301.391 267.259 301.107 266.975 301.107 266.63V261.458Z" fill="white"/>
<path d="M304.069 261.457V261.355V244.539C304.069 244.194 304.353 243.91 304.697 243.91C305.042 243.91 305.326 244.194 305.326 244.539V261.355V261.457V278.273C305.326 278.618 305.042 278.902 304.697 278.902C304.353 278.902 304.069 278.618 304.069 278.273V261.457Z" fill="white"/>
<path d="M307.03 261.458V261.357V239.144C307.03 238.8 307.314 238.516 307.659 238.516C308.004 238.516 308.288 238.8 308.288 239.144V261.357V261.458V283.67C308.288 284.015 308.004 284.299 307.659 284.299C307.314 284.299 307.03 284.015 307.03 283.67V261.458Z" fill="white"/>
<path d="M309.992 261.456V261.355V236.242C309.992 235.897 310.276 235.613 310.621 235.613C310.966 235.613 311.25 235.897 311.25 236.242V261.355V261.456V286.569C311.25 286.914 310.966 287.198 310.621 287.198C310.276 287.198 309.992 286.914 309.992 286.569V261.456Z" fill="white"/>
<path d="M312.954 261.458V261.356V233.586C312.954 233.241 313.238 232.957 313.583 232.957C313.928 232.957 314.212 233.241 314.212 233.586V261.356V261.458V289.228C314.212 289.573 313.928 289.857 313.583 289.857C313.238 289.857 312.954 289.573 312.954 289.228V261.458Z" fill="white"/>
<path d="M315.916 261.456V261.355V236.242C315.916 235.897 316.2 235.613 316.545 235.613C316.889 235.613 317.173 235.897 317.173 236.242V261.355V261.456V286.569C317.173 286.914 316.889 287.198 316.545 287.198C316.2 287.198 315.916 286.914 315.916 286.569V261.456Z" fill="white"/>
<path d="M318.857 261.458V261.357V239.144C318.857 238.8 319.141 238.516 319.486 238.516C319.83 238.516 320.114 238.8 320.114 239.144V261.357V261.458V283.67C320.114 284.015 319.83 284.299 319.486 284.299C319.141 284.299 318.857 284.015 318.857 283.67V261.458Z" fill="white"/>
<path d="M321.819 261.456V261.355V244.133C321.819 243.788 322.103 243.504 322.447 243.504C322.792 243.504 323.076 243.788 323.076 244.133V261.355V261.456V278.678C323.076 279.023 322.792 279.307 322.447 279.307C322.103 279.307 321.819 279.023 321.819 278.678V261.456Z" fill="white"/>
<path d="M324.78 261.458V261.357V259.43C324.78 259.085 325.064 258.801 325.409 258.801C325.754 258.801 326.038 259.085 326.038 259.43V261.357V261.458V263.385C326.038 263.73 325.754 264.014 325.409 264.014C325.064 264.014 324.78 263.73 324.78 263.385V261.458Z" fill="white"/>
<path d="M327.74 261.457V261.355V255.473C327.74 255.128 328.024 254.844 328.369 254.844C328.714 254.844 328.998 255.128 328.998 255.473V261.355V261.457V267.339C328.998 267.684 328.714 267.968 328.369 267.968C328.024 267.968 327.74 267.684 327.74 267.339V261.457Z" fill="white"/>
<path d="M330.704 261.457V261.356V249.043C330.704 248.698 330.988 248.414 331.333 248.414C331.678 248.414 331.962 248.698 331.962 249.043V261.356V261.457V273.77C331.962 274.115 331.678 274.399 331.333 274.399C330.988 274.399 330.704 274.115 330.704 273.77V261.457Z" fill="white"/>
<path d="M333.664 261.459V261.358V241.012C333.664 240.667 333.948 240.383 334.293 240.383H334.922V261.358V261.459V281.805C334.922 282.15 334.638 282.434 334.293 282.434C333.948 282.434 333.664 282.15 333.664 281.805V261.459Z" fill="white"/>
<path d="M336.628 261.456V261.355V253.586C336.628 253.241 336.912 252.957 337.256 252.957C337.601 252.957 337.885 253.241 337.885 253.586V261.355V261.456V269.226C337.885 269.571 337.601 269.854 337.256 269.854C336.912 269.854 336.628 269.571 336.628 269.226V261.456Z" fill="white"/>
<path d="M339.567 261.458V261.357V256.59C339.567 256.245 339.851 255.961 340.196 255.961C340.54 255.961 340.824 256.245 340.824 256.59V261.357V261.458V266.225C340.824 266.57 340.54 266.854 340.196 266.854C339.851 266.854 339.567 266.57 339.567 266.225V261.458Z" fill="white"/>
<path d="M342.529 261.458V261.357V248.394C342.529 248.05 342.813 247.766 343.157 247.766C343.502 247.766 343.786 248.05 343.786 248.394V261.357V261.458V274.42C343.786 274.765 343.502 275.049 343.157 275.049C342.813 275.049 342.529 274.765 342.529 274.42V261.458Z" fill="white"/>
<path d="M345.49 261.456V261.355V253.586C345.49 253.241 345.774 252.957 346.119 252.957C346.464 252.957 346.748 253.241 346.748 253.586V261.355V261.456V269.226C346.748 269.571 346.464 269.854 346.119 269.854C345.774 269.854 345.49 269.571 345.49 269.226V261.456Z" fill="white"/>
<path d="M348.999 279.797C348.654 279.797 348.37 279.513 348.37 279.168V261.439V261.358V243.629C348.37 243.284 348.654 243 348.999 243C349.344 243 349.628 243.284 349.628 243.629V261.358V261.459V279.189C349.608 279.533 349.344 279.797 348.999 279.797Z" fill="white"/>
</g>
</g>
<defs>
<filter id="filter0_f_1761:2016" x="0" y="0.957031" width="502" height="503" filterUnits="userSpaceOnUse" color-interpolation-filters="sRGB">
<feFlood flood-opacity="0" result="BackgroundImageFix"/>
<feBlend mode="normal" in="SourceGraphic" in2="BackgroundImageFix" result="shape"/>
<feGaussianBlur stdDeviation="75" result="effect1_foregroundBlur_1761:2016"/>
</filter>
<filter id="filter1_biii_1761:2016" x="145" y="144.957" width="226" height="227" filterUnits="userSpaceOnUse" color-interpolation-filters="sRGB">
<feFlood flood-opacity="0" result="BackgroundImageFix"/>
<feGaussianBlur in="BackgroundImage" stdDeviation="5"/>
<feComposite in2="SourceAlpha" operator="in" result="effect1_backgroundBlur_1761:2016"/>
<feBlend mode="normal" in="SourceGraphic" in2="effect1_backgroundBlur_1761:2016" result="shape"/>
<feColorMatrix in="SourceAlpha" type="matrix" values="0 0 0 0 0 0 0 0 0 0 0 0 0 0 0 0 0 0 127 0" result="hardAlpha"/>
<feMorphology radius="3" operator="erode" in="SourceAlpha" result="effect2_innerShadow_1761:2016"/>
<feOffset dx="-5" dy="5"/>
<feGaussianBlur stdDeviation="6"/>
<feComposite in2="hardAlpha" operator="arithmetic" k2="-1" k3="1"/>
<feColorMatrix type="matrix" values="0 0 0 0 0.776471 0 0 0 0 0.686275 0 0 0 0 1 0 0 0 0.22 0"/>
<feBlend mode="normal" in2="shape" result="effect2_innerShadow_1761:2016"/>
<feColorMatrix in="SourceAlpha" type="matrix" values="0 0 0 0 0 0 0 0 0 0 0 0 0 0 0 0 0 0 127 0" result="hardAlpha"/>
<feOffset dx="2" dy="-5"/>
<feGaussianBlur stdDeviation="7.5"/>
<feComposite in2="hardAlpha" operator="arithmetic" k2="-1" k3="1"/>
<feColorMatrix type="matrix" values="0 0 0 0 0.294118 0 0 0 0 0.572549 0 0 0 0 1 0 0 0 0.22 0"/>
<feBlend mode="normal" in2="effect2_innerShadow_1761:2016" result="effect3_innerShadow_1761:2016"/>
<feColorMatrix in="SourceAlpha" type="matrix" values="0 0 0 0 0 0 0 0 0 0 0 0 0 0 0 0 0 0 127 0" result="hardAlpha"/>
<feMorphology radius="6" operator="dilate" in="SourceAlpha" result="effect4_innerShadow_1761:2016"/>
<feOffset dx="7"/>
<feGaussianBlur stdDeviation="9"/>
<feComposite in2="hardAlpha" operator="arithmetic" k2="-1" k3="1"/>
<feColorMatrix type="matrix" values="0 0 0 0 0.156863 0 0 0 0 0.898039 0 0 0 0 0.733333 0 0 0 0.22 0"/>
<feBlend mode="normal" in2="effect3_innerShadow_1761:2016" result="effect4_innerShadow_1761:2016"/>
</filter>
<linearGradient id="paint0_linear_1761:2016" x1="349.63" y1="289.857" x2="171" y2="289.857" gradientUnits="userSpaceOnUse">
<stop stop-color="#C4C4C4" stop-opacity="0"/>
<stop offset="0.521917" stop-color="#C4C4C4"/>
<stop offset="1" stop-color="#C4C4C4" stop-opacity="0"/>
</linearGradient>
</defs>
</svg>
