<?xml version="1.0" encoding="utf-8"?>
<svg width="16" height="16" viewBox="0 0 16 16" fill="none" xmlns="http://www.w3.org/2000/svg">
<path d="M15.5192 12.5697L11.9116 9.28958C11.7411 9.13459 11.517 9.05192 11.2866 9.05904C11.0563 9.06616 10.8378 9.16251 10.6771 9.32774L8.55341 11.5118C8.04223 11.4142 7.01454 11.0938 5.95667 10.0386C4.89881 8.97986 4.57843 7.9495 4.48347 7.44187L6.66576 5.31727C6.8312 5.15675 6.92769 4.93816 6.93481 4.70776C6.94193 4.47736 6.85913 4.25323 6.70392 4.0828L3.42472 0.47612C3.26945 0.305154 3.05365 0.201451 2.82315 0.187035C2.59265 0.172618 2.36561 0.248624 2.19025 0.39891L0.264442 2.05049C0.111008 2.20448 0.0194285 2.40943 0.00707533 2.62646C-0.00623671 2.84833 -0.260053 8.10392 3.81521 12.181C7.37041 15.7353 11.8237 15.9953 13.0502 15.9953C13.2295 15.9953 13.3395 15.99 13.3688 15.9882C13.5858 15.9761 13.7907 15.8841 13.9439 15.7299L15.5946 13.8033C15.7455 13.6285 15.822 13.4016 15.8079 13.1711C15.7939 12.9406 15.6902 12.7248 15.5192 12.5697Z" fill="#004453"/>
</svg>
