<svg id="Layer_1" width="35" height="52" data-name="Layer 1" xmlns="http://www.w3.org/2000/svg" xmlns:xlink="http://www.w3.org/1999/xlink" viewBox="0 0 35 52">
  <defs>
    <linearGradient id="linear-gradient" x1="17.51" y1="62" x2="17.51" y2="-11" gradientTransform="matrix(1, 0, 0, -1, 0, 54)" gradientUnits="userSpaceOnUse">
      <stop offset="0" stop-color="#28e5bb"/>
      <stop offset="1" stop-color="#28e5bb" stop-opacity="0.5"/>
    </linearGradient>
  </defs>
  <path d="M18.46.6a17.42,17.42,0,0,1,8,1.68,11.38,11.38,0,0,1,5,4.48,12.3,12.3,0,0,1,1.75,6.51,11.72,11.72,0,0,1-2.73,7.84q-2.73,3.23-8.33,3.78v.42a19.07,19.07,0,0,1,8.75,4.41,10.55,10.55,0,0,1,3.22,8.19,12.89,12.89,0,0,1-4,9.8q-3.93,3.78-11.48,3.78T6.49,47.64Q1.87,43.73,1,36.3H5.79a13.32,13.32,0,0,0,4,8,12.52,12.52,0,0,0,8.68,2.94q5.25,0,8-2.66a9.14,9.14,0,0,0,2.8-6.93,8.52,8.52,0,0,0-4-7.63q-3.93-2.66-11.13-2.66H12.58V23.21h1.54q14.21,0,14.21-9.45a8.52,8.52,0,0,0-2.66-6.58,10.47,10.47,0,0,0-7.35-2.45,12.08,12.08,0,0,0-7.84,2.59q-3.23,2.6-3.85,7.77H1.8Q2.36,8.24,6.7,4.45T18.46.6Z" style="isolation: isolate;opacity: 0.699999988079071;fill: url(#linear-gradient)"/>
</svg>
