<svg viewBox="0 0 35 52" fill="none" xmlns="http://www.w3.org/2000/svg">
<path opacity="0.7" d="M18.4564 0.599998C21.583 0.599998 24.243 1.16 26.4364 2.28C28.6297 3.35333 30.2864 4.84666 31.4064 6.76C32.573 8.67333 33.1564 10.8433 33.1564 13.27C33.1564 16.35 32.2464 18.9633 30.4264 21.11C28.6064 23.2567 25.8297 24.5167 22.0964 24.89V25.31C25.8297 26.2433 28.7464 27.7133 30.8464 29.72C32.993 31.68 34.0664 34.41 34.0664 37.91C34.0664 41.9233 32.7364 45.19 30.0764 47.71C27.463 50.23 23.6364 51.49 18.5964 51.49C13.603 51.49 9.56637 50.2067 6.48637 47.64C3.40637 45.0267 1.56303 41.2467 0.956367 36.3H5.78637C6.2997 39.6133 7.6297 42.2733 9.77637 44.28C11.9697 46.24 14.863 47.22 18.4564 47.22C21.9564 47.22 24.6164 46.3333 26.4364 44.56C28.303 42.7867 29.2364 40.4767 29.2364 37.63C29.2364 34.27 27.9064 31.7267 25.2464 30C22.633 28.2267 18.923 27.34 14.1164 27.34H12.5764V23.21H14.1164C23.5897 23.21 28.3264 20.06 28.3264 13.76C28.3264 11.0067 27.4397 8.81333 25.6664 7.18C23.893 5.54666 21.443 4.73 18.3164 4.73C15.2364 4.73 12.623 5.59333 10.4764 7.32C8.3297 9.04667 7.04637 11.6367 6.62637 15.09H1.79637C2.1697 10.5167 3.80303 6.97 6.69637 4.45C9.5897 1.88333 13.5097 0.599998 18.4564 0.599998Z" fill="url(#paint0_linear_1761:2094)"/>
<defs>
<linearGradient id="paint0_linear_1761:2094" x1="18" y1="-8" x2="18" y2="65" gradientUnits="userSpaceOnUse">
<stop stop-color="#28E5BB"/>
<stop offset="1" stop-color="#28E5BB" stop-opacity="0.5"/>
</linearGradient>
</defs>
</svg>
