<svg width="25" height="21" viewBox="0 0 25 21" fill="none" xmlns="http://www.w3.org/2000/svg">
<path d="M22.4303 5.48436C22.4461 5.7031 22.4461 5.92188 22.4461 6.14062C22.4461 12.8125 17.2907 20.5 7.86805 20.5C4.96511 20.5 2.26842 19.6718 0 18.2344C0.412453 18.2812 0.808988 18.2969 1.23731 18.2969C3.63258 18.2969 5.83757 17.5 7.59837 16.1406C5.34582 16.0938 3.45812 14.6406 2.80773 12.6406C3.12501 12.6875 3.44225 12.7187 3.77541 12.7187C4.23542 12.7187 4.69548 12.6562 5.12375 12.5469C2.77604 12.0781 1.01519 10.0469 1.01519 7.59374V7.53126C1.69727 7.90627 2.49049 8.14064 3.33117 8.17185C1.95108 7.26558 1.04693 5.71873 1.04693 3.96871C1.04693 3.03123 1.30069 2.17186 1.74488 1.42185C4.26711 4.48435 8.05838 6.48432 12.3096 6.7031C12.2303 6.3281 12.1827 5.93752 12.1827 5.54688C12.1827 2.7656 14.467 0.5 17.3065 0.5C18.7817 0.5 20.1142 1.10937 21.0501 2.09375C22.2081 1.87501 23.3185 1.45311 24.302 0.875003C23.9213 2.0469 23.1123 3.03128 22.0495 3.65624C23.0806 3.54691 24.08 3.2656 25 2.87502C24.3021 3.87498 23.4296 4.76557 22.4303 5.48436Z" fill="#F7F7F7"/>
</svg>
