<svg viewBox="0 0 34 51" fill="none" xmlns="http://www.w3.org/2000/svg">
<path opacity="0.7" d="M0.291602 47.29C8.5516 41.83 15.1316 36.3467 20.0316 30.84C24.9783 25.3333 27.4516 20.1767 27.4516 15.37C27.4516 12.3367 26.6583 9.88667 25.0716 8.02C23.4849 6.10666 20.9183 5.15 17.3716 5.15C13.7316 5.15 10.9549 6.29333 9.0416 8.58C7.17494 10.82 6.12494 13.8767 5.8916 17.75H1.0616C1.38827 12.3833 3.04494 8.25333 6.0316 5.36C9.01827 2.42 12.9149 0.949998 17.7216 0.949998C22.1083 0.949998 25.6549 2.14 28.3616 4.52C31.0683 6.9 32.4216 10.3767 32.4216 14.95C32.4216 18.8233 31.1383 22.79 28.5716 26.85C26.0049 30.8633 22.8083 34.5967 18.9816 38.05C15.1549 41.4567 11.2583 44.35 7.2916 46.73H33.8216V50.79H0.291602V47.29Z" fill="url(#paint0_linear_1761:2090)"/>
<defs>
<linearGradient id="paint0_linear_1761:2090" x1="17" y1="-8" x2="17" y2="65" gradientUnits="userSpaceOnUse">
<stop stop-color="#28E5BB"/>
<stop offset="1" stop-color="#28E5BB" stop-opacity="0.5"/>
</linearGradient>
</defs>
</svg>
