<svg id="Layer_1" data-name="Layer 1" xmlns="http://www.w3.org/2000/svg" xmlns:xlink="http://www.w3.org/1999/xlink" viewBox="0 0 34 51">
  <defs>
    <linearGradient id="linear-gradient" x1="17.06" y1="60" x2="17.06" y2="-13" gradientTransform="matrix(1, 0, 0, -1, 0, 52)" gradientUnits="userSpaceOnUse">
      <stop offset="0" stop-color="#28e5bb"/>
      <stop offset="1" stop-color="#28e5bb" stop-opacity="0.5"/>
    </linearGradient>
  </defs>
  <path d="M.29,47.29A100.38,100.38,0,0,0,20,30.84q7.42-8.27,7.42-15.47A11,11,0,0,0,25.07,8c-1.59-1.91-4.15-2.87-7.7-2.87S11,6.29,9,8.58s-2.92,5.3-3.15,9.17H1.06Q1.55,9.7,6,5.36A16,16,0,0,1,17.72,1q6.59,0,10.64,3.57T32.42,15a22.22,22.22,0,0,1-3.85,11.9A55.07,55.07,0,0,1,19,38.05,77.74,77.74,0,0,1,7.29,46.73H33.82v4.06H.29Z" style="isolation: isolate;opacity: 0.699999988079071;fill: url(#linear-gradient)"/>
</svg>
