<?xml version="1.0" encoding="utf-8"?>
<svg width="185" height="150" viewBox="0 0 185 150" fill="none" xmlns="http://www.w3.org/2000/svg">
<g opacity="0.77">
<path d="M114.393 148.609C114.481 143.154 114.857 121.446 115.564 116.035C115.829 113.981 116.138 111.839 115.431 109.874C114.724 107.93 113.134 106.451 112.185 104.618C111.323 102.917 111.036 100.93 109.976 99.3176C108.96 97.7717 107.304 96.7559 105.714 95.8062C105.78 94.9891 106.443 94.15 107.238 93.9733C108.055 93.7966 108.894 94.0616 109.601 94.4812C110.308 94.9229 110.882 95.5192 111.456 96.1375C112.118 96.8442 112.847 97.3742 113.51 98.0588C114.194 98.7434 115.166 99.3176 116.094 99.0305C116.69 98.8538 117.131 98.3459 117.374 97.7938C117.617 97.2417 117.706 96.6013 117.794 96.005C118.368 91.5882 118.677 87.1494 118.81 82.6884C118.832 82.1584 118.854 81.5842 119.097 81.0984C119.34 80.6125 119.87 80.2371 120.4 80.3475C120.797 80.4359 121.084 80.7892 121.217 81.1646C121.349 81.5401 121.372 81.9597 121.372 82.3572L121.659 92.9353C121.681 93.5095 122.321 93.8629 122.807 93.5316C123.205 93.2666 123.359 92.8028 123.536 92.3612C124.772 88.9602 126.23 85.6477 127.908 82.4455C128.151 81.9817 128.416 81.4959 128.836 81.1867C129.256 80.8775 129.874 80.7671 130.293 81.0542C130.647 81.2971 130.779 81.7609 130.735 82.1805C130.713 82.6001 130.536 82.9976 130.36 83.3951C128.946 86.6635 127.312 91.1686 126.34 94.5916C126.274 94.8566 126.628 95.0112 126.782 94.7904L132.259 85.9348C132.436 85.6697 132.679 85.4268 132.966 85.2943C133.849 84.8747 134.379 85.5593 134.401 86.2218C134.423 86.6414 134.269 87.039 134.114 87.4365C132.789 90.727 130.492 93.6862 129.675 97.065C129.565 97.4846 130.073 97.7938 130.404 97.5067L135.814 92.8249C136.057 92.6041 136.367 92.4716 136.698 92.4274C137.802 92.317 138.023 93.4433 137.669 94.15C137.404 94.68 136.897 95.0554 136.411 95.4308C134.048 97.308 132.303 99.8476 130.779 102.453C129.256 105.059 127.158 107.4 126.23 110.271C123.911 117.294 124.75 142.116 125.501 149.956C121.924 148.3 118.236 147.527 114.393 148.609Z" fill="url(#paint0_linear_1761:2009)"/>
<path d="M177.952 99.6947C173.27 96.8901 143.722 79.4438 139.393 76.1313C137.737 74.8725 136.036 73.5474 134.005 73.172C131.973 72.7966 129.897 73.4591 127.821 73.3487C125.9 73.2383 124.045 72.4874 122.124 72.6199C120.269 72.7303 118.568 73.6579 116.956 74.5412C116.271 74.0775 115.896 73.0837 116.139 72.3107C116.382 71.5157 117.044 70.8974 117.773 70.522C118.502 70.1244 119.319 69.9257 120.136 69.749C121.086 69.5282 121.903 69.1748 122.83 68.9319C123.758 68.689 124.752 68.1369 124.972 67.1873C125.105 66.591 124.906 65.9506 124.531 65.4427C124.177 64.9347 123.67 64.5593 123.184 64.1839C119.65 61.4896 115.94 58.9942 112.164 56.6312C111.7 56.3441 111.236 56.057 110.927 55.5933C110.64 55.1516 110.574 54.4891 110.949 54.0916C111.214 53.8045 111.678 53.7161 112.075 53.7824C112.473 53.8486 112.826 54.0474 113.18 54.2461L122.477 59.2813C122.985 59.5684 123.625 59.1708 123.581 58.5746C123.537 58.1108 123.228 57.7133 122.919 57.36C120.6 54.5995 118.458 51.6623 116.514 48.6148C116.227 48.1731 115.962 47.7093 115.896 47.1793C115.83 46.6493 116.051 46.0751 116.514 45.8543C116.912 45.6776 117.376 45.788 117.729 46.0309C118.082 46.2739 118.347 46.6272 118.59 46.9585C120.71 49.8073 123.802 53.4953 126.275 56.0349C126.474 56.2337 126.783 56.0128 126.673 55.7478L121.726 46.583C121.572 46.2959 121.505 45.9647 121.527 45.6334C121.616 44.6617 122.477 44.5513 123.051 44.8605C123.427 45.0592 123.692 45.3684 123.957 45.6997C126.143 48.4823 127.556 51.9494 130.074 54.3566C130.383 54.6657 130.891 54.3786 130.825 53.937L129.478 46.9143C129.411 46.583 129.433 46.2518 129.588 45.9647C130.052 44.9709 131.134 45.3243 131.576 45.9868C131.907 46.4947 131.973 47.113 132.061 47.7093C132.503 50.6906 133.828 53.4732 135.308 56.1012C136.809 58.7292 137.781 61.7105 139.791 63.963C144.715 69.484 177.554 87.4382 184.731 90.6845C181.441 93.0254 178.923 95.8301 177.952 99.6947Z" fill="url(#paint1_linear_1761:2009)"/>
<path d="M145.532 20.2818C140.784 22.9318 121.77 33.4658 116.735 35.5417C114.814 36.3367 112.804 37.1538 111.479 38.7439C110.154 40.3118 109.668 42.454 108.542 44.1765C107.504 45.7886 105.914 47.0253 105.053 48.7258C104.213 50.3821 104.169 52.3255 104.125 54.1805C103.374 54.5339 102.336 54.3793 101.784 53.7609C101.232 53.1426 101.011 52.2813 101.055 51.4421C101.078 50.6029 101.32 49.8079 101.563 49.0129C101.85 48.0854 101.939 47.202 102.204 46.2524C102.447 45.3249 102.469 44.1986 101.762 43.5361C101.32 43.1165 100.658 42.984 100.04 43.0502C99.4212 43.1165 98.847 43.3373 98.2729 43.5802C94.1653 45.3028 90.146 47.2462 86.2371 49.3441C85.7513 49.6091 85.2655 49.8521 84.7354 49.8962C84.2054 49.9183 83.6092 49.6533 83.4325 49.1233C83.3221 48.7479 83.4546 48.3062 83.7196 47.997C83.9846 47.6879 84.3158 47.467 84.6692 47.2683L93.6794 41.7473C94.1873 41.4381 94.1432 40.7093 93.6132 40.4443C93.1936 40.2456 92.7077 40.3339 92.244 40.4002C88.6885 41.0406 85.0888 41.416 81.467 41.5706C80.937 41.5927 80.407 41.5927 79.9212 41.3939C79.4353 41.1952 79.0378 40.7093 79.082 40.1793C79.1261 39.7597 79.4574 39.4064 79.8328 39.2297C80.2082 39.0531 80.6499 38.9868 81.0695 38.9426C84.6029 38.523 89.3289 37.7059 92.774 36.8226C93.039 36.7563 92.9948 36.3588 92.7298 36.3588L82.3283 36.0497C81.997 36.0276 81.6879 35.9392 81.4229 35.7626C80.6278 35.2105 80.9591 34.4154 81.5112 34.0621C81.8645 33.8413 82.2841 33.7529 82.7037 33.7088C86.2151 33.2229 89.9252 33.7308 93.2819 32.7371C93.7015 32.6046 93.7015 32.0304 93.304 31.8758L86.5463 29.5349C86.2371 29.4245 85.9501 29.2478 85.7734 28.9607C85.133 28.0553 85.9942 27.3044 86.7892 27.2603C87.3855 27.2382 87.9597 27.4811 88.5118 27.7019C91.3164 28.8061 94.3861 29.0491 97.4116 29.0711C100.437 29.0932 103.507 29.7337 106.466 29.1153C113.709 27.6136 134.8 14.4737 141.182 9.90234C141.491 13.9216 142.661 17.4992 145.532 20.2818Z" fill="url(#paint2_linear_1761:2009)"/>
<path d="M71.4405 2.30415C71.3521 7.75886 70.9767 29.4673 70.27 34.8779C70.005 36.9317 69.6958 39.0738 70.4025 41.0393C71.1092 42.9826 72.6993 44.4623 73.6489 46.2952C74.5101 47.9957 74.7972 49.9832 75.8573 51.5954C76.8731 53.1412 78.5294 54.1571 80.1194 55.1067C80.0532 55.9238 79.3907 56.763 78.5956 56.9397C77.7785 57.1163 76.9394 56.8513 76.2327 56.4317C75.526 55.99 74.9518 55.3938 74.3776 54.7754C73.7151 54.0687 72.9863 53.5387 72.3238 52.8541C71.6392 52.1695 70.6675 51.5954 69.74 51.8824C69.1437 52.0591 68.7021 52.567 68.4592 53.1191C68.2162 53.6712 68.1279 54.3117 68.0396 54.9079C67.4654 59.3247 67.1562 63.7636 67.0237 68.2245C67.0016 68.7545 66.9795 69.3287 66.7366 69.8145C66.4937 70.3004 65.9637 70.6758 65.4337 70.5654C65.0361 70.4771 64.7491 70.1237 64.6166 69.7483C64.4841 69.3729 64.462 68.9533 64.462 68.5558L64.1749 57.9776C64.1528 57.4034 63.5124 57.0501 63.0265 57.3813C62.629 57.6463 62.4744 58.1101 62.2978 58.5518C61.0611 61.9527 59.6035 65.2653 57.9251 68.4674C57.6822 68.9312 57.4172 69.417 56.9976 69.7262C56.578 70.0354 55.9597 70.1458 55.5401 69.8587C55.1867 69.6158 55.0542 69.152 55.0984 68.7324C55.1205 68.3128 55.2972 67.9153 55.4738 67.5178C56.8872 64.2494 58.5214 59.7443 59.4931 56.3213C59.5593 56.0563 59.206 55.9017 59.0514 56.1226L53.5746 64.9782C53.3979 65.2432 53.155 65.4861 52.8679 65.6186C51.9846 66.0382 51.4546 65.3536 51.4325 64.6911C51.4104 64.2715 51.565 63.874 51.7196 63.4765C53.0446 60.186 55.3413 57.2267 56.1584 53.8479C56.2689 53.4283 55.7609 53.1191 55.4297 53.4062L50.0191 58.088C49.7762 58.3089 49.467 58.4414 49.1358 58.4855C48.0316 58.5959 47.8107 57.4697 48.1641 56.763C48.4291 56.233 48.937 55.8575 49.4229 55.4821C51.7858 53.605 53.5305 51.0653 55.0542 48.4594C56.578 45.8535 58.676 43.5127 59.6035 40.6418C61.8782 33.6191 61.0611 8.77472 60.2881 0.957031C63.9099 2.61332 67.5979 3.40834 71.4405 2.30415Z" fill="url(#paint3_linear_1761:2009)"/>
<path d="M6.75767 48.5273C11.4394 51.332 42.1139 71.4946 46.4424 74.8072C48.0987 76.0659 49.7991 77.391 51.8309 77.7664C53.8626 78.1418 55.9385 77.4793 58.0143 77.5897C59.9356 77.7001 61.7907 78.451 63.712 78.3185C65.567 78.2081 67.2675 77.2806 68.8796 76.3972C69.5642 76.861 69.9396 77.8547 69.6967 78.6277C69.4538 79.4227 68.7913 80.041 68.0625 80.4165C67.3337 80.814 66.5166 81.0127 65.6995 81.1894C64.7499 81.4102 63.9328 81.7636 63.0053 82.0065C62.0778 82.2494 61.084 82.8015 60.8632 83.7511C60.7307 84.3474 60.9294 84.9878 61.3048 85.4957C61.6582 86.0037 62.1661 86.3791 62.652 86.7545C66.1854 89.4488 69.8955 91.9442 73.6718 94.3072C74.1356 94.5943 74.5993 94.8814 74.9085 95.3452C75.1956 95.7868 75.2618 96.4494 74.8864 96.8469C74.6214 97.134 74.1576 97.2223 73.7601 97.156C73.3626 97.0898 73.0093 96.891 72.6559 96.6923L63.3807 91.6572C62.8728 91.3701 62.2324 91.7676 62.2765 92.3638C62.3207 92.8276 62.6299 93.2251 62.939 93.5784C65.2579 96.3389 67.4 99.2761 69.3434 102.324C69.6305 102.765 69.8955 103.229 69.9617 103.759C70.028 104.289 69.8071 104.863 69.3434 105.084C68.9459 105.261 68.4821 105.15 68.1288 104.907C67.7754 104.665 67.5104 104.311 67.2675 103.98C65.1474 101.131 62.0557 97.4431 59.5823 94.9035C59.3835 94.7047 59.0744 94.9256 59.1848 95.1906L64.1316 104.355C64.2862 104.642 64.3524 104.974 64.3303 105.305C64.242 106.277 63.3807 106.387 62.8065 106.078C62.4311 105.879 62.1661 105.57 61.9011 105.239C59.7148 102.456 58.3014 98.989 55.7839 96.5819C55.4747 96.2727 54.9668 96.5598 55.033 97.0014L56.3801 104.024C56.4464 104.355 56.4243 104.687 56.2697 104.974C55.806 105.968 54.7238 105.614 54.2822 104.952C53.9509 104.444 53.8847 103.825 53.7963 103.229C53.3546 100.248 52.0296 97.4652 50.55 94.8372C49.0483 92.2092 48.0766 89.2279 46.067 86.9754C41.1643 81.4323 7.15518 60.7397 0 57.4934C3.24633 55.1967 5.76389 52.392 6.75767 48.5273Z" fill="url(#paint4_linear_1761:2009)"/>
<path d="M40.3047 130.655C45.0527 128.005 64.0669 117.471 69.1021 115.395C71.0234 114.6 73.033 113.783 74.358 112.193C75.6831 110.625 76.1689 108.483 77.2952 106.761C78.3331 105.148 79.9232 103.912 80.7844 102.211C81.6236 100.555 81.6678 98.6116 81.712 96.7566C82.4628 96.4032 83.5007 96.5578 84.0528 97.1762C84.6049 97.7945 84.8258 98.6558 84.7816 99.495C84.7595 100.334 84.5166 101.129 84.2737 101.924C83.9866 102.852 83.8983 103.735 83.6333 104.685C83.3903 105.612 83.3682 106.738 84.0749 107.401C84.5166 107.821 85.1791 107.953 85.7975 107.887C86.4158 107.821 86.99 107.6 87.5642 107.357C91.6718 105.634 95.691 103.691 99.5999 101.593C100.086 101.328 100.572 101.085 101.102 101.041C101.632 101.019 102.228 101.284 102.405 101.814C102.515 102.189 102.382 102.631 102.117 102.94C101.852 103.249 101.521 103.47 101.168 103.669L92.1576 109.19C91.6497 109.499 91.6939 110.228 92.2239 110.493C92.6435 110.691 93.1293 110.603 93.5931 110.537C97.1486 109.896 100.748 109.521 104.37 109.366C104.9 109.344 105.43 109.344 105.916 109.543C106.402 109.742 106.799 110.228 106.755 110.758C106.711 111.177 106.38 111.531 106.004 111.707C105.629 111.884 105.187 111.95 104.768 111.994C101.234 112.414 96.5081 113.231 93.0631 114.114C92.7981 114.181 92.8422 114.578 93.1072 114.578L103.509 114.887C103.84 114.91 104.149 114.998 104.414 115.175C105.209 115.727 104.878 116.522 104.326 116.875C103.972 117.096 103.553 117.184 103.133 117.228C99.622 117.714 95.9119 117.206 92.5551 118.2C92.1355 118.333 92.1355 118.907 92.5331 119.061L99.2907 121.402C99.5999 121.513 99.887 121.689 100.064 121.976C100.704 122.882 99.8428 123.633 99.0478 123.677C98.4515 123.699 97.8774 123.456 97.3253 123.235C94.5206 122.131 91.4509 121.888 88.4254 121.866C85.4 121.844 82.3303 121.203 79.3711 121.822C72.1276 123.323 51.0374 136.463 44.6552 141.035C44.346 137.015 43.1756 133.438 40.3047 130.655Z" fill="url(#paint5_linear_1761:2009)"/>
</g>
<defs>
<linearGradient id="paint0_linear_1761:2009" x1="119.823" y1="142.204" x2="122.868" y2="69.1299" gradientUnits="userSpaceOnUse">
<stop stop-color="white" stop-opacity="0"/>
<stop offset="1" stop-color="white"/>
</linearGradient>
<linearGradient id="paint1_linear_1761:2009" x1="181.646" y1="95.2711" x2="116.437" y2="55.4356" gradientUnits="userSpaceOnUse">
<stop offset="0.0421705" stop-color="white" stop-opacity="0"/>
<stop offset="1" stop-color="white"/>
</linearGradient>
<linearGradient id="paint2_linear_1761:2009" x1="145.209" y1="15.4734" x2="85.5829" y2="45.6672" gradientUnits="userSpaceOnUse">
<stop offset="0.0880895" stop-color="white" stop-opacity="0"/>
<stop offset="1" stop-color="white"/>
</linearGradient>
<linearGradient id="paint3_linear_1761:2009" x1="67.6402" y1="1.83992" x2="63.3268" y2="66.7946" gradientUnits="userSpaceOnUse">
<stop stop-color="white" stop-opacity="0"/>
<stop offset="1" stop-color="white"/>
</linearGradient>
<linearGradient id="paint4_linear_1761:2009" x1="3.78359" y1="51.0807" x2="70.7681" y2="97.0056" gradientUnits="userSpaceOnUse">
<stop offset="0.1018" stop-color="white" stop-opacity="0"/>
<stop offset="1" stop-color="white"/>
</linearGradient>
<linearGradient id="paint5_linear_1761:2009" x1="45.7825" y1="133.343" x2="96.7821" y2="106.955" gradientUnits="userSpaceOnUse">
<stop stop-color="white" stop-opacity="0"/>
<stop offset="1" stop-color="white"/>
</linearGradient>
</defs>
</svg>
